<svg width="30" height="30" viewBox="0 0 30 30" fill="none" xmlns="http://www.w3.org/2000/svg">
<path d="M15.5 14.8667C16.6603 14.8667 17.7731 14.3996 18.5936 13.5682C19.4141 12.7368 19.875 11.6091 19.875 10.4333C19.875 9.25754 19.4141 8.1299 18.5936 7.29849C17.7731 6.46708 16.6603 6 15.5 6C14.3397 6 13.2269 6.46708 12.4064 7.29849C11.5859 8.1299 11.125 9.25754 11.125 10.4333C11.125 11.6091 11.5859 12.7368 12.4064 13.5682C13.2269 14.3996 14.3397 14.8667 15.5 14.8667ZM10.1875 17.4C9.60734 17.4 9.05094 17.6335 8.6407 18.0492C8.23047 18.465 8 19.0288 8 19.6167V19.9333C8 21.4489 8.95187 22.7308 10.3031 23.6022C11.6619 24.4788 13.5013 25 15.5 25C17.4987 25 19.3375 24.4788 20.6969 23.6022C22.0481 22.7308 23 21.4489 23 19.9333V19.6167C23 19.0288 22.7695 18.465 22.3593 18.0492C21.9491 17.6335 21.3927 17.4 20.8125 17.4H10.1875Z" stroke="#08071A" stroke-width="1.2"/>
</svg>
