<svg width="30" height="30" viewBox="0 0 30 30" fill="none" xmlns="http://www.w3.org/2000/svg">
<path d="M4.00049 7.01173H7.34126L10.3318 20.5773C10.3831 20.8093 10.5883 20.9743 10.8256 20.9743H22.0702C22.3495 20.9743 22.5761 20.7477 22.5761 20.4685C22.5761 20.1892 22.3495 19.9626 22.0702 19.9626H11.232L8.24147 6.39702C8.19017 6.16505 7.98496 6 7.74764 6H4.00049" fill="#B22828"/>
<path d="M12.732 18.5854H22.3345C22.5884 18.5854 22.8029 18.3971 22.8359 18.1451L23.9958 9.29019C24.0145 9.14566 23.9703 9.00023 23.8744 8.89094C23.7785 8.78165 23.6398 8.71875 23.4944 8.71875H10.9592C10.68 8.71875 10.4534 8.94536 10.4534 9.22462C10.4534 9.50387 10.68 9.73048 10.9592 9.73048H22.918L21.8907 17.5736H12.732C12.4527 17.5736 12.2261 17.8003 12.2261 18.0795C12.2261 18.3588 12.4527 18.5854 12.732 18.5854Z" fill="#B22828"/>
<path d="M22.8848 23.4134C22.8848 22.4704 22.1175 21.7031 21.1745 21.7031C20.2314 21.7031 19.4641 22.4704 19.4641 23.4134" fill="#B22828"/>
<path d="M12.9805 23.4134C12.9805 22.4704 12.2132 21.7031 11.2702 21.7031C10.3271 21.7031 9.55981 22.4704 9.55981 23.4134" fill="#B22828"/>
<path d="M16.9823 16.4235C17.2616 16.4235 17.4882 16.1969 17.4882 15.9176V11.4121C17.4882 11.1329 17.2616 10.9062 16.9823 10.9062C16.7031 10.9062 16.4764 11.1329 16.4764 11.4121V15.9176C16.4764 16.1969 16.7031 16.4235 16.9823 16.4235Z" fill="#B22828"/>
<path d="M20.1941 15.8667C20.4524 15.8667 20.6732 15.6695 20.6973 15.4072L21.0096 12.0169C21.035 11.7386 20.8303 11.4923 20.5523 11.4669C20.274 11.4419 20.0277 11.6462 20.0023 11.9242L19.6901 15.3144C19.6646 15.5928 19.8694 15.839 20.1473 15.8645C20.1629 15.8658 20.1785 15.8667 20.1941 15.8667Z" fill="#B22828"/>
<path d="M13.7242 15.8668C13.7398 15.8668 13.7554 15.8659 13.771 15.8645C14.0494 15.8391 14.2541 15.5924 14.2283 15.3145L13.916 11.9242C13.8906 11.6459 13.6443 11.4416 13.366 11.467C13.0876 11.4924 12.8829 11.7391 12.9087 12.017L13.221 15.4073C13.2451 15.6696 13.4659 15.8668 13.7242 15.8668Z" fill="#B22828"/>
</svg>
