<svg width="18" height="18" viewBox="0 0 18 18" fill="none" xmlns="http://www.w3.org/2000/svg">
<path fill-rule="evenodd" clip-rule="evenodd" d="M11.75 2C12.7446 2 13.6984 2.39509 14.4017 3.09835C15.1049 3.80161 15.5 4.75544 15.5 5.75V11.75C15.5 12.7446 15.1049 13.6984 14.4017 14.4017C13.6984 15.1049 12.7446 15.5 11.75 15.5H5.75C4.75544 15.5 3.80161 15.1049 3.09835 14.4017C2.39509 13.6984 2 12.7446 2 11.75V5.75C2 4.75544 2.39509 3.80161 3.09835 3.09835C3.80161 2.39509 4.75544 2 5.75 2H11.75ZM11.75 3.5H5.75C5.15326 3.5 4.58097 3.73705 4.15901 4.15901C3.73705 4.58097 3.5 5.15326 3.5 5.75V11.75C3.5 12.3467 3.73705 12.919 4.15901 13.341C4.58097 13.7629 5.15326 14 5.75 14H11.75C12.3467 14 12.919 13.7629 13.341 13.341C13.7629 12.919 14 12.3467 14 11.75V5.75C14 5.15326 13.7629 4.58097 13.341 4.15901C12.919 3.73705 12.3467 3.5 11.75 3.5ZM8.75 5.75C9.54565 5.75 10.3087 6.06607 10.8713 6.62868C11.4339 7.19129 11.75 7.95435 11.75 8.75C11.75 9.54565 11.4339 10.3087 10.8713 10.8713C10.3087 11.4339 9.54565 11.75 8.75 11.75C7.95435 11.75 7.19129 11.4339 6.62868 10.8713C6.06607 10.3087 5.75 9.54565 5.75 8.75C5.75 7.95435 6.06607 7.19129 6.62868 6.62868C7.19129 6.06607 7.95435 5.75 8.75 5.75ZM8.75 7.25C8.35218 7.25 7.97064 7.40804 7.68934 7.68934C7.40804 7.97064 7.25 8.35218 7.25 8.75C7.25 9.14782 7.40804 9.52936 7.68934 9.81066C7.97064 10.092 8.35218 10.25 8.75 10.25C9.14782 10.25 9.52936 10.092 9.81066 9.81066C10.092 9.52936 10.25 9.14782 10.25 8.75C10.25 8.35218 10.092 7.97064 9.81066 7.68934C9.52936 7.40804 9.14782 7.25 8.75 7.25ZM12.125 4.625C12.3239 4.625 12.5147 4.70402 12.6553 4.84467C12.796 4.98532 12.875 5.17609 12.875 5.375C12.875 5.57391 12.796 5.76468 12.6553 5.90533C12.5147 6.04598 12.3239 6.125 12.125 6.125C11.9261 6.125 11.7353 6.04598 11.5947 5.90533C11.454 5.76468 11.375 5.57391 11.375 5.375C11.375 5.17609 11.454 4.98532 11.5947 4.84467C11.7353 4.70402 11.9261 4.625 12.125 4.625Z" fill="white"/>
</svg>
