<svg width="100" height="40" viewBox="0 0 100 40" fill="none" xmlns="http://www.w3.org/2000/svg">
<g clip-path="url(#clip0_673_2451)">
<path d="M19.67 24.24H26.72V27H16.25V6.15H19.67V24.24ZM36.7501 27.27C35.1901 27.27 33.7801 26.92 32.5201 26.22C31.2601 25.5 30.2701 24.5 29.5501 23.22C28.8301 21.92 28.4701 20.42 28.4701 18.72C28.4701 17.04 28.8401 15.55 29.5801 14.25C30.3201 12.95 31.3301 11.95 32.6101 11.25C33.8901 10.55 35.3201 10.2 36.9001 10.2C38.4801 10.2 39.9101 10.55 41.1901 11.25C42.4701 11.95 43.4801 12.95 44.2201 14.25C44.9601 15.55 45.3301 17.04 45.3301 18.72C45.3301 20.4 44.9501 21.89 44.1901 23.19C43.4301 24.49 42.3901 25.5 41.0701 26.22C39.7701 26.92 38.3301 27.27 36.7501 27.27ZM36.7501 24.3C37.6301 24.3 38.4501 24.09 39.2101 23.67C39.9901 23.25 40.6201 22.62 41.1001 21.78C41.5801 20.94 41.8201 19.92 41.8201 18.72C41.8201 17.52 41.5901 16.51 41.1301 15.69C40.6701 14.85 40.0601 14.22 39.3001 13.8C38.5401 13.38 37.7201 13.17 36.8401 13.17C35.9601 13.17 35.1401 13.38 34.3801 13.8C33.6401 14.22 33.0501 14.85 32.6101 15.69C32.1701 16.51 31.9501 17.52 31.9501 18.72C31.9501 20.5 32.4001 21.88 33.3001 22.86C34.2201 23.82 35.3701 24.3 36.7501 24.3ZM55.3709 10.2C56.6509 10.2 57.7809 10.46 58.7609 10.98C59.7609 11.48 60.5409 12.11 61.1009 12.87V10.47H64.5509V27.27C64.5509 28.79 64.2309 30.14 63.5909 31.32C62.9509 32.52 62.0209 33.46 60.8009 34.14C59.6009 34.82 58.1609 35.16 56.4809 35.16C54.2409 35.16 52.3809 34.63 50.9009 33.57C49.4209 32.53 48.5809 31.11 48.3809 29.31H51.7709C52.0309 30.17 52.5809 30.86 53.4209 31.38C54.2809 31.92 55.3009 32.19 56.4809 32.19C57.8609 32.19 58.9709 31.77 59.8109 30.93C60.6709 30.09 61.1009 28.87 61.1009 27.27V24.51C60.5209 25.29 59.7309 25.95 58.7309 26.49C57.7509 27.01 56.6309 27.27 55.3709 27.27C53.9309 27.27 52.6109 26.91 51.4109 26.19C50.2309 25.45 49.2909 24.43 48.5909 23.13C47.9109 21.81 47.5709 20.32 47.5709 18.66C47.5709 17 47.9109 15.53 48.5909 14.25C49.2909 12.97 50.2309 11.98 51.4109 11.28C52.6109 10.56 53.9309 10.2 55.3709 10.2ZM61.1009 18.72C61.1009 17.58 60.8609 16.59 60.3809 15.75C59.9209 14.91 59.3109 14.27 58.5509 13.83C57.7909 13.39 56.9709 13.17 56.0909 13.17C55.2109 13.17 54.3909 13.39 53.6309 13.83C52.8709 14.25 52.2509 14.88 51.7709 15.72C51.3109 16.54 51.0809 17.52 51.0809 18.66C51.0809 19.8 51.3109 20.8 51.7709 21.66C52.2509 22.52 52.8709 23.18 53.6309 23.64C54.4109 24.08 55.2309 24.3 56.0909 24.3C56.9709 24.3 57.7909 24.08 58.5509 23.64C59.3109 23.2 59.9209 22.56 60.3809 21.72C60.8609 20.86 61.1009 19.86 61.1009 18.72ZM76.213 27.27C74.653 27.27 73.243 26.92 71.983 26.22C70.723 25.5 69.733 24.5 69.013 23.22C68.293 21.92 67.933 20.42 67.933 18.72C67.933 17.04 68.303 15.55 69.043 14.25C69.783 12.95 70.793 11.95 72.073 11.25C73.353 10.55 74.783 10.2 76.363 10.2C77.943 10.2 79.373 10.55 80.653 11.25C81.933 11.95 82.943 12.95 83.683 14.25C84.423 15.55 84.793 17.04 84.793 18.72C84.793 20.4 84.413 21.89 83.653 23.19C82.893 24.49 81.853 25.5 80.533 26.22C79.233 26.92 77.793 27.27 76.213 27.27ZM76.213 24.3C77.093 24.3 77.913 24.09 78.673 23.67C79.453 23.25 80.083 22.62 80.563 21.78C81.043 20.94 81.283 19.92 81.283 18.72C81.283 17.52 81.053 16.51 80.593 15.69C80.133 14.85 79.523 14.22 78.763 13.8C78.003 13.38 77.183 13.17 76.303 13.17C75.423 13.17 74.603 13.38 73.843 13.8C73.103 14.22 72.513 14.85 72.073 15.69C71.633 16.51 71.413 17.52 71.413 18.72C71.413 20.5 71.863 21.88 72.763 22.86C73.683 23.82 74.833 24.3 76.213 24.3Z" fill="#2C2C2C"/>
</g>
<defs>
<clipPath id="clip0_673_2451">
<rect width="100" height="40" fill="white"/>
</clipPath>
</defs>
</svg>
