<svg width="397" height="123" viewBox="0 0 397 123" fill="none" xmlns="http://www.w3.org/2000/svg">
<g clip-path="url(#clip0_1041_203)">
<path d="M395.7 40.7401C392.42 41.7201 388.46 47.5101 385.65 48.8101C385.47 48.5901 385.78 43.1701 385.79 43.2901C386.01 36.1401 387.38 27.5401 387.49 20.3501C384.88 12.1101 379.52 6.03006 372.34 1.94006C371.25 2.17006 370.22 0.23006 369.37 0.52006C368.8 0.80006 368.24 0.94006 367.95 0.66006C364.27 -0.99994 358.29 4.48006 356.62 7.31006C353 14.1101 349.09 22.7701 347.7 30.3901C347.56 30.8101 348.27 31.1001 348.69 30.8101C351.18 29.5701 350.5 35.0801 354.07 32.0801C354.21 31.8001 354.64 31.6601 355.2 31.5101C360.14 31.2501 358.27 26.3801 360.58 23.5801C361.25 22.7901 362.15 20.2501 363.27 20.3201C363.42 20.3601 365.77 19.3701 365.82 19.7501C366.26 19.8501 366.25 17.8901 366.95 18.3301C368.96 24.7801 369.84 31.8201 367.8 38.5801C367.27 40.9801 367.93 44.8101 368.79 47.3601C368.75 50.1201 368.97 64.0801 368.37 63.2201C364.19 67.7701 358.12 71.0401 353.36 74.9701C351.85 75.6201 351.13 77.8101 350.53 75.5401C348.59 71.5401 349.72 69.9401 353.5 66.4801C357.8 62.9601 357.01 60.5401 360.15 57.9801C360.57 57.8401 361 57.9801 361.42 58.4101C362.46 59.0301 364.03 57.2601 364.39 56.2901C364.59 56.4001 364.96 56.6801 365.1 56.8601C365.64 56.3301 365.87 54.5701 366.8 54.7401C367.52 54.9201 368.22 54.0301 368.07 53.7501C368.03 53.5401 367.53 53.0201 367.93 52.9001C368.07 52.9001 368.07 52.6201 367.79 51.6301C367.39 50.7801 368.47 51.1401 368.21 50.2101C368.13 49.6701 367.6 49.5301 367.64 48.7901C367.66 46.6701 365.57 45.8901 363.96 44.2601C360.97 41.3101 352.83 36.6801 349.66 41.2901C349.48 42.1801 349.27 41.9401 348.53 42.2801C345.7 46.3301 343.54 43.1001 348.25 47.6601C348.12 48.2601 342.26 53.7401 339.9 55.7301C340.69 50.3801 341.28 47.5901 342.31 41.4301C342.5 36.5501 348.07 29.9201 347.55 24.1601C346.35 13.2201 329.3 6.81006 323.48 18.0701C320.66 22.5801 318.19 27.7901 316.68 31.8001C317.85 37.1701 324.89 28.8301 327.02 27.4101C333 21.1901 335.02 27.8101 334.1 33.6401C334 38.8101 333.38 56.8301 333.25 62.6601C331.63 63.1501 325.92 69.6101 325.04 68.0401C324.95 67.7501 324.85 67.8901 324.76 68.4601C324.57 69.4101 324.38 69.7801 324.19 69.5901C323.84 69.2201 323.82 70.0101 323.48 70.0101C322.4 72.2701 319.04 74.8001 316.83 76.2401C313.97 77.8601 311.59 81.5901 309.19 83.1801C309.05 82.9001 309.19 82.9001 308.77 83.3201C308.19 83.8201 306.38 85.6001 305.66 85.8701C304.77 86.2101 306.06 86.8101 305.52 86.8601C305.14 86.6801 304.96 87.7101 304.81 87.7101C304.39 87.8901 304.68 88.3701 304.1 88.5601C302.74 88.7401 303.92 90.7401 302.97 91.2501C302.31 91.3901 302.68 92.6101 302.4 92.6701C301.01 93.7301 304.83 98.4101 305.8 99.4701C308.94 102.7 309.76 96.4701 313.73 96.5001C317.47 102.12 321.69 107.56 326.33 112.78C328.93 116.44 331.9 119.57 335.96 116.46C338.28 116.15 343.97 110.04 342.19 107.54C341.91 106.55 341.76 105.98 341.76 101.45C341.62 93.1001 341.76 92.5301 341.48 91.8201C340.55 88.9201 341.76 91.1801 344.03 94.0901C345.23 94.1901 347.64 94.2601 348.84 94.2301C349.75 94.9601 350.76 95.3801 351.81 95.2201C354.18 100.73 358.57 105.36 362.43 109.66C363.39 112.85 364.04 115.35 367.1 116.31C368.12 117.57 367.8 119.03 370.36 119.57C371.43 119.86 372.52 121.69 373.47 120.28C376.35 125.63 380.07 118.16 382.39 115.75C383.46 114.88 384.39 111.21 384.37 110.09C384.68 107.41 385.65 106.15 385.5 102.73C385.19 97.8901 384.38 96.6501 384.09 92.1101C383.29 89.4701 384.24 76.7201 384.09 73.8501C383.47 69.9801 384.09 67.4001 384.66 64.2201C384.42 64.2301 388.72 59.6101 387.63 59.9701C387.49 59.9701 386.04 61.4701 385.51 60.3901C386.01 59.3201 386.92 57.8001 386.78 56.8501C386.61 56.9601 386.13 57.6801 386.21 57.1301C386.83 51.3501 391.88 44.9201 396.55 40.9901C397.23 40.0201 396.66 40.1401 395.7 40.7101V40.7401ZM329.86 79.8201C330.17 79.2401 332.08 77.1101 332.41 77.1301C333.28 82.7001 333.3 92.8501 333.26 100.07C330.48 101.71 325.94 101.84 323.49 98.8001C322.25 97.0601 319.78 96.6901 319.38 94.5501C318.18 93.1801 323.34 87.7401 324.62 86.0501C324.9 85.8101 330.19 78.9701 329.72 80.5301C329.72 80.9501 329.58 80.9501 329.86 80.8101M346.29 73.1601C345.79 74.5701 346.71 73.0901 347 72.7401C346.89 73.0901 347.19 74.3601 347.14 74.4401C347.01 74.6401 346.25 74.8701 346.29 75.1501C346.29 75.4301 346.29 75.5701 346.15 75.4301C345.87 75.0101 345.16 76.0001 345.3 76.5601C345.44 76.8401 345.3 76.9801 345.02 77.1301C344.29 77.6201 343.95 78.7101 344.03 79.6801C342.68 76.6301 340.55 72.6201 339.92 69.4901C340.76 68.7101 342.78 66.5101 340.63 68.0701C341.64 64.3601 342.89 60.7801 345.3 57.7401C347.18 54.9001 347.75 51.1801 349.83 48.6801C356.32 54.6901 349.53 66.2101 346.29 73.1701V73.1601ZM368.09 96.9501C367.52 102.44 363.5 99.5501 360.73 98.0801C359.04 97.7301 357.39 97.1301 356.2 95.9601C356.44 94.8401 356.72 93.3901 357.62 92.7001C362.18 88.7701 364.51 84.1001 367.96 79.9601C367.96 81.0801 369 94.7201 368.1 96.9501H368.09Z" fill="black"/>
<path d="M314.03 76.97C314.89 76.58 317.92 73.51 318.91 73.37C320.49 73.36 327.99 65.8 325.84 64.92C324.49 64.29 327.29 59.95 327.98 61.04C328.44 60.82 329.97 57.22 330.4 56.9C331.34 54.85 334.27 55.09 334.21 52.69C334.09 46.27 331.02 37.96 323.06 39.7C321.79 39.75 319.83 44.2 318.59 46.07C318.42 46.23 317.46 47.42 317.82 47.54C317.96 47.54 318.09 47.54 317.8 47.95C317.06 48.91 318.08 52 318.37 52.8C318.62 53.23 318.76 53.23 319.19 52.84C320.69 52.45 322.86 52.57 324.35 51.74C326.12 54.27 324.52 58.03 323.45 60.78C322.74 64.3 317.06 57.93 315.23 57.31C312.76 56.03 309.44 52.94 307.26 51.79C303.57 50.25 299.91 48.52 304.84 45.6C306.37 46.3 308.55 43.5 308.29 42.89C308.16 42.75 307.81 41.62 308.09 41.5C308.52 41.36 309.05 39.84 309.18 39.08C307.41 36.32 305.13 34.88 303.2 32.42C307.11 28.24 312.91 19.46 318.88 19.89C319.5 18.97 319.31 20.44 319.85 19.8C320.37 19.14 320.22 21.06 321.07 20.14C326.43 18.65 325.63 13.04 324.41 9.15997C323.01 6.58997 319.19 4.59997 317.18 2.70997C315.88 1.54997 314 0.0199707 312.23 -0.0300293C304.98 0.459971 300.01 5.72997 293.91 10.29C277.28 26.35 286.37 2.11997 272.23 21.53C270.35 23.2 269.53 27.53 270.97 29.59C271.62 30.53 271.86 31.65 272.59 32.71C274.45 36.5 278.83 38.52 282.41 39.71C283.24 40.49 283.11 38.89 283.65 39.64C283.69 40.37 284.67 39.11 284.75 39.7C284.95 40.17 285.16 39.52 285.43 39.87C286.13 40.74 285.6 38.95 286.31 38.95C287.2 38.41 287.66 34.94 287.36 34.74C287.13 33.9 287.41 28.68 287.78 26.91C289.33 19.03 297.3 12.03 305.06 12.95C305.33 13.06 305.45 13.38 305.42 13.93C303.73 21.08 298.77 30.93 293.42 34.92C291.73 37.55 287.74 42.45 283.45 43.62C279.78 45.12 280.14 45.89 277.82 48.42C277.34 48.97 275.65 49.51 275.64 50.51C275.5 51.25 275.95 51.96 274.61 51.83C278.42 57.88 278.48 55.55 283.39 55.19C281.38 60.52 275.81 63.04 274.83 68.37C274.58 70.8 275.7 71.32 277.38 72.23C280 74.13 285.41 69.6 279.68 75.52C276.96 78.53 273.49 82.83 270.63 85.09C265.45 88.92 260.72 94.99 268.65 99.04C270.59 97.16 270.31 97.47 272.69 98.15C273.06 98.17 273.28 98.32 273.35 98.6C273.43 98.87 274.05 99.64 273.88 99.04C274.54 95.53 275.36 100.42 275.88 97.63C275.9 97.91 276.06 98.4 276.24 98.61C277.22 96.27 281.71 95.87 283.49 94.45C283.63 95.38 280.07 98.68 279.83 100.22C272.88 106.86 264.2 111.3 255.19 114.42C250.55 116.03 245.81 117.3 241.03 118.41C236.54 119.45 231.36 119.77 227.1 121.39C228.27 122.36 231.14 121.84 232.73 121.82C251.62 121.61 274.28 122.1 290.1 110.01C295.54 106.76 298.03 101.24 298.48 95.11C299.66 92.85 303.1 84.31 303.73 84.51C306.56 81.37 310.58 79.23 314.05 76.93L314.03 76.97ZM288.51 72.3C288.1 72.02 287.96 79.95 287.68 80.11C286.82 82.93 280.18 86.25 277.5 85.08C279.45 81.57 282.15 76.79 284.83 74.31C285.09 73.49 287.45 72.09 288.01 71.45C288.99 70.38 288.74 71.91 288.52 72.3H288.51ZM287.57 61.64C286.59 62 283.22 63.2 283.08 63.19C284.02 61.03 283.06 56.72 286.09 55.91C286.9 56.38 288.1 56.83 289.21 56.77C289.51 58.72 290.18 60.89 287.57 61.64ZM303.39 51.6C305.17 54.29 308.36 53.67 303.75 55.2C303.56 54.11 303.19 52.78 303.39 51.6ZM304.05 70.37C303.77 65.35 309.24 63.56 313.33 64.25C316.75 64.57 309.91 71.39 307.65 72.63C304.17 75.15 304.22 74.13 304.05 70.37Z" fill="black"/>
<path d="M90.93 52.26C89.62 50.96 87.44 51.02 86.2 52.26C85.56 52.9 85.23 53.7 85.23 54.59C85.23 55.48 85.58 56.23 86.24 56.88C86.9 57.54 87.72 57.89 88.61 57.89C89.5 57.89 90.3 57.55 90.94 56.92C91.58 56.29 91.91 55.48 91.91 54.59C91.91 53.7 91.57 52.9 90.94 52.26H90.93Z" fill="black"/>
<path d="M88.5299 62.28H88.5199C87.6141 62.28 86.8799 63.0143 86.8799 63.92V89.84C86.8799 90.7458 87.6141 91.48 88.5199 91.48H88.5299C89.4356 91.48 90.1699 90.7458 90.1699 89.84V63.92C90.1699 63.0143 89.4356 62.28 88.5299 62.28Z" fill="black"/>
<path d="M111.4 52.2599C110.33 51.1999 108.63 51.0299 107.41 51.6999L107.32 51.6099L106.67 52.2599L106.03 52.8999L106.12 52.9899C105.85 53.4699 105.71 54.0099 105.71 54.5799C105.71 55.4199 106.06 56.2199 106.71 56.8699C107.37 57.5299 108.19 57.8799 109.08 57.8799C109.97 57.8799 110.77 57.5399 111.41 56.9099C112.04 56.2699 112.38 55.4699 112.38 54.5799C112.38 53.6899 112.04 52.8899 111.41 52.2499H111.4V52.2599Z" fill="black"/>
<path d="M109.01 62.28H109C108.094 62.28 107.36 63.0143 107.36 63.92V89.84C107.36 90.7458 108.094 91.48 109 91.48H109.01C109.916 91.48 110.65 90.7458 110.65 89.84V63.92C110.65 63.0143 109.916 62.28 109.01 62.28Z" fill="black"/>
<path d="M149.89 91.48C150.68 91.48 151.32 90.84 151.32 90.05V70.77C151.21 68.13 150.31 65.95 148.62 64.29C146.93 62.63 144.68 61.78 141.93 61.78C139.18 61.78 136.43 62.53 134.12 64.02C133.78 64.24 133.45 64.47 133.14 64.72C132.19 65.46 130.82 64.87 130.78 63.67C130.76 62.9 130.12 62.28 129.35 62.28H129.28C128.49 62.28 127.85 62.92 127.85 63.71V90.04C127.85 90.83 128.49 91.47 129.28 91.47H129.7C130.49 91.47 131.13 90.83 131.13 90.04V74.71C131.13 72.83 131.63 71.13 132.61 69.65C133.6 68.15 134.92 66.96 136.54 66.12C138.16 65.28 139.93 64.85 141.76 64.85C143.75 64.94 145.24 65.52 146.31 66.63C147.39 67.75 147.96 69.18 148.04 70.95V90.05C148.04 90.84 148.68 91.48 149.47 91.48H149.89Z" fill="black"/>
<path d="M172.56 52.26C171.26 50.96 169.07 51.02 167.83 52.26C167.2 52.9 166.86 53.7 166.86 54.59C166.86 55.48 167.21 56.23 167.87 56.88C168.53 57.54 169.35 57.89 170.24 57.89C171.13 57.89 171.93 57.55 172.57 56.92C173.2 56.28 173.54 55.48 173.54 54.59C173.54 53.7 173.2 52.9 172.57 52.26H172.56Z" fill="black"/>
<path d="M170.16 62.28H170.15C169.244 62.28 168.51 63.0143 168.51 63.92V89.84C168.51 90.7458 169.244 91.48 170.15 91.48H170.16C171.066 91.48 171.8 90.7458 171.8 89.84V63.92C171.8 63.0143 171.066 62.28 170.16 62.28Z" fill="black"/>
<path d="M246.66 62.28C245.86 62.28 245.22 62.93 245.22 63.72V78.97C245.22 80.8 244.72 82.5 243.74 84C242.74 85.53 241.43 86.74 239.84 87.6C238.25 88.46 236.52 88.9 234.74 88.9C232.7 88.82 231.17 88.23 230.08 87.11C228.98 85.99 228.4 84.54 228.32 82.73V63.71C228.32 62.91 227.67 62.27 226.88 62.27H226.47C225.67 62.27 225.03 62.92 225.03 63.71V82.98C225.14 85.62 226.04 87.81 227.72 89.49C229.41 91.18 231.66 92.04 234.41 92.04C237.16 92.04 239.74 91.23 242.12 89.64C242.44 89.42 242.76 89.2 243.05 88.97C244.01 88.23 245.39 88.84 245.42 90.05C245.44 90.83 246.08 91.46 246.86 91.46H247.06C247.86 91.46 248.5 90.81 248.5 90.02V63.71C248.5 62.91 247.85 62.27 247.06 62.27H246.65H246.66V62.28Z" fill="black"/>
<path d="M199.87 72.6L208.41 64.64C209.08 64.01 209.06 62.94 208.36 62.35C207.77 61.85 206.89 61.87 206.33 62.4L194.86 73.09C193.88 74 192.28 73.31 192.28 71.97V49.79C192.28 48.94 191.59 48.26 190.75 48.26H190.53C189.68 48.26 189 48.95 189 49.79V89.94C189 90.79 189.69 91.47 190.53 91.47H190.75C191.6 91.47 192.28 90.78 192.28 89.94V80.32C192.28 79.9 192.45 79.5 192.76 79.21L195.19 76.92C195.86 76.29 196.93 76.38 197.47 77.13L207.58 90.86C207.87 91.25 208.33 91.48 208.81 91.48H211.98L199.67 74.62C199.21 73.99 199.3 73.12 199.86 72.6H199.87Z" fill="black"/>
<path d="M46.2401 48.4199C46.0601 48.4199 45.8201 48.5199 45.6401 48.5499C45.5601 48.5799 45.4601 48.5499 45.3801 48.5499C45.3501 48.5799 45.3501 48.5999 45.3501 48.6499V48.6999C45.3801 48.7999 45.3801 48.9299 45.3801 49.0399V49.2499C45.3801 49.5099 45.4601 49.7199 45.4801 49.9799C45.5101 50.0799 45.5301 50.1899 45.6401 50.1899C45.7201 50.1899 45.8001 50.1599 45.8501 50.1399C46.0601 50.0899 46.2401 50.0399 46.4501 50.0099C46.8401 49.9799 46.8901 49.8499 46.8901 49.6199V49.1999C46.8901 48.9699 46.8901 48.7299 46.8601 48.4899C46.6501 48.4599 46.4401 48.4099 46.2301 48.4099H46.2401V48.4199Z" fill="#B11F23"/>
<path d="M42.6599 44.7099C42.4999 44.6099 42.3699 44.5299 42.1899 44.5299L42.0599 44.3999L41.9799 44.4299C41.9299 44.5599 41.8199 44.6099 41.6899 44.6899C41.5599 44.8499 41.4299 44.9999 41.2999 45.1599C41.0599 45.5799 40.7199 45.9999 40.5199 46.3899C40.3599 46.6799 40.1799 46.9899 40.1499 47.3299C40.1999 47.3599 40.2299 47.3799 40.2799 47.4299C40.3599 47.4799 40.4599 47.6099 40.5899 47.6399C40.8299 47.6699 41.2199 47.7699 41.3699 47.7699C41.4999 47.7699 41.6799 47.9499 41.7599 48.0299C41.9699 48.3199 42.3599 48.7399 42.6199 49.0199C42.7199 49.1199 42.7999 49.2299 42.8299 49.3599C42.8299 49.4099 42.8599 49.5199 42.9099 49.5399C42.9399 49.5699 42.9899 49.5699 42.9599 49.5099L42.8299 46.7899L42.6499 44.6999H42.6599V44.7099Z" fill="#B11F23"/>
<path d="M45.66 44.7599C45.37 44.8599 45.08 44.9699 44.77 44.9399V44.99C45.01 45.28 45.01 45.6699 45.08 46.0099C44.98 46.2499 45 46.4299 45.13 46.6399C45.5 46.6399 45.86 46.5099 46.23 46.4599C46.46 46.4099 46.67 46.3799 46.88 46.2799C46.91 45.9899 46.91 45.6799 46.91 45.3699C46.91 45.0799 46.91 44.77 46.88 44.45C46.44 44.48 46.04 44.6099 45.65 44.7599H45.66Z" fill="#B11F23"/>
<path d="M22.6901 49.3099C22.6901 49.4099 22.6901 49.5499 22.6601 49.6499C22.7601 49.8299 22.8201 50.0199 22.8201 50.2499C22.8501 50.7699 22.9201 51.2699 23.0001 51.7899C23.0301 52.1299 23.0301 52.4399 23.0301 52.7799C23.0301 52.9099 23.0801 53.0399 23.1301 53.1699C23.7301 53.0699 24.3601 52.8599 24.9901 52.8599H25.2301C25.3601 52.8599 25.4701 52.8299 25.5701 52.8099C25.7301 52.2399 25.7301 51.6099 25.7801 51.0299L26.0901 46.9799L26.0601 46.6399L25.4101 46.6699C25.3601 46.7499 25.3101 46.7699 25.2301 46.7699C24.0801 46.9499 23.3501 47.1599 22.1401 47.2399V47.3199C22.3001 47.4499 22.3001 47.4999 22.3001 47.5299C22.4001 48.1599 22.6901 49.0199 22.6901 49.3099Z" fill="#B11F23"/>
<path d="M47.2301 71.33L45.1101 71.54C44.4801 71.59 43.9101 71.75 43.2801 71.96C42.8901 72.01 42.4401 72.04 42.0501 72.17C41.8701 72.22 41.6601 72.33 41.4701 72.33C41.1301 72.33 40.7901 72.3 40.4501 72.33C40.2901 72.88 40.2901 73.45 40.2401 74C40.2101 74.37 40.0601 74.71 40.0601 75.05C40.0601 75.08 40.0601 75.13 40.0901 75.15L40.1701 75.31L40.4801 75.34L42.8901 74.97L45.3501 74.63C45.6901 74.58 46.0801 74.6 46.4501 74.6C47.0501 74.57 46.8401 74.34 47.6801 74.44C47.9201 74.39 48.1201 74.36 48.3301 74.26C48.8501 74.1 48.7201 73.87 48.8801 73.29C48.9801 72.87 49.0101 72.48 49.0401 72.04C49.0901 71.73 49.1701 71.41 49.1701 71.1L49.1201 71.05L47.2401 71.34L47.2301 71.33Z" fill="#B11F23"/>
<path d="M50.74 47.92C50.45 47.97 50.19 47.97 50.01 48.23V48.31C49.98 48.52 49.96 48.73 49.96 48.96C49.96 49.27 50.01 49.54 50.22 49.54C50.27 49.54 50.35 49.51 50.43 49.46C50.69 49.43 50.95 49.46 51.24 49.46C51.29 49.46 51.34 49.43 51.4 49.41L51.48 48.94C51.45 48.73 51.48 48.52 51.53 48.31C51.56 48.13 51.58 47.94 51.58 47.73C51.34 47.73 51.14 47.81 50.9 47.89C50.85 47.92 50.8 47.92 50.74 47.92Z" fill="#B11F23"/>
<path d="M57.9502 32.97H3.84016C3.46016 32.97 3.16016 33.27 3.16016 33.65V87.76C3.16016 88.14 3.46016 88.44 3.84016 88.44H57.9502C58.3302 88.44 58.6302 88.14 58.6302 87.76V33.65C58.6302 33.27 58.3302 32.97 57.9502 32.97ZM36.3302 36.47L36.4102 36.34C36.7802 36.52 37.1402 36.76 37.5302 36.86C38.0502 37.04 38.6802 37.2 39.0702 37.2C39.1502 37.2 39.2302 37.2 39.2802 37.17L39.7802 37.14C39.9602 37.19 40.1502 37.32 40.3302 37.32H40.5102C40.5902 37.32 42.0802 38.21 42.2402 38.31C42.6102 38.57 42.5802 38.62 42.6802 39.04C42.7102 39.12 42.7302 39.2 42.7602 39.28C42.6602 39.41 42.6002 39.54 42.5502 39.7C42.4502 39.99 42.2402 40.04 41.9702 40.17C41.8702 40.25 41.7902 40.27 41.7302 40.27H41.5502C41.4702 40.24 41.3702 40.24 41.2902 40.24L41.2102 40.4L39.0702 40.24C38.6502 40.08 38.2102 40.03 37.8702 39.69C37.6602 39.61 36.8002 38.88 36.5902 38.57C36.5102 38.44 36.3302 37.71 36.3002 37.52C36.1202 37.28 36.0402 37.15 36.0402 37C36.0402 36.77 36.1202 36.56 36.3302 36.45V36.47ZM5.82016 54.67C6.08016 54.54 6.29016 54.41 6.53016 54.25C7.18016 53.94 7.37016 53.67 7.86016 53.18L9.04016 51.9C9.41016 51.51 9.82016 51.17 10.2202 50.83L11.5502 49.6C11.6502 49.52 13.1702 47.61 13.2502 47.48C12.7802 47.61 12.3102 47.74 11.8602 47.95C11.6502 48.05 11.4402 48.13 11.2302 48.32C11.1802 48.37 11.1002 48.4 11.0502 48.42C10.8702 48.45 10.7602 48.52 10.6102 48.63C10.5802 48.66 10.5602 48.66 10.5302 48.66C10.3202 48.66 9.46016 48.43 9.30016 48.32C8.93016 48.08 8.57016 47.88 8.20016 47.67C7.91016 47.49 7.65016 47.28 7.36016 47.09C7.20016 46.83 7.05016 46.62 6.89016 46.33C6.81016 46.15 6.63016 46.07 6.45016 45.99V45.83C6.58016 45.88 6.71016 45.91 6.87016 45.91C7.31016 45.91 7.78016 45.83 8.23016 45.81L10.4002 45.34L10.6902 45.26L13.2502 44.68L13.3002 44.58L13.1702 42.38L13.1402 42.2C13.0602 42.15 13.0102 42.12 12.9302 42.12C12.8002 42.12 12.6702 42.17 12.5402 42.2C12.0702 42.36 11.5702 42.23 11.1002 42.3C10.6002 42.35 10.1302 42.46 9.64016 42.46C9.20016 42.46 8.75016 42.38 8.31016 42.38C8.18016 42.38 8.07016 42.33 8.00016 42.2L8.81016 41.94L10.8802 40.89C11.1402 40.73 11.4002 40.6 11.7202 40.5L13.6302 39.56C13.7602 39.48 13.8902 39.38 14.0202 39.3C14.6502 38.86 14.6502 38.93 15.3302 38.36C15.6702 38.12 15.9802 37.92 16.2402 37.58C15.9302 37.35 15.4302 36.9 15.2702 36.53C15.4502 36.5 15.6402 36.43 15.8202 36.43C16.0602 36.43 16.3402 36.53 16.5802 36.59H17.3602C17.4602 36.59 17.6002 36.64 17.7002 36.69C17.9402 36.69 18.1202 36.74 18.3002 36.9C18.5602 37.11 18.6702 37.27 19.0602 37.58C19.3202 37.82 19.6102 38.03 19.9002 38.23C20.4002 38.62 20.4702 39.15 20.4702 39.72C20.5002 39.82 20.5502 39.93 20.5502 40.03C20.5502 40.26 20.2102 40.58 19.9702 40.66C19.6002 40.66 19.2402 40.69 18.8702 40.69H18.3502C17.6702 40.87 17.0402 41.06 16.3602 41.16C16.2002 41.21 16.0502 41.26 15.8902 41.34C15.6302 41.39 15.3902 41.5 15.1302 41.63C15.3402 41.76 15.8102 41.94 15.9702 42.13C16.1002 42.29 16.7302 42.91 16.7302 43.02V43.1C16.6802 43.31 16.6302 43.57 16.6302 43.81C16.6302 43.89 16.7102 43.91 16.7902 43.91C16.8902 43.91 16.9502 43.88 17.2302 43.75C17.2602 43.72 17.2802 43.72 17.3102 43.72C17.5702 43.72 17.9402 43.9 18.2002 44.09C18.3002 44.33 18.9102 44.77 19.1402 44.87C19.1902 44.92 19.2402 45 19.3002 45.08C19.4602 45.34 19.6902 45.55 20.0302 45.55C20.4202 45.55 20.9202 45.45 21.2902 45.37L24.2702 44.74C24.6902 44.69 25.0802 44.61 25.5002 44.51C25.5502 44.33 25.6302 44.27 25.8102 44.25L25.8902 43.8C26.0702 43.77 26.2602 43.7 26.4402 43.62L26.4102 43.52C26.9902 43.55 27.2702 43.73 27.7402 44.02C28.2102 44.23 28.6002 44.52 29.0002 44.8C29.2902 44.88 29.6002 44.96 29.8602 45.06C30.3302 45.27 30.7202 45.71 31.0602 46.08C31.1902 46.24 31.2202 46.81 31.2202 47.02C31.2202 47.12 31.1902 47.23 31.1402 47.36C31.1102 47.41 31.0602 47.57 31.0402 47.67C30.9902 47.72 30.2602 48.17 29.8902 48.27C29.8102 48.3 29.7602 48.37 29.7102 48.43L29.6102 48.77L29.1702 50.84C28.9102 51.55 28.8602 52.3 28.6202 53.01C29.0102 53.25 29.1202 53.46 29.3002 53.85C29.2202 54.09 29.1202 54.48 28.8802 54.63C28.5702 54.81 28.2502 55.1 27.8602 55.1C27.5502 55.1 27.2602 55.07 26.9702 55.07C26.2102 55.07 25.4502 55.12 24.7002 55.31C23.3402 55.62 23.6002 55.13 22.8402 56.2C22.6802 56.41 22.3202 56.51 22.0802 56.51C21.5602 56.51 21.2402 56.09 20.8802 55.62C20.0202 54.68 20.1702 54.76 20.0402 53.53C20.0402 53.45 20.0102 53.37 19.9902 53.29L20.0402 53.19L19.9902 51.46L19.7002 48.9C19.6002 47.91 19.4402 47.04 18.8102 46.23C18.6802 46.26 18.5502 46.31 18.4402 46.33C18.1302 46.36 17.0302 46.51 16.9202 46.51C16.7102 46.51 16.5002 46.61 16.2902 46.72C16.2102 47.11 16.1302 47.48 16.1602 47.9C16.5802 48.19 16.7902 48.27 17.2602 48.45C17.8602 48.66 18.4402 49.21 18.8302 49.73C18.9902 49.99 19.0102 50.41 19.0102 50.7C19.0102 50.8 18.9802 50.88 18.9802 50.96C18.9302 51.22 18.9302 51.46 18.7402 51.67C18.6102 51.85 18.4802 52.01 18.4002 52.19C18.1902 52.16 18.0102 52.14 17.8002 52.14C17.2802 52.11 16.8302 51.49 16.5402 51.12C16.4102 50.96 16.2502 50.83 16.1002 50.7H16.0202C16.0202 51.01 16.0502 51.33 16.0502 51.64C16.0502 51.74 16.0202 51.82 16.0202 51.93C15.9902 51.96 15.9902 52.01 15.9902 52.03V54.15C16.0202 54.99 16.1502 56.35 15.9102 57.1C16.0402 57.44 15.9402 57.57 15.9402 58.41C15.9402 58.62 15.7602 58.91 15.6502 59.06C15.5502 59.22 15.5502 59.11 15.1302 59.84C15.1002 59.94 14.9202 59.97 14.8402 59.97C14.5802 59.97 14.1602 59.68 13.9002 59.58C13.7702 59.4 13.4802 59.11 13.4002 58.93C13.0902 58.28 12.8202 57.78 12.6402 57.07C12.5602 56.89 12.5102 56.73 12.5102 56.55C12.8002 56.5 12.8002 56.29 12.8002 56.03H12.9002C12.9802 55.85 13.0002 55.69 13.0002 55.51L13.1002 55.48L13.2002 54.88L13.3002 52.68L13.3302 51.58C13.1202 51.76 12.9402 51.97 12.7502 52.15C12.4902 52.33 12.2802 52.49 12.1002 52.75C11.8402 53.12 10.2402 54.11 9.77016 54.29C9.25016 54.53 8.51016 54.81 7.91016 54.84C7.67016 54.87 7.47016 54.87 7.23016 54.92C7.13016 54.95 6.99016 54.95 6.89016 54.95C6.52016 54.95 6.11016 54.95 5.82016 54.72L5.79016 54.67H5.82016ZM31.7602 77.5C31.6802 77.63 31.5802 77.76 31.4702 77.87C31.2902 77.97 31.1002 78.08 30.9202 78.18C30.8402 78.23 30.1402 78.28 30.0102 78.28C29.7002 78.28 28.7802 78.04 28.4402 77.94C27.5502 77.89 27.0302 77.78 26.1702 77.6C25.7302 77.55 25.3102 77.5 24.8602 77.44C24.3402 77.36 23.6802 77.36 23.1302 77.39L21.1202 77.49C21.0202 77.49 20.9902 77.7 20.9902 77.78L20.9402 79.98C20.9402 80.84 20.9402 81.99 20.7302 82.8C20.6502 83.09 20.5202 83.4 20.5202 83.69C20.5202 83.82 20.5502 83.98 20.5502 84.11C20.5502 84.66 20.1802 85.29 19.8202 85.91C19.6402 86.33 19.5602 86.48 19.1402 86.69C19.0902 86.79 18.9802 87 18.8302 87C18.6502 87 18.4902 86.66 18.4102 86.5L18.3802 86.29L17.9102 84.09L17.7802 82.7L17.8102 80.24C17.8402 80.06 17.7802 79.87 17.7602 79.72V79.62C17.7602 79.31 17.7902 78.99 17.7902 78.68C17.7902 78.39 17.7602 78.1 17.7402 77.82C17.4502 77.82 17.1602 77.87 16.9002 77.95C16.4302 78.08 15.9802 78.16 15.5402 78.34L13.6302 78.86C12.7902 79.15 12.9002 79.07 12.2702 79.25C12.0602 79.33 11.9002 79.43 11.6902 79.54C11.5102 79.54 11.4002 79.57 11.2502 79.64C11.1702 79.67 11.1202 79.67 11.0702 79.67C10.7602 79.67 9.95016 79.41 9.68016 79.25C9.52016 79.15 9.42016 79.09 9.24016 79.04C9.19016 79.04 9.14016 78.96 9.11016 78.91C8.48016 78.81 7.99016 78.41 7.46016 78.07C6.70016 77.76 6.62016 77.76 6.18016 77.02L6.13016 76.94V76.81C6.23016 76.81 6.34016 76.78 6.44016 76.78C6.73016 76.78 7.04016 76.83 7.36016 76.83C8.38016 76.83 9.37016 76.62 10.3902 76.52C10.6502 76.49 10.9402 76.47 11.2302 76.42L13.4502 75.98L13.7402 75.95L16.9802 75.51L17.5302 75.43C17.5602 75.33 17.6102 72.63 17.6102 72.58C17.4302 72.58 17.2402 72.63 17.0602 72.66C16.6702 72.66 16.2802 72.71 15.8802 72.66C15.2302 72.63 14.6002 72.27 14.0202 71.98C13.7802 71.9 13.5502 71.85 13.3102 71.8C13.1002 72.17 12.3702 72.79 12.0002 73.08C11.7902 73.32 11.6302 73.58 11.3202 73.68C11.1102 73.89 10.6402 74.26 10.3802 74.39C10.0102 74.6 10.0402 74.36 9.23016 74.84C9.20016 74.87 9.18016 74.87 9.15016 74.87C8.99016 74.87 8.84016 74.84 8.68016 74.82L8.31016 74.69L8.41016 74.51C9.01016 74.09 9.32016 73.41 9.66016 72.76C9.69016 72.71 9.74016 72.66 9.79016 72.6C9.95016 72.42 10.0802 72.18 10.1802 71.95L11.0702 69.81C11.1502 69.6 11.2302 69.34 11.2802 69.1C11.4902 68.39 11.8002 67.71 11.8002 66.96C11.8002 66.7 11.6202 66.52 11.3802 66.41C11.0702 66.25 10.7502 66.15 10.5702 65.81C10.8802 65.6 10.9602 65.55 11.1702 65.55L11.3502 65.45C11.6602 65.45 12.0002 65.42 12.3402 65.42C12.9402 65.42 12.9902 65.79 14.2202 66.49C14.6602 66.72 14.9302 67.17 15.2102 67.54C15.3702 67.72 15.7802 68.19 15.7802 68.4C15.7802 68.56 15.7802 68.74 15.6802 68.87C15.6002 68.97 15.5002 69.05 15.4202 69.13C15.1802 69.47 14.9202 69.76 14.6402 70.05C14.4602 70.21 14.3302 70.44 14.2002 70.65L14.2802 70.73H14.9302L17.5402 70.15L17.6402 70.07L17.6702 69.91L17.6402 66.43C17.6402 65.62 17.5602 64.83 17.5402 64.02C17.5402 63.97 17.4902 63.94 17.4602 63.92C16.6802 63.21 16.8602 63.16 16.3902 62.82C16.3402 62.77 16.2902 62.72 16.2302 62.66L16.1302 62.42L16.3702 62.45C16.7902 62.35 17.1802 62.45 17.6502 62.37C17.6802 62.37 18.2002 62.21 18.3602 62.16C18.4602 62.11 18.5402 62.08 18.5702 62.08C18.6202 62.08 18.7002 62.11 18.7502 62.13C19.0602 62.37 19.4002 62.55 19.7402 62.76C20.1102 63.05 20.4502 63.31 20.8602 63.54C21.3002 64.09 21.8802 64.48 21.9602 64.66C22.0102 64.79 22.1702 65 22.1702 65.13C22.1702 65.89 22.1702 65.99 21.5202 66.33C21.2802 66.43 21.3102 67.56 21.2802 67.82C21.2502 68.32 21.1502 68.89 21.2002 69.36C21.8302 69.28 22.3002 68.92 22.6602 68.44C22.9002 68.44 23.0302 68.41 23.6502 68.26C23.7502 68.29 23.8602 68.29 23.9902 68.26C24.2502 68.42 24.5402 68.5 24.8302 68.6C25.4102 68.76 25.9502 69.05 26.4802 69.33L26.7902 69.96C26.8202 70.06 26.8202 70.17 26.7602 70.27C26.7902 70.35 26.9202 70.53 26.8402 70.61C26.6602 70.79 26.4502 70.95 26.1902 71.03C26.0102 71.27 25.7702 71.32 25.4802 71.4C25.3002 71.43 23.8102 71.74 23.7502 71.74C23.5902 71.74 23.4402 71.71 23.3102 71.71C23.0702 71.71 22.8702 71.76 22.6602 71.81C22.4002 71.86 22.1102 71.97 21.8502 71.99C21.6402 72.02 21.4302 72.04 21.2202 72.12L21.1702 72.28L21.0702 74.53V75.1L24.3902 75L24.9102 75.05C25.6702 75 26.4502 75.08 27.1302 74.82H27.4202C27.5502 74.82 28.1002 74.56 28.2602 74.51C28.3602 74.46 28.5002 74.41 28.6002 74.41C28.8102 74.41 29.0402 74.59 29.2302 74.67C29.5402 74.83 29.7302 75.01 29.9102 75.3C30.1202 75.43 30.3002 75.56 30.4802 75.72C30.8702 75.88 31.6302 76.48 31.7602 76.87C31.7602 76.92 31.7902 77 31.7902 77.1C31.7902 77.26 31.7602 77.41 31.7402 77.47L31.7602 77.5ZM55.0802 71.74C54.8402 72.11 54.0902 72.32 53.7202 72.5C53.4102 72.63 53.0402 73.47 52.8802 73.78C52.7802 73.96 52.6702 74.15 52.5102 74.3C52.3302 74.46 52.2002 74.56 52.2002 74.72C52.2002 74.8 52.3002 74.93 52.6702 75.11C52.7202 75.14 52.8002 75.21 52.8502 75.27C52.9802 75.45 53.0602 75.64 53.0602 75.85C53.0602 76.11 52.9602 76.53 52.7202 76.69C52.0402 77.19 51.8102 77.34 51.3102 77.34C50.9202 77.34 50.5502 77.26 49.7902 77.05C49.6902 77.02 49.5802 77 49.4802 77L47.3102 76.9L45.0402 77.13L42.4002 77.65C42.2402 77.68 42.1602 77.68 42.0102 77.68H41.4902C41.1202 77.68 40.7302 77.47 40.4402 77.26C40.2602 77.16 40.0202 77.1 39.8102 77.02L39.7302 77.07L39.5502 77.44L38.9702 79.92L38.6302 80.91C38.5002 81.46 38.2102 81.96 37.9802 82.48C37.6702 82.79 37.4802 83.16 37.2702 83.55C36.8002 84.36 36.0902 85.12 35.3402 85.67C34.9502 85.93 34.6302 86.04 34.1902 86.14C33.6402 86.3 33.1202 86.35 32.5702 86.35C32.3302 86.35 32.1302 86.35 31.8902 86.32L31.9702 86.16C32.6502 85.43 32.9602 85.09 33.4302 84.2C34.4202 82.32 34.6302 81.74 35.3902 79.78C35.9102 78.42 36.2502 76.9 36.4102 75.44C36.6202 74.45 36.7802 73.45 36.8002 72.43C36.8002 72.2 36.8502 71.96 36.9002 71.75C36.9302 71.54 36.9802 71.33 36.9802 71.12C36.9802 70.75 36.7202 70.31 36.3802 70.15C36.1202 70.05 35.1802 69.65 35.0502 69.47C35.0202 69.44 35.0202 69.39 35.0202 69.34C35.4602 69 36.0902 68.84 36.6702 68.84C37.6902 68.84 38.9402 69.28 39.8602 69.73C39.9402 69.76 40.0402 69.78 40.1502 69.78C40.3102 69.78 40.4402 69.75 40.5702 69.75C40.7502 69.75 40.9402 69.75 41.1202 69.72L43.2102 69.35C43.8902 69.3 44.5702 69.25 45.2502 69.09C45.6202 69.04 46.0102 69.01 46.4002 68.96H46.6402L49.6202 68.41C49.7802 68.38 50.1402 68.1 50.3002 67.99C50.8002 67.7 50.9302 67.68 51.0602 67.68C51.3502 67.68 51.5802 67.81 52.0802 68.18C52.2102 68.26 52.3202 68.34 52.4502 68.39L54.3102 69.33C54.8102 69.59 55.5702 70.06 55.5702 70.72C55.5702 70.98 55.2302 71.45 55.1002 71.71L55.0802 71.74ZM35.0002 63.87L35.0302 63.79C35.3202 63.84 35.5802 63.92 35.8702 64C36.3902 64.16 36.9702 64.34 37.5202 64.31L39.9002 64.26L42.3802 64.08L44.6802 63.9L45.2602 63.82L47.4002 63.53C48.1302 63.43 49.0502 63.19 49.7302 62.96C49.8302 62.93 49.9402 62.88 50.0402 62.83C50.6202 62.36 50.7202 62.28 51.5002 62.28C51.8902 62.28 52.3402 62.51 52.6802 62.7C52.8602 62.8 53.1002 62.88 53.2802 62.96C53.5702 63.06 54.1702 63.59 54.1702 63.87C54.1702 64.37 54.0402 64.92 53.5902 65.2C53.4302 65.3 52.2802 65.51 52.0202 65.54L51.9902 65.49L51.9402 65.46L51.8602 65.54H51.6202L48.3302 65.83C47.9602 65.86 47.5702 65.93 47.1802 65.99C46.4002 66.12 45.5902 66.09 44.8002 66.28L41.2702 66.65C40.8002 66.75 40.4302 66.86 39.9602 66.83C39.6202 66.88 39.3102 66.96 38.9702 67.01H38.8702C38.3702 67.01 37.3502 66.38 36.8802 66.15C36.6202 66.02 36.3802 65.78 36.1502 65.6C35.9702 65.44 35.3902 64.63 35.1602 64.37C35.1302 64.27 34.9802 64 35.0002 63.87ZM56.0202 44.89L55.7802 45.28L55.5202 45.33C55.5202 45.33 55.4202 45.41 55.3602 45.41C55.1202 45.59 55.1002 45.88 55.0702 46.17L54.8302 47.92C54.7502 48.78 54.5402 51.19 54.0202 51.82C53.8402 52.03 53.7802 52.16 53.5002 52.21C53.2602 52.29 53.0602 52.37 52.8202 52.37C52.6602 52.37 52.4802 52.34 52.3002 52.34C52.1202 52.11 51.9302 52 51.6702 51.9C51.5402 51.85 51.4402 51.67 51.3802 51.53C51.3002 51.37 51.2002 51.37 51.0102 51.37H50.3802C50.1702 51.37 49.9602 51.37 50.0402 51.6L49.9102 53.88L49.7502 56.63L49.4102 58.83C49.4102 58.83 49.1202 59.54 49.1002 59.67C49.0002 59.83 48.9202 60.01 48.8402 60.19C48.6802 60.4 48.1902 60.95 47.9302 61C47.8502 61 47.7502 61.03 47.6702 61.05C47.4102 60.58 47.0702 59.59 47.0402 59.06L46.9402 56.94L46.8902 56.42L46.8102 53.44L46.7302 52.08C46.3902 52.05 46.0202 52.13 45.7102 52.24C45.5502 52.34 45.4702 52.47 45.3702 52.61C45.2102 52.84 44.7902 52.98 44.5602 53.05V52.95C44.3202 52.85 44.0902 52.69 43.8302 52.64L43.5402 52.25C43.4402 51.99 43.3302 51.78 43.1502 51.57L42.9102 51.1L42.9402 50.55C42.7302 50.71 42.1002 51.18 41.8702 51.18C41.5002 51.18 41.1102 50.81 40.8502 50.58L40.8202 51.86L40.7702 54.06C40.7202 54.4 40.6702 54.92 40.6702 55.29V55.97C40.6702 56.15 40.6402 56.36 40.5902 56.57V56.62C40.5902 56.85 40.6202 57.09 40.6202 57.33C40.4402 57.56 40.5402 57.88 40.3902 58.14C40.1302 58.56 40.1002 58.38 39.7902 59C39.7402 59.1 39.4802 59.13 39.3502 59.13C39.1102 59.13 38.9602 58.97 38.8002 58.82C38.5602 58.72 38.5402 58.69 38.4102 58.48C38.2302 58.22 38.0202 57.93 37.8302 57.67C37.7502 57.59 37.7302 57.46 37.7002 57.36L37.6002 57.31L37.6802 57.08C37.5802 56.9 37.2602 55.93 37.2602 55.75C37.2602 55.49 37.3402 55.31 37.4702 55.1L37.6002 55.07C37.6502 54.97 37.7302 54.89 37.8102 54.81C38.0202 54.6 38.1502 53.08 38.1502 52.74L38.2502 50.62C38.3302 50.44 38.4102 50.28 38.3502 50.1C38.0102 50.39 37.7502 50.73 37.4902 51.09C36.6002 52 36.3702 52.29 35.2902 53.08C34.8702 53.37 34.3502 53.5 33.8502 53.63C32.9902 54.05 32.2002 54.41 31.7102 54.41C31.6302 54.41 31.2102 54.41 31.2102 54.36C31.2102 54.28 31.3902 54.2 31.4502 54.18C31.9502 53.84 32.4202 53.42 32.7802 52.95L34.1102 51.15L34.1602 51.1L35.3602 49.24C35.5402 48.98 35.7002 48.72 35.8002 48.46C35.8502 48.33 35.9002 48.17 35.9802 48.07L37.0802 46.27L37.1802 46.11V46.06C37.1802 46.06 36.6802 46.22 36.4702 46.37C36.3402 46.47 36.1802 46.47 36.0302 46.53C35.8702 46.61 35.7402 46.69 35.5602 46.69C34.7202 46.69 34.3002 46.3 33.8102 45.7C33.2102 44.92 33.0002 44.37 32.7902 43.43L32.8402 43.35L33.0002 43.38C33.0802 43.46 33.1802 43.62 33.3102 43.64C34.0202 43.72 33.9402 44.06 34.4602 44.06C34.6702 44.06 34.8502 44.01 35.2402 43.83C35.6302 43.65 36.0002 43.54 36.3902 43.46C36.4702 43.43 36.5702 43.41 36.6502 43.38L38.6902 42.52C38.7902 42.49 38.9002 42.44 39.0002 42.44C39.3102 42.36 39.5202 42.26 39.6302 41.94C39.8702 41.81 39.9202 41.65 39.9202 41.42L40.0802 41.26L40.2902 41.29H40.4502C40.5302 41.37 40.6302 41.42 40.7402 41.47C40.8202 41.5 40.9002 41.52 40.9502 41.55C41.3902 42.07 42.0002 42.41 42.5502 42.75C42.7102 43.12 42.7902 43.19 42.9202 43.19C43.0002 43.19 43.1802 43.14 43.2602 43.11L45.4602 42.69L46.9202 42.32L46.9702 42.22L46.8902 39.97C46.8902 39.71 46.9202 39.47 46.9202 39.21C46.9202 39.11 46.8902 39 46.8902 38.9C46.8902 38.8 46.9402 38.59 47.0202 38.35V38.3C47.0202 38.2 47.0202 38.17 46.7802 37.75C46.6802 37.54 46.6202 37.41 46.4402 37.28C46.2602 37.07 46.1002 36.89 45.8602 36.78C45.7802 36.55 45.6202 36.47 45.4202 36.36L45.3702 36.18L45.4502 36.05C45.5802 36.08 45.7402 36.02 46.0002 36.02C46.4702 35.92 46.5202 36.02 46.8602 35.92C47.0202 35.92 47.1702 35.95 47.3302 35.95C47.4602 35.95 47.7502 36.11 48.5102 36.26C48.7202 36.39 49.0802 36.49 49.2202 36.7C49.2702 36.75 49.3502 36.78 49.4302 36.8C49.4802 36.93 49.5602 37.04 49.6902 37.14C50.4202 37.66 50.4202 37.64 51.0802 38.26C51.2102 38.39 51.2102 38.68 51.2102 38.84C51.2102 38.94 51.1802 39.05 51.1802 39.15C51.0502 39.33 50.9202 39.49 50.7602 39.67C50.5002 39.93 50.5202 40.45 50.5002 40.77C50.5002 40.98 50.4502 41.16 50.4202 41.35C50.3902 41.48 50.3702 41.59 50.3702 41.72C50.3702 41.88 50.4002 42.03 50.4002 42.19C50.6902 42.19 51.0002 42.16 51.2902 42.11C51.5302 42.06 51.7602 42.06 52.0002 42.03C52.2402 42.03 52.4202 41.9 52.6002 41.77C52.7002 41.72 52.8402 41.72 52.9402 41.72C53.1202 41.72 53.3602 41.75 53.5402 41.88C53.9102 42.11 54.3202 42.35 54.6602 42.64C55.0502 43.03 55.5002 43.35 55.8602 43.76C55.9902 43.92 56.0402 44 56.0702 44.2C56.1002 44.28 56.1202 44.36 56.1202 44.44L56.0202 44.94V44.89Z" fill="#B11F23"/>
<path d="M50.6598 43.9001H50.6098C50.6098 43.9001 50.5098 43.9001 50.4498 43.8701H50.3198C50.3198 43.8701 50.2398 43.9001 50.1898 43.9201C50.2898 44.3401 50.2398 44.7801 50.2398 45.2001C50.2098 45.2501 50.1398 45.4601 50.2098 45.5101L50.3098 45.6401C50.6798 45.6401 51.1498 45.7401 51.4098 46.0101C51.4598 46.1401 51.5398 46.1901 51.6998 46.1701C51.8298 45.6501 51.7798 45.1001 51.8298 44.5701C51.8598 44.3301 51.8798 44.1001 51.8598 43.8601C51.5498 43.8601 51.2298 43.8101 50.9198 43.8101C50.8698 43.8101 50.7898 43.8401 50.6598 43.8901V43.9001Z" fill="#B11F23"/>
<path d="M59.9 29.8101H1.88C0.84 29.8101 0 30.6501 0 31.6901V89.7101C0 90.7501 0.84 91.5901 1.88 91.5901H59.9C60.94 91.5901 61.78 90.7501 61.78 89.7101V31.7001C61.78 30.6601 60.94 29.8201 59.9 29.8201V29.8101ZM60.04 89.7201C60.04 89.8001 59.98 89.8601 59.9 89.8601H1.88C1.8 89.8601 1.74 89.8001 1.74 89.7201V31.7001C1.74 31.6201 1.8 31.5601 1.88 31.5601H59.9C59.98 31.5601 60.04 31.6201 60.04 31.7001V89.7201Z" fill="#B11F23"/>
<path d="M94.4302 41.33C94.4302 41.5 94.3202 41.61 94.1602 41.66C93.7202 41.74 93.3502 41.79 92.9402 41.82C92.7002 41.83 92.4302 41.8499 92.1602 41.8499C91.0402 41.8499 89.7602 41.71 88.8002 41.47C87.1402 41.07 86.4202 40.75 84.9302 40.72C84.6202 40.71 84.4102 40.71 84.2202 40.72C83.9202 40.99 83.6402 41.1999 83.4302 41.3899C83.3002 41.4999 83.1202 41.49 82.9902 41.36L82.9202 41.29C82.7902 41.15 82.8102 40.94 82.9502 40.82C83.6602 40.24 84.6502 39.47 84.6502 38.59C84.6502 38.28 84.0402 37.92 84.0402 37.24C84.0402 36.56 84.4802 36.11 84.8202 35.58H83.0302C82.8502 35.57 82.7002 35.4099 82.7002 35.2299V35.0999C82.7002 34.9199 82.8702 34.79 83.0402 34.79H84.8102L85.1902 34.75C85.3302 34.74 85.4702 34.75 85.6202 34.81L85.9502 34.95C86.1102 35.01 86.1802 35.22 86.0602 35.36C85.6202 35.98 84.8802 36.81 84.8802 37.22C84.8802 37.63 85.4602 37.8399 85.4602 38.5999C85.4602 39.0999 85.2502 39.5499 84.9402 39.9599C86.5602 39.9599 87.4202 40.27 88.9902 40.7C90.3502 41.07 92.7202 41.2099 94.0102 40.9799C94.2402 40.9399 94.4202 41.1199 94.4202 41.3499L94.4302 41.33ZM83.3202 31.3899L83.4502 31.2099C83.5502 31.0699 83.7502 31.0099 83.8902 31.1299L85.6202 32.29C85.7502 32.39 85.8002 32.55 85.7002 32.7L85.6202 32.83C85.4902 33 85.3202 33.0099 85.1902 32.9399L83.4202 31.85C83.2602 31.77 83.2102 31.57 83.3202 31.4V31.3899ZM86.4802 37.66V37.56C86.4802 37.38 86.5902 37.2599 86.7802 37.2299L88.5402 37.1899L88.5102 36.24H87.6502C87.4802 36.27 87.3402 36.1399 87.3402 35.9599V35.88C87.3402 35.7 87.4502 35.57 87.6402 35.57H88.5002V35.2C88.5002 35.02 88.6302 34.8899 88.8002 34.8899H89.0002C89.1802 34.8899 89.2802 35.05 89.2802 35.2V35.54L90.7102 35.5099V35.0999C90.7102 34.9199 90.8502 34.7999 91.0202 34.7999H91.2202C91.4002 34.7999 91.4902 34.97 91.4902 35.13V35.4799L92.5002 35.47C92.6802 35.47 92.8102 35.6099 92.8102 35.7799V35.8899C92.8102 36.0699 92.7002 36.19 92.5102 36.22H91.4602L91.4502 37.1399L93.3602 37.0999C93.5302 37.0999 93.6902 37.23 93.6902 37.4V37.56C93.6902 37.73 93.5602 37.84 93.3802 37.86L86.8002 37.9599C86.6202 37.9599 86.4902 37.85 86.4902 37.68L86.4802 37.66ZM86.8602 30.94V30.86C86.8602 30.68 86.9902 30.53 87.1702 30.53L88.3602 30.5C88.5602 30.49 88.8302 30.4599 88.9402 30.4599C89.0502 30.4599 89.1502 30.47 89.2502 30.52L89.5002 30.62C89.6402 30.68 89.7602 30.85 89.7402 30.99L89.4702 32.2099C89.5702 32.2699 89.6302 32.3699 89.6302 32.4599V32.57C89.6302 32.74 89.4902 32.9 89.3202 32.9L87.7002 32.9399V33.32C87.7002 33.7 87.7302 34.03 89.2302 33.97L89.2002 33.4C89.1902 33 89.7402 32.95 89.8102 33.31L89.9502 34.09C89.9802 34.42 89.7802 34.6599 89.5002 34.6699C87.0202 34.8399 86.9302 34.03 86.9302 33.31C86.9302 32.77 86.9602 32.3899 86.9702 32.2799C86.9802 32.0299 87.1402 31.9799 87.4402 32.0099C87.6102 32.0399 87.7202 32.0899 87.7502 32.2099L88.7302 32.18L88.8902 31.2299H87.2002C87.0202 31.2399 86.8502 31.1 86.8502 30.93L86.8602 30.94ZM89.4002 38.1699C89.6302 38.3499 89.6402 38.52 89.4402 38.74C88.8602 39.32 88.1402 39.85 87.6802 40.13C87.3002 40.36 86.9402 39.86 87.2802 39.59C87.8502 39.16 88.3702 38.71 88.7702 38.24C88.9502 37.97 89.1402 37.9399 89.3902 38.1699H89.4002ZM89.2702 37.1699L90.6902 37.1399V36.22L89.2702 36.2299V37.1699ZM92.0402 32.18L92.2202 31.2299H90.5302C90.3502 31.2399 90.1902 31.1 90.1902 30.93V30.85C90.1902 30.65 90.3002 30.52 90.4902 30.52L91.6802 30.49C91.8802 30.48 92.1202 30.45 92.2602 30.45C92.3702 30.45 92.4902 30.46 92.5602 30.51L92.8302 30.62C92.9902 30.69 93.1002 30.8299 93.0702 30.9699L92.8202 32.18C92.9202 32.22 93.0002 32.32 93.0002 32.45V32.56C93.0002 32.74 92.8402 32.8899 92.6702 32.8899L90.9302 32.93V33.31C90.9302 33.69 90.9702 34.02 92.5902 33.95V33.4399C92.5502 33.0299 93.0902 32.96 93.1702 33.34L93.3102 34.09C93.3502 34.4 93.1502 34.6599 92.8702 34.6699C90.2502 34.8399 90.1602 34.03 90.1602 33.31C90.1602 32.77 90.1902 32.3899 90.2002 32.2799C90.2102 32.0299 90.3602 31.9799 90.6502 32.0099C90.8102 32.0399 90.9202 32.0899 90.9802 32.2099L92.0302 32.18H92.0402ZM91.1702 38.07C91.8602 38.57 92.4002 39.0799 93.0602 39.7299C93.1902 39.8599 93.2002 40.0799 93.0702 40.2099C92.9302 40.3499 92.7402 40.37 92.5902 40.24C92.0402 39.76 91.2702 39.1099 90.6802 38.7099C90.5202 38.6099 90.5202 38.4399 90.6702 38.2099C90.8002 37.9999 91.0002 37.93 91.1802 38.07H91.1702Z" fill="black"/>
<path d="M109.48 34.5198C108.57 34.5198 107.27 35.4398 105.67 36.4198C105.5 36.5298 105.33 36.4898 105.19 36.3098C105.12 36.2098 105.11 36.1398 105.11 36.0498C105.11 35.9198 105.17 35.8398 105.28 35.7698C106.9 34.7598 108.34 33.6998 109.49 33.6998C110.99 33.6998 114.31 36.9198 116.01 39.0198C116.07 39.0898 116.09 39.1598 116.09 39.2298C116.09 39.3398 116.03 39.4598 115.92 39.5398C115.82 39.6098 115.74 39.6498 115.65 39.6498C115.55 39.6498 115.45 39.5898 115.38 39.5098C113.34 37.0198 110.39 34.5198 109.48 34.5198ZM114.01 34.8898C113.51 34.3898 113.43 34.3198 113.12 34.0098C113.05 33.9398 113.01 33.8498 113.01 33.7498C113.01 33.5698 113.19 33.3698 113.38 33.3698C113.44 33.3698 113.52 33.3998 113.58 33.4398C113.83 33.6098 114.39 34.1298 114.59 34.3298C114.66 34.3998 114.7 34.4998 114.7 34.5798C114.7 34.7598 114.47 34.9898 114.29 34.9898C114.19 34.9898 114.09 34.9498 114.02 34.8798L114.01 34.8898ZM115.2 34.2998C114.7 33.7998 114.62 33.7298 114.31 33.4198C114.24 33.3498 114.2 33.2598 114.2 33.1598C114.2 32.9798 114.38 32.7798 114.57 32.7798C114.63 32.7798 114.71 32.8098 114.77 32.8498C115.03 33.0198 115.58 33.5398 115.78 33.7398C115.85 33.8098 115.89 33.9098 115.89 33.9998C115.89 34.1798 115.66 34.4098 115.48 34.4098C115.38 34.4098 115.28 34.3698 115.21 34.2998H115.2Z" fill="black"/>
<path d="M128.36 39.8099C128.36 39.2299 128.81 38.7499 129.74 38.7499C130.53 38.7499 131.3 39.2299 131.81 40.0699C132.5 39.6899 133.01 38.8799 133.01 38.1599C133.01 37.1999 132.12 36.4899 130.88 36.4899C129.64 36.4899 128.24 37.1299 127.42 38.0799C127.26 38.2599 127.09 38.2599 126.88 38.0899C126.78 38.0099 126.74 37.9099 126.74 37.8099C126.74 37.7399 126.77 37.6299 126.84 37.5599C128.17 36.0299 130.02 33.9199 131.22 32.3299C130.82 32.4899 130.14 32.6399 129.26 32.6399C128.99 32.6399 128.68 32.6299 128.41 32.5999C128.24 32.5899 128.14 32.4899 128.14 32.2499C128.14 31.9799 128.28 31.8699 128.51 31.8799C128.64 31.8899 128.81 31.8899 128.94 31.8899C129.76 31.8899 130.57 31.7099 131.85 31.3899C131.92 31.3799 131.95 31.3799 131.98 31.3799C132.15 31.3799 132.29 31.4599 132.39 31.6199C132.53 31.8299 132.55 32.0199 132.42 32.1599C130.89 34.0199 129.83 35.2099 128.99 36.1699C129.63 35.8599 130.29 35.7399 130.95 35.7399C132.62 35.7399 133.84 36.7299 133.84 38.1899C133.84 39.7899 132.27 41.1399 130.42 41.1399C129.21 41.1399 128.36 40.7399 128.36 39.8199V39.8099ZM131.19 40.3499C130.82 39.6799 130.21 39.3599 129.7 39.3599C129.23 39.3599 129.05 39.5699 129.05 39.8399C129.05 40.1499 129.48 40.4599 130.34 40.4599C130.58 40.4599 130.94 40.4199 131.19 40.3499Z" fill="black"/>
<path d="M153.44 33.15C153.43 33.41 153.43 33.66 153.41 33.93C153.38 35.22 153.34 40.72 153.34 41.23C153.34 41.36 153.26 41.5 153.11 41.6C153 41.68 152.9 41.71 152.8 41.71C152.73 41.71 152.66 41.7 152.59 41.67L150.55 40.51C150.42 40.43 150.37 40.26 150.42 40.13C150.49 39.97 150.67 39.92 150.83 39.97L152.52 40.75C152.55 39.64 152.55 36.74 152.53 33.48H149.26C148.98 35.22 148.07 36.33 146.34 37.09C146.13 37.17 145.94 37.03 145.89 36.86C145.85 36.72 145.89 36.58 146.05 36.49C147.51 35.67 148.2 34.82 148.45 33.47H145.71C145.7 36.16 145.61 38.18 145.3 40.9C145.27 41.07 145.16 41.18 144.99 41.18H144.83C144.66 41.18 144.5 41.07 144.5 40.91C144.5 40.87 144.5 40.83 144.51 40.7C144.84 37.74 144.82 35.8 144.82 32.75C144.82 32.58 144.96 32.44 145.12 32.44H145.38C145.52 32.44 145.66 32.54 145.69 32.68H148.53V32.51C148.56 31.65 148.56 31.28 148.54 30.55C148.54 30.38 148.68 30.21 148.87 30.21H149.11C149.29 30.25 149.41 30.38 149.41 30.56C149.41 31.42 149.4 31.58 149.35 32.57V32.65H151.42C151.67 32.64 152.37 32.58 152.51 32.58C152.74 32.58 152.91 32.65 153.2 32.76C153.37 32.83 153.44 32.93 153.44 33.13V33.15ZM149.34 35.98C149.04 37.67 148.16 38.7 146.8 39.37C146.6 39.47 146.43 39.36 146.35 39.2C146.28 39.06 146.29 38.87 146.48 38.76C147.8 37.98 148.31 37.26 148.52 35.85C148.55 35.65 148.7 35.5 148.87 35.54L149.05 35.58C149.26 35.64 149.36 35.78 149.33 35.98H149.34ZM150.65 39.37C150.22 38.86 149.81 38.45 149.19 37.94C149.01 37.83 148.96 37.66 149.11 37.51L149.25 37.35C149.38 37.22 149.52 37.19 149.66 37.29C150.21 37.76 150.62 38.21 151.23 38.93C151.36 39.07 151.31 39.31 151.16 39.41C150.99 39.54 150.78 39.51 150.65 39.35V39.37ZM149.31 35.12C149.14 35.01 149.1 34.82 149.21 34.69L149.37 34.49C149.51 34.33 149.67 34.32 149.81 34.43C150.67 35.15 151.4 35.88 151.84 36.41C151.94 36.54 151.91 36.75 151.78 36.88C151.64 37.04 151.41 37.02 151.27 36.87C150.63 36.18 150.12 35.67 149.31 35.11V35.12Z" fill="black"/>
<path d="M169.671 40.6798C169.531 40.6798 169.471 40.6198 169.401 40.5198C169.271 40.3398 169.291 40.1798 169.461 40.0398C170.881 38.9598 171.561 37.8298 171.631 36.4798C171.711 34.8598 170.711 33.5898 169.091 33.3498C169.061 37.2798 166.411 38.9798 165.231 38.9798C164.541 38.9798 164.101 38.3298 164.101 37.2898C164.101 34.5998 165.971 32.5298 168.481 32.5298C170.831 32.5298 172.491 34.1298 172.491 36.3098V36.5198C172.411 38.1498 171.571 39.4398 169.901 40.5898C169.801 40.6598 169.741 40.6798 169.671 40.6798ZM167.361 36.7398C168.001 35.7898 168.301 34.7598 168.391 33.3098C166.121 33.3198 164.801 35.3198 164.801 37.1498C164.801 37.7998 164.971 38.1998 165.231 38.1998C165.851 38.1998 166.831 37.5298 167.361 36.7398Z" fill="black"/>
<path d="M193.251 37.6999V37.8099C193.251 37.9799 193.111 38.1499 192.921 38.1499L190.481 38.1799C190.451 39.2099 190.421 40.3299 190.381 41.4699C190.381 41.6499 190.281 41.8099 190.141 41.8999C190.071 41.9399 189.981 41.9699 189.891 41.9699C189.821 41.9699 189.751 41.9599 189.661 41.9099L187.931 40.9999C187.771 40.9399 187.701 40.7899 187.771 40.6199C187.831 40.4599 188.011 40.3899 188.181 40.4599L189.611 41.0599L189.651 38.1799L183.471 38.2499C183.291 38.2499 183.141 38.1099 183.141 37.9399V37.8499C183.141 37.6699 183.281 37.5099 183.471 37.5099L189.661 37.4099V37.0599C189.661 36.8799 189.821 36.7299 190.001 36.7299H190.201C190.371 36.7599 190.511 36.8899 190.511 37.0699C190.511 37.1799 190.501 37.2999 190.501 37.4099L192.901 37.3699C193.071 37.3699 193.241 37.5099 193.241 37.6999H193.251ZM183.731 31.4899V31.3799C183.731 31.2099 183.831 31.0799 184.001 31.0799L187.591 31.0099V30.1899C187.591 30.0099 187.721 29.8799 187.891 29.8799H188.121C188.301 29.8799 188.431 30.0199 188.431 30.1899V30.9999L192.021 30.9299C192.181 30.9299 192.301 31.0699 192.301 31.2399V31.3699C192.301 31.5299 192.171 31.6999 192.021 31.6999L188.411 31.7399V32.4499H189.321C189.561 32.4499 190.001 32.3399 190.231 32.3399C190.401 32.3399 190.701 32.4199 190.951 32.5499C191.131 32.6199 191.261 32.7999 191.231 32.9799L190.791 36.4699C190.761 36.6499 190.621 36.7399 190.391 36.7399C190.191 36.7399 190.051 36.6299 190.051 36.4099L186.011 36.4899V36.5599C186.011 36.7399 185.841 36.8699 185.641 36.8699C185.431 36.8699 185.271 36.7399 185.271 36.5599L185.031 32.5799C185.031 32.4099 185.171 32.2799 185.341 32.2799H185.571C185.741 32.2799 185.871 32.3499 185.911 32.4799H187.611V31.7599L184.021 31.7999C183.851 31.7999 183.741 31.6599 183.741 31.4999L183.731 31.4899ZM187.201 39.9699C187.281 40.1399 187.241 40.3399 187.071 40.4499C186.931 40.5199 186.741 40.5099 186.631 40.3699C186.261 39.8899 185.941 39.4899 185.571 39.0399C185.431 38.8999 185.461 38.7099 185.611 38.5899L185.821 38.4199C185.981 38.3199 186.131 38.3299 186.251 38.4899C186.591 39.0099 186.901 39.4799 187.201 39.9799V39.9699ZM185.941 34.0599L187.601 34.0199V33.2299H185.911L185.941 34.0699V34.0599ZM185.981 35.7299L187.611 35.6899V34.7699L185.951 34.7999L185.981 35.7399V35.7299ZM190.091 35.6299L190.151 34.7099L188.351 34.7499L188.321 35.6699L190.091 35.6299ZM188.361 33.2099V33.9999L190.201 33.9599L190.261 33.1899H188.361V33.2099Z" fill="black"/>
<path d="M207.95 31.39C207.95 31.72 207.84 33.54 207.72 34.79C207.69 35 207.55 35.1 207.32 35.1C207.15 35.1 207.02 35.03 206.97 34.9L205.14 34.94C205.06 37.02 204.87 39.01 204.63 40.79C204.6 40.99 204.46 41.12 204.28 41.12C204.05 41.12 203.91 40.98 203.91 40.78C204.26 37.85 204.39 35.35 204.39 31.55C204.35 31.49 204.33 31.44 204.33 31.37V31.27C204.33 31.09 204.49 30.94 204.66 30.94C205.37 30.94 205.78 30.91 206.42 30.88L206.97 30.82C207.1 30.81 207.23 30.82 207.37 30.88L207.72 31.02C207.89 31.08 207.95 31.19 207.95 31.37V31.39ZM205.18 34.18H206.98L207.02 33.24L205.21 33.27C205.2 33.57 205.2 33.88 205.18 34.18ZM205.22 31.69C205.22 31.99 205.22 32.27 205.21 32.55L207.05 32.51C207.06 32.23 207.06 31.94 207.08 31.65L205.22 31.69ZM213.67 32.67C213.67 33.1 213.71 39.59 213.71 41.32C213.71 41.59 213.48 41.82 213.23 41.82C213.17 41.82 213.1 41.81 213.05 41.78C212.24 41.48 211.56 41.21 210.9 40.94C210.47 40.76 210.69 40.2 211.13 40.33C211.68 40.53 212.35 40.76 212.97 40.95C212.96 39.75 212.94 37.08 212.93 34.83L210.36 34.86C210.32 34.99 210.18 35.07 210.02 35.07C209.79 35.07 209.64 34.94 209.64 34.76L209.54 30.83C209.54 30.65 209.67 30.5 209.85 30.5H210.09C210.2 30.5 210.3 30.56 210.36 30.64L212.25 30.61L212.82 30.55C212.95 30.54 213.1 30.55 213.23 30.61C213.61 30.79 213.73 30.82 213.73 31.08C213.73 31.38 213.69 32.21 213.69 32.67H213.67ZM212.92 34.08C212.91 33.7 212.91 33.33 212.91 32.99L210.39 33.02V34.14L212.93 34.08H212.92ZM210.41 31.39V32.3L212.91 32.27C212.9 31.9 212.9 31.59 212.9 31.39H210.42H210.41Z" fill="black"/>
<path d="M230.07 40.4099V40.4499C230.07 40.6299 229.89 40.7999 229.7 40.7999H225.11C225.05 40.8999 224.95 40.9699 224.8 40.9699H224.73C224.53 40.9699 224.38 40.8399 224.38 40.6299C224.54 38.3099 224.59 36.9199 224.72 33.4299C224.73 32.5899 224.73 32.3899 224.61 31.6699C224.55 31.5099 224.6 31.3299 224.75 31.2699C224.82 31.2299 224.99 31.1899 225.09 31.1899C225.23 31.1899 225.34 31.2699 225.4 31.3999H229.51C229.69 31.3999 229.86 31.5799 229.86 31.7699V31.8099C229.86 32.0099 229.68 32.1799 229.51 32.1799H225.51C225.54 32.5099 225.55 32.9499 225.54 33.4299C225.51 34.1399 225.48 34.8199 225.44 35.4699H229.15C229.33 35.4699 229.52 35.6699 229.52 35.8499C229.52 36.0799 229.38 36.2299 229.15 36.2299H225.41L225.17 40.0099H229.71C229.88 40.0099 230.08 40.2099 230.08 40.3899L230.07 40.4099Z" fill="black"/>
<path d="M240.74 36.6598V36.5298C240.78 33.4498 242.55 31.2898 245.09 31.2898C246.44 31.2898 247.22 31.7998 247.66 32.1098C247.72 32.1898 247.77 32.3098 247.77 32.4098C247.77 32.4798 247.74 32.5698 247.7 32.6498L247.66 32.7198C247.62 32.7898 247.48 32.8298 247.39 32.8298C247.32 32.8298 247.25 32.7998 247.18 32.7698C246.66 32.3998 246.26 32.0498 245.08 32.0498C243.04 32.0498 241.63 33.8498 241.58 36.5698C241.55 38.6798 242.91 40.1798 244.8 40.1798C246.47 40.1798 247.31 39.2998 247.95 38.6798C248.02 38.6098 248.13 38.5798 248.25 38.5798C248.39 38.5798 248.63 38.7398 248.65 38.9298C248.65 39.0298 248.62 39.1098 248.57 39.1798C247.44 40.3898 246.23 40.9698 244.76 40.9698C242.36 40.9698 240.76 39.1998 240.76 36.6498L240.74 36.6598Z" fill="black"/>
</g>
<defs>
<clipPath id="clip0_1041_203">
<rect width="396.85" height="122.2" fill="white"/>
</clipPath>
</defs>
</svg>
