<svg width="397" height="123" viewBox="0 0 397 123" fill="none" xmlns="http://www.w3.org/2000/svg">
<g clip-path="url(#clip0_971_10221)">
<path d="M395.701 40.7406C392.421 41.7206 388.461 47.5106 385.651 48.8106C385.471 48.5906 385.781 43.1706 385.791 43.2906C386.011 36.1406 387.381 27.5405 387.491 20.3505C384.881 12.1105 379.521 6.03055 372.341 1.94055C371.251 2.17055 370.221 0.230548 369.371 0.520548C368.801 0.800548 368.241 0.940549 367.951 0.660549C364.271 -0.999451 358.291 4.48055 356.621 7.31055C353.001 14.1105 349.091 22.7705 347.701 30.3905C347.561 30.8105 348.271 31.1005 348.691 30.8105C351.181 29.5705 350.501 35.0806 354.071 32.0806C354.211 31.8006 354.641 31.6605 355.201 31.5105C360.141 31.2505 358.271 26.3805 360.581 23.5805C361.251 22.7905 362.151 20.2505 363.271 20.3205C363.421 20.3605 365.771 19.3705 365.821 19.7505C366.261 19.8505 366.251 17.8905 366.951 18.3305C368.961 24.7805 369.841 31.8206 367.801 38.5806C367.271 40.9806 367.931 44.8105 368.791 47.3605C368.751 50.1205 368.971 64.0806 368.371 63.2206C364.191 67.7706 358.121 71.0406 353.361 74.9706C351.851 75.6206 351.131 77.8106 350.531 75.5406C348.591 71.5406 349.721 69.9406 353.501 66.4806C357.801 62.9606 357.011 60.5405 360.151 57.9805C360.571 57.8405 361.001 57.9805 361.421 58.4105C362.461 59.0305 364.031 57.2606 364.391 56.2906C364.591 56.4006 364.961 56.6805 365.101 56.8605C365.641 56.3305 365.871 54.5706 366.801 54.7406C367.521 54.9206 368.221 54.0305 368.071 53.7505C368.031 53.5405 367.531 53.0206 367.931 52.9006C368.071 52.9006 368.071 52.6206 367.791 51.6306C367.391 50.7806 368.471 51.1405 368.211 50.2105C368.131 49.6705 367.601 49.5306 367.641 48.7906C367.661 46.6706 365.571 45.8905 363.961 44.2605C360.971 41.3105 352.831 36.6806 349.661 41.2906C349.481 42.1806 349.271 41.9405 348.531 42.2805C345.701 46.3305 343.541 43.1005 348.251 47.6605C348.121 48.2605 342.261 53.7405 339.901 55.7305C340.691 50.3805 341.281 47.5905 342.311 41.4305C342.501 36.5505 348.071 29.9205 347.551 24.1605C346.351 13.2205 329.301 6.81055 323.481 18.0705C320.661 22.5805 318.191 27.7905 316.681 31.8005C317.851 37.1705 324.891 28.8305 327.021 27.4105C333.001 21.1905 335.021 27.8105 334.101 33.6405C334.001 38.8105 333.381 56.8305 333.251 62.6605C331.631 63.1505 325.921 69.6106 325.041 68.0406C324.947 67.7539 324.854 67.8939 324.761 68.4605C324.574 69.4072 324.384 69.7839 324.191 69.5905C323.841 69.2205 323.821 70.0106 323.481 70.0106C322.401 72.2706 319.041 74.8005 316.831 76.2405C313.971 77.8605 311.591 81.5905 309.191 83.1805C309.051 82.9005 309.191 82.9005 308.771 83.3205C308.191 83.8205 306.381 85.6006 305.661 85.8706C304.771 86.2106 306.061 86.8105 305.521 86.8605C305.141 86.6805 304.961 87.7105 304.811 87.7105C304.391 87.8905 304.681 88.3705 304.101 88.5605C302.741 88.7405 303.921 90.7405 302.971 91.2505C302.311 91.3905 302.681 92.6105 302.401 92.6705C301.011 93.7305 304.831 98.4106 305.801 99.4706C308.941 102.701 309.761 96.4705 313.731 96.5005C317.471 102.121 321.691 107.561 326.331 112.781C328.931 116.441 331.901 119.571 335.961 116.461C338.281 116.151 343.971 110.041 342.191 107.541C341.911 106.551 341.761 105.981 341.761 101.451C341.621 93.1005 341.761 92.5305 341.481 91.8205C340.551 88.9205 341.761 91.1805 344.031 94.0905C345.231 94.1905 347.641 94.2606 348.841 94.2306C349.751 94.9606 350.761 95.3806 351.811 95.2206C354.181 100.731 358.571 105.361 362.431 109.661C363.391 112.851 364.041 115.351 367.101 116.311C368.121 117.571 367.801 119.031 370.361 119.571C371.431 119.861 372.521 121.691 373.471 120.281C376.351 125.631 380.071 118.161 382.391 115.751C383.461 114.881 384.391 111.211 384.371 110.091C384.681 107.411 385.651 106.151 385.501 102.731C385.191 97.8906 384.381 96.6505 384.091 92.1105C383.291 89.4705 384.241 76.7205 384.091 73.8505C383.471 69.9805 384.091 67.4006 384.661 64.2206C384.421 64.2306 388.721 59.6106 387.631 59.9706C387.491 59.9706 386.041 61.4705 385.511 60.3905C386.011 59.3205 386.921 57.8005 386.781 56.8505C386.611 56.9605 386.131 57.6806 386.211 57.1306C386.831 51.3506 391.881 44.9206 396.551 40.9906C397.231 40.0206 396.661 40.1405 395.701 40.7105V40.7406ZM329.861 79.8205C330.171 79.2405 332.081 77.1105 332.411 77.1305C333.281 82.7005 333.301 92.8505 333.261 100.071C330.481 101.711 325.941 101.841 323.491 98.8006C322.251 97.0606 319.781 96.6906 319.381 94.5506C318.181 93.1806 323.341 87.7406 324.621 86.0506C324.901 85.8106 330.191 78.9705 329.721 80.5305C329.721 80.9505 329.581 80.9505 329.861 80.8105M346.291 73.1606C345.791 74.5706 346.711 73.0905 347.001 72.7405C346.891 73.0905 347.191 74.3606 347.141 74.4406C347.011 74.6406 346.251 74.8706 346.291 75.1506C346.291 75.4306 346.291 75.5705 346.151 75.4305C345.871 75.0105 345.161 76.0005 345.301 76.5605C345.441 76.8405 345.301 76.9805 345.021 77.1305C344.291 77.6205 343.951 78.7105 344.031 79.6805C342.681 76.6305 340.551 72.6205 339.921 69.4905C340.761 68.7105 342.781 66.5105 340.631 68.0705C341.641 64.3605 342.891 60.7806 345.301 57.7406C347.181 54.9006 347.751 51.1805 349.831 48.6805C356.321 54.6905 349.531 66.2105 346.291 73.1705V73.1606ZM368.091 96.9505C367.521 102.441 363.501 99.5506 360.731 98.0806C359.041 97.7306 357.391 97.1305 356.201 95.9605C356.441 94.8405 356.721 93.3905 357.621 92.7005C362.181 88.7705 364.511 84.1005 367.961 79.9605C367.961 81.0805 369.001 94.7205 368.101 96.9505H368.091Z" fill="white"/>
<path d="M314.03 76.9707C314.89 76.5807 317.92 73.5107 318.91 73.3707C320.49 73.3607 327.99 65.8007 325.84 64.9207C324.49 64.2907 327.29 59.9507 327.98 61.0407C328.44 60.8207 329.97 57.2207 330.4 56.9007C331.34 54.8507 334.27 55.0907 334.21 52.6907C334.09 46.2707 331.02 37.9607 323.06 39.7007C321.79 39.7507 319.83 44.2007 318.59 46.0707C318.42 46.2307 317.46 47.4207 317.82 47.5407C317.96 47.5407 318.09 47.5507 317.8 47.9507C317.06 48.9107 318.08 52.0007 318.37 52.8007C318.62 53.2307 318.76 53.2307 319.19 52.8407C320.69 52.4507 322.86 52.5707 324.35 51.7407C326.12 54.2707 324.52 58.0307 323.45 60.7807C322.74 64.3007 317.06 57.9307 315.23 57.3107C312.76 56.0307 309.44 52.9407 307.26 51.7907C303.57 50.2507 299.91 48.5207 304.84 45.6007C306.37 46.3007 308.55 43.5007 308.29 42.8907C308.16 42.7507 307.81 41.6207 308.09 41.5007C308.52 41.3607 309.05 39.8407 309.18 39.0807C307.41 36.3207 305.13 34.8807 303.2 32.4207C307.11 28.2407 312.91 19.4607 318.88 19.8907C319.5 18.9707 319.31 20.4407 319.85 19.8007C320.37 19.1407 320.22 21.0607 321.07 20.1407C326.43 18.6507 325.63 13.0407 324.41 9.1607C323.01 6.5907 319.19 4.6007 317.18 2.7107C315.88 1.5507 314 0.0207031 312.23 -0.0292969C304.98 0.460703 300.01 5.7307 293.91 10.2907C277.28 26.3507 286.37 2.1207 272.23 21.5307C270.35 23.2007 269.53 27.5307 270.97 29.5907C271.62 30.5307 271.86 31.6507 272.59 32.7107C274.45 36.5007 278.83 38.5207 282.41 39.7107C283.24 40.4907 283.11 38.8907 283.65 39.6407C283.69 40.3707 284.67 39.1107 284.75 39.7007C284.95 40.1707 285.16 39.5207 285.43 39.8707C286.13 40.7407 285.6 38.9507 286.31 38.9507C287.2 38.4107 287.66 34.9407 287.36 34.7407C287.13 33.9007 287.41 28.6807 287.78 26.9107C289.33 19.0307 297.3 12.0307 305.06 12.9507C305.326 13.0574 305.446 13.384 305.42 13.9307C303.73 21.0807 298.77 30.9307 293.42 34.9207C291.73 37.5507 287.74 42.4507 283.45 43.6207C279.78 45.1207 280.14 45.8907 277.82 48.4207C277.34 48.9707 275.65 49.5107 275.64 50.5107C275.5 51.2507 275.95 51.9607 274.61 51.8307C278.42 57.8807 278.48 55.5507 283.39 55.1907C281.38 60.5207 275.81 63.0407 274.83 68.3707C274.58 70.8007 275.7 71.3207 277.38 72.2307C280 74.1307 285.41 69.6007 279.68 75.5207C276.96 78.5307 273.49 82.8307 270.63 85.0907C265.45 88.9207 260.72 94.9907 268.65 99.0407C270.59 97.1607 270.31 97.4707 272.69 98.1507C273.056 98.1707 273.276 98.3207 273.35 98.6007C273.43 98.8707 274.05 99.6407 273.88 99.0407C274.54 95.5307 275.36 100.421 275.88 97.6307C275.9 97.9107 276.06 98.4007 276.24 98.6107C277.22 96.2707 281.71 95.8707 283.49 94.4507C283.63 95.3807 280.07 98.6807 279.83 100.221C272.88 106.861 264.2 111.301 255.19 114.421C250.55 116.031 245.81 117.301 241.03 118.411C236.54 119.451 231.36 119.771 227.1 121.391C228.27 122.361 231.14 121.841 232.73 121.821C251.62 121.611 274.28 122.101 290.1 110.011C295.54 106.761 298.03 101.241 298.48 95.1107C299.66 92.8507 303.1 84.3107 303.73 84.5107C306.56 81.3707 310.58 79.2307 314.05 76.9307L314.03 76.9707ZM288.51 72.3007C288.1 72.0207 287.96 79.9507 287.68 80.1107C286.82 82.9307 280.18 86.2507 277.5 85.0807C279.45 81.5707 282.15 76.7907 284.83 74.3107C285.09 73.4907 287.45 72.0907 288.01 71.4507C288.99 70.3807 288.74 71.9107 288.52 72.3007H288.51ZM287.57 61.6407C286.59 62.0007 283.22 63.2007 283.08 63.1907C284.02 61.0307 283.06 56.7207 286.09 55.9107C286.9 56.3807 288.1 56.8307 289.21 56.7707C289.51 58.7207 290.18 60.8907 287.57 61.6407ZM303.39 51.6007C305.17 54.2907 308.36 53.6707 303.75 55.2007C303.56 54.1107 303.19 52.7807 303.39 51.6007ZM304.05 70.3707C303.77 65.3507 309.24 63.5607 313.33 64.2507C316.75 64.5707 309.91 71.3907 307.65 72.6307C304.17 75.1507 304.22 74.1307 304.05 70.3707Z" fill="white"/>
<path d="M90.9305 51.1909C89.6205 49.8909 87.4405 49.9509 86.2005 51.1909C85.5605 51.8309 85.2305 52.6309 85.2305 53.5209C85.2305 54.4109 85.5805 55.1609 86.2405 55.8109C86.9005 56.4709 87.7205 56.8209 88.6105 56.8209C89.5005 56.8209 90.3005 56.4809 90.9405 55.8509C91.5805 55.2209 91.9105 54.4109 91.9105 53.5209C91.9105 52.6309 91.5705 51.8309 90.9405 51.1909H90.9305Z" fill="white"/>
<path d="M88.5309 61.2109H88.5209C87.6151 61.2109 86.8809 61.9452 86.8809 62.8509V88.7709C86.8809 89.6767 87.6151 90.4109 88.5209 90.4109H88.5309C89.4366 90.4109 90.1709 89.6767 90.1709 88.7709V62.8509C90.1709 61.9452 89.4366 61.2109 88.5309 61.2109Z" fill="white"/>
<path d="M111.401 51.1901C110.331 50.1301 108.631 49.9601 107.411 50.6301L107.321 50.5401L106.671 51.1901L106.031 51.8301L106.121 51.9201C105.851 52.4001 105.711 52.9401 105.711 53.5101C105.711 54.3501 106.061 55.1501 106.711 55.8001C107.371 56.4601 108.191 56.8101 109.081 56.8101C109.971 56.8101 110.771 56.4701 111.411 55.8401C112.041 55.2001 112.381 54.4001 112.381 53.5101C112.381 52.6201 112.041 51.8201 111.411 51.1801L111.401 51.1901Z" fill="white"/>
<path d="M109.009 61.2109H108.999C108.094 61.2109 107.359 61.9452 107.359 62.8509V88.7709C107.359 89.6767 108.094 90.4109 108.999 90.4109H109.009C109.915 90.4109 110.649 89.6767 110.649 88.7709V62.8509C110.649 61.9452 109.915 61.2109 109.009 61.2109Z" fill="white"/>
<path d="M149.89 90.4109C150.68 90.4109 151.32 89.7709 151.32 88.9809V69.7009C151.21 67.0609 150.31 64.8809 148.62 63.2209C146.93 61.5609 144.68 60.7109 141.93 60.7109C139.18 60.7109 136.43 61.4609 134.12 62.9509C133.78 63.1709 133.45 63.4009 133.14 63.6509C132.19 64.3909 130.82 63.8009 130.78 62.6009C130.76 61.8309 130.12 61.2109 129.35 61.2109H129.28C128.49 61.2109 127.85 61.8509 127.85 62.6409V88.9709C127.85 89.7609 128.49 90.4009 129.28 90.4009H129.7C130.49 90.4009 131.13 89.7609 131.13 88.9709V73.6409C131.13 71.7609 131.63 70.0609 132.61 68.5809C133.6 67.0809 134.92 65.8909 136.54 65.0509C138.16 64.2109 139.93 63.7809 141.76 63.7809C143.75 63.8709 145.24 64.4509 146.31 65.5609C147.39 66.6809 147.96 68.1109 148.04 69.8809V88.9809C148.04 89.7709 148.68 90.4109 149.47 90.4109H149.89Z" fill="white"/>
<path d="M172.559 51.1909C171.259 49.8909 169.069 49.9509 167.829 51.1909C167.199 51.8309 166.859 52.6309 166.859 53.5209C166.859 54.4109 167.209 55.1609 167.869 55.8109C168.529 56.4709 169.349 56.8209 170.239 56.8209C171.129 56.8209 171.929 56.4809 172.569 55.8509C173.199 55.2109 173.539 54.4109 173.539 53.5209C173.539 52.6309 173.199 51.8309 172.569 51.1909H172.559Z" fill="white"/>
<path d="M170.16 61.2109H170.15C169.244 61.2109 168.51 61.9452 168.51 62.8509V88.7709C168.51 89.6767 169.244 90.4109 170.15 90.4109H170.16C171.066 90.4109 171.8 89.6767 171.8 88.7709V62.8509C171.8 61.9452 171.066 61.2109 170.16 61.2109Z" fill="white"/>
<path d="M246.659 61.2092C245.859 61.2092 245.219 61.8592 245.219 62.6492V77.8992C245.219 79.7292 244.719 81.4292 243.739 82.9292C242.739 84.4592 241.429 85.6692 239.839 86.5292C238.249 87.3892 236.519 87.8292 234.739 87.8292C232.699 87.7492 231.169 87.1592 230.079 86.0392C228.979 84.9192 228.399 83.4692 228.319 81.6592V62.6392C228.319 61.8392 227.669 61.1992 226.879 61.1992H226.469C225.669 61.1992 225.029 61.8492 225.029 62.6392V81.9092C225.139 84.5492 226.039 86.7392 227.719 88.4192C229.409 90.1092 231.659 90.9692 234.409 90.9692C237.159 90.9692 239.739 90.1592 242.119 88.5692C242.439 88.3492 242.759 88.1292 243.049 87.8992C244.009 87.1592 245.389 87.7692 245.419 88.9792C245.439 89.7592 246.079 90.3892 246.859 90.3892H247.059C247.859 90.3892 248.499 89.7392 248.499 88.9492V62.6392C248.499 61.8392 247.849 61.1992 247.059 61.1992H246.649L246.659 61.2092Z" fill="white"/>
<path d="M199.87 71.5295L208.41 63.5695C209.08 62.9395 209.06 61.8695 208.36 61.2795C207.77 60.7795 206.89 60.7995 206.33 61.3295L194.86 72.0195C193.88 72.9295 192.28 72.2395 192.28 70.8995V48.7195C192.28 47.8695 191.59 47.1895 190.75 47.1895H190.53C189.68 47.1895 189 47.8795 189 48.7195V88.8695C189 89.7195 189.69 90.3995 190.53 90.3995H190.75C191.6 90.3995 192.28 89.7095 192.28 88.8695V79.2495C192.28 78.8295 192.45 78.4295 192.76 78.1395L195.19 75.8495C195.86 75.2195 196.93 75.3095 197.47 76.0595L207.58 89.7895C207.87 90.1795 208.33 90.4095 208.81 90.4095H211.98L199.67 73.5495C199.21 72.9195 199.3 72.0495 199.86 71.5295H199.87Z" fill="white"/>
<path d="M87.7694 35.5494V35.5894C87.7294 37.3894 87.6994 39.1694 87.6494 40.9594C87.6494 41.0594 87.5594 41.1494 87.4594 41.1494H87.3894C87.2894 41.1494 87.1994 41.0594 87.1994 40.9594L87.1594 36.1794C86.3494 36.9894 85.5194 37.6094 84.6894 38.1794C84.4994 38.2994 84.3594 38.1194 84.3594 37.9794C84.3594 37.9194 84.3694 37.8794 84.3994 37.8494C86.2394 36.4494 87.5094 35.3894 88.7594 33.0294L85.2594 33.3594C85.1694 33.3694 85.0694 33.2994 85.0594 33.1994V33.0494C85.0294 32.9494 85.0994 32.8594 85.1894 32.8494L87.9794 32.5994C88.2994 32.5694 88.5394 32.4394 88.7294 32.4394C88.9194 32.4394 89.1794 32.5694 89.4994 32.7994C89.5994 32.8694 89.5594 32.9894 89.4994 33.0894C88.9494 34.0594 88.3694 34.8594 87.7794 35.5394L87.7694 35.5494ZM85.9894 30.2994L86.1594 30.0994C86.2194 30.0094 86.3494 29.9994 86.4194 30.0694C86.9694 30.5494 87.3994 30.9194 87.9994 31.4694C88.0894 31.5394 88.0694 31.6694 88.0094 31.7394C87.9394 31.8294 87.8194 31.8694 87.7094 31.7794C87.0894 31.3194 86.5794 30.9394 86.0194 30.5394C85.9294 30.4794 85.9294 30.3694 85.9894 30.2894V30.2994ZM89.6794 36.9594C89.7494 37.0594 89.7194 37.1494 89.6394 37.2194C89.5694 37.2894 89.4394 37.3094 89.3494 37.2094C89.0994 36.9194 88.6694 36.4394 88.1094 35.8594C88.0394 35.7894 88.0194 35.6994 88.0994 35.6294L88.2594 35.4694C88.3294 35.3994 88.4494 35.4594 88.4894 35.5094C89.1294 36.2294 89.4294 36.5994 89.6894 36.9594H89.6794ZM95.8394 33.3994V33.4294C95.7094 34.6894 95.6094 35.9794 95.4594 37.7894C95.4494 37.8894 95.3894 37.9494 95.1994 37.9494C95.0594 37.9494 94.9994 37.8894 94.9994 37.7594V37.5394L93.3094 37.5694L93.2694 41.5494C93.2694 41.6794 93.1994 41.7394 92.9694 41.7394C92.8294 41.7394 92.7694 41.6394 92.7694 41.5494C92.7994 40.4194 92.8094 39.0194 92.8094 37.5694L91.1994 37.5994V37.9794C91.1994 38.0794 91.1094 38.1694 90.9694 38.1494C90.8294 38.1494 90.7394 38.0794 90.7394 37.9594L90.5994 33.0094C90.5994 32.9194 90.6694 32.8494 90.7694 32.8494H91.0194C91.1494 32.8794 91.2094 32.9194 91.2094 32.9894V33.0594H92.7994C92.7894 32.0294 92.7894 31.0194 92.7894 30.0494C92.7894 29.9494 92.8594 29.8594 92.9594 29.8594H93.1794C93.2794 29.8594 93.3494 29.9494 93.3494 30.0494V33.0494H94.0294C94.2894 33.0494 94.7394 32.9294 94.9594 32.9294C95.1194 32.9294 95.4094 33.0194 95.6494 33.1294C95.7794 33.1894 95.8494 33.2994 95.8494 33.3894L95.8394 33.3994ZM91.1994 33.5694V35.0594L92.8094 35.0294C92.8094 34.5494 92.7994 34.0494 92.7994 33.5494H91.2094L91.1994 33.5694ZM92.7994 37.0594V35.5094H91.1894V37.0994L92.7994 37.0594ZM95.0294 36.9994L95.0894 35.4894H93.3194C93.3194 36.0294 93.3194 36.5294 93.3094 37.0394L95.0294 36.9994ZM93.3394 33.5594C93.3394 34.0394 93.3394 34.5394 93.3294 35.0394L95.1194 35.0094L95.1794 33.5494H93.3394V33.5594Z" fill="white"/>
<path d="M109.199 33.4499C109.029 34.2599 108.769 35.8499 108.529 36.8899C108.499 37.0299 108.359 37.0799 108.259 37.0599C108.099 37.0499 108.009 36.9299 108.039 36.7899L108.099 36.4399L103.399 36.4999C103.109 38.3499 102.399 39.9199 100.579 41.6099C100.519 41.6699 100.459 41.6999 100.419 41.6999C100.359 41.6999 100.319 41.6699 100.259 41.6099C100.219 41.5699 100.189 41.5099 100.189 41.4699C100.189 41.4299 100.219 41.3799 100.259 41.3199C103.019 38.5599 102.919 36.1199 102.919 33.0999C102.919 32.9699 103.039 32.8799 103.179 32.8999H103.399C103.539 32.9299 103.599 32.9999 103.599 33.0999H107.489C107.739 33.0899 108.169 32.9699 108.369 32.9699C108.529 32.9699 108.759 33.0599 109.009 33.1699C109.139 33.2299 109.209 33.3399 109.199 33.4399V33.4499ZM109.649 30.8499V31.0099C109.649 31.1099 109.559 31.2299 109.459 31.2299L102.179 31.4199C102.089 31.4199 102.019 31.3499 102.019 31.2499V31.0899C102.019 30.9899 102.089 30.9199 102.189 30.9199L109.459 30.6699C109.559 30.6699 109.649 30.7299 109.649 30.8599V30.8499ZM108.189 35.9199L108.549 33.6199L103.589 33.6499C103.579 34.4999 103.549 35.2899 103.459 36.0199L108.189 35.9199Z" fill="white"/>
<path d="M118.74 34.1091C118.7 36.4791 118.62 38.8091 118.62 41.4191C118.62 41.5391 118.53 41.6191 118.43 41.6191H118.3C118.18 41.6191 118.11 41.5191 118.11 41.4191C118.11 39.3791 118.14 37.4791 118.15 35.6191C117.33 37.1291 116.11 38.7591 115.02 39.8291C114.95 39.9191 114.82 39.8991 114.74 39.8291C114.7 39.7891 114.67 39.7291 114.67 39.6691C114.67 39.6091 114.7 39.5491 114.76 39.4991C116.22 37.8591 117.57 35.7491 118.16 34.2991V34.1091H115.34C115.24 34.1191 115.15 34.0491 115.15 33.9391V33.8391C115.15 33.7391 115.24 33.6491 115.34 33.6491L118.16 33.6191C118.17 32.9791 118.17 32.3291 118.17 31.6791C117.52 31.8491 116.84 31.9991 116.19 32.1391C115.93 32.1991 115.83 31.8191 116.1 31.7491C117.3 31.4291 118.91 30.9391 119.81 30.5491C119.84 30.5391 119.87 30.5391 119.91 30.5391C119.98 30.5391 120.04 30.5691 120.07 30.6291L120.2 30.8891C120.24 30.9791 120.2 31.0891 120.11 31.1191C119.68 31.2591 119.23 31.4091 118.75 31.5391C118.75 32.2291 118.75 32.9291 118.74 33.6091H120.52C120.62 33.5991 120.71 33.6791 120.71 33.7791V33.9091C120.71 34.0091 120.62 34.0991 120.52 34.0991H118.73L118.74 34.1091ZM120.81 36.8291C121 37.0591 120.71 37.3391 120.51 37.1291C120.03 36.6491 119.51 36.1891 119.02 35.8291C118.92 35.7591 118.9 35.6391 118.96 35.5591L119.08 35.3991C119.14 35.3091 119.27 35.3091 119.35 35.3891C119.78 35.7691 120.49 36.4291 120.81 36.8391V36.8291ZM126.79 34.0291V34.2491L126.31 39.4891C126.31 39.5791 126.21 39.6491 126.11 39.6491H125.97C125.87 39.6191 125.81 39.5291 125.81 39.4291L125.84 38.9191L122.51 38.9591V39.5491C122.51 39.6491 122.42 39.7391 122.32 39.7391H122.22C122.12 39.7391 122.03 39.6491 122.03 39.5491L121.91 33.4591C121.91 33.3591 122 33.2691 122.1 33.2691H122.36C122.46 33.2691 122.55 33.3591 122.55 33.4591V33.6791L125.26 33.6391C125.65 33.5991 125.9 33.5491 126.06 33.5491C126.28 33.5491 126.51 33.7091 126.65 33.7991C126.75 33.8591 126.79 33.9491 126.79 34.0291ZM125.86 38.3991L126.11 34.1691H122.55L122.52 38.4491L125.86 38.3891V38.3991Z" fill="white"/>
<path d="M140.889 35.9194V36.0494C140.889 36.1694 140.799 36.2394 140.699 36.2394H136.579C136.549 38.2694 136.509 40.1594 136.509 41.6394C136.509 41.7694 136.439 41.8294 136.209 41.8294C136.069 41.8294 135.989 41.7294 135.989 41.6394C135.989 40.2794 136.049 38.5894 136.049 36.7594V36.2694H131.979C131.879 36.2794 131.789 36.2094 131.789 36.1094V35.9894C131.789 35.8894 131.879 35.7994 131.979 35.7994L136.049 35.7694C136.049 34.7094 136.039 33.6294 136.039 32.5694H133.769C133.769 32.5694 133.679 32.5594 133.649 32.5394C133.559 32.6994 133.479 32.8394 133.379 32.9994C132.899 33.7794 132.349 34.5294 131.639 35.1294C131.569 35.1894 131.479 35.2294 131.379 35.1294L131.319 35.0694C131.319 35.0694 131.279 34.9994 131.279 34.9694C131.279 34.9094 131.309 34.8494 131.349 34.8094C131.959 34.1994 132.509 33.5094 132.959 32.7394C133.409 31.9894 133.739 31.1794 133.999 30.3394C134.029 30.2394 134.129 30.1794 134.229 30.2194L134.479 30.2894C134.599 30.3194 134.639 30.4194 134.599 30.5194C134.369 31.0394 134.149 31.5794 133.889 32.0794H136.029V30.0494C136.029 29.9494 136.119 29.8594 136.219 29.8594H136.439C136.539 29.8694 136.629 29.9494 136.629 30.0494C136.629 30.6994 136.629 31.3694 136.619 32.0494L139.889 32.0194C139.989 32.0194 140.079 32.1094 140.079 32.2094V32.3394C140.079 32.4594 139.989 32.5294 139.889 32.5394H136.619V33.3594C136.619 34.1594 136.619 34.9494 136.609 35.7294L140.729 35.6994C140.829 35.6994 140.919 35.7894 140.919 35.8894L140.889 35.9194Z" fill="white"/>
<path d="M149.86 32.9203V33.0503C149.86 33.1503 149.77 33.2403 149.67 33.2403H148.7L148.66 35.5703L149.41 35.1703C149.5 35.1303 149.61 35.1303 149.68 35.2603C149.74 35.3603 149.71 35.4903 149.61 35.5503L148.65 36.1103C148.62 37.9303 148.59 39.6703 148.58 41.3303C148.58 41.4303 148.49 41.4903 148.38 41.4903H148.26C148.16 41.4903 148.07 41.4203 148.07 41.3203L148.11 36.4303L146.11 37.6003C145.95 37.6703 145.89 37.6003 145.79 37.4503C145.7 37.3303 145.67 37.1803 145.8 37.1003L148.1 35.8503C148.11 34.9703 148.11 34.1003 148.11 33.2403H146.94C146.65 33.9203 146.27 34.5903 145.78 35.2803C145.64 35.4803 145.4 35.3403 145.4 35.1603C145.4 35.1203 145.4 35.0903 145.43 35.0403C146.28 33.6703 146.62 32.7003 146.96 31.2203C146.97 31.1203 147.08 31.0603 147.16 31.0903L147.45 31.1803C147.55 31.2103 147.61 31.3003 147.58 31.4003C147.45 31.8803 147.29 32.3303 147.13 32.7703H148.11V30.5403C148.11 30.4503 148.2 30.3803 148.3 30.3803H148.5C148.6 30.3803 148.69 30.4503 148.69 30.5503C148.68 31.2903 148.68 32.0103 148.66 32.7403H149.63C149.73 32.7303 149.82 32.8003 149.82 32.9003L149.86 32.9203ZM156.85 36.0303C156.85 36.1303 156.75 36.2003 156.68 36.2003L154.96 36.2403V36.3003C154.96 37.9603 154.95 39.2503 154.87 41.2603C154.86 41.4303 154.71 41.5803 154.51 41.5803C154.47 41.5803 154.41 41.5803 154.35 41.5503C153.74 41.2903 153.21 41.1003 152.51 40.7403C152.44 40.7103 152.41 40.6403 152.44 40.5503C152.47 40.4603 152.56 40.4303 152.63 40.4603L154.35 41.0403C154.42 39.5103 154.41 38.7403 154.41 37.4703C154.41 37.0103 154.41 36.6003 154.4 36.2403C152.98 36.2703 151.53 36.2803 150.16 36.3003C150.06 36.3003 149.97 36.2303 149.96 36.0703C149.95 35.8803 150.06 35.8103 150.15 35.8103C151.54 35.8003 152.99 35.7703 154.39 35.7403C154.39 35.4403 154.38 35.1503 154.38 34.8303C154.38 34.7603 154.44 34.6703 154.55 34.6703H154.8C154.92 34.6703 154.97 34.7303 154.97 34.8203V35.7303L156.66 35.6903C156.76 35.6903 156.83 35.7603 156.85 35.8603C156.86 35.9603 156.86 36.0203 156.86 36.0303H156.85ZM150.21 34.0603V33.9103C150.21 33.8103 150.28 33.7503 150.37 33.7503L153.03 33.6903L152.99 31.9403L151.14 31.9703C151.04 31.9703 150.95 31.8803 150.95 31.7803V31.6403C150.95 31.5403 151.04 31.4503 151.14 31.4503L152.98 31.4103L152.95 29.9503C152.95 29.8803 153.01 29.8203 153.11 29.8203H153.31C153.41 29.8203 153.5 29.8603 153.5 29.9503V31.4103L155.42 31.3703C155.52 31.3703 155.61 31.4403 155.61 31.5603V31.7303C155.61 31.8303 155.52 31.9203 155.42 31.9203L153.48 31.9503V33.6903L156.64 33.6203C156.74 33.6203 156.83 33.6903 156.83 33.8103V33.9703C156.83 34.0603 156.74 34.1403 156.64 34.1403L150.37 34.2403C150.28 34.2403 150.21 34.1703 150.21 34.0703V34.0603ZM152.06 38.7503C152.12 38.8503 152.09 38.9703 151.99 39.0403C151.9 39.0803 151.8 39.0803 151.73 39.0003C151.35 38.4903 150.98 38.0003 150.59 37.5203C150.52 37.4503 150.53 37.3303 150.62 37.2703L150.84 37.1003C150.93 37.0403 151.04 37.0603 151.09 37.1303C151.44 37.6703 151.77 38.2203 152.07 38.7503H152.06Z" fill="white"/>
<path d="M165.14 30.9909C164.76 31.7909 164.21 32.7309 163.56 33.6709L163.42 40.8509C163.42 40.9709 163.35 41.0209 163.26 41.0209H163.1C163.01 41.0209 162.94 40.9609 162.94 40.8509L163.01 34.4109C162.34 35.2809 161.59 36.1309 160.8 36.8609C160.71 36.9309 160.6 36.9309 160.5 36.8309C160.44 36.7709 160.43 36.7109 160.43 36.6709C160.43 36.6109 160.44 36.5709 160.47 36.5409C162.44 34.6009 163.7 32.6909 164.57 30.7509C164.6 30.6909 164.66 30.6309 164.74 30.6309C164.77 30.6309 164.81 30.6409 164.84 30.6609L165.09 30.7809C165.16 30.8209 165.18 30.9309 165.15 31.0009L165.14 30.9909ZM172.61 39.7909C172.61 40.1809 172.34 40.2709 172.06 40.3309C171.38 40.4709 170.54 40.6209 169.66 40.6509C168.11 40.7109 166.81 40.3609 166.77 39.0709C166.73 37.8509 166.77 34.7109 166.86 31.8009C166.86 31.6809 166.98 31.6009 167.09 31.6009H167.31C167.45 31.6109 167.51 31.7209 167.51 31.8209C167.45 32.9209 167.41 33.9909 167.38 34.9609L171 33.6709C171.1 33.6309 171.2 33.7109 171.23 33.8009L171.29 33.9909C171.32 34.0809 171.25 34.1909 171.16 34.2209L167.37 35.5409C167.33 37.1809 167.31 38.4309 167.33 38.9409C167.37 39.9209 168.24 40.1409 169.66 40.1009C170.66 40.0609 171.27 39.9409 172.05 39.7509C171.98 39.0309 171.92 38.2609 171.83 37.4109C171.82 37.2809 171.9 37.2109 172.02 37.2109C172.09 37.2109 172.18 37.2509 172.19 37.3509C172.36 38.1209 172.57 39.3809 172.61 39.6209C172.62 39.6809 172.62 39.7409 172.62 39.7909H172.61Z" fill="white"/>
<path d="M178.6 33.3695C178.35 34.8995 177.86 35.8195 176.96 36.6595C176.86 36.7595 176.73 36.7595 176.66 36.6895C176.59 36.6195 176.54 36.4995 176.66 36.3895C177.4 35.6095 177.85 34.8395 178.06 33.3895H176.47C176.4 33.3995 176.33 33.3495 176.33 33.2295V33.0795C176.33 32.9895 176.4 32.9495 176.47 32.9495L178.12 32.9195C178.18 32.3995 178.21 31.8195 178.22 31.1195C178.22 31.0895 178.22 31.0795 178.23 31.0595H177.2C177.1 31.0695 177.01 30.9595 177.01 30.8695V30.7295C177.01 30.6395 177.1 30.5595 177.2 30.5595L181.5 30.4595C181.59 30.4595 181.67 30.5495 181.67 30.6495V30.8195C181.67 30.9095 181.58 30.9895 181.5 30.9895H180.6L180.56 32.8695L181.83 32.8395C181.92 32.8395 182.02 32.9095 182.02 33.0295V33.1595C182.02 33.2495 181.92 33.3295 181.83 33.3295H180.54L180.47 36.7195C180.47 36.8095 180.38 36.8795 180.27 36.8795H180.15C180.05 36.8795 179.98 36.8095 179.98 36.7095L180.02 33.3495H178.59L178.6 33.3695ZM185.8 41.1095V41.2495C185.8 41.3495 185.7 41.4395 185.6 41.4395L177.9 41.4695C177.78 41.4695 177.7 41.3795 177.7 41.2795V41.1795C177.7 41.0595 177.79 40.9895 177.9 40.9895L181.48 40.9595V38.5895H178.99C178.87 38.5895 178.79 38.4995 178.79 38.3895V38.2995C178.79 38.1795 178.88 38.0995 178.99 38.0995H181.47L181.46 36.3795C181.46 36.2795 181.55 36.2095 181.65 36.2095H181.85C181.95 36.2095 182.02 36.2795 182.02 36.3795L181.99 38.0695H184.57C184.67 38.0595 184.76 38.1295 184.76 38.2595V38.3795C184.76 38.4995 184.67 38.5795 184.57 38.5795H181.98L181.94 40.9495L185.62 40.9195C185.72 40.9195 185.82 41.0095 185.82 41.1095H185.8ZM178.79 31.1395C178.76 31.8095 178.72 32.3895 178.66 32.9095L180.04 32.8795L180.07 31.0295L178.77 31.0595C178.77 31.0595 178.8 31.1195 178.8 31.1495L178.79 31.1395ZM182.93 34.4995L182.96 31.2295C182.96 31.1295 183.05 31.0695 183.15 31.0695H183.37C183.47 31.0695 183.54 31.1395 183.54 31.2395L183.44 34.5095C183.44 34.6095 183.35 34.6695 183.25 34.6695H183.11C183.01 34.6695 182.94 34.5995 182.94 34.4995H182.93ZM186.06 30.4595C186.02 32.7595 185.97 33.8595 185.97 35.4695V36.5395C185.97 36.6795 185.93 36.7895 185.83 36.8395C185.71 36.9295 185.6 36.9395 185.47 36.8795L183.92 36.1095C183.69 35.9895 183.83 35.6895 184.08 35.7795L185.47 36.3295C185.44 34.4195 185.46 33.2795 185.47 30.4395C185.47 30.3495 185.56 30.2695 185.66 30.2695H185.88C186 30.2695 186.07 30.3595 186.07 30.4595H186.06Z" fill="white"/>
<path d="M198.3 35.3793C198.03 37.0393 197.58 38.5793 196.71 40.0693C196.65 40.1693 196.55 40.1993 196.44 40.1593C196.38 40.1293 196.34 40.0593 196.34 39.9993C196.34 39.9593 196.35 39.8993 196.38 39.8493C197.16 38.3893 197.48 36.9593 197.73 35.2793C197.74 35.1793 197.85 35.1093 197.96 35.1193L198.15 35.1493C198.29 35.1893 198.32 35.2893 198.31 35.3793H198.3ZM200.76 34.4793V34.6093C200.76 34.7093 200.69 34.7993 200.59 34.7993H199.17C199.14 36.7993 199.1 38.8693 199.05 41.0393C199.05 41.1593 198.96 41.2393 198.86 41.2393H198.77C198.65 41.2393 198.58 41.1393 198.58 41.0393C198.61 38.8793 198.62 36.8093 198.62 34.8193H196.74C196.64 34.8193 196.57 34.7593 196.57 34.6493V34.5493C196.57 34.4493 196.64 34.3593 196.74 34.3593H198.62C198.62 33.0093 198.62 31.7093 198.61 30.4393C198.61 30.3193 198.7 30.2393 198.8 30.2393H199.05C199.15 30.2393 199.22 30.3393 199.22 30.4393L199.18 34.3293H200.58C200.68 34.3193 200.75 34.3893 200.75 34.4893L200.76 34.4793ZM196.99 31.8593C196.95 31.7593 196.99 31.6393 197.09 31.5993L197.23 31.5393C197.42 31.4693 197.5 31.6093 197.55 31.7293C197.8 32.3493 198.06 33.1793 198.22 33.6793C198.25 33.7693 198.22 33.8493 198.13 33.8993C198.01 33.9593 197.91 33.9093 197.87 33.8093C197.62 33.1993 197.35 32.5693 196.99 31.8593ZM200.58 37.5393C200.64 37.7893 200.31 37.8893 200.23 37.6393C200 36.9493 199.71 36.0893 199.43 35.4693C199.37 35.3393 199.42 35.2493 199.53 35.1893L199.67 35.1193C199.79 35.0793 199.89 35.1293 199.92 35.2393C200.19 36.0393 200.43 36.8593 200.57 37.5393H200.58ZM200.85 31.7493C200.5 32.4393 200.18 33.0193 199.81 33.6493C199.77 33.7193 199.64 33.7993 199.52 33.6893C199.43 33.6193 199.43 33.5193 199.46 33.4593C199.78 32.8193 200.02 32.2293 200.3 31.5393C200.36 31.3993 200.47 31.3693 200.66 31.4493C200.89 31.5493 200.92 31.6093 200.85 31.7493ZM207.74 34.1193V34.2593C207.74 34.3493 207.65 34.4293 207.55 34.4293L201.14 34.4893C201.05 34.4893 200.98 34.4193 200.98 34.3193V34.1693C200.98 34.0693 201.05 34.0293 201.14 34.0293L203.88 33.9893V32.9193L202.19 32.9293C202.09 32.9293 202 32.8593 202 32.7593V32.6093C202 32.5093 202.09 32.4493 202.19 32.4493L203.85 32.4093V31.4293L201.72 31.4593C201.63 31.4593 201.55 31.3693 201.55 31.2893V31.1593C201.55 31.0593 201.64 30.9693 201.72 30.9693L203.83 30.9293V29.8993C203.82 29.8393 203.87 29.7793 203.97 29.7793H204.17C204.29 29.7793 204.36 29.8393 204.36 29.8993V30.9293L206.76 30.8893C206.85 30.8893 206.93 30.9593 206.93 31.0793V31.2393C206.93 31.3293 206.84 31.4093 206.76 31.4093L204.34 31.4393V32.4193L206.08 32.3793C206.18 32.3793 206.27 32.4493 206.27 32.5393V32.7093C206.27 32.8093 206.18 32.8993 206.08 32.8993H204.33L204.32 33.9993L207.55 33.9393C207.65 33.9393 207.74 34.0093 207.74 34.1293V34.1193ZM206.03 41.4393C206.03 41.5593 205.97 41.6393 205.87 41.7093C205.78 41.7693 205.71 41.7993 205.64 41.7993C205.58 41.7993 205.52 41.7893 205.48 41.7593L203.79 40.6693C203.72 40.6293 203.69 40.5293 203.73 40.4493C203.79 40.3593 203.87 40.3293 203.95 40.3793C204.43 40.6693 205.18 41.0293 205.54 41.1893L205.47 38.9593L202.76 38.9893C202.57 39.7593 202.3 40.4493 201.85 41.1793C201.66 41.4793 201.24 41.2393 201.43 40.9493C202.33 39.5493 202.53 38.0093 202.54 36.3293C202.54 36.0393 202.53 35.7393 202.53 35.4293C202.53 35.3393 202.62 35.2693 202.69 35.2693H202.91C203.01 35.2693 203.07 35.3293 203.08 35.3893L204.56 35.3493L205.17 35.2893C205.29 35.2793 205.42 35.2993 205.53 35.3493L205.85 35.4693C205.97 35.5093 205.98 35.6093 205.98 35.7593V36.8293C205.97 37.2493 205.92 38.1493 206.04 41.4493L206.03 41.4393ZM205.45 38.4893V38.3293C205.45 38.1793 205.44 37.8093 205.44 37.3693L202.99 37.4093C202.96 37.7993 202.92 38.1793 202.85 38.5393L205.45 38.4793V38.4893ZM203.08 35.8693L203.04 36.9593L205.43 36.9193C205.42 36.3793 205.42 35.9093 205.42 35.8493L203.09 35.8793L203.08 35.8693Z" fill="white"/>
<path d="M221.59 32.9208C221.58 33.1808 221.58 33.4408 221.56 33.7208C221.53 35.0408 221.49 40.6508 221.49 41.1708C221.49 41.2308 221.43 41.3608 221.33 41.4308L221.26 41.4708C221.2 41.5008 221.14 41.5308 221.09 41.5308C221.04 41.5308 221 41.5208 220.95 41.4908L218.87 40.3008C218.8 40.2608 218.77 40.1608 218.8 40.1008C218.84 40.0108 218.94 39.9808 219.03 40.0108L220.95 40.8908C220.98 39.9808 220.98 36.7408 220.96 33.1008H217.34C217.12 34.7508 216.34 35.9708 214.43 36.8108C214.23 36.9008 214.04 36.5808 214.26 36.4608C215.95 35.5008 216.6 34.5108 216.79 33.1008H213.69C213.68 35.9208 213.59 37.9808 213.27 40.8108C213.26 40.9008 213.18 40.9808 213.11 40.9708H212.94C212.84 40.9708 212.75 40.9108 212.75 40.8108C213.08 37.8008 213.08 35.6108 213.08 32.5008C213.08 32.4008 213.17 32.3308 213.24 32.3308H213.5C213.6 32.3308 213.69 32.4208 213.69 32.5008V32.5708H216.85C216.88 32.1508 216.88 31.5108 216.88 30.2508C216.88 30.1508 216.97 30.0508 217.07 30.0508H217.3C217.43 30.0808 217.47 30.1708 217.47 30.2708C217.47 30.9908 217.43 32.0808 217.4 32.5608H219.67C219.93 32.5508 220.64 32.4908 220.78 32.4908C220.98 32.4908 221.13 32.5508 221.43 32.6608C221.57 32.7208 221.59 32.7908 221.59 32.9108V32.9208ZM217.41 35.7808C217.11 37.5608 216.17 38.5208 214.89 39.1408C214.69 39.2408 214.46 38.9208 214.7 38.7808C216.22 37.8808 216.65 37.0308 216.86 35.7008C216.87 35.6008 216.95 35.4808 217.05 35.5108L217.24 35.5508C217.37 35.5808 217.43 35.6708 217.41 35.7808ZM218.93 39.1908C218.42 38.5708 217.76 37.9608 217.19 37.5108C217.09 37.4508 217.03 37.3808 217.12 37.2908L217.26 37.1308C217.36 37.0308 217.43 37.0408 217.49 37.0908C218.05 37.5508 218.66 38.1808 219.29 38.9308C219.36 39.0208 219.33 39.1608 219.25 39.2208C219.13 39.3108 219 39.2808 218.93 39.1908ZM217.26 34.4008L217.42 34.2108C217.52 34.0908 217.59 34.1108 217.67 34.1708C218.6 34.8608 219.45 35.7208 219.9 36.3108C219.97 36.4108 219.94 36.5108 219.86 36.6008C219.74 36.7208 219.61 36.6608 219.54 36.5908C218.89 35.8808 218.19 35.2008 217.33 34.6408C217.24 34.5808 217.2 34.4908 217.27 34.4108L217.26 34.4008Z" fill="white"/>
<path d="M235.631 40.3003V40.3703C235.631 40.4703 235.511 40.5903 235.411 40.5903H230.601C230.591 40.6603 230.561 40.7603 230.401 40.7603H230.331C230.201 40.7603 230.131 40.6703 230.131 40.5603C230.271 38.2003 230.351 36.7703 230.461 33.2103C230.471 32.3103 230.471 32.1203 230.331 31.2903C230.331 31.2603 230.331 31.1703 230.391 31.1303C230.461 31.1003 230.611 31.0703 230.691 31.0703C230.811 31.0703 230.851 31.1303 230.881 31.2403C230.881 31.2503 230.891 31.2703 230.891 31.3003H235.201C235.321 31.3003 235.401 31.4203 235.401 31.5203V31.5903C235.401 31.7103 235.331 31.8103 235.201 31.8103H230.961C231.001 32.1603 231.031 32.6503 231.001 33.2103C230.971 33.9903 230.931 34.7303 230.881 35.4403H234.831C234.931 35.4403 235.051 35.5803 235.051 35.6903V35.7603C235.051 35.8603 234.931 35.9603 234.831 35.9603H230.851C230.781 37.3503 230.691 38.6803 230.621 40.0703H235.401C235.521 40.0703 235.621 40.1903 235.621 40.3003H235.631Z" fill="white"/>
<path d="M240.311 36.4804V36.3804C240.351 33.4904 241.991 31.1504 244.611 31.1504C245.981 31.1504 246.721 31.7004 247.161 32.0204C247.191 32.0604 247.221 32.0904 247.221 32.1604C247.221 32.2204 247.211 32.2604 247.181 32.3104L247.111 32.4004C247.111 32.4004 247.041 32.4704 246.971 32.4704C246.911 32.4704 246.871 32.4604 246.831 32.4304C246.181 31.8904 245.571 31.6804 244.621 31.6804C242.451 31.6804 240.961 33.5604 240.901 36.4304C240.861 38.9604 242.561 40.2804 244.331 40.2804C245.591 40.2804 246.621 39.8004 247.641 38.7004C247.681 38.6604 247.741 38.6304 247.841 38.6304C247.931 38.6304 248.071 38.7204 248.091 38.8504C248.091 38.8904 248.091 38.9704 248.051 39.0204C246.921 40.2404 245.731 40.8004 244.271 40.8004C242.291 40.8004 240.331 39.4304 240.331 36.4904L240.311 36.4804Z" fill="white"/>
<path d="M46.2396 48.4202C46.0596 48.4202 45.8196 48.5202 45.6396 48.5502C45.5596 48.5802 45.4596 48.5502 45.3796 48.5502C45.3496 48.5802 45.3496 48.6002 45.3496 48.6502V48.7002C45.3796 48.8002 45.3796 48.9302 45.3796 49.0402V49.2502C45.3796 49.5102 45.4596 49.7202 45.4796 49.9802C45.5096 50.0802 45.5296 50.1902 45.6396 50.1902C45.7196 50.1902 45.7996 50.1602 45.8496 50.1402C46.0596 50.0902 46.2396 50.0402 46.4496 50.0102C46.8396 49.9802 46.8896 49.8502 46.8896 49.6202V49.2002C46.8896 48.9702 46.8896 48.7302 46.8596 48.4902C46.6496 48.4602 46.4396 48.4102 46.2296 48.4102L46.2396 48.4202Z" fill="#B11F23"/>
<path d="M42.6604 44.7104C42.5004 44.6104 42.3704 44.5304 42.1904 44.5304L42.0604 44.4004L41.9804 44.4304C41.9304 44.5604 41.8204 44.6104 41.6904 44.6904C41.5604 44.8504 41.4304 45.0004 41.3004 45.1604C41.0604 45.5804 40.7204 46.0004 40.5204 46.3904C40.3604 46.6804 40.1804 46.9904 40.1504 47.3304C40.2004 47.3604 40.2304 47.3804 40.2804 47.4304C40.3604 47.4804 40.4604 47.6104 40.5904 47.6404C40.8304 47.6704 41.2204 47.7704 41.3704 47.7704C41.5004 47.7704 41.6804 47.9504 41.7604 48.0304C41.9704 48.3204 42.3604 48.7404 42.6204 49.0204C42.7204 49.1204 42.8004 49.2304 42.8304 49.3604C42.8304 49.4104 42.8604 49.5204 42.9104 49.5404C42.9404 49.5704 42.9904 49.5704 42.9604 49.5104L42.8304 46.7904L42.6504 44.7004L42.6604 44.7104Z" fill="#B11F23"/>
<path d="M45.6595 44.7592C45.3695 44.8592 45.0795 44.9692 44.7695 44.9392V44.9892C45.0095 45.2792 45.0095 45.6692 45.0795 46.0092C44.9795 46.2492 44.9995 46.4292 45.1295 46.6392C45.4995 46.6392 45.8595 46.5092 46.2295 46.4592C46.4595 46.4092 46.6695 46.3792 46.8795 46.2792C46.9095 45.9892 46.9095 45.6792 46.9095 45.3692C46.9095 45.0792 46.9095 44.7692 46.8795 44.4492C46.4395 44.4792 46.0395 44.6092 45.6495 44.7592H45.6595Z" fill="#B11F23"/>
<path d="M22.6906 49.3106C22.6906 49.4106 22.6906 49.5506 22.6606 49.6506C22.7606 49.8306 22.8206 50.0206 22.8206 50.2506C22.8506 50.7706 22.9206 51.2706 23.0006 51.7906C23.0306 52.1306 23.0306 52.4406 23.0306 52.7806C23.0306 52.9106 23.0806 53.0406 23.1306 53.1706C23.7306 53.0706 24.3606 52.8606 24.9906 52.8606H25.2306C25.3606 52.8606 25.4706 52.8306 25.5706 52.8106C25.7306 52.2406 25.7306 51.6106 25.7806 51.0306L26.0906 46.9806L26.0606 46.6406L25.4106 46.6706C25.3606 46.7506 25.3106 46.7706 25.2306 46.7706C24.0806 46.9506 23.3506 47.1606 22.1406 47.2406V47.3206C22.3006 47.4506 22.3006 47.5006 22.3006 47.5306C22.4006 48.1606 22.6906 49.0206 22.6906 49.3106Z" fill="#B11F23"/>
<path d="M47.2305 71.3308L45.1105 71.5408C44.4805 71.5908 43.9105 71.7508 43.2805 71.9608C42.8905 72.0108 42.4405 72.0408 42.0505 72.1708C41.8705 72.2208 41.6605 72.3308 41.4705 72.3308C41.1305 72.3308 40.7905 72.3008 40.4505 72.3308C40.2905 72.8808 40.2905 73.4508 40.2405 74.0008C40.2105 74.3708 40.0605 74.7108 40.0605 75.0508C40.0605 75.0808 40.0605 75.1308 40.0905 75.1508L40.1705 75.3108L40.4805 75.3408L42.8905 74.9708L45.3505 74.6308C45.6905 74.5808 46.0805 74.6008 46.4505 74.6008C47.0505 74.5708 46.8405 74.3408 47.6805 74.4408C47.9205 74.3908 48.1205 74.3608 48.3305 74.2608C48.8505 74.1008 48.7205 73.8708 48.8805 73.2908C48.9805 72.8708 49.0105 72.4808 49.0405 72.0408C49.0905 71.7308 49.1705 71.4108 49.1705 71.1008L49.1205 71.0508L47.2405 71.3408L47.2305 71.3308Z" fill="#B11F23"/>
<path d="M50.7409 47.9205C50.4509 47.9705 50.1909 47.9705 50.0109 48.2305V48.3105C49.9809 48.5205 49.9609 48.7305 49.9609 48.9605C49.9609 49.2705 50.0109 49.5405 50.2209 49.5405C50.2709 49.5405 50.3509 49.5105 50.4309 49.4605C50.6909 49.4305 50.9509 49.4605 51.2409 49.4605C51.2909 49.4605 51.3409 49.4305 51.4009 49.4105L51.4809 48.9405C51.4509 48.7305 51.4809 48.5205 51.5309 48.3105C51.5609 48.1305 51.5809 47.9405 51.5809 47.7305C51.3409 47.7305 51.1409 47.8105 50.9009 47.8905C50.8509 47.9205 50.8009 47.9205 50.7409 47.9205Z" fill="#B11F23"/>
<path d="M57.9502 32.9707H3.84016C3.46016 32.9707 3.16016 33.2707 3.16016 33.6507V87.7607C3.16016 88.1407 3.46016 88.4407 3.84016 88.4407H57.9502C58.3302 88.4407 58.6302 88.1407 58.6302 87.7607V33.6507C58.6302 33.2707 58.3302 32.9707 57.9502 32.9707ZM36.3302 36.4707L36.4102 36.3407C36.7802 36.5207 37.1402 36.7607 37.5302 36.8607C38.0502 37.0407 38.6802 37.2007 39.0702 37.2007C39.1502 37.2007 39.2302 37.2007 39.2802 37.1707L39.7802 37.1407C39.9602 37.1907 40.1502 37.3207 40.3302 37.3207H40.5102C40.5902 37.3207 42.0802 38.2107 42.2402 38.3107C42.6102 38.5707 42.5802 38.6207 42.6802 39.0407C42.7102 39.1207 42.7302 39.2007 42.7602 39.2807C42.6602 39.4107 42.6002 39.5407 42.5502 39.7007C42.4502 39.9907 42.2402 40.0407 41.9702 40.1707C41.8702 40.2507 41.7902 40.2707 41.7302 40.2707H41.5502C41.4702 40.2407 41.3702 40.2407 41.2902 40.2407L41.2102 40.4007L39.0702 40.2407C38.6502 40.0807 38.2102 40.0307 37.8702 39.6907C37.6602 39.6107 36.8002 38.8807 36.5902 38.5707C36.5102 38.4407 36.3302 37.7107 36.3002 37.5207C36.1202 37.2807 36.0402 37.1507 36.0402 37.0007C36.0402 36.7707 36.1202 36.5607 36.3302 36.4507V36.4707ZM5.82016 54.6707C6.08016 54.5407 6.29016 54.4107 6.53016 54.2507C7.18016 53.9407 7.37016 53.6707 7.86016 53.1807L9.04016 51.9007C9.41016 51.5107 9.82016 51.1707 10.2202 50.8307L11.5502 49.6007C11.6502 49.5207 13.1702 47.6107 13.2502 47.4807C12.7802 47.6107 12.3102 47.7407 11.8602 47.9507C11.6502 48.0507 11.4402 48.1307 11.2302 48.3207C11.1802 48.3707 11.1002 48.4007 11.0502 48.4207C10.8702 48.4507 10.7602 48.5207 10.6102 48.6307C10.5802 48.6607 10.5602 48.6607 10.5302 48.6607C10.3202 48.6607 9.46016 48.4307 9.30016 48.3207C8.93016 48.0807 8.57016 47.8807 8.20016 47.6707C7.91016 47.4907 7.65016 47.2807 7.36016 47.0907C7.20016 46.8307 7.05016 46.6207 6.89016 46.3307C6.81016 46.1507 6.63016 46.0707 6.45016 45.9907V45.8307C6.58016 45.8807 6.71016 45.9107 6.87016 45.9107C7.31016 45.9107 7.78016 45.8307 8.23016 45.8107L10.4002 45.3407L10.6902 45.2607L13.2502 44.6807L13.3002 44.5807L13.1702 42.3807L13.1402 42.2007C13.0602 42.1507 13.0102 42.1207 12.9302 42.1207C12.8002 42.1207 12.6702 42.1707 12.5402 42.2007C12.0702 42.3607 11.5702 42.2307 11.1002 42.3007C10.6002 42.3507 10.1302 42.4607 9.64016 42.4607C9.20016 42.4607 8.75016 42.3807 8.31016 42.3807C8.18016 42.3807 8.07016 42.3307 8.00016 42.2007L8.81016 41.9407L10.8802 40.8907C11.1402 40.7307 11.4002 40.6007 11.7202 40.5007L13.6302 39.5607C13.7602 39.4807 13.8902 39.3807 14.0202 39.3007C14.6502 38.8607 14.6502 38.9307 15.3302 38.3607C15.6702 38.1207 15.9802 37.9207 16.2402 37.5807C15.9302 37.3507 15.4302 36.9007 15.2702 36.5307C15.4502 36.5007 15.6402 36.4307 15.8202 36.4307C16.0602 36.4307 16.3402 36.5307 16.5802 36.5907H17.3602C17.4602 36.5907 17.6002 36.6407 17.7002 36.6907C17.9402 36.6907 18.1202 36.7407 18.3002 36.9007C18.5602 37.1107 18.6702 37.2707 19.0602 37.5807C19.3202 37.8207 19.6102 38.0307 19.9002 38.2307C20.4002 38.6207 20.4702 39.1507 20.4702 39.7207C20.5002 39.8207 20.5502 39.9307 20.5502 40.0307C20.5502 40.2607 20.2102 40.5807 19.9702 40.6607C19.6002 40.6607 19.2402 40.6907 18.8702 40.6907H18.3502C17.6702 40.8707 17.0402 41.0607 16.3602 41.1607C16.2002 41.2107 16.0502 41.2607 15.8902 41.3407C15.6302 41.3907 15.3902 41.5007 15.1302 41.6307C15.3402 41.7607 15.8102 41.9407 15.9702 42.1307C16.1002 42.2907 16.7302 42.9107 16.7302 43.0207V43.1007C16.6802 43.3107 16.6302 43.5707 16.6302 43.8107C16.6302 43.8907 16.7102 43.9107 16.7902 43.9107C16.8902 43.9107 16.9502 43.8807 17.2302 43.7507C17.2602 43.7207 17.2802 43.7207 17.3102 43.7207C17.5702 43.7207 17.9402 43.9007 18.2002 44.0907C18.3002 44.3307 18.9102 44.7707 19.1402 44.8707C19.1902 44.9207 19.2402 45.0007 19.3002 45.0807C19.4602 45.3407 19.6902 45.5507 20.0302 45.5507C20.4202 45.5507 20.9202 45.4507 21.2902 45.3707L24.2702 44.7407C24.6902 44.6907 25.0802 44.6107 25.5002 44.5107C25.5502 44.3307 25.6302 44.2707 25.8102 44.2507L25.8902 43.8007C26.0702 43.7707 26.2602 43.7007 26.4402 43.6207L26.4102 43.5207C26.9902 43.5507 27.2702 43.7307 27.7402 44.0207C28.2102 44.2307 28.6002 44.5207 29.0002 44.8007C29.2902 44.8807 29.6002 44.9607 29.8602 45.0607C30.3302 45.2707 30.7202 45.7107 31.0602 46.0807C31.1902 46.2407 31.2202 46.8107 31.2202 47.0207C31.2202 47.1207 31.1902 47.2307 31.1402 47.3607C31.1102 47.4107 31.0602 47.5707 31.0402 47.6707C30.9902 47.7207 30.2602 48.1707 29.8902 48.2707C29.8102 48.3007 29.7602 48.3707 29.7102 48.4307L29.6102 48.7707L29.1702 50.8407C28.9102 51.5507 28.8602 52.3007 28.6202 53.0107C29.0102 53.2507 29.1202 53.4607 29.3002 53.8507C29.2202 54.0907 29.1202 54.4807 28.8802 54.6307C28.5702 54.8107 28.2502 55.1007 27.8602 55.1007C27.5502 55.1007 27.2602 55.0707 26.9702 55.0707C26.2102 55.0707 25.4502 55.1207 24.7002 55.3107C23.3402 55.6207 23.6002 55.1307 22.8402 56.2007C22.6802 56.4107 22.3202 56.5107 22.0802 56.5107C21.5602 56.5107 21.2402 56.0907 20.8802 55.6207C20.0202 54.6807 20.1702 54.7607 20.0402 53.5307C20.0402 53.4507 20.0102 53.3707 19.9902 53.2907L20.0402 53.1907L19.9902 51.4607L19.7002 48.9007C19.6002 47.9107 19.4402 47.0407 18.8102 46.2307C18.6802 46.2607 18.5502 46.3107 18.4402 46.3307C18.1302 46.3607 17.0302 46.5107 16.9202 46.5107C16.7102 46.5107 16.5002 46.6107 16.2902 46.7207C16.2102 47.1107 16.1302 47.4807 16.1602 47.9007C16.5802 48.1907 16.7902 48.2707 17.2602 48.4507C17.8602 48.6607 18.4402 49.2107 18.8302 49.7307C18.9902 49.9907 19.0102 50.4107 19.0102 50.7007C19.0102 50.8007 18.9802 50.8807 18.9802 50.9607C18.9302 51.2207 18.9302 51.4607 18.7402 51.6707C18.6102 51.8507 18.4802 52.0107 18.4002 52.1907C18.1902 52.1607 18.0102 52.1407 17.8002 52.1407C17.2802 52.1107 16.8302 51.4907 16.5402 51.1207C16.4102 50.9607 16.2502 50.8307 16.1002 50.7007H16.0202C16.0202 51.0107 16.0502 51.3307 16.0502 51.6407C16.0502 51.7407 16.0202 51.8207 16.0202 51.9307C15.9902 51.9607 15.9902 52.0107 15.9902 52.0307V54.1507C16.0202 54.9907 16.1502 56.3507 15.9102 57.1007C16.0402 57.4407 15.9402 57.5707 15.9402 58.4107C15.9402 58.6207 15.7602 58.9107 15.6502 59.0607C15.5502 59.2207 15.5502 59.1107 15.1302 59.8407C15.1002 59.9407 14.9202 59.9707 14.8402 59.9707C14.5802 59.9707 14.1602 59.6807 13.9002 59.5807C13.7702 59.4007 13.4802 59.1107 13.4002 58.9307C13.0902 58.2807 12.8202 57.7807 12.6402 57.0707C12.5602 56.8907 12.5102 56.7307 12.5102 56.5507C12.8002 56.5007 12.8002 56.2907 12.8002 56.0307H12.9002C12.9802 55.8507 13.0002 55.6907 13.0002 55.5107L13.1002 55.4807L13.2002 54.8807L13.3002 52.6807L13.3302 51.5807C13.1202 51.7607 12.9402 51.9707 12.7502 52.1507C12.4902 52.3307 12.2802 52.4907 12.1002 52.7507C11.8402 53.1207 10.2402 54.1107 9.77016 54.2907C9.25016 54.5307 8.51016 54.8107 7.91016 54.8407C7.67016 54.8707 7.47016 54.8707 7.23016 54.9207C7.13016 54.9507 6.99016 54.9507 6.89016 54.9507C6.52016 54.9507 6.11016 54.9507 5.82016 54.7207L5.79016 54.6707H5.82016ZM31.7602 77.5007C31.6802 77.6307 31.5802 77.7607 31.4702 77.8707C31.2902 77.9707 31.1002 78.0807 30.9202 78.1807C30.8402 78.2307 30.1402 78.2807 30.0102 78.2807C29.7002 78.2807 28.7802 78.0407 28.4402 77.9407C27.5502 77.8907 27.0302 77.7807 26.1702 77.6007C25.7302 77.5507 25.3102 77.5007 24.8602 77.4407C24.3402 77.3607 23.6802 77.3607 23.1302 77.3907L21.1202 77.4907C21.0202 77.4907 20.9902 77.7007 20.9902 77.7807L20.9402 79.9807C20.9402 80.8407 20.9402 81.9907 20.7302 82.8007C20.6502 83.0907 20.5202 83.4007 20.5202 83.6907C20.5202 83.8207 20.5502 83.9807 20.5502 84.1107C20.5502 84.6607 20.1802 85.2907 19.8202 85.9107C19.6402 86.3307 19.5602 86.4807 19.1402 86.6907C19.0902 86.7907 18.9802 87.0007 18.8302 87.0007C18.6502 87.0007 18.4902 86.6607 18.4102 86.5007L18.3802 86.2907L17.9102 84.0907L17.7802 82.7007L17.8102 80.2407C17.8402 80.0607 17.7802 79.8707 17.7602 79.7207V79.6207C17.7602 79.3107 17.7902 78.9907 17.7902 78.6807C17.7902 78.3907 17.7602 78.1007 17.7402 77.8207C17.4502 77.8207 17.1602 77.8707 16.9002 77.9507C16.4302 78.0807 15.9802 78.1607 15.5402 78.3407L13.6302 78.8607C12.7902 79.1507 12.9002 79.0707 12.2702 79.2507C12.0602 79.3307 11.9002 79.4307 11.6902 79.5407C11.5102 79.5407 11.4002 79.5707 11.2502 79.6407C11.1702 79.6707 11.1202 79.6707 11.0702 79.6707C10.7602 79.6707 9.95016 79.4107 9.68016 79.2507C9.52016 79.1507 9.42016 79.0907 9.24016 79.0407C9.19016 79.0407 9.14016 78.9607 9.11016 78.9107C8.48016 78.8107 7.99016 78.4107 7.46016 78.0707C6.70016 77.7607 6.62016 77.7607 6.18016 77.0207L6.13016 76.9407V76.8107C6.23016 76.8107 6.34016 76.7807 6.44016 76.7807C6.73016 76.7807 7.04016 76.8307 7.36016 76.8307C8.38016 76.8307 9.37016 76.6207 10.3902 76.5207C10.6502 76.4907 10.9402 76.4707 11.2302 76.4207L13.4502 75.9807L13.7402 75.9507L16.9802 75.5107L17.5302 75.4307C17.5602 75.3307 17.6102 72.6307 17.6102 72.5807C17.4302 72.5807 17.2402 72.6307 17.0602 72.6607C16.6702 72.6607 16.2802 72.7107 15.8802 72.6607C15.2302 72.6307 14.6002 72.2707 14.0202 71.9807C13.7802 71.9007 13.5502 71.8507 13.3102 71.8007C13.1002 72.1707 12.3702 72.7907 12.0002 73.0807C11.7902 73.3207 11.6302 73.5807 11.3202 73.6807C11.1102 73.8907 10.6402 74.2607 10.3802 74.3907C10.0102 74.6007 10.0402 74.3607 9.23016 74.8407C9.20016 74.8707 9.18016 74.8707 9.15016 74.8707C8.99016 74.8707 8.84016 74.8407 8.68016 74.8207L8.31016 74.6907L8.41016 74.5107C9.01016 74.0907 9.32016 73.4107 9.66016 72.7607C9.69016 72.7107 9.74016 72.6607 9.79016 72.6007C9.95016 72.4207 10.0802 72.1807 10.1802 71.9507L11.0702 69.8107C11.1502 69.6007 11.2302 69.3407 11.2802 69.1007C11.4902 68.3907 11.8002 67.7107 11.8002 66.9607C11.8002 66.7007 11.6202 66.5207 11.3802 66.4107C11.0702 66.2507 10.7502 66.1507 10.5702 65.8107C10.8802 65.6007 10.9602 65.5507 11.1702 65.5507L11.3502 65.4507C11.6602 65.4507 12.0002 65.4207 12.3402 65.4207C12.9402 65.4207 12.9902 65.7907 14.2202 66.4907C14.6602 66.7207 14.9302 67.1707 15.2102 67.5407C15.3702 67.7207 15.7802 68.1907 15.7802 68.4007C15.7802 68.5607 15.7802 68.7407 15.6802 68.8707C15.6002 68.9707 15.5002 69.0507 15.4202 69.1307C15.1802 69.4707 14.9202 69.7607 14.6402 70.0507C14.4602 70.2107 14.3302 70.4407 14.2002 70.6507L14.2802 70.7307H14.9302L17.5402 70.1507L17.6402 70.0707L17.6702 69.9107L17.6402 66.4307C17.6402 65.6207 17.5602 64.8307 17.5402 64.0207C17.5402 63.9707 17.4902 63.9407 17.4602 63.9207C16.6802 63.2107 16.8602 63.1607 16.3902 62.8207C16.3402 62.7707 16.2902 62.7207 16.2302 62.6607L16.1302 62.4207L16.3702 62.4507C16.7902 62.3507 17.1802 62.4507 17.6502 62.3707C17.6802 62.3707 18.2002 62.2107 18.3602 62.1607C18.4602 62.1107 18.5402 62.0807 18.5702 62.0807C18.6202 62.0807 18.7002 62.1107 18.7502 62.1307C19.0602 62.3707 19.4002 62.5507 19.7402 62.7607C20.1102 63.0507 20.4502 63.3107 20.8602 63.5407C21.3002 64.0907 21.8802 64.4807 21.9602 64.6607C22.0102 64.7907 22.1702 65.0007 22.1702 65.1307C22.1702 65.8907 22.1702 65.9907 21.5202 66.3307C21.2802 66.4307 21.3102 67.5607 21.2802 67.8207C21.2502 68.3207 21.1502 68.8907 21.2002 69.3607C21.8302 69.2807 22.3002 68.9207 22.6602 68.4407C22.9002 68.4407 23.0302 68.4107 23.6502 68.2607C23.7502 68.2907 23.8602 68.2907 23.9902 68.2607C24.2502 68.4207 24.5402 68.5007 24.8302 68.6007C25.4102 68.7607 25.9502 69.0507 26.4802 69.3307L26.7902 69.9607C26.8202 70.0607 26.8202 70.1707 26.7602 70.2707C26.7902 70.3507 26.9202 70.5307 26.8402 70.6107C26.6602 70.7907 26.4502 70.9507 26.1902 71.0307C26.0102 71.2707 25.7702 71.3207 25.4802 71.4007C25.3002 71.4307 23.8102 71.7407 23.7502 71.7407C23.5902 71.7407 23.4402 71.7107 23.3102 71.7107C23.0702 71.7107 22.8702 71.7607 22.6602 71.8107C22.4002 71.8607 22.1102 71.9707 21.8502 71.9907C21.6402 72.0207 21.4302 72.0407 21.2202 72.1207L21.1702 72.2807L21.0702 74.5307V75.1007L24.3902 75.0007L24.9102 75.0507C25.6702 75.0007 26.4502 75.0807 27.1302 74.8207H27.4202C27.5502 74.8207 28.1002 74.5607 28.2602 74.5107C28.3602 74.4607 28.5002 74.4107 28.6002 74.4107C28.8102 74.4107 29.0402 74.5907 29.2302 74.6707C29.5402 74.8307 29.7302 75.0107 29.9102 75.3007C30.1202 75.4307 30.3002 75.5607 30.4802 75.7207C30.8702 75.8807 31.6302 76.4807 31.7602 76.8707C31.7602 76.9207 31.7902 77.0007 31.7902 77.1007C31.7902 77.2607 31.7602 77.4107 31.7402 77.4707L31.7602 77.5007ZM55.0802 71.7407C54.8402 72.1107 54.0902 72.3207 53.7202 72.5007C53.4102 72.6307 53.0402 73.4707 52.8802 73.7807C52.7802 73.9607 52.6702 74.1507 52.5102 74.3007C52.3302 74.4607 52.2002 74.5607 52.2002 74.7207C52.2002 74.8007 52.3002 74.9307 52.6702 75.1107C52.7202 75.1407 52.8002 75.2107 52.8502 75.2707C52.9802 75.4507 53.0602 75.6407 53.0602 75.8507C53.0602 76.1107 52.9602 76.5307 52.7202 76.6907C52.0402 77.1907 51.8102 77.3407 51.3102 77.3407C50.9202 77.3407 50.5502 77.2607 49.7902 77.0507C49.6902 77.0207 49.5802 77.0007 49.4802 77.0007L47.3102 76.9007L45.0402 77.1307L42.4002 77.6507C42.2402 77.6807 42.1602 77.6807 42.0102 77.6807H41.4902C41.1202 77.6807 40.7302 77.4707 40.4402 77.2607C40.2602 77.1607 40.0202 77.1007 39.8102 77.0207L39.7302 77.0707L39.5502 77.4407L38.9702 79.9207L38.6302 80.9107C38.5002 81.4607 38.2102 81.9607 37.9802 82.4807C37.6702 82.7907 37.4802 83.1607 37.2702 83.5507C36.8002 84.3607 36.0902 85.1207 35.3402 85.6707C34.9502 85.9307 34.6302 86.0407 34.1902 86.1407C33.6402 86.3007 33.1202 86.3507 32.5702 86.3507C32.3302 86.3507 32.1302 86.3507 31.8902 86.3207L31.9702 86.1607C32.6502 85.4307 32.9602 85.0907 33.4302 84.2007C34.4202 82.3207 34.6302 81.7407 35.3902 79.7807C35.9102 78.4207 36.2502 76.9007 36.4102 75.4407C36.6202 74.4507 36.7802 73.4507 36.8002 72.4307C36.8002 72.2007 36.8502 71.9607 36.9002 71.7507C36.9302 71.5407 36.9802 71.3307 36.9802 71.1207C36.9802 70.7507 36.7202 70.3107 36.3802 70.1507C36.1202 70.0507 35.1802 69.6507 35.0502 69.4707C35.0202 69.4407 35.0202 69.3907 35.0202 69.3407C35.4602 69.0007 36.0902 68.8407 36.6702 68.8407C37.6902 68.8407 38.9402 69.2807 39.8602 69.7307C39.9402 69.7607 40.0402 69.7807 40.1502 69.7807C40.3102 69.7807 40.4402 69.7507 40.5702 69.7507C40.7502 69.7507 40.9402 69.7507 41.1202 69.7207L43.2102 69.3507C43.8902 69.3007 44.5702 69.2507 45.2502 69.0907C45.6202 69.0407 46.0102 69.0107 46.4002 68.9607H46.6402L49.6202 68.4107C49.7802 68.3807 50.1402 68.1007 50.3002 67.9907C50.8002 67.7007 50.9302 67.6807 51.0602 67.6807C51.3502 67.6807 51.5802 67.8107 52.0802 68.1807C52.2102 68.2607 52.3202 68.3407 52.4502 68.3907L54.3102 69.3307C54.8102 69.5907 55.5702 70.0607 55.5702 70.7207C55.5702 70.9807 55.2302 71.4507 55.1002 71.7107L55.0802 71.7407ZM35.0002 63.8707L35.0302 63.7907C35.3202 63.8407 35.5802 63.9207 35.8702 64.0007C36.3902 64.1607 36.9702 64.3407 37.5202 64.3107L39.9002 64.2607L42.3802 64.0807L44.6802 63.9007L45.2602 63.8207L47.4002 63.5307C48.1302 63.4307 49.0502 63.1907 49.7302 62.9607C49.8302 62.9307 49.9402 62.8807 50.0402 62.8307C50.6202 62.3607 50.7202 62.2807 51.5002 62.2807C51.8902 62.2807 52.3402 62.5107 52.6802 62.7007C52.8602 62.8007 53.1002 62.8807 53.2802 62.9607C53.5702 63.0607 54.1702 63.5907 54.1702 63.8707C54.1702 64.3707 54.0402 64.9207 53.5902 65.2007C53.4302 65.3007 52.2802 65.5107 52.0202 65.5407L51.9902 65.4907L51.9402 65.4607L51.8602 65.5407H51.6202L48.3302 65.8307C47.9602 65.8607 47.5702 65.9307 47.1802 65.9907C46.4002 66.1207 45.5902 66.0907 44.8002 66.2807L41.2702 66.6507C40.8002 66.7507 40.4302 66.8607 39.9602 66.8307C39.6202 66.8807 39.3102 66.9607 38.9702 67.0107H38.8702C38.3702 67.0107 37.3502 66.3807 36.8802 66.1507C36.6202 66.0207 36.3802 65.7807 36.1502 65.6007C35.9702 65.4407 35.3902 64.6307 35.1602 64.3707C35.1302 64.2707 34.9802 64.0007 35.0002 63.8707ZM56.0202 44.8907L55.7802 45.2807L55.5202 45.3307C55.4702 45.3807 55.4202 45.4107 55.3602 45.4107C55.1202 45.5907 55.1002 45.8807 55.0702 46.1707L54.8302 47.9207C54.7502 48.7807 54.5402 51.1907 54.0202 51.8207C53.8402 52.0307 53.7802 52.1607 53.5002 52.2107C53.2602 52.2907 53.0602 52.3707 52.8202 52.3707C52.6602 52.3707 52.4802 52.3407 52.3002 52.3407C52.1202 52.1107 51.9302 52.0007 51.6702 51.9007C51.5402 51.8507 51.4402 51.6707 51.3802 51.5307C51.3002 51.3707 51.2002 51.3707 51.0102 51.3707H50.3802C50.1702 51.3707 49.9602 51.3707 50.0402 51.6007L49.9102 53.8807L49.7502 56.6307L49.4102 58.8307C49.3802 58.8807 49.1202 59.5407 49.1002 59.6707C49.0002 59.8307 48.9202 60.0107 48.8402 60.1907C48.6802 60.4007 48.1902 60.9507 47.9302 61.0007C47.8502 61.0007 47.7502 61.0307 47.6702 61.0507C47.4102 60.5807 47.0702 59.5907 47.0402 59.0607L46.9402 56.9407L46.8902 56.4207L46.8102 53.4407L46.7302 52.0807C46.3902 52.0507 46.0202 52.1307 45.7102 52.2407C45.5502 52.3407 45.4702 52.4707 45.3702 52.6107C45.2102 52.8407 44.7902 52.9807 44.5602 53.0507V52.9507C44.3202 52.8507 44.0902 52.6907 43.8302 52.6407L43.5402 52.2507C43.4402 51.9907 43.3302 51.7807 43.1502 51.5707L42.9102 51.1007L42.9402 50.5507C42.7302 50.7107 42.1002 51.1807 41.8702 51.1807C41.5002 51.1807 41.1102 50.8107 40.8502 50.5807L40.8202 51.8607L40.7702 54.0607C40.7202 54.4007 40.6702 54.9207 40.6702 55.2907V55.9707C40.6702 56.1507 40.6402 56.3607 40.5902 56.5707V56.6207C40.5902 56.8507 40.6202 57.0907 40.6202 57.3307C40.4402 57.5607 40.5402 57.8807 40.3902 58.1407C40.1302 58.5607 40.1002 58.3807 39.7902 59.0007C39.7402 59.1007 39.4802 59.1307 39.3502 59.1307C39.1102 59.1307 38.9602 58.9707 38.8002 58.8207C38.5602 58.7207 38.5402 58.6907 38.4102 58.4807C38.2302 58.2207 38.0202 57.9307 37.8302 57.6707C37.7502 57.5907 37.7302 57.4607 37.7002 57.3607L37.6002 57.3107L37.6802 57.0807C37.5802 56.9007 37.2602 55.9307 37.2602 55.7507C37.2602 55.4907 37.3402 55.3107 37.4702 55.1007L37.6002 55.0707C37.6502 54.9707 37.7302 54.8907 37.8102 54.8107C38.0202 54.6007 38.1502 53.0807 38.1502 52.7407L38.2502 50.6207C38.3302 50.4407 38.4102 50.2807 38.3502 50.1007C38.0102 50.3907 37.7502 50.7307 37.4902 51.0907C36.6002 52.0007 36.3702 52.2907 35.2902 53.0807C34.8702 53.3707 34.3502 53.5007 33.8502 53.6307C32.9902 54.0507 32.2002 54.4107 31.7102 54.4107C31.6302 54.4107 31.2102 54.4107 31.2102 54.3607C31.2102 54.2807 31.3902 54.2007 31.4502 54.1807C31.9502 53.8407 32.4202 53.4207 32.7802 52.9507L34.1102 51.1507L34.1602 51.1007L35.3602 49.2407C35.5402 48.9807 35.7002 48.7207 35.8002 48.4607C35.8502 48.3307 35.9002 48.1707 35.9802 48.0707L37.0802 46.2707L37.1802 46.1107V46.0607C37.1802 46.0607 36.6802 46.2207 36.4702 46.3707C36.3402 46.4707 36.1802 46.4707 36.0302 46.5307C35.8702 46.6107 35.7402 46.6907 35.5602 46.6907C34.7202 46.6907 34.3002 46.3007 33.8102 45.7007C33.2102 44.9207 33.0002 44.3707 32.7902 43.4307L32.8402 43.3507L33.0002 43.3807C33.0802 43.4607 33.1802 43.6207 33.3102 43.6407C34.0202 43.7207 33.9402 44.0607 34.4602 44.0607C34.6702 44.0607 34.8502 44.0107 35.2402 43.8307C35.6302 43.6507 36.0002 43.5407 36.3902 43.4607C36.4702 43.4307 36.5702 43.4107 36.6502 43.3807L38.6902 42.5207C38.7902 42.4907 38.9002 42.4407 39.0002 42.4407C39.3102 42.3607 39.5202 42.2607 39.6302 41.9407C39.8702 41.8107 39.9202 41.6507 39.9202 41.4207L40.0802 41.2607L40.2902 41.2907H40.4502C40.5302 41.3707 40.6302 41.4207 40.7402 41.4707C40.8202 41.5007 40.9002 41.5207 40.9502 41.5507C41.3902 42.0707 42.0002 42.4107 42.5502 42.7507C42.7102 43.1207 42.7902 43.1907 42.9202 43.1907C43.0002 43.1907 43.1802 43.1407 43.2602 43.1107L45.4602 42.6907L46.9202 42.3207L46.9702 42.2207L46.8902 39.9707C46.8902 39.7107 46.9202 39.4707 46.9202 39.2107C46.9202 39.1107 46.8902 39.0007 46.8902 38.9007C46.8902 38.8007 46.9402 38.5907 47.0202 38.3507V38.3007C47.0202 38.2007 47.0202 38.1707 46.7802 37.7507C46.6802 37.5407 46.6202 37.4107 46.4402 37.2807C46.2602 37.0707 46.1002 36.8907 45.8602 36.7807C45.7802 36.5507 45.6202 36.4707 45.4202 36.3607L45.3702 36.1807L45.4502 36.0507C45.5802 36.0807 45.7402 36.0207 46.0002 36.0207C46.4702 35.9207 46.5202 36.0207 46.8602 35.9207C47.0202 35.9207 47.1702 35.9507 47.3302 35.9507C47.4602 35.9507 47.7502 36.1107 48.5102 36.2607C48.7202 36.3907 49.0802 36.4907 49.2202 36.7007C49.2702 36.7507 49.3502 36.7807 49.4302 36.8007C49.4802 36.9307 49.5602 37.0407 49.6902 37.1407C50.4202 37.6607 50.4202 37.6407 51.0802 38.2607C51.2102 38.3907 51.2102 38.6807 51.2102 38.8407C51.2102 38.9407 51.1802 39.0507 51.1802 39.1507C51.0502 39.3307 50.9202 39.4907 50.7602 39.6707C50.5002 39.9307 50.5202 40.4507 50.5002 40.7707C50.5002 40.9807 50.4502 41.1607 50.4202 41.3507C50.3902 41.4807 50.3702 41.5907 50.3702 41.7207C50.3702 41.8807 50.4002 42.0307 50.4002 42.1907C50.6902 42.1907 51.0002 42.1607 51.2902 42.1107C51.5302 42.0607 51.7602 42.0607 52.0002 42.0307C52.2402 42.0307 52.4202 41.9007 52.6002 41.7707C52.7002 41.7207 52.8402 41.7207 52.9402 41.7207C53.1202 41.7207 53.3602 41.7507 53.5402 41.8807C53.9102 42.1107 54.3202 42.3507 54.6602 42.6407C55.0502 43.0307 55.5002 43.3507 55.8602 43.7607C55.9902 43.9207 56.0402 44.0007 56.0702 44.2007C56.1002 44.2807 56.1202 44.3607 56.1202 44.4407L56.0202 44.9407V44.8907Z" fill="#B11F23"/>
<path d="M50.6598 43.9005H50.6098C50.5598 43.9005 50.5098 43.9005 50.4498 43.8705H50.3198C50.2698 43.8705 50.2398 43.9005 50.1898 43.9205C50.2898 44.3405 50.2398 44.7805 50.2398 45.2005C50.2098 45.2505 50.1398 45.4605 50.2098 45.5105L50.3098 45.6405C50.6798 45.6405 51.1498 45.7405 51.4098 46.0105C51.4598 46.1405 51.5398 46.1905 51.6998 46.1705C51.8298 45.6505 51.7798 45.1005 51.8298 44.5705C51.8598 44.3305 51.8798 44.1005 51.8598 43.8605C51.5498 43.8605 51.2298 43.8105 50.9198 43.8105C50.8698 43.8105 50.7898 43.8405 50.6598 43.8905V43.9005Z" fill="#B11F23"/>
<path d="M59.9 29.8105H1.88C0.84 29.8105 0 30.6505 0 31.6905V89.7105C0 90.7505 0.84 91.5905 1.88 91.5905H59.9C60.94 91.5905 61.78 90.7505 61.78 89.7105V31.7005C61.78 30.6605 60.94 29.8205 59.9 29.8205V29.8105ZM60.04 89.7206C60.04 89.8006 59.98 89.8605 59.9 89.8605H1.88C1.8 89.8605 1.74 89.8006 1.74 89.7206V31.7005C1.74 31.6205 1.8 31.5605 1.88 31.5605H59.9C59.98 31.5605 60.04 31.6205 60.04 31.7005V89.7206Z" fill="#B11F23"/>
</g>
<defs>
<clipPath id="clip0_971_10221">
<rect width="396.85" height="122.2" fill="white"/>
</clipPath>
</defs>
</svg>
