<svg width="100" height="40" viewBox="0 0 100 40" fill="none" xmlns="http://www.w3.org/2000/svg">
<path d="M78.3566 28.1994C76.9366 28.1994 75.6866 27.8294 74.6066 27.0894C73.5466 26.3294 72.7266 25.3694 72.1466 24.2094C71.5866 23.0494 71.3066 21.8694 71.3066 20.6694C71.3066 19.3894 71.5866 18.1694 72.1466 17.0094C72.7066 15.8494 73.5166 14.9094 74.5766 14.1894C75.6566 13.4694 76.9166 13.1094 78.3566 13.1094C79.7966 13.1094 81.0566 13.4694 82.1366 14.1894C83.2166 14.9094 84.0366 15.8494 84.5966 17.0094C85.1766 18.1694 85.4666 19.3894 85.4666 20.6694C85.4666 21.8694 85.1766 23.0494 84.5966 24.2094C84.0366 25.3694 83.2166 26.3294 82.1366 27.0894C81.0566 27.8294 79.7966 28.1994 78.3566 28.1994ZM78.3566 27.1494C79.7766 27.1494 80.8966 26.5394 81.7166 25.3194C82.5566 24.0794 82.9766 22.5294 82.9766 20.6694C82.9766 18.7094 82.5666 17.1394 81.7466 15.9594C80.9266 14.7594 79.7966 14.1594 78.3566 14.1594C76.9366 14.1594 75.8166 14.7594 74.9966 15.9594C74.1766 17.1594 73.7666 18.7294 73.7666 20.6694C73.7666 21.8694 73.9466 22.9694 74.3066 23.9694C74.6866 24.9494 75.2166 25.7294 75.8966 26.3094C76.5966 26.8694 77.4166 27.1494 78.3566 27.1494Z" fill="white"/>
<path d="M67.5624 12.4805C68.0024 12.4805 68.3424 12.6105 68.5824 12.8705C68.8224 13.1305 68.9424 13.4105 68.9424 13.7105C68.9424 14.0305 68.8324 14.3105 68.6124 14.5505C68.4124 14.7905 68.1024 14.9105 67.6824 14.9105C67.4224 14.9105 67.1724 14.8405 66.9324 14.7005C66.6524 14.5805 66.4024 14.5205 66.1824 14.5205C65.9224 14.5205 65.5724 14.7205 65.1324 15.1205C64.9924 15.2405 64.9224 15.3905 64.9224 15.5705C64.9224 15.7105 64.9624 15.8505 65.0424 15.9905C65.4024 16.6505 65.5824 17.3805 65.5824 18.1805C65.5824 18.8405 65.4324 19.5605 65.1324 20.3405C64.8524 21.1005 64.2924 21.7805 63.4524 22.3805C62.6124 22.9805 61.4524 23.2805 59.9724 23.2805C59.4924 23.2805 59.0024 23.2305 58.5024 23.1305C58.4224 23.1105 58.3124 23.1005 58.1724 23.1005C57.9924 23.1005 57.8224 23.1405 57.6624 23.2205C57.3424 23.3805 57.0924 23.5505 56.9124 23.7305C56.7324 23.8905 56.6424 24.0305 56.6424 24.1505C56.6424 24.3105 56.7824 24.4505 57.0624 24.5705C57.3424 24.6705 57.8724 24.7905 58.6524 24.9305C61.2724 25.4105 63.2624 25.8505 64.6224 26.2505C65.4824 26.5105 66.1924 26.8905 66.7524 27.3905C67.3124 27.8705 67.5924 28.4805 67.5924 29.2205C67.5924 30.2005 67.1824 31.0105 66.3624 31.6505C65.5624 32.2905 64.5624 32.7505 63.3624 33.0305C62.1624 33.3305 60.9524 33.4805 59.7324 33.4805C58.2124 33.4805 56.9424 33.2905 55.9224 32.9105C54.9224 32.5305 54.1824 32.0605 53.7024 31.5005C53.2224 30.9405 52.9824 30.3905 52.9824 29.8505C52.9824 29.2305 53.2524 28.7105 53.7924 28.2905C54.3324 27.8705 55.1624 27.4405 56.2824 27.0005C56.5024 26.9205 56.6124 26.8305 56.6124 26.7305C56.6124 26.6105 56.4824 26.5105 56.2224 26.4305C55.5624 26.2505 55.0624 26.0205 54.7224 25.7405C54.4024 25.4605 54.2424 25.1605 54.2424 24.8405C54.2424 24.2205 54.9024 23.6005 56.2224 22.9805C56.4624 22.8605 56.5824 22.7405 56.5824 22.6205C56.5824 22.5005 56.4824 22.3705 56.2824 22.2305C55.5824 21.7505 55.0424 21.1605 54.6624 20.4605C54.3024 19.7405 54.1224 18.9705 54.1224 18.1505C54.1224 17.2305 54.3724 16.3905 54.8724 15.6305C55.3724 14.8505 56.0524 14.2405 56.9124 13.8005C57.7724 13.3405 58.7124 13.1105 59.7324 13.1105C61.3124 13.1105 62.6424 13.5505 63.7224 14.4305C63.9024 14.5705 64.0524 14.6405 64.1724 14.6405C64.3124 14.6405 64.4524 14.5505 64.5924 14.3705C65.0324 13.8305 65.5124 13.3805 66.0324 13.0205C66.5524 12.6605 67.0624 12.4805 67.5624 12.4805ZM59.9124 22.2305C61.0324 22.2305 61.8824 21.8205 62.4624 21.0005C63.0624 20.1805 63.3624 19.2005 63.3624 18.0605C63.3624 17.0005 63.0724 16.0905 62.4924 15.3305C61.9124 14.5505 61.0324 14.1605 59.8524 14.1605C58.5924 14.1605 57.6824 14.5705 57.1224 15.3905C56.5624 16.2105 56.2824 17.1305 56.2824 18.1505C56.2824 19.2905 56.5724 20.2605 57.1524 21.0605C57.7324 21.8405 58.6524 22.2305 59.9124 22.2305ZM65.5824 29.7905C65.5824 29.0905 64.9424 28.5205 63.6624 28.0805C62.6824 27.7405 61.1024 27.3805 58.9224 27.0005C58.8624 26.9805 58.7724 26.9705 58.6524 26.9705C58.4524 26.9705 58.2724 27.0105 58.1124 27.0905C56.0924 28.0305 55.0824 28.9605 55.0824 29.8805C55.0824 30.7205 55.5724 31.3505 56.5524 31.7705C57.5524 32.1905 58.8224 32.4005 60.3624 32.4005C61.4824 32.4005 62.4324 32.2705 63.2124 32.0105C64.0124 31.7505 64.6024 31.4105 64.9824 30.9905C65.3824 30.5905 65.5824 30.1905 65.5824 29.7905Z" fill="white"/>
<path d="M43.3176 28.1994C41.8976 28.1994 40.6476 27.8294 39.5676 27.0894C38.5076 26.3294 37.6876 25.3694 37.1076 24.2094C36.5476 23.0494 36.2676 21.8694 36.2676 20.6694C36.2676 19.3894 36.5476 18.1694 37.1076 17.0094C37.6676 15.8494 38.4776 14.9094 39.5376 14.1894C40.6176 13.4694 41.8776 13.1094 43.3176 13.1094C44.7576 13.1094 46.0176 13.4694 47.0976 14.1894C48.1776 14.9094 48.9976 15.8494 49.5576 17.0094C50.1376 18.1694 50.4276 19.3894 50.4276 20.6694C50.4276 21.8694 50.1376 23.0494 49.5576 24.2094C48.9976 25.3694 48.1776 26.3294 47.0976 27.0894C46.0176 27.8294 44.7576 28.1994 43.3176 28.1994ZM43.3176 27.1494C44.7376 27.1494 45.8576 26.5394 46.6776 25.3194C47.5176 24.0794 47.9376 22.5294 47.9376 20.6694C47.9376 18.7094 47.5276 17.1394 46.7076 15.9594C45.8876 14.7594 44.7576 14.1594 43.3176 14.1594C41.8976 14.1594 40.7776 14.7594 39.9576 15.9594C39.1376 17.1594 38.7276 18.7294 38.7276 20.6694C38.7276 21.8694 38.9076 22.9694 39.2676 23.9694C39.6476 24.9494 40.1776 25.7294 40.8576 26.3094C41.5576 26.8694 42.3776 27.1494 43.3176 27.1494Z" fill="white"/>
<path d="M31.59 27.27C31.47 27.61 31.23 27.78 30.87 27.78H15.21C15.13 27.78 15.07 27.75 15.03 27.69C15.01 27.61 15 27.5 15 27.36C15 27.06 15.07 26.91 15.21 26.91H15.69C16.61 26.91 17.27 26.78 17.67 26.52C18.07 26.24 18.27 25.75 18.27 25.05V8.73C18.27 8.03 18.06 7.54 17.64 7.26C17.22 6.98 16.57 6.84 15.69 6.84H15.21C15.07 6.84 15 6.7 15 6.42C15 6.14 15.07 6 15.21 6H23.73C23.83 6 23.89 6.04 23.91 6.12C23.95 6.18 23.97 6.28 23.97 6.42C23.97 6.7 23.89 6.84 23.73 6.84H23.28C22.38 6.84 21.72 6.99 21.3 7.29C20.88 7.57 20.67 8.05 20.67 8.73V25.05C20.67 25.73 20.87 26.2 21.27 26.46C21.69 26.7 22.36 26.84 23.28 26.88L23.97 26.91L25.17 26.88C26.93 26.84 28.36 26.44 29.46 25.68C30.56 24.9 31.57 23.86 32.49 22.56C32.55 22.46 32.63 22.41 32.73 22.41C32.79 22.41 32.88 22.44 33 22.5C33.16 22.58 33.24 22.68 33.24 22.8L33.21 22.95L32.31 25.35L31.59 27.27Z" fill="white"/>
</svg>
