<svg width="284" height="27" viewBox="0 0 284 27" fill="none" xmlns="http://www.w3.org/2000/svg">
<path d="M0 0H278L284 27H6L0 0Z" fill="white"/>
<path d="M23.3253 18.9116C23.2622 18.6294 23.1761 18.4053 23.0668 18.2393C22.9668 18.0815 22.8243 17.957 22.6395 17.8657C22.4537 17.7661 22.2058 17.6707 21.8958 17.5794C21.8252 17.4632 21.8419 17.3843 21.946 17.3428C22.0563 17.3594 22.2142 17.3926 22.4197 17.4424C22.6327 17.4839 22.8541 17.5254 23.0838 17.5669C23.321 17.6001 23.5314 17.6167 23.715 17.6167C24.1323 17.6167 24.4182 17.3594 24.5728 16.8448C24.7348 16.3219 24.8006 15.5583 24.7702 14.5539C24.7388 13.5413 24.646 12.3004 24.4916 10.8312H21.2617C21.1006 11.2047 20.9257 11.5658 20.737 11.9144C20.5475 12.2547 20.3465 12.566 20.1341 12.8482C20.0115 12.8731 19.9358 12.8274 19.9069 12.7112C20.093 12.3377 20.2554 11.8978 20.3941 11.3915C20.5412 10.8852 20.6545 10.3747 20.7339 9.86009C20.8125 9.33717 20.8471 8.87235 20.8378 8.46563C20.8339 8.34943 20.8243 8.25813 20.809 8.19172C20.802 8.12532 20.7917 8.06722 20.7781 8.01742C20.7562 7.96762 20.7564 7.93026 20.7789 7.90536C20.7921 7.87216 20.8288 7.86386 20.8889 7.88046C20.9917 7.90536 21.1333 7.94271 21.3138 7.99252C21.4943 8.04232 21.6753 8.09627 21.8566 8.15437C22.0371 8.20417 22.1755 8.24983 22.2716 8.29133C22.3494 8.31623 22.3843 8.37018 22.3763 8.45318C22.3767 8.53619 22.3351 8.57769 22.2517 8.57769C22.1524 8.58599 22.0753 8.60674 22.0203 8.63994C21.9645 8.66484 21.9219 8.73539 21.8924 8.8516C21.8359 9.10891 21.7679 9.37452 21.6882 9.64843C21.6085 9.92234 21.5158 10.1921 21.4102 10.4577H24.2645C24.3229 10.4577 24.3662 10.4328 24.3944 10.383C24.4467 10.3249 24.5019 10.2544 24.5599 10.1713C24.6263 10.0883 24.6852 10.0136 24.7367 9.94724C24.7864 9.86424 24.8652 9.86009 24.9732 9.93479C25.0527 9.97629 25.1557 10.0427 25.2821 10.134C25.4077 10.217 25.5295 10.3042 25.6476 10.3955C25.7732 10.4785 25.8678 10.5449 25.9314 10.5947C25.9775 10.6362 25.9994 10.686 25.9972 10.7441C26.0024 10.7939 25.9739 10.8395 25.9115 10.881C25.8556 10.9059 25.7998 10.9308 25.744 10.9557C25.6966 10.9806 25.6454 11.0097 25.5904 11.0429C25.5113 11.0844 25.4783 11.1674 25.4914 11.2919C25.6205 12.5203 25.7013 13.5662 25.7336 14.4294C25.7659 15.2926 25.7449 16.0065 25.6707 16.5709C25.5965 17.1353 25.4637 17.5794 25.2724 17.9031C25.0811 18.2268 24.8222 18.4634 24.4957 18.6128C24.1784 18.7705 23.7883 18.8701 23.3253 18.9116ZM18.0856 19.0859C17.902 19.0859 17.8019 19.007 17.7853 18.8493C17.781 18.8078 17.7716 18.6792 17.7573 18.4634C17.7438 18.2559 17.7242 17.9902 17.6986 17.6665C17.6812 17.3428 17.658 17.0025 17.6288 16.6456C17.5988 16.2804 17.5667 15.9359 17.5327 15.6122L17.3273 13.6575C17.1072 13.7073 16.8991 13.7529 16.7032 13.7944C16.5147 13.8276 16.355 13.8567 16.2241 13.8816C16.1174 13.8982 16.0495 13.9272 16.0204 13.9687C15.9905 14.0019 15.9887 14.0642 16.015 14.1555C16.0404 14.2385 16.0127 14.2925 15.9319 14.3174C15.851 14.3423 15.7946 14.3215 15.7626 14.2551C15.7222 14.1887 15.6571 14.0849 15.5671 13.9438C15.4847 13.7944 15.398 13.645 15.3072 13.4956C15.2247 13.3462 15.1578 13.2259 15.1065 13.1346C15.0754 13.0765 15.0752 13.035 15.1059 13.0101C15.1301 13.0018 15.176 13.0018 15.2436 13.0101C15.2863 13.0184 15.3414 13.0267 15.409 13.035C15.485 13.0433 15.5735 13.0516 15.6745 13.0599H16.6635C16.8276 12.7942 16.9969 12.4996 17.1715 12.1759C17.3453 11.8439 17.5024 11.5118 17.6427 11.1798C17.7914 10.8478 17.909 10.5366 17.9953 10.2461C18.0891 9.94724 18.1376 9.69408 18.1408 9.48657C18.1347 9.42847 18.147 9.38697 18.1778 9.36207C18.2011 9.34547 18.2432 9.34962 18.3043 9.37452C18.4004 9.41602 18.528 9.47827 18.687 9.56128C18.845 9.63598 19.004 9.71898 19.1638 9.81028C19.3228 9.89329 19.447 9.96384 19.5366 10.0219C19.6069 10.0551 19.6301 10.1174 19.6063 10.2087C19.5816 10.2917 19.5263 10.3208 19.4402 10.2959C19.3458 10.271 19.2619 10.2668 19.1885 10.2834C19.1226 10.2917 19.0652 10.3415 19.0164 10.4328C18.8467 10.7233 18.6494 11.0304 18.4247 11.3541C18.1991 11.6696 17.9685 11.9767 17.7328 12.2755C17.4963 12.566 17.2813 12.8233 17.0879 13.0474C17.4375 13.0391 17.7826 13.0267 18.123 13.0101C18.4718 12.9935 18.7747 12.9769 19.0317 12.9603C18.94 12.8025 18.8408 12.6531 18.7342 12.512C18.6267 12.3626 18.513 12.234 18.3932 12.1261C18.3625 11.9933 18.4098 11.9269 18.535 11.9269C18.7708 12.0265 19.0059 12.1593 19.2404 12.3253C19.4823 12.483 19.6967 12.6573 19.8837 12.8482C20.0698 13.0308 20.198 13.2176 20.2681 13.4085C20.3602 13.6492 20.369 13.8525 20.2947 14.0185C20.2203 14.1845 20.1265 14.2842 20.0131 14.3174C19.9072 14.3423 19.8104 14.334 19.7225 14.2925C19.6338 14.2427 19.5595 14.1306 19.4994 13.9563C19.4538 13.8401 19.4041 13.7239 19.3501 13.6077C19.3045 13.4915 19.2506 13.3753 19.1883 13.2591C19.0499 13.2923 18.8911 13.3296 18.7118 13.3711C18.54 13.4043 18.3604 13.4417 18.1728 13.4832L18.3965 15.6122C18.4445 16.0687 18.4967 16.5252 18.553 16.9818C18.6177 17.4383 18.6716 17.8325 18.7149 18.1645C18.7572 18.4883 18.7819 18.6833 18.7889 18.7497C18.7976 18.8327 18.7262 18.9074 18.5746 18.9738C18.4239 19.0485 18.2609 19.0859 18.0856 19.0859ZM16.6868 11.8522C16.5985 11.8854 16.5109 11.8854 16.4239 11.8522C16.337 11.819 16.2657 11.736 16.21 11.6032C16.0328 11.1881 15.8238 10.8271 15.5828 10.52C15.3503 10.2129 15.0799 9.94309 14.7717 9.71068C14.7419 9.58618 14.7846 9.51562 14.8997 9.49902C15.3436 9.67333 15.7447 9.87669 16.103 10.1091C16.2514 9.69408 16.3714 9.28737 16.463 8.88895C16.5538 8.48224 16.587 8.16267 16.5626 7.93026C16.5573 7.88046 16.5659 7.84311 16.5883 7.81821C16.6283 7.80161 16.6705 7.80576 16.7148 7.83066C16.8101 7.86386 16.941 7.91781 17.1074 7.99252C17.2738 8.06722 17.4407 8.14607 17.608 8.22908C17.7744 8.30378 17.902 8.36603 17.9907 8.41583C18.0609 8.44903 18.0842 8.51129 18.0604 8.60259C18.0349 8.67729 17.9795 8.70634 17.8943 8.68974C17.7915 8.66484 17.7118 8.66069 17.6551 8.67729C17.6068 8.69389 17.554 8.74784 17.4969 8.83915C17.3478 9.08816 17.1633 9.35792 16.9435 9.64843C16.7311 9.93064 16.546 10.1547 16.3882 10.3208C16.6178 10.52 16.7814 10.7275 16.8792 10.9433C16.9871 11.1757 17.0081 11.3749 16.9421 11.5409C16.8844 11.7069 16.7993 11.8107 16.6868 11.8522ZM15.6402 18.4509C15.591 18.4592 15.5438 18.4468 15.4986 18.4136C15.4543 18.3887 15.4257 18.3555 15.413 18.314C15.5129 18.0732 15.6017 17.7661 15.6792 17.3926C15.7643 17.0108 15.8314 16.6165 15.8804 16.2098C15.9295 15.8031 15.9528 15.4296 15.9504 15.0893C15.9518 15.0229 15.9453 14.9606 15.9308 14.9025C15.9163 14.8444 15.9028 14.7946 15.8901 14.7531C15.8883 14.7365 15.887 14.7241 15.8861 14.7158C15.8792 14.6494 15.879 14.6079 15.8856 14.5913C15.8904 14.5581 15.9313 14.5498 16.0081 14.5664C16.1026 14.5913 16.2233 14.6286 16.3704 14.6784C16.525 14.7199 16.6759 14.7656 16.823 14.8154C16.9701 14.8652 17.0872 14.9067 17.1741 14.9399C17.2444 14.9731 17.2713 15.0312 17.255 15.1142C17.2378 15.1889 17.1917 15.2262 17.1166 15.2262C17.0314 15.2096 16.9696 15.2179 16.9314 15.2511C16.9015 15.2843 16.8751 15.3507 16.8522 15.4503C16.7803 15.799 16.6773 16.1683 16.543 16.5584C16.4079 16.9403 16.2622 17.3013 16.106 17.6416C15.949 17.9736 15.7937 18.2434 15.6402 18.4509ZM23.1711 15.3009C23.0679 15.3507 22.9598 15.3549 22.8469 15.3134C22.7416 15.2636 22.6459 15.1474 22.5599 14.9648C22.3709 14.5166 22.1325 14.114 21.8446 13.7571C21.5558 13.3919 21.2143 13.0806 20.82 12.8233C20.7819 12.6988 20.8158 12.6241 20.9217 12.5992C21.2568 12.6905 21.5874 12.8191 21.9137 12.9852C22.2399 13.1512 22.5312 13.3421 22.7876 13.5579C23.044 13.7737 23.2307 14.0019 23.3478 14.2427C23.475 14.5 23.5153 14.7241 23.4686 14.915C23.4302 15.1059 23.3311 15.2345 23.1711 15.3009ZM20.3857 17.5047C20.2789 17.5213 20.1812 17.5047 20.0925 17.4549C20.0113 17.3968 19.9448 17.2806 19.8931 17.1063C19.7651 16.6829 19.6009 16.2721 19.4005 15.8737C19.2075 15.4669 18.9587 15.0851 18.6542 14.7282C18.6569 14.5954 18.7175 14.5373 18.8361 14.5539C19.1031 14.7116 19.3685 14.8942 19.6323 15.1017C19.8962 15.3092 20.1288 15.5375 20.3303 15.7865C20.5317 16.0355 20.669 16.3094 20.7421 16.6082C20.81 16.8572 20.8068 17.0648 20.7324 17.2308C20.6572 17.3885 20.5416 17.4798 20.3857 17.5047ZM33.4952 19.0734C33.3033 19.0734 33.199 18.9946 33.1824 18.8369C33.1781 18.7954 33.1692 18.6709 33.1557 18.4634C33.1422 18.2559 33.1231 17.9944 33.0983 17.679C33.0726 17.3553 33.0443 17.0067 33.0134 16.6331C32.9825 16.2596 32.9478 15.8903 32.9095 15.525L32.861 15.0644C32.4521 15.6205 31.9813 16.1434 31.4485 16.6331C30.9232 17.1146 30.376 17.5462 29.8069 17.928C29.2461 18.3098 28.703 18.6211 28.1774 18.8618C28.1265 18.8535 28.0863 18.8286 28.0569 18.7871C28.0275 18.7456 28.0144 18.6999 28.0175 18.6501C28.4868 18.3513 28.9692 17.9778 29.4646 17.5296C29.9591 17.0731 30.4354 16.5626 30.8935 15.9982C31.36 15.4337 31.7688 14.8361 32.1198 14.2053H30.2419L30.2812 14.5788C30.2899 14.6618 30.2151 14.7448 30.057 14.8278C29.9062 14.9025 29.7224 14.9399 29.5054 14.9399C29.3385 14.9399 29.2463 14.8569 29.2288 14.6909C29.221 14.6162 29.2086 14.4585 29.1916 14.2177C29.1821 13.9687 29.1624 13.6616 29.1323 13.2964C29.1098 12.9229 29.0762 12.5245 29.0317 12.1012C28.9899 11.7028 28.9468 11.4122 28.9026 11.2296C28.8658 11.0387 28.8163 10.8852 28.754 10.769C28.7312 10.7109 28.7348 10.6652 28.7647 10.632C28.8029 10.5988 28.8484 10.5947 28.9011 10.6196C29.0231 10.6694 29.2071 10.7524 29.453 10.8686C29.6981 10.9765 29.8954 11.0678 30.0452 11.1425H32.4488L32.3167 9.88499C31.9327 9.88499 31.5572 9.88499 31.19 9.88499C30.8311 9.88499 30.4926 9.88084 30.1746 9.87254C29.6571 9.87254 29.219 9.87254 28.8601 9.87254C28.5096 9.87254 28.2972 9.87669 28.2229 9.88499C28.2229 9.88499 28.1357 9.88914 27.9613 9.89744C27.7861 9.89744 27.5917 9.91404 27.3782 9.94724L27.2092 9.41187C27.4732 9.46167 27.6974 9.49072 27.8819 9.49902C28.0747 9.50732 28.1712 9.51147 28.1712 9.51147H32.2774L32.1832 8.61504C32.1509 8.30793 32.0953 8.09627 32.0163 7.98007C31.9869 7.93856 31.9825 7.89706 32.0032 7.85556C32.0331 7.82236 32.0735 7.80991 32.1245 7.81821C32.2255 7.82651 32.357 7.84726 32.5191 7.88046C32.6886 7.90536 32.8591 7.93856 33.0303 7.98007C33.2091 8.01327 33.3545 8.04647 33.4665 8.07967C33.5525 8.10457 33.5916 8.15852 33.5836 8.24153C33.584 8.32453 33.5433 8.37433 33.4616 8.39093C33.3707 8.39923 33.2852 8.41998 33.2053 8.45318C33.1336 8.48639 33.1044 8.56524 33.1175 8.68974L33.2038 9.51147H36.1458C36.2209 9.51147 36.2809 9.48657 36.3257 9.43677C36.3556 9.40357 36.4075 9.34132 36.4814 9.25001C36.5552 9.15871 36.6291 9.06741 36.703 8.9761C36.7852 8.8848 36.8333 8.8267 36.8474 8.8018C36.9146 8.72709 36.9972 8.71879 37.0951 8.7769C37.1838 8.8267 37.3002 8.9014 37.4442 9.001C37.5966 9.10061 37.7447 9.20021 37.8887 9.29982C38.0327 9.39942 38.1416 9.48242 38.2154 9.54883C38.2891 9.61523 38.3178 9.68993 38.3015 9.77293C38.2927 9.84764 38.2549 9.88499 38.1881 9.88499H33.2431L33.3752 11.1425H35.4784C35.5452 11.1425 35.5931 11.1217 35.6221 11.0802C35.6736 11.0138 35.7321 10.935 35.7976 10.8437C35.8714 10.7524 35.9345 10.6777 35.9868 10.6196C36.0374 10.5449 36.1204 10.5407 36.2359 10.6071C36.3062 10.6403 36.4083 10.6984 36.5422 10.7814C36.6761 10.8644 36.8146 10.9516 36.9577 11.0429C37.1009 11.1342 37.2089 11.2089 37.2818 11.267C37.3538 11.3168 37.3886 11.3707 37.3864 11.4288C37.3842 11.4869 37.3435 11.5367 37.2644 11.5783C37.2169 11.6032 37.1616 11.6322 37.0983 11.6654C37.0425 11.6903 36.9946 11.7111 36.9546 11.7277C36.8838 11.7692 36.8537 11.8397 36.8642 11.9393C36.8869 12.1551 36.9168 12.4 36.9539 12.6739C36.991 12.9478 37.0319 13.2176 37.0765 13.4832C37.1203 13.7405 37.1559 13.9604 37.1834 14.143C37.211 14.3257 37.2265 14.4336 37.23 14.4668C37.2396 14.5581 37.1657 14.6494 37.0084 14.7407C36.8502 14.8237 36.6584 14.8652 36.4331 14.8652C36.2578 14.8652 36.1623 14.7905 36.1466 14.6411L36.1008 14.2053H33.8849C34.4296 14.861 35.0171 15.4088 35.6476 15.8488C36.2864 16.2887 36.9248 16.6456 37.5629 16.9195C38.2001 17.1851 38.7969 17.3843 39.3533 17.5171C39.0967 17.6167 38.8666 17.7703 38.6631 17.9778C38.4679 18.1853 38.3336 18.3762 38.2601 18.5505C37.8043 18.343 37.2972 18.0442 36.7387 17.6541C36.1886 17.264 35.6473 16.7991 35.1149 16.2596C34.5816 15.7118 34.1182 15.1142 33.7246 14.4668L33.8372 15.5375C33.8738 15.8861 33.9151 16.2389 33.9609 16.5958C34.0068 16.9527 34.0459 17.2847 34.0781 17.5918C34.1179 17.8906 34.1528 18.1438 34.183 18.3513C34.2132 18.5588 34.2308 18.6875 34.2361 18.7373C34.2448 18.8203 34.1692 18.895 34.0093 18.9614C33.8502 19.0361 33.6788 19.0734 33.4952 19.0734ZM30.2013 13.8193H32.7302L32.4881 11.516H29.9592L30.2013 13.8193ZM33.6566 13.8193H36.0603L35.8182 11.516H33.4145L33.6566 13.8193ZM45.4698 11.3915C45.2194 11.3915 44.9978 11.3085 44.8051 11.1425C44.6199 10.9682 44.5142 10.7565 44.488 10.5075C44.4618 10.2585 44.5235 10.051 44.673 9.88499C44.8299 9.71068 45.0336 9.62353 45.284 9.62353C45.5343 9.62353 45.7521 9.71068 45.9374 9.88499C46.1301 10.051 46.2395 10.2585 46.2657 10.5075C46.2919 10.7565 46.2265 10.9682 46.0696 11.1425C45.9201 11.3085 45.7202 11.3915 45.4698 11.3915ZM46.1175 17.5545C45.8672 17.5545 45.6456 17.4715 45.4529 17.3055C45.2676 17.1312 45.1619 16.9195 45.1358 16.6705C45.1096 16.4215 45.1712 16.214 45.3207 16.048C45.4777 15.8737 45.6813 15.7865 45.9317 15.7865C46.1821 15.7865 46.3999 15.8737 46.5851 16.048C46.7779 16.214 46.8873 16.4215 46.9135 16.6705C46.9396 16.9195 46.8743 17.1312 46.7173 17.3055C46.5678 17.4715 46.3679 17.5545 46.1175 17.5545ZM58.8588 19.0734C58.6669 19.0734 58.5626 18.9946 58.546 18.8369C58.5417 18.7954 58.5327 18.6709 58.5193 18.4634C58.5067 18.2642 58.4884 18.011 58.4645 17.7039C58.4397 17.3885 58.4127 17.0523 58.3835 16.6954C58.3544 16.3385 58.3223 15.994 58.2874 15.662L58.15 14.3547H56.3473C56.3473 14.3547 56.2601 14.3589 56.0857 14.3672C55.9104 14.3672 55.7161 14.3838 55.5025 14.417L55.3323 13.8691C55.5963 13.9189 55.8205 13.948 56.005 13.9563C56.1978 13.9646 56.2942 13.9687 56.2942 13.9687H61.1892C61.2476 13.9687 61.2913 13.948 61.3203 13.9065L61.6152 13.4956C61.6583 13.4292 61.7325 13.4209 61.8379 13.4707C61.9608 13.5288 62.1341 13.6284 62.3575 13.7695C62.581 13.9106 62.7518 14.0268 62.8699 14.1181C62.9235 14.1513 62.9491 14.197 62.9469 14.2551C62.9446 14.3132 62.9119 14.3589 62.8486 14.3921C62.7845 14.417 62.7207 14.446 62.6575 14.4792C62.6017 14.5041 62.55 14.529 62.5026 14.5539C62.4468 14.5788 62.4127 14.612 62.4004 14.6535C62.3955 14.6867 62.3966 14.7365 62.4036 14.8029C62.4603 15.3424 62.5128 15.8031 62.5613 16.1849C62.6098 16.5667 62.6388 16.8033 62.6484 16.8946C62.6868 17.2598 62.6051 17.5545 62.4033 17.7786C62.209 17.9944 61.8926 18.1604 61.4542 18.2766C61.352 18.0193 61.2518 17.8201 61.1535 17.679C61.0543 17.5296 60.922 17.4217 60.7564 17.3553C60.5983 17.2806 60.3719 17.2308 60.0772 17.2059C59.9907 17.098 59.9945 17.015 60.0886 16.9569C60.1813 16.9652 60.349 16.9735 60.592 16.9818C60.8432 16.9901 61.0898 16.9942 61.3319 16.9942C61.5572 16.9942 61.6607 16.9071 61.6424 16.7327L61.3925 14.3547H59.089L59.2277 15.6745C59.2739 16.1144 59.3248 16.5584 59.3802 17.0067C59.444 17.4549 59.4971 17.8408 59.5395 18.1645C59.581 18.48 59.6052 18.6709 59.6122 18.7373C59.6209 18.8203 59.5411 18.895 59.3728 18.9614C59.2054 19.0361 59.0341 19.0734 58.8588 19.0734ZM55.0933 13.6201C55.0349 13.6201 54.9872 13.6035 54.9504 13.5703C54.9126 13.5288 54.8953 13.4832 54.8984 13.4334C55.2563 13.0267 55.5968 12.5743 55.92 12.0763C56.2507 11.57 56.5434 11.0595 56.7982 10.5449C57.052 10.0219 57.2509 9.53222 57.3949 9.07571C57.5389 8.61919 57.6068 8.23323 57.5987 7.91781C57.5943 7.87631 57.6075 7.84311 57.6383 7.81821C57.6607 7.79331 57.6983 7.79331 57.751 7.81821C57.8454 7.84311 57.9879 7.88876 58.1785 7.95517C58.3766 8.01327 58.5667 8.07552 58.749 8.14192C58.9303 8.20002 59.0557 8.24153 59.1251 8.26643C59.2037 8.29963 59.239 8.35773 59.231 8.44073C59.2231 8.52374 59.1732 8.56524 59.0814 8.56524L59.03 8.55279C59.3301 9.02591 59.6797 9.45337 60.0787 9.83519C60.4852 10.2087 60.9165 10.5407 61.3727 10.8312C61.8289 11.1217 62.2802 11.3666 62.7268 11.5658C63.1725 11.7567 63.5805 11.9061 63.9507 12.014C63.7007 12.097 63.481 12.2298 63.2915 12.4124C63.1095 12.5867 62.9823 12.7652 62.9096 12.9478C62.3792 12.6656 61.8572 12.3045 61.3436 11.8646C60.83 11.4247 60.3478 10.9267 59.8971 10.3706C59.4547 9.81444 59.0673 9.22511 58.7348 8.60259C58.4567 9.29152 58.1208 9.94724 57.7272 10.5698C57.3327 11.184 56.9084 11.7526 56.4543 12.2755C56.0076 12.7901 55.5539 13.2383 55.0933 13.6201ZM54.4093 18.1894C54.1866 18.2143 54.0254 18.1894 53.9257 18.1147C53.8261 18.04 53.7684 17.928 53.7527 17.7786C53.7448 17.7039 53.7403 17.6209 53.739 17.5296C53.7369 17.43 53.7381 17.3221 53.7425 17.2059C53.7432 16.9735 53.7383 16.7286 53.7279 16.4713C53.7167 16.2057 53.6826 15.9608 53.6257 15.7367C53.5543 15.4545 53.4591 15.2636 53.3402 15.164C53.2287 15.0561 53.0146 14.9648 52.6979 14.8901C52.6602 14.8486 52.6429 14.8029 52.646 14.7531C52.6574 14.7033 52.6827 14.666 52.7218 14.6411C52.9432 14.6826 53.1286 14.6992 53.2779 14.6909C53.4347 14.6743 53.5562 14.5996 53.6424 14.4668C53.7361 14.3257 53.852 14.1181 53.9901 13.8442C54.1274 13.562 54.2746 13.2549 54.4316 12.9229C54.5887 12.5909 54.7383 12.2672 54.8804 11.9518C55.0309 11.6364 55.1606 11.3624 55.2697 11.13C55.378 10.8893 55.449 10.7316 55.4829 10.6569C55.5313 10.6403 55.5776 10.6445 55.6219 10.6694C55.6746 10.6943 55.7073 10.7275 55.72 10.769C55.687 10.852 55.6219 11.0263 55.5246 11.2919C55.4265 11.5492 55.3127 11.8563 55.1833 12.2132C55.0622 12.5701 54.9425 12.9395 54.824 13.3213C54.7047 13.6948 54.6041 14.0476 54.5221 14.3796C54.4393 14.7033 54.3912 14.9606 54.3779 15.1515C54.3667 15.442 54.4153 15.745 54.5235 16.0604C54.6318 16.3758 54.7407 16.658 54.8504 16.9071C54.9069 17.0482 54.9534 17.1727 54.9898 17.2806C55.0345 17.3885 55.065 17.4798 55.0812 17.5545C55.1197 17.762 55.0732 17.9155 54.9418 18.0151C54.8179 18.1064 54.6404 18.1645 54.4093 18.1894ZM54.4345 10.8063C54.3396 10.8561 54.2449 10.8686 54.1505 10.8437C54.0644 10.8188 53.994 10.7441 53.9392 10.6196C53.7537 10.2045 53.5178 9.82689 53.2317 9.48657C52.953 9.13796 52.637 8.83085 52.2835 8.56524C52.2616 8.51544 52.261 8.46978 52.2817 8.42828C52.3015 8.37848 52.336 8.34943 52.3852 8.34113C52.6676 8.40753 52.9535 8.50714 53.2428 8.63994C53.5397 8.76445 53.8062 8.918 54.0424 9.10061C54.2861 9.27492 54.4702 9.47827 54.5948 9.71068C54.7286 9.95139 54.7734 10.1796 54.7293 10.3955C54.6844 10.603 54.5861 10.7399 54.4345 10.8063ZM56.9035 12.4996L56.7345 11.9642C56.9818 12.014 57.1893 12.0431 57.3571 12.0514C57.5333 12.0597 57.6213 12.0638 57.6213 12.0638H59.5242C59.5993 12.0638 59.651 12.0389 59.6791 11.9891L60.005 11.516C60.0547 11.433 60.1377 11.4288 60.254 11.5035C60.3519 11.5617 60.4872 11.6571 60.6597 11.7899C60.8406 11.9227 60.9771 12.0306 61.0693 12.1136C61.1338 12.1717 61.1621 12.2423 61.1541 12.3253C61.1453 12.4 61.1075 12.4373 61.0407 12.4373C60.999 12.4373 60.9281 12.4373 60.8279 12.4373C60.7277 12.4373 60.6109 12.4373 60.4774 12.4373C60.252 12.4373 59.9891 12.4373 59.6887 12.4373C59.3957 12.429 59.1031 12.4249 58.811 12.4249C58.5273 12.4249 58.2811 12.4249 58.0724 12.4249C57.8637 12.4249 57.7265 12.429 57.6606 12.4373C57.6606 12.4373 57.5817 12.4415 57.424 12.4498C57.2655 12.4498 57.0919 12.4664 56.9035 12.4996ZM72.2041 19.0734C72.0122 19.0734 71.9083 18.9987 71.8926 18.8493C71.8891 18.8161 71.8798 18.6875 71.8646 18.4634C71.8503 18.2476 71.8311 17.9861 71.8072 17.679C71.7824 17.3636 71.7576 17.0482 71.7328 16.7327C71.7071 16.409 71.6825 16.1351 71.6589 15.911L71.6013 15.3632C71.2355 15.8529 70.81 16.3302 70.3247 16.795C69.8394 17.2598 69.3368 17.679 68.8168 18.0525C68.3044 18.4177 67.81 18.7165 67.3337 18.9489C67.2133 18.9157 67.1596 18.841 67.1724 18.7248C67.6875 18.3845 68.1835 17.9819 68.6604 17.5171C69.1374 17.0523 69.5774 16.5543 69.9806 16.0231C70.3913 15.4835 70.7389 14.9399 71.0235 14.3921H69.709L69.7405 14.6909C69.7492 14.7739 69.6828 14.8569 69.5413 14.9399C69.3989 15.0146 69.2317 15.0519 69.0398 15.0519C68.8812 15.0519 68.7932 14.9689 68.7757 14.8029C68.7679 14.7282 68.7546 14.5622 68.7359 14.3049C68.7256 14.0476 68.7045 13.728 68.6727 13.3462C68.6401 12.9561 68.601 12.5452 68.5557 12.1136C68.5077 11.6571 68.4632 11.3126 68.422 11.0802C68.38 10.8395 68.3275 10.6569 68.2643 10.5324C68.2415 10.4743 68.2451 10.4287 68.2749 10.3955C68.3048 10.3623 68.3503 10.3581 68.4113 10.383C68.5242 10.4245 68.6823 10.4992 68.8856 10.6071C69.0972 10.715 69.2738 10.8063 69.4151 10.881H71.1302L71.0151 9.78538C70.7647 9.78538 70.5227 9.78538 70.289 9.78538C70.0636 9.78538 69.8508 9.78538 69.6505 9.78538C69.325 9.78538 69.0496 9.78538 68.8243 9.78538C68.6073 9.78538 68.4696 9.78538 68.4111 9.78538C68.4111 9.78538 68.3239 9.78953 68.1495 9.79783C67.9743 9.79783 67.7799 9.81443 67.5664 9.84764L67.3974 9.31227C67.6614 9.36207 67.8856 9.39112 68.0701 9.39942C68.2629 9.40772 68.3594 9.41187 68.3594 9.41187H70.9758L70.8934 8.62749C70.8602 8.31208 70.8046 8.10042 70.7265 7.99252C70.6962 7.94271 70.6914 7.89706 70.7121 7.85556C70.7337 7.82236 70.7741 7.80991 70.8334 7.81821C70.926 7.82651 71.0534 7.84726 71.2155 7.88046C71.3767 7.90536 71.5383 7.93441 71.7004 7.96762C71.8624 8.00082 71.9953 8.03402 72.0989 8.06722C72.185 8.09212 72.2241 8.14607 72.2161 8.22908C72.2257 8.32038 72.1846 8.36603 72.0928 8.36603C72.0018 8.37433 71.9206 8.39508 71.8489 8.42828C71.7764 8.45318 71.7463 8.52374 71.7585 8.63994L71.8396 9.41187H74.043C74.1265 9.41187 74.1823 9.38697 74.2104 9.33717C74.2403 9.30397 74.2847 9.25001 74.3436 9.17531C74.4017 9.09231 74.4602 9.01345 74.5191 8.93875C74.5771 8.85575 74.6169 8.79765 74.6385 8.76445C74.6974 8.68974 74.78 8.68144 74.8862 8.73954C74.9657 8.78105 75.0645 8.84745 75.1826 8.93875C75.3007 9.03006 75.4192 9.12551 75.5382 9.22511C75.6563 9.31642 75.7438 9.39527 75.8009 9.46167C75.8755 9.53637 75.9084 9.61108 75.8996 9.68578C75.8899 9.75218 75.8433 9.78538 75.7598 9.78538H71.8789L71.9941 10.881H73.7217C73.7885 10.881 73.8364 10.8603 73.8654 10.8188C73.9085 10.7524 73.9483 10.6943 73.9848 10.6445C74.0287 10.5864 74.0727 10.5283 74.1167 10.4702C74.1747 10.3872 74.2573 10.3789 74.3644 10.4453C74.4347 10.4785 74.5284 10.5366 74.6457 10.6196C74.7704 10.6943 74.8913 10.7731 75.0085 10.8561C75.1332 10.9308 75.2274 10.9931 75.2911 11.0429C75.4443 11.1508 75.4418 11.2462 75.2836 11.3292C75.252 11.3458 75.2129 11.3707 75.1663 11.4039C75.1272 11.4288 75.0876 11.4496 75.0476 11.4662C74.9769 11.5077 74.9463 11.5741 74.9559 11.6654C74.9847 11.9393 75.0203 12.2381 75.0626 12.5618C75.1041 12.8772 75.1489 13.1844 75.197 13.4832C75.2451 13.782 75.2842 14.0351 75.3144 14.2427C75.3437 14.4419 75.3596 14.5539 75.3622 14.5788C75.3736 14.6867 75.2951 14.7739 75.1268 14.8403C74.9669 14.9067 74.8035 14.9399 74.6365 14.9399C74.4613 14.9399 74.3662 14.8693 74.3514 14.7282L74.3161 14.3921H72.5634C72.9715 14.9399 73.4278 15.4296 73.9322 15.8612C74.4357 16.2845 74.9581 16.6497 75.4995 16.9569C76.04 17.2557 76.5652 17.4881 77.0751 17.6541C76.8326 17.7288 76.6045 17.8616 76.3909 18.0525C76.1847 18.2351 76.0361 18.4094 75.9451 18.5754C75.5064 18.2932 75.065 17.9446 74.6208 17.5296C74.1757 17.1063 73.7605 16.6497 73.3752 16.16C72.989 15.662 72.6608 15.1598 72.3906 14.6535L72.5227 15.911C72.5445 16.1185 72.5753 16.3717 72.6151 16.6705C72.6548 16.9693 72.6946 17.2681 72.7343 17.5669C72.7741 17.8657 72.809 18.1189 72.8392 18.3264C72.8702 18.5422 72.8884 18.675 72.8936 18.7248C72.9023 18.8078 72.8355 18.8867 72.6931 18.9614C72.5591 19.0361 72.3961 19.0734 72.2041 19.0734ZM67.0404 18.0649C66.8344 18.0898 66.6736 18.0691 66.5582 18.0027C66.4502 17.928 66.3934 17.8242 66.3877 17.6914C66.3851 17.6665 66.3821 17.6375 66.3786 17.6043C66.3826 17.5628 66.3824 17.5213 66.378 17.4798C66.3707 17.3304 66.3598 17.1478 66.3455 16.932C66.3386 16.7078 66.3188 16.4796 66.286 16.2472C66.2616 16.0148 66.2235 15.8114 66.1718 15.6371C66.1004 15.3549 65.989 15.1681 65.8375 15.0768C65.6935 14.9772 65.4544 14.8859 65.1202 14.8029C65.0824 14.7614 65.0651 14.7158 65.0682 14.666C65.0797 14.6162 65.105 14.5788 65.1441 14.5539C65.4063 14.5871 65.6246 14.5996 65.799 14.5913C65.9725 14.5747 66.1057 14.4917 66.1985 14.3423C66.3137 14.1679 66.4511 13.9272 66.6108 13.6201C66.7705 13.313 66.933 12.9935 67.0985 12.6614C67.2639 12.3294 67.4077 12.0306 67.53 11.765C67.6607 11.4994 67.7463 11.3209 67.7867 11.2296C67.901 11.2047 67.9804 11.2462 68.0252 11.3541C67.9922 11.4371 67.9336 11.5949 67.8496 11.8273C67.773 12.0514 67.6794 12.3128 67.5689 12.6116C67.4668 12.9105 67.3656 13.2176 67.2652 13.533C67.1648 13.8484 67.0794 14.1472 67.0089 14.4294C66.9458 14.7033 66.9114 14.9316 66.9056 15.1142C66.8944 15.4047 66.9462 15.6994 67.0611 15.9982C67.1843 16.297 67.3049 16.5709 67.4229 16.8199C67.4759 16.9278 67.5244 17.0316 67.5682 17.1312C67.6204 17.2308 67.6546 17.3179 67.6708 17.3926C67.7159 17.5835 67.6778 17.7371 67.5565 17.8533C67.4435 17.9695 67.2715 18.04 67.0404 18.0649ZM72.3238 14.0185H74.2768L74.1472 12.7859H72.1943L72.3238 14.0185ZM66.8032 11.0429C66.5799 11.1425 66.4076 11.0512 66.2861 10.769C66.1006 10.354 65.8648 9.97629 65.5786 9.63598C65.2925 9.29567 64.9916 9.01345 64.6759 8.78935C64.6623 8.73954 64.6659 8.69389 64.6866 8.65239C64.7072 8.61089 64.7422 8.58599 64.7914 8.57769C65.1941 8.67729 65.5997 8.8433 66.008 9.07571C66.4238 9.29982 66.7372 9.58203 66.9483 9.92234C67.0988 10.163 67.1524 10.3955 67.1092 10.6196C67.0735 10.8354 66.9714 10.9765 66.8032 11.0429ZM72.155 12.4124H74.108L73.9863 11.2545H72.0333L72.155 12.4124ZM69.6698 14.0185H71.46L71.3305 12.7859H69.5402L69.6698 14.0185ZM69.501 12.4124H71.2912L71.1695 11.2545H69.3793L69.501 12.4124ZM83.8894 18.5256C83.1049 18.5256 82.4505 18.4136 81.9262 18.1894C81.4102 17.9653 81.1131 17.6001 81.0348 17.0938C80.9789 16.7203 81.0626 16.4049 81.2859 16.1476C81.5084 15.882 81.8022 15.6205 82.1674 15.3632C82.2997 15.2719 82.4557 15.1681 82.6355 15.0519C82.8227 14.9274 83.022 14.7988 83.2334 14.666C83.1769 14.3672 83.0976 14.0891 82.9955 13.8318C82.9008 13.5662 82.7784 13.3545 82.6283 13.1968C82.4773 13.0308 82.2849 12.9478 82.0513 12.9478C81.7591 12.9478 81.4841 13.0308 81.2261 13.1968C80.9673 13.3545 80.7387 13.562 80.5404 13.8193C80.3496 14.0683 80.1893 14.3298 80.0595 14.6037C79.9447 14.861 79.8172 14.998 79.677 15.0146C79.536 15.0229 79.3938 14.9399 79.2503 14.7656C79.0857 14.5498 79.0243 14.363 79.0662 14.2053C79.1164 14.0476 79.2138 13.9023 79.3584 13.7695C79.5553 13.5786 79.7637 13.3379 79.9836 13.0474C80.2118 12.7569 80.4369 12.4373 80.659 12.0887C80.8811 11.7401 81.086 11.3873 81.2739 11.0304C81.1412 11.0387 81.0085 11.047 80.8759 11.0553C80.7423 11.0553 80.613 11.0553 80.4878 11.0553C80.0204 11.0553 79.6735 10.9308 79.447 10.6818C79.228 10.4245 79.0914 10.1174 79.0372 9.76048C79.1102 9.66088 79.1965 9.64843 79.2962 9.72313C79.3733 9.98044 79.5076 10.1464 79.699 10.2211C79.8896 10.2876 80.1226 10.3208 80.3981 10.3208C80.5808 10.3125 80.7802 10.3042 80.9963 10.2959C81.2199 10.2793 81.4385 10.2544 81.652 10.2211C81.7066 10.1049 81.7532 9.99289 81.7919 9.88499C81.8381 9.76878 81.8727 9.66088 81.8956 9.56128C81.9846 9.29567 81.986 9.07156 81.9001 8.88895C81.8141 8.70634 81.6504 8.57769 81.4088 8.50299C81.3711 8.46148 81.3579 8.41583 81.3694 8.36603C81.3808 8.31623 81.402 8.27888 81.4327 8.25398C81.6256 8.26228 81.8469 8.30378 82.0968 8.37848C82.3542 8.44488 82.5632 8.52789 82.7239 8.62749C82.8754 8.71879 82.9627 8.835 82.9859 8.9761C83.0082 9.10891 82.9741 9.22096 82.8835 9.31227C82.8312 9.37037 82.776 9.44092 82.718 9.52392C82.6599 9.60693 82.6135 9.68163 82.5788 9.74803C82.5392 9.84764 82.4883 9.95969 82.4263 10.0842C82.548 10.051 82.6618 10.0219 82.7677 9.99704C82.8727 9.96384 82.9652 9.93064 83.0452 9.89744C83.1243 9.85594 83.2055 9.83519 83.289 9.83519C83.3808 9.83519 83.4978 9.87669 83.6401 9.95969C83.8877 10.0925 84.0152 10.2336 84.0226 10.383C84.03 10.5324 83.9286 10.6403 83.7186 10.7067C83.5569 10.7565 83.3159 10.8063 82.9957 10.8561C82.6829 10.8976 82.3409 10.9391 81.9697 10.9806C81.7819 11.3375 81.5903 11.6986 81.395 12.0638C81.1988 12.4207 81.0299 12.7195 80.8883 12.9603C81.0421 12.8357 81.2148 12.732 81.4064 12.649C81.6055 12.5577 81.8218 12.512 82.0555 12.512C82.4561 12.512 82.7888 12.6199 83.0535 12.8357C83.3266 13.0516 83.5469 13.3213 83.7145 13.645C83.8153 13.2549 83.9652 12.8939 84.164 12.5618C84.3702 12.2215 84.621 11.9476 84.9164 11.7401C85.2201 11.5326 85.5722 11.4288 85.9728 11.4288C86.3985 11.4288 86.7439 11.4994 87.0091 11.6405C87.2734 11.7733 87.4616 11.9352 87.5734 12.1261C87.6853 12.317 87.7212 12.4996 87.6811 12.6739C87.6401 12.8399 87.5276 12.9603 87.3435 13.035C87.0869 13.1346 86.7762 13.2757 86.4115 13.4583C86.0542 13.6326 85.6787 13.8318 85.285 14.0559C84.8903 14.2717 84.5049 14.4958 84.1288 14.7282C84.2045 15.0519 84.2623 15.3632 84.302 15.662C84.3501 15.9608 84.3846 16.2098 84.4056 16.409C84.4265 16.6082 84.3847 16.7659 84.28 16.8821C84.1745 16.9901 84.0508 17.044 83.909 17.044C83.6252 17.044 83.4672 16.8904 83.4349 16.5833C83.4314 16.5501 83.427 16.5086 83.4218 16.4588C83.4157 16.4007 83.4133 16.3385 83.4147 16.2721C83.3999 16.131 83.3875 15.9733 83.3775 15.799C83.3675 15.6247 83.3479 15.4379 83.3186 15.2387C83.163 15.3466 83.0112 15.4503 82.8631 15.5499C82.7224 15.6413 82.5943 15.7326 82.4787 15.8239C82.255 15.9982 82.1018 16.1683 82.0191 16.3343C81.9364 16.5003 81.9147 16.6912 81.9541 16.9071C82.0097 17.1976 82.205 17.3885 82.5401 17.4798C82.8752 17.5711 83.3223 17.6167 83.8815 17.6167C84.2738 17.6167 84.663 17.5877 85.0492 17.5296C85.4353 17.4715 85.7334 17.4092 85.9434 17.3428C86.0559 17.3013 86.146 17.2847 86.2136 17.293C86.2804 17.293 86.3702 17.3138 86.483 17.3553C86.8585 17.513 87.0609 17.6914 87.0901 17.8906C87.1186 18.0815 87.0111 18.2102 86.7677 18.2766C86.4592 18.3596 86.0401 18.4219 85.5103 18.4634C84.9889 18.5049 84.4486 18.5256 83.8894 18.5256ZM83.9849 14.1928C84.3685 13.9521 84.7522 13.7114 85.1358 13.4707C85.5186 13.2217 85.8577 12.9935 86.153 12.7859C86.4251 12.595 86.539 12.4083 86.4947 12.2257C86.4496 12.0348 86.2685 11.9393 85.9514 11.9393C85.5758 11.9393 85.2537 12.0514 84.9852 12.2755C84.7166 12.4996 84.5005 12.7859 84.3368 13.1346C84.1723 13.4749 84.055 13.8276 83.9849 14.1928ZM93.8484 18.8244C93.7359 18.8659 93.6237 18.8701 93.5117 18.8369C93.4006 18.812 93.2955 18.7248 93.1963 18.5754C92.8804 18.1106 92.4948 17.6582 92.0396 17.2183C91.5844 16.7784 91.1079 16.4132 90.61 16.1227C90.5713 16.0729 90.5578 16.0231 90.5692 15.9733C90.5798 15.9152 90.6139 15.882 90.6714 15.8737C91.0988 15.8903 91.5319 15.9608 91.9706 16.0853C92.4168 16.2015 92.8219 16.3634 93.1859 16.5709C93.5574 16.7701 93.8423 17.0191 94.0406 17.3179C94.1876 17.5254 94.2679 17.7329 94.2813 17.9404C94.3031 18.1479 94.2722 18.3306 94.1887 18.4883C94.1134 18.646 94 18.758 93.8484 18.8244ZM107.609 19.0859C107.434 19.0859 107.339 19.0112 107.323 18.8618L107.1 16.7452C106.83 16.8697 106.515 17.015 106.157 17.181C105.798 17.3387 105.447 17.4922 105.104 17.6416C104.768 17.7827 104.492 17.8948 104.275 17.9778C104.195 18.011 104.141 18.0525 104.113 18.1023C104.085 18.1521 104.094 18.2351 104.139 18.3513C104.172 18.426 104.149 18.48 104.069 18.5132C103.989 18.5464 103.929 18.5298 103.888 18.4634C103.829 18.3721 103.745 18.2476 103.636 18.0898C103.535 17.9238 103.435 17.762 103.335 17.6043C103.242 17.4383 103.171 17.3138 103.12 17.2308C103.089 17.1727 103.085 17.1312 103.107 17.1063C103.121 17.0814 103.166 17.0689 103.241 17.0689C103.283 17.0689 103.329 17.0689 103.379 17.0689C103.437 17.0689 103.508 17.0648 103.59 17.0565C103.839 17.0399 104.119 17.0025 104.43 16.9444L103.972 12.5867C103.905 12.5867 103.842 12.5867 103.784 12.5867C103.726 12.5867 103.675 12.5867 103.634 12.5867C103.466 12.5784 103.37 12.5784 103.346 12.5867C103.346 12.5867 103.271 12.5909 103.122 12.5992C102.98 12.5992 102.815 12.6158 102.626 12.649L102.457 12.1136C102.696 12.1634 102.895 12.1925 103.055 12.2008C103.223 12.2091 103.307 12.2132 103.307 12.2132H111.92C111.995 12.2132 112.055 12.1883 112.1 12.1385C112.121 12.1053 112.165 12.0472 112.231 11.9642C112.306 11.8812 112.377 11.7982 112.443 11.7152C112.51 11.6322 112.554 11.5783 112.576 11.5534C112.643 11.4703 112.721 11.462 112.812 11.5284C112.874 11.5617 112.969 11.6322 113.097 11.7401C113.232 11.8397 113.364 11.9393 113.491 12.0389C113.619 12.1385 113.706 12.2132 113.753 12.263C113.836 12.3377 113.868 12.4124 113.851 12.4871C113.842 12.5535 113.799 12.5867 113.724 12.5867H107.552L107.714 14.1306C107.858 15.5001 107.989 16.5833 108.106 17.3802C108.223 18.177 108.288 18.6335 108.3 18.7497C108.311 18.8576 108.241 18.9406 108.088 18.9987C107.936 19.0568 107.776 19.0859 107.609 19.0859ZM104.93 11.8148C104.846 11.8148 104.774 11.8024 104.713 11.7775C104.659 11.7443 104.627 11.6779 104.617 11.5783C104.613 11.5367 104.601 11.3873 104.582 11.13C104.572 10.8727 104.552 10.5656 104.523 10.2087C104.494 9.85179 104.461 9.49902 104.424 9.15041C104.391 8.835 104.357 8.59429 104.323 8.42828C104.289 8.26228 104.252 8.14607 104.212 8.07967C104.189 8.02157 104.193 7.98007 104.224 7.95517C104.253 7.92196 104.299 7.91781 104.36 7.94272C104.438 7.96762 104.547 8.01327 104.687 8.07967C104.835 8.13777 104.984 8.20002 105.133 8.26643C105.29 8.33283 105.417 8.39093 105.514 8.44073H109.896C109.954 8.44073 109.998 8.41998 110.027 8.37848C110.064 8.33698 110.112 8.27473 110.17 8.19172C110.235 8.10042 110.286 8.02987 110.323 7.98007C110.374 7.91366 110.453 7.90536 110.558 7.95517C110.628 7.98837 110.73 8.04232 110.863 8.11702C111.005 8.19172 111.142 8.27058 111.276 8.35358C111.417 8.42828 111.52 8.48639 111.582 8.52789C111.653 8.56939 111.688 8.62334 111.687 8.68974C111.693 8.74784 111.656 8.7935 111.576 8.8267C111.473 8.8765 111.378 8.9263 111.291 8.9761C111.205 9.02591 111.168 9.10891 111.18 9.22511C111.209 9.49902 111.248 9.79368 111.298 10.1091C111.348 10.4245 111.39 10.7067 111.424 10.9557C111.467 11.2047 111.493 11.3666 111.5 11.4413C111.512 11.5492 111.425 11.6322 111.239 11.6903C111.061 11.7484 110.889 11.7775 110.722 11.7775C110.538 11.7775 110.439 11.7028 110.423 11.5534L110.401 11.3417H105.681L105.698 11.5035C105.704 11.5617 105.664 11.6156 105.577 11.6654C105.49 11.7069 105.385 11.7443 105.264 11.7775C105.141 11.8024 105.03 11.8148 104.93 11.8148ZM108.523 18.8493C108.409 18.7912 108.367 18.7124 108.398 18.6128C109.296 18.1811 110.012 17.5711 110.547 16.7825C109.919 16.0521 109.417 15.1266 109.041 14.0061H108.853C108.853 14.0061 108.783 14.0102 108.642 14.0185C108.508 14.0185 108.347 14.031 108.157 14.0559L107.99 13.533C108.228 13.5745 108.422 13.5994 108.573 13.6077C108.724 13.616 108.8 13.6201 108.8 13.6201H111.442C111.483 13.6201 111.512 13.616 111.528 13.6077C111.552 13.5994 111.579 13.5786 111.609 13.5454C111.616 13.5371 111.643 13.5081 111.687 13.4583C111.731 13.4002 111.776 13.3462 111.821 13.2964C111.873 13.2383 111.899 13.2051 111.898 13.1968C111.958 13.1304 112.04 13.1221 112.146 13.1719C112.225 13.2134 112.328 13.2798 112.454 13.3711C112.58 13.4541 112.701 13.5371 112.819 13.6201C112.944 13.7031 113.039 13.7695 113.102 13.8193C113.174 13.8691 113.21 13.9314 113.21 14.0061C113.208 14.0725 113.163 14.114 113.073 14.1306C113.033 14.1472 112.988 14.1638 112.94 14.1804C112.892 14.197 112.843 14.2136 112.795 14.2302C112.69 14.2634 112.62 14.3464 112.583 14.4792C112.478 14.9025 112.34 15.3009 112.171 15.6745C112 16.0397 111.803 16.38 111.577 16.6954C112.05 16.9859 112.539 17.1976 113.046 17.3304C113.561 17.4632 114.063 17.5545 114.552 17.6043C114.29 17.7371 114.063 17.9155 113.87 18.1396C113.684 18.3555 113.558 18.5464 113.492 18.7124C112.546 18.3721 111.737 17.9031 111.065 17.3055C110.719 17.6624 110.33 17.9695 109.898 18.2268C109.474 18.4841 109.016 18.6916 108.523 18.8493ZM105.642 10.9682H110.362L110.269 10.0842H105.549L105.642 10.9682ZM105.508 9.69823H110.228L110.135 8.81425H105.416L105.508 9.69823ZM110.899 16.1974C111.223 15.5499 111.455 14.8195 111.595 14.0061H109.404C109.596 14.4875 109.82 14.9067 110.074 15.2636C110.329 15.6205 110.604 15.9318 110.899 16.1974ZM105.315 16.795C105.634 16.7286 105.948 16.6622 106.258 16.5958C106.569 16.5294 106.837 16.4671 107.065 16.409L106.959 15.4005H105.169L105.315 16.795ZM105.13 15.027H106.92L106.811 13.9936H105.021L105.13 15.027ZM104.982 13.6201H106.772L106.663 12.5867H104.873L104.982 13.6201ZM116.61 19.0859C116.535 19.0859 116.467 19.0693 116.405 19.0361C116.343 19.0029 116.307 18.9365 116.296 18.8369C116.291 18.7871 116.279 18.6335 116.26 18.3762C116.242 18.1189 116.221 17.8035 116.199 17.43C116.175 17.0482 116.145 16.6414 116.108 16.2098C116.07 15.7699 116.029 15.3383 115.984 14.915C115.931 14.4087 115.882 14.0642 115.838 13.8816C115.801 13.6907 115.762 13.5537 115.72 13.4707C115.689 13.4126 115.688 13.367 115.718 13.3338C115.756 13.3006 115.806 13.2964 115.867 13.3213C115.946 13.3545 116.055 13.4043 116.196 13.4707C116.335 13.5288 116.48 13.5952 116.63 13.6699C116.787 13.7363 116.914 13.7944 117.011 13.8442H124.497C124.573 13.8442 124.624 13.8193 124.652 13.7695C124.688 13.7114 124.735 13.6409 124.793 13.5579C124.858 13.4666 124.909 13.3919 124.945 13.3338C124.982 13.2923 125.017 13.2674 125.049 13.2591C125.082 13.2508 125.133 13.2632 125.203 13.2964C125.327 13.3628 125.501 13.4666 125.724 13.6077C125.948 13.7488 126.123 13.865 126.249 13.9563C126.313 14.0061 126.344 14.0642 126.343 14.1306C126.341 14.1887 126.3 14.2385 126.221 14.28C126.173 14.3049 126.122 14.334 126.067 14.3672C126.02 14.3921 125.976 14.417 125.937 14.4419C125.898 14.4668 125.868 14.4958 125.846 14.529C125.833 14.5622 125.83 14.6162 125.838 14.6909C125.866 14.9565 125.897 15.247 125.93 15.5624C125.971 15.8695 126.01 16.1683 126.049 16.4588C126.088 16.7493 126.118 16.9984 126.14 17.2059C126.17 17.4134 126.188 17.5462 126.195 17.6043C126.233 17.9695 126.168 18.2683 126.001 18.5007C125.833 18.7331 125.474 18.924 124.922 19.0734C124.811 18.8161 124.702 18.6086 124.594 18.4509C124.486 18.3015 124.349 18.1853 124.181 18.1023C124.014 18.0193 123.782 17.957 123.486 17.9155C123.399 17.8076 123.403 17.7246 123.497 17.6665C123.564 17.6665 123.673 17.6707 123.824 17.679C123.983 17.6873 124.151 17.6956 124.327 17.7039C124.503 17.7122 124.658 17.7163 124.792 17.7163C124.925 17.7163 125.014 17.6873 125.058 17.6292C125.101 17.5628 125.117 17.4715 125.104 17.3553L124.775 14.2177H116.925L117.403 18.7622C117.411 18.8452 117.327 18.9199 117.151 18.9863C116.974 19.0527 116.794 19.0859 116.61 19.0859ZM117.979 13.4085C117.804 13.4085 117.709 13.3338 117.693 13.1844C117.682 13.0848 117.673 12.8731 117.664 12.5494C117.654 12.2174 117.628 11.8522 117.586 11.4537C117.555 11.1549 117.529 10.9474 117.508 10.8312C117.487 10.7067 117.449 10.5905 117.396 10.4826C117.365 10.4245 117.365 10.3789 117.394 10.3457C117.433 10.3125 117.482 10.3083 117.543 10.3332C117.657 10.383 117.824 10.4577 118.043 10.5573C118.269 10.6486 118.462 10.7316 118.62 10.8063H122.112C122.179 10.8063 122.227 10.7856 122.256 10.7441C122.294 10.7026 122.342 10.6445 122.401 10.5698C122.467 10.4868 122.523 10.4204 122.567 10.3706C122.626 10.2959 122.709 10.2876 122.815 10.3457C122.913 10.4038 123.061 10.4992 123.258 10.632C123.463 10.7565 123.62 10.8561 123.728 10.9308C123.792 10.9806 123.822 11.0346 123.82 11.0927C123.818 11.1508 123.781 11.1964 123.709 11.2296L123.496 11.3417C123.465 11.3666 123.438 11.3915 123.416 11.4164C123.402 11.4413 123.398 11.4869 123.405 11.5534C123.422 11.7111 123.449 11.8895 123.487 12.0887C123.524 12.2879 123.556 12.4664 123.58 12.6241C123.614 12.7818 123.633 12.8814 123.637 12.9229C123.648 13.0308 123.562 13.1221 123.378 13.1968C123.201 13.2632 123.029 13.2964 122.862 13.2964C122.687 13.2964 122.592 13.2217 122.576 13.0723L122.546 12.7859H118.69L118.717 13.0474C118.727 13.1387 118.652 13.2217 118.493 13.2964C118.343 13.3711 118.171 13.4085 117.979 13.4085ZM119.16 18.0898C119.076 18.0898 119.008 18.0732 118.954 18.04C118.909 18.0068 118.882 17.9446 118.872 17.8533C118.865 17.7869 118.855 17.6499 118.841 17.4424C118.835 17.2266 118.821 16.9735 118.799 16.6829C118.776 16.3841 118.749 16.0853 118.717 15.7865C118.683 15.4628 118.656 15.2428 118.636 15.1266C118.615 15.0104 118.579 14.9025 118.526 14.8029C118.504 14.7448 118.507 14.6992 118.537 14.666C118.567 14.6328 118.612 14.6286 118.673 14.6535C118.796 14.7033 118.967 14.7822 119.187 14.8901C119.415 14.998 119.608 15.0893 119.766 15.164H121.857C121.924 15.164 121.972 15.1432 122.001 15.1017C122.045 15.0436 122.096 14.9814 122.156 14.915C122.215 14.8403 122.263 14.778 122.299 14.7282C122.366 14.6452 122.452 14.6328 122.558 14.6909C122.656 14.749 122.804 14.8444 123.002 14.9772C123.207 15.1017 123.364 15.2055 123.472 15.2885C123.535 15.33 123.565 15.3798 123.563 15.4379C123.561 15.496 123.529 15.5458 123.466 15.5873C123.427 15.6122 123.388 15.6371 123.349 15.662C123.317 15.6786 123.282 15.6994 123.243 15.7243C123.163 15.7575 123.128 15.8239 123.139 15.9235C123.153 16.0563 123.175 16.2347 123.207 16.4588C123.247 16.6746 123.281 16.878 123.309 17.0689C123.345 17.2515 123.365 17.3636 123.369 17.4051C123.38 17.5047 123.297 17.5918 123.121 17.6665C122.953 17.7329 122.79 17.7661 122.631 17.7661C122.548 17.7661 122.48 17.7537 122.427 17.7288C122.373 17.6956 122.342 17.6375 122.333 17.5545L122.294 17.181H119.828L119.888 17.7537C119.897 17.8367 119.822 17.9155 119.663 17.9902C119.511 18.0566 119.343 18.0898 119.16 18.0898ZM114.932 9.90989L114.762 9.36207C115.026 9.41187 115.25 9.44092 115.435 9.44922C115.628 9.45752 115.724 9.46167 115.724 9.46167H119.805L119.712 8.57769C119.68 8.27058 119.63 8.07552 119.563 7.99252C119.524 7.93441 119.519 7.88876 119.549 7.85556C119.57 7.82236 119.611 7.80991 119.67 7.81821C119.771 7.82651 119.915 7.84726 120.102 7.88046C120.297 7.90536 120.488 7.93441 120.675 7.96762C120.87 8.00082 121.019 8.02987 121.122 8.05477C121.2 8.07967 121.244 8.13777 121.253 8.22908C121.254 8.31208 121.205 8.36188 121.106 8.37848C121.024 8.38678 120.946 8.40753 120.875 8.44073C120.802 8.46563 120.772 8.53619 120.784 8.65239L120.869 9.46167H123.849C123.924 9.46167 123.98 9.43677 124.016 9.38697C124.046 9.35377 124.098 9.29152 124.172 9.20021C124.246 9.10891 124.32 9.01761 124.394 8.9263C124.476 8.835 124.528 8.7769 124.551 8.752C124.601 8.67729 124.684 8.66899 124.798 8.72709C124.86 8.7603 124.968 8.835 125.122 8.9512C125.284 9.05911 125.442 9.17116 125.596 9.28737C125.749 9.39527 125.849 9.46997 125.895 9.51147C125.968 9.56958 126 9.64013 125.992 9.72313C125.983 9.79783 125.941 9.83519 125.866 9.83519C125.841 9.83519 125.77 9.83519 125.653 9.83519C125.545 9.83519 125.403 9.83519 125.228 9.83519C124.911 9.83519 124.51 9.83519 124.026 9.83519C123.55 9.83519 123.024 9.83519 122.449 9.83519C121.872 9.82689 121.279 9.82274 120.67 9.82274C120.069 9.82274 119.484 9.82274 118.917 9.82274C118.349 9.82274 117.836 9.82274 117.377 9.82274C116.918 9.82274 116.543 9.82689 116.252 9.83519C115.968 9.83519 115.805 9.83519 115.763 9.83519C115.763 9.83519 115.676 9.83934 115.502 9.84764C115.327 9.84764 115.137 9.86839 114.932 9.90989ZM118.651 12.4124H122.507L122.377 11.1798H118.521L118.651 12.4124ZM119.789 16.8074H122.255L122.123 15.5499L119.655 15.5375L119.789 16.8074ZM128.619 13.2715C128.539 13.3047 128.478 13.284 128.437 13.2093C128.387 13.1346 128.308 13.0142 128.199 12.8482C128.098 12.6822 127.993 12.5162 127.883 12.3502C127.782 12.1842 127.707 12.0597 127.656 11.9767C127.634 11.9269 127.634 11.8854 127.656 11.8522C127.669 11.819 127.722 11.8107 127.816 11.8273C127.874 11.8273 127.946 11.8314 128.03 11.8397C128.123 11.848 128.232 11.8522 128.357 11.8522C128.499 11.8522 128.653 11.8522 128.82 11.8522C128.994 11.8439 129.177 11.8356 129.368 11.8273C129.429 11.6115 129.489 11.35 129.549 11.0429C129.616 10.7358 129.675 10.4204 129.725 10.0966C129.781 9.76463 129.821 9.46167 129.842 9.18776C129.683 9.18776 129.529 9.18776 129.379 9.18776C129.228 9.18776 129.087 9.18776 128.953 9.18776C128.744 9.18776 128.565 9.18776 128.415 9.18776C128.273 9.18776 128.173 9.18776 128.114 9.18776C128.114 9.18776 128.027 9.19191 127.853 9.20021C127.677 9.20021 127.487 9.21681 127.282 9.25001L127.113 8.71464C127.377 8.76445 127.601 8.7935 127.786 8.8018C127.979 8.8101 128.075 8.81425 128.075 8.81425H132.369C132.444 8.81425 132.496 8.78935 132.524 8.73954C132.56 8.68144 132.629 8.58599 132.732 8.45318C132.834 8.31208 132.903 8.21663 132.939 8.16682C132.989 8.08382 133.063 8.07552 133.162 8.14192C133.234 8.19172 133.325 8.26228 133.435 8.35358C133.553 8.44488 133.667 8.54034 133.778 8.63994C133.896 8.73124 133.983 8.80595 134.039 8.86405C134.114 8.93875 134.143 9.01346 134.125 9.08816C134.116 9.15456 134.073 9.18776 133.998 9.18776H131.144C130.972 9.61938 130.757 10.0759 130.499 10.5573C130.249 11.0387 130.001 11.4579 129.755 11.8148C130.253 11.7899 130.763 11.7609 131.286 11.7277C131.815 11.6862 132.266 11.6488 132.638 11.6156C132.452 11.35 132.25 11.0927 132.031 10.8437C131.812 10.5864 131.584 10.354 131.345 10.1464C131.316 10.0302 131.363 9.96384 131.487 9.94724C132.029 10.1879 132.542 10.4951 133.023 10.8686C133.504 11.2338 133.847 11.6405 134.053 12.0887C134.17 12.3294 134.206 12.5535 134.161 12.761C134.124 12.9686 134.03 13.1055 133.879 13.1719C133.648 13.2798 133.478 13.2093 133.368 12.9603C133.301 12.7942 133.22 12.6241 133.127 12.4498C133.042 12.2755 132.944 12.097 132.833 11.9144C132.564 11.9808 132.251 12.0555 131.892 12.1385C131.534 12.2215 131.163 12.3087 130.78 12.4C130.397 12.483 130.038 12.5618 129.704 12.6365C129.369 12.7112 129.096 12.7693 128.883 12.8108C128.776 12.8274 128.713 12.8565 128.692 12.898C128.671 12.9395 128.674 13.0059 128.7 13.0972C128.725 13.1719 128.698 13.23 128.619 13.2715ZM129.276 19.0485C129.204 19.0817 129.144 19.0651 129.095 18.9987C129.046 18.924 128.958 18.7995 128.831 18.6252C128.712 18.4509 128.59 18.2766 128.463 18.1023C128.343 17.9197 128.254 17.7869 128.196 17.7039C128.165 17.6541 128.161 17.6126 128.182 17.5794C128.196 17.5462 128.245 17.5379 128.33 17.5545C128.499 17.5711 128.823 17.5586 129.303 17.5171C129.782 17.4756 130.341 17.3926 130.979 17.2681L130.755 15.1391C130.597 15.1391 130.442 15.1391 130.292 15.1391C130.15 15.1391 130.016 15.1349 129.89 15.1266C129.673 15.1266 129.49 15.1266 129.339 15.1266C129.197 15.1266 129.098 15.1308 129.04 15.1391C129.04 15.1391 128.953 15.1432 128.779 15.1515C128.603 15.1515 128.409 15.1681 128.195 15.2013L128.025 14.6535C128.289 14.7033 128.513 14.7324 128.698 14.7407C128.891 14.749 128.987 14.7531 128.987 14.7531H130.715L130.592 13.5828C130.554 13.2259 130.496 12.9935 130.418 12.8856C130.379 12.8274 130.374 12.7776 130.403 12.7361C130.425 12.7112 130.465 12.6988 130.524 12.6988C130.617 12.7071 130.752 12.7278 130.931 12.761C131.118 12.7942 131.305 12.8274 131.492 12.8606C131.679 12.8939 131.816 12.9229 131.902 12.9478C131.988 12.9727 132.028 13.0308 132.021 13.1221C132.029 13.2051 131.984 13.2549 131.886 13.2715C131.803 13.2798 131.722 13.3006 131.642 13.3338C131.57 13.3587 131.54 13.4292 131.552 13.5454L131.679 14.7531H132.793C132.868 14.7531 132.92 14.7324 132.949 14.6909C132.985 14.6328 133.054 14.5373 133.157 14.4045C133.259 14.2634 133.324 14.1679 133.352 14.1181C133.418 14.0268 133.496 14.0185 133.587 14.0932C133.659 14.1347 133.749 14.2053 133.86 14.3049C133.978 14.3962 134.092 14.4917 134.203 14.5913C134.321 14.6826 134.408 14.7573 134.464 14.8154C134.539 14.8901 134.568 14.9648 134.551 15.0395C134.541 15.1059 134.499 15.1391 134.423 15.1391H131.719L131.927 17.1187C132.534 17.0108 133.103 16.9071 133.635 16.8074C134.167 16.7078 134.572 16.629 134.849 16.5709C134.893 16.5875 134.925 16.6207 134.947 16.6705C134.969 16.7203 134.966 16.7701 134.938 16.8199C134.737 16.8946 134.464 16.9901 134.117 17.1063C133.77 17.2225 133.383 17.3511 132.956 17.4922C132.527 17.625 132.095 17.7578 131.658 17.8906C131.23 18.0234 130.825 18.1479 130.445 18.2642C130.065 18.3804 129.754 18.4717 129.51 18.5381C129.356 18.5796 129.306 18.6958 129.359 18.8867C129.384 18.9697 129.357 19.0236 129.276 19.0485ZM137.455 19.0859C137.349 18.7954 137.229 18.5671 137.095 18.4011C136.969 18.2351 136.806 18.1147 136.606 18.04C136.405 17.957 136.144 17.8948 135.823 17.8533C135.746 17.7537 135.749 17.6707 135.834 17.6043C135.909 17.6043 136.044 17.6126 136.237 17.6292C136.439 17.6375 136.648 17.6458 136.866 17.6541C137.092 17.6624 137.276 17.6665 137.418 17.6665C137.56 17.6665 137.653 17.6375 137.697 17.5794C137.741 17.5213 137.756 17.43 137.743 17.3055L136.83 8.61504C136.812 8.44903 136.79 8.31623 136.763 8.21663C136.736 8.11702 136.707 8.04232 136.677 7.99252C136.638 7.94271 136.633 7.89706 136.662 7.85556C136.685 7.83066 136.726 7.82236 136.785 7.83066C136.886 7.83896 137.018 7.85971 137.18 7.89291C137.35 7.92611 137.516 7.95932 137.678 7.99252C137.849 8.02572 137.985 8.05477 138.088 8.07967C138.166 8.10457 138.209 8.15852 138.218 8.24153C138.218 8.32453 138.173 8.37433 138.083 8.39093C137.992 8.39923 137.911 8.41998 137.839 8.45318C137.767 8.47808 137.737 8.54864 137.749 8.66484L138.161 12.5867C138.216 13.1097 138.272 13.6367 138.327 14.1679C138.392 14.6992 138.452 15.1972 138.509 15.662C138.566 16.1185 138.611 16.5086 138.645 16.8323C138.687 17.1561 138.715 17.376 138.727 17.4922C138.765 17.8574 138.699 18.1811 138.529 18.4634C138.366 18.7456 138.008 18.9531 137.455 19.0859ZM135.559 16.5335C135.367 16.5335 135.262 16.4505 135.245 16.2845C135.24 16.2347 135.222 16.0272 135.192 15.662C135.169 15.2885 135.131 14.8071 135.078 14.2177C135.032 13.6284 134.973 12.981 134.899 12.2755L134.647 9.88499C134.612 9.55298 134.561 9.34547 134.494 9.26246C134.464 9.21266 134.459 9.16701 134.48 9.12551C134.51 9.09231 134.55 9.07986 134.601 9.08816C134.702 9.09646 134.834 9.11721 134.996 9.15041C135.166 9.18361 135.332 9.21681 135.495 9.25001C135.665 9.28321 135.802 9.31227 135.904 9.33717C135.98 9.34547 136.023 9.39942 136.034 9.49902C136.034 9.58203 135.985 9.63183 135.887 9.64843C135.804 9.65673 135.727 9.67748 135.656 9.71068C135.583 9.73558 135.553 9.80613 135.565 9.92234L135.801 12.2879C135.875 12.9852 135.945 13.6201 136.014 14.1928C136.082 14.7573 136.138 15.2138 136.183 15.5624C136.228 15.911 136.254 16.1185 136.261 16.1849C136.271 16.2762 136.2 16.3592 136.049 16.4339C135.898 16.5003 135.734 16.5335 135.559 16.5335ZM147.313 17.7163C147.122 17.7163 147.017 17.6375 147.001 17.4798C146.996 17.4383 146.99 17.3387 146.982 17.181C146.974 17.0233 146.963 16.8448 146.951 16.6456C146.937 16.4381 146.922 16.2513 146.904 16.0853C146.679 16.0853 146.458 16.0853 146.241 16.0853C146.032 16.0853 145.836 16.0853 145.652 16.0853C145.36 16.0853 145.118 16.0853 144.926 16.0853C144.734 16.0853 144.613 16.0853 144.563 16.0853C144.563 16.0853 144.476 16.0895 144.302 16.0978C144.135 16.0978 143.944 16.1144 143.731 16.1476L143.562 15.6122C143.826 15.662 144.05 15.6911 144.235 15.6994C144.427 15.7077 144.524 15.7118 144.524 15.7118H146.865L146.763 14.7407C146.613 14.7407 146.471 14.7407 146.337 14.7407C146.212 14.7407 146.091 14.7407 145.974 14.7407C145.807 14.7407 145.665 14.7407 145.549 14.7407C145.44 14.7407 145.373 14.7407 145.348 14.7407C145.348 14.7407 145.269 14.7448 145.112 14.7531C144.953 14.7531 144.779 14.7656 144.59 14.7905L144.422 14.2676C144.669 14.3174 144.877 14.3464 145.045 14.3547C145.221 14.363 145.309 14.3672 145.309 14.3672H146.724L146.624 13.4209H144.671C144.671 13.4209 144.584 13.4251 144.41 13.4334C144.234 13.4334 144.044 13.45 143.839 13.4832L143.657 12.9478C143.93 12.9976 144.158 13.0267 144.343 13.035C144.527 13.0433 144.619 13.0474 144.619 13.0474H145.746C145.727 13.0225 145.705 12.9769 145.682 12.9105C145.579 12.5701 145.45 12.2506 145.293 11.9518C145.145 11.653 144.953 11.379 144.718 11.13C144.705 11.0055 144.757 10.9433 144.874 10.9433C145.233 11.101 145.558 11.296 145.849 11.5284C146.149 11.7609 146.352 12.0265 146.459 12.3253C146.517 12.483 146.532 12.6241 146.503 12.7486C146.483 12.8731 146.435 12.9727 146.36 13.0474H147.574C147.628 12.9229 147.685 12.7569 147.747 12.5494C147.816 12.3336 147.876 12.1136 147.928 11.8895C147.988 11.6654 148.022 11.4703 148.029 11.3043C148.038 11.2296 148.039 11.1632 148.033 11.1051C148.027 11.047 148.022 11.0014 148.019 10.9682L148.029 10.9433C147.695 10.9433 147.361 10.9433 147.027 10.9433C146.693 10.9433 146.376 10.9433 146.076 10.9433C145.567 10.9433 145.133 10.9433 144.774 10.9433C144.415 10.9433 144.219 10.9433 144.185 10.9433C144.185 10.9433 144.098 10.9474 143.924 10.9557C143.749 10.9557 143.554 10.9723 143.341 11.0055L143.17 10.4577C143.434 10.5075 143.659 10.5366 143.843 10.5449C144.036 10.5532 144.132 10.5573 144.132 10.5573H146.323L146.221 9.58618H144.781C144.781 9.58618 144.703 9.59033 144.545 9.59863C144.386 9.59863 144.213 9.61523 144.024 9.64843L143.857 9.12551C144.103 9.16701 144.31 9.19191 144.478 9.20021C144.654 9.20851 144.742 9.21266 144.742 9.21266H146.182L146.123 8.65239C146.088 8.32038 146.032 8.10042 145.953 7.99252C145.923 7.94271 145.918 7.89706 145.939 7.85556C145.961 7.82236 146.001 7.80991 146.06 7.81821C146.161 7.82651 146.301 7.84726 146.48 7.88046C146.659 7.91366 146.838 7.94687 147.016 7.98007C147.195 8.01327 147.336 8.04232 147.439 8.06722C147.533 8.09212 147.577 8.15022 147.57 8.24153C147.57 8.32453 147.525 8.37433 147.435 8.39093C147.344 8.39923 147.263 8.41998 147.191 8.45318C147.119 8.47808 147.089 8.54864 147.101 8.66484L147.158 9.21266H148.348C148.423 9.21266 148.474 9.18776 148.503 9.13796C148.539 9.08816 148.594 9.01345 148.667 8.91385C148.739 8.80595 148.789 8.73124 148.818 8.68974C148.87 8.62334 148.949 8.61919 149.055 8.67729C149.109 8.71049 149.19 8.7686 149.299 8.8516C149.408 8.9346 149.516 9.01761 149.625 9.10061C149.733 9.17531 149.81 9.23341 149.856 9.27491C149.921 9.33302 149.949 9.39942 149.94 9.47412C149.931 9.54882 149.893 9.58618 149.827 9.58618H147.198L147.3 10.5573H149.34C149.415 10.5573 149.472 10.5366 149.509 10.4951C149.545 10.437 149.598 10.354 149.671 10.2461C149.743 10.1381 149.793 10.0634 149.822 10.0219C149.88 9.93894 149.963 9.93479 150.071 10.0095C150.133 10.0427 150.219 10.1008 150.328 10.1838C150.436 10.2668 150.545 10.3498 150.654 10.4328C150.763 10.5158 150.841 10.5781 150.887 10.6196C150.96 10.6777 150.988 10.7482 150.971 10.8312C150.963 10.9059 150.925 10.9433 150.858 10.9433H148.442C148.607 11.0097 148.787 11.0885 148.98 11.1798C149.172 11.2628 149.321 11.3292 149.427 11.379C149.497 11.4122 149.528 11.4745 149.521 11.5658C149.503 11.6322 149.453 11.6654 149.369 11.6654C149.259 11.6488 149.18 11.6488 149.131 11.6654C149.083 11.682 149.03 11.7318 148.972 11.8148C148.835 12.0223 148.67 12.2423 148.478 12.4747C148.293 12.6988 148.125 12.8897 147.975 13.0474H149.389C149.464 13.0474 149.516 13.0225 149.544 12.9727C149.581 12.9229 149.635 12.8482 149.708 12.7486C149.78 12.6407 149.831 12.566 149.86 12.5245C149.92 12.4581 150.003 12.4539 150.109 12.512C150.171 12.5452 150.256 12.6033 150.365 12.6863C150.474 12.7693 150.583 12.8523 150.692 12.9354C150.8 13.0101 150.877 13.0682 150.923 13.1097C150.996 13.1678 151.024 13.2342 151.007 13.3089C150.998 13.3836 150.96 13.4209 150.893 13.4209H147.601L147.7 14.3672H149.002C149.077 14.3672 149.129 14.3423 149.157 14.2925C149.193 14.2427 149.248 14.1638 149.32 14.0559C149.392 13.948 149.443 13.8774 149.473 13.8442C149.509 13.7944 149.545 13.7737 149.579 13.782C149.612 13.782 149.656 13.7986 149.709 13.8318C149.763 13.865 149.844 13.9231 149.953 14.0061C150.062 14.0891 150.171 14.1721 150.28 14.2551C150.388 14.3298 150.465 14.3879 150.511 14.4294C150.584 14.4875 150.612 14.5539 150.594 14.6286C150.586 14.7033 150.548 14.7407 150.481 14.7407H147.739L147.841 15.7118H149.832C149.924 15.7118 149.987 15.6828 150.023 15.6247C150.044 15.5832 150.079 15.525 150.13 15.4503C150.188 15.3673 150.242 15.2885 150.293 15.2138C150.343 15.1308 150.378 15.0727 150.4 15.0395C150.459 14.9648 150.538 14.9606 150.636 15.027C150.698 15.0602 150.793 15.1308 150.921 15.2387C151.057 15.3383 151.189 15.442 151.317 15.5499C151.445 15.6496 151.532 15.7243 151.579 15.7741C151.652 15.8322 151.679 15.8986 151.662 15.9733C151.653 16.048 151.616 16.0853 151.549 16.0853H147.881C147.905 16.2347 147.926 16.4007 147.946 16.5833C147.973 16.7659 147.999 16.932 148.023 17.0814C148.046 17.2225 148.061 17.3221 148.067 17.3802C148.076 17.4632 147.996 17.542 147.829 17.6167C147.661 17.6831 147.489 17.7163 147.313 17.7163ZM141.765 18.9987C141.686 19.0485 141.623 19.0402 141.574 18.9738C141.508 18.8991 141.409 18.7871 141.276 18.6377C141.143 18.4883 141.01 18.3347 140.877 18.177C140.753 18.0276 140.662 17.9155 140.604 17.8408C140.558 17.7993 140.545 17.762 140.567 17.7288C140.58 17.6956 140.616 17.679 140.674 17.679C140.781 17.6624 140.936 17.625 141.138 17.5669C141.341 17.5088 141.555 17.4383 141.78 17.3553C142.005 17.2723 142.201 17.1934 142.368 17.1187L141.982 13.4458H140.956C140.956 13.4458 140.881 13.45 140.732 13.4583C140.581 13.4583 140.42 13.4749 140.249 13.5081L140.067 12.9727C140.298 13.0225 140.497 13.0516 140.665 13.0599C140.832 13.0682 140.916 13.0723 140.916 13.0723H141.73C141.789 13.0723 141.832 13.0516 141.861 13.0101C141.905 12.952 141.964 12.8772 142.038 12.7859C142.112 12.6946 142.167 12.6241 142.204 12.5743C142.253 12.4913 142.332 12.483 142.439 12.5494C142.501 12.5826 142.591 12.6448 142.709 12.7361C142.826 12.8191 142.943 12.9022 143.061 12.9852C143.186 13.0682 143.277 13.1346 143.332 13.1844C143.386 13.2259 143.412 13.2757 143.41 13.3338C143.415 13.3836 143.383 13.4292 143.312 13.4707C143.257 13.5039 143.206 13.533 143.158 13.5579C143.111 13.5828 143.068 13.6077 143.028 13.6326C142.989 13.6575 142.963 13.6865 142.95 13.7197C142.936 13.7446 142.933 13.7986 142.942 13.8816L143.24 16.7203C143.28 17.0938 143.533 17.4009 144.001 17.6416C144.476 17.874 145.189 17.9902 146.14 17.9902C146.583 17.9902 147.074 17.9819 147.615 17.9653C148.156 17.9487 148.7 17.928 149.249 17.9031C149.797 17.8782 150.315 17.8491 150.804 17.8159C151.292 17.7744 151.709 17.7288 152.054 17.679C151.919 17.8201 151.817 18.0068 151.75 18.2393C151.683 18.4717 151.65 18.675 151.651 18.8493H146.231C145.638 18.8493 145.125 18.7705 144.691 18.6128C144.257 18.4551 143.902 18.2517 143.625 18.0027C143.348 17.7454 143.149 17.4798 143.028 17.2059C142.925 17.3304 142.794 17.4756 142.636 17.6416C142.486 17.7993 142.335 17.9529 142.184 18.1023C142.041 18.2517 141.924 18.3721 141.834 18.4634C141.781 18.5215 141.749 18.5713 141.737 18.6128C141.724 18.6543 141.744 18.7207 141.795 18.812C141.829 18.895 141.819 18.9572 141.765 18.9987ZM142.299 10.6196C142.203 10.6611 142.108 10.6694 142.013 10.6445C141.926 10.6113 141.846 10.52 141.772 10.3706C141.589 9.98044 141.358 9.61108 141.079 9.26246C140.801 8.91385 140.469 8.61919 140.085 8.37848C140.038 8.24568 140.076 8.17097 140.199 8.15437C140.498 8.22078 140.801 8.32453 141.108 8.46563C141.414 8.59844 141.69 8.7603 141.935 8.9512C142.188 9.13381 142.369 9.34547 142.478 9.58618C142.596 9.83519 142.632 10.0551 142.585 10.2461C142.538 10.437 142.443 10.5615 142.299 10.6196ZM155.243 16.0978C155.043 16.0978 154.934 16.0189 154.918 15.8612C154.913 15.8114 154.903 15.6828 154.89 15.4752C154.875 15.2594 154.856 14.998 154.832 14.6909C154.808 14.3838 154.783 14.06 154.755 13.7197C154.728 13.3794 154.698 13.0516 154.665 12.7361C154.631 12.4207 154.592 12.1676 154.547 11.9767C154.51 11.7775 154.464 11.6239 154.411 11.516C154.373 11.4745 154.373 11.433 154.411 11.3915C154.449 11.3583 154.494 11.3541 154.547 11.379C154.616 11.4039 154.725 11.4496 154.874 11.516C155.023 11.5824 155.177 11.653 155.335 11.7277C155.5 11.7941 155.627 11.8522 155.716 11.902H157.569L157.231 8.68974C157.194 8.33283 157.136 8.10042 157.058 7.99252C157.018 7.93441 157.014 7.88876 157.043 7.85556C157.065 7.82236 157.105 7.80991 157.165 7.81821C157.257 7.82651 157.393 7.84726 157.572 7.88046C157.759 7.91366 157.946 7.94687 158.133 7.98007C158.32 8.01327 158.465 8.04232 158.568 8.06722C158.646 8.09212 158.689 8.14607 158.698 8.22908C158.698 8.31208 158.653 8.36188 158.563 8.37848C158.472 8.38678 158.387 8.40753 158.307 8.44073C158.234 8.46563 158.204 8.53619 158.216 8.65239L158.349 9.90989H161.503C161.587 9.90989 161.643 9.88499 161.671 9.83519C161.692 9.80198 161.732 9.74388 161.79 9.66088C161.856 9.56958 161.917 9.47827 161.974 9.38697C162.04 9.29567 162.084 9.23756 162.106 9.21266C162.156 9.12966 162.234 9.12136 162.341 9.18776C162.412 9.22096 162.515 9.29567 162.653 9.41187C162.798 9.51977 162.938 9.62768 163.075 9.73558C163.22 9.84349 163.315 9.91819 163.361 9.95969C163.434 10.0178 163.463 10.0883 163.446 10.1713C163.437 10.2461 163.4 10.2834 163.333 10.2834H158.388L158.558 11.902H160.573C160.64 11.902 160.688 11.8812 160.717 11.8397C160.753 11.7816 160.808 11.7069 160.881 11.6156C160.955 11.5243 161.01 11.4496 161.046 11.3915C161.083 11.35 161.118 11.3251 161.15 11.3168C161.183 11.3085 161.235 11.3251 161.306 11.3666C161.377 11.4081 161.48 11.4745 161.615 11.5658C161.749 11.6488 161.883 11.736 162.018 11.8273C162.152 11.9103 162.251 11.9767 162.314 12.0265C162.377 12.068 162.407 12.1178 162.405 12.1759C162.403 12.234 162.37 12.2796 162.307 12.3128C162.252 12.346 162.196 12.3751 162.141 12.4C162.093 12.4249 162.05 12.4498 162.011 12.4747C161.964 12.5079 161.934 12.5411 161.921 12.5743C161.908 12.6075 161.906 12.6697 161.916 12.761C161.965 13.2259 162.015 13.6699 162.068 14.0932C162.129 14.5166 162.179 14.8693 162.217 15.1515C162.263 15.4337 162.289 15.5956 162.293 15.6371C162.303 15.7284 162.228 15.8114 162.069 15.8861C161.91 15.9608 161.73 15.9982 161.53 15.9982C161.355 15.9982 161.259 15.9235 161.243 15.7741L161.205 15.413H155.947L155.983 15.7492C155.991 15.8322 155.92 15.911 155.77 15.9857C155.619 16.0604 155.443 16.0978 155.243 16.0978ZM155.908 15.0395H161.166L160.876 12.2755H155.618L155.908 15.0395ZM164.132 18.9614C164.028 19.0029 163.92 19.007 163.808 18.9738C163.705 18.9489 163.621 18.8659 163.557 18.7248C163.348 18.2517 163.103 17.8201 162.82 17.43C162.536 17.0399 162.18 16.6663 161.75 16.3094C161.737 16.2596 161.74 16.214 161.761 16.1725C161.782 16.131 161.817 16.1061 161.866 16.0978C162.472 16.3053 162.991 16.5584 163.423 16.8572C163.863 17.1561 164.169 17.4881 164.341 17.8533C164.46 18.1106 164.489 18.343 164.427 18.5505C164.374 18.758 164.275 18.895 164.132 18.9614ZM153.965 19.061C153.74 19.0693 153.566 19.0029 153.443 18.8618C153.329 18.729 153.279 18.5754 153.294 18.4011C153.31 18.2268 153.412 18.0898 153.602 17.9902C153.91 17.8242 154.16 17.5877 154.353 17.2806C154.546 16.9652 154.672 16.5792 154.733 16.1227C154.823 16.0314 154.911 16.0314 154.995 16.1227C155.16 17.0523 155.143 17.7661 154.945 18.2642C154.755 18.7622 154.429 19.0278 153.965 19.061ZM157.766 18.8991C157.659 18.9157 157.562 18.8991 157.473 18.8493C157.393 18.8078 157.337 18.7124 157.305 18.563C157.262 18.314 157.193 18.0483 157.096 17.7661C157 17.4839 156.888 17.2142 156.761 16.9569C156.641 16.6912 156.513 16.4713 156.378 16.297C156.372 16.2389 156.384 16.1932 156.414 16.16C156.452 16.1268 156.497 16.1144 156.548 16.1227C156.924 16.2887 157.275 16.5294 157.6 16.8448C157.933 17.1519 158.152 17.5254 158.256 17.9653C158.326 18.231 158.302 18.4426 158.185 18.6003C158.069 18.7663 157.929 18.8659 157.766 18.8991ZM160.717 18.8618C160.611 18.8867 160.514 18.8784 160.426 18.8369C160.347 18.8037 160.288 18.7165 160.248 18.5754C160.18 18.3264 160.082 18.0649 159.953 17.791C159.832 17.5088 159.695 17.2432 159.544 16.9942C159.4 16.7369 159.248 16.5211 159.088 16.3468C159.058 16.2223 159.106 16.16 159.231 16.16C159.621 16.3011 159.999 16.5211 160.364 16.8199C160.73 17.1187 160.984 17.4715 161.126 17.8782C161.22 18.1355 161.218 18.3513 161.119 18.5256C161.022 18.7082 160.887 18.8203 160.717 18.8618ZM171.523 18.5256C170.738 18.5256 170.084 18.4136 169.559 18.1894C169.044 17.9653 168.746 17.6001 168.668 17.0938C168.612 16.7203 168.696 16.4049 168.919 16.1476C169.142 15.882 169.436 15.6205 169.801 15.3632C169.933 15.2719 170.089 15.1681 170.269 15.0519C170.456 14.9274 170.655 14.7988 170.867 14.666C170.81 14.3672 170.731 14.0891 170.629 13.8318C170.534 13.5662 170.412 13.3545 170.262 13.1968C170.111 13.0308 169.918 12.9478 169.685 12.9478C169.392 12.9478 169.117 13.0308 168.859 13.1968C168.601 13.3545 168.372 13.562 168.174 13.8193C167.983 14.0683 167.823 14.3298 167.693 14.6037C167.578 14.861 167.451 14.998 167.31 15.0146C167.169 15.0229 167.027 14.9399 166.884 14.7656C166.719 14.5498 166.658 14.363 166.7 14.2053C166.75 14.0476 166.847 13.9023 166.992 13.7695C167.189 13.5786 167.397 13.3379 167.617 13.0474C167.845 12.7569 168.07 12.4373 168.292 12.0887C168.514 11.7401 168.719 11.3873 168.907 11.0304C168.775 11.0387 168.642 11.047 168.509 11.0553C168.376 11.0553 168.246 11.0553 168.121 11.0553C167.654 11.0553 167.307 10.9308 167.08 10.6818C166.861 10.4245 166.725 10.1174 166.671 9.76048C166.744 9.66088 166.83 9.64843 166.929 9.72313C167.007 9.98044 167.141 10.1464 167.332 10.2211C167.523 10.2876 167.756 10.3208 168.031 10.3208C168.214 10.3125 168.414 10.3042 168.63 10.2959C168.853 10.2793 169.072 10.2544 169.285 10.2211C169.34 10.1049 169.387 9.99289 169.425 9.88499C169.471 9.76878 169.506 9.66088 169.529 9.56128C169.618 9.29567 169.619 9.07156 169.533 8.88895C169.447 8.70634 169.284 8.57769 169.042 8.50299C169.004 8.46148 168.991 8.41583 169.003 8.36603C169.014 8.31623 169.035 8.27888 169.066 8.25398C169.259 8.26228 169.48 8.30378 169.73 8.37848C169.987 8.44488 170.197 8.52789 170.357 8.62749C170.509 8.71879 170.596 8.835 170.619 8.9761C170.642 9.10891 170.607 9.22096 170.517 9.31227C170.465 9.37037 170.409 9.44092 170.351 9.52392C170.293 9.60693 170.247 9.68163 170.212 9.74803C170.172 9.84764 170.122 9.95969 170.06 10.0842C170.181 10.051 170.295 10.0219 170.401 9.99704C170.506 9.96384 170.599 9.93064 170.678 9.89744C170.758 9.85594 170.839 9.83519 170.922 9.83519C171.014 9.83519 171.131 9.87669 171.273 9.95969C171.521 10.0925 171.649 10.2336 171.656 10.383C171.663 10.5324 171.562 10.6403 171.352 10.7067C171.19 10.7565 170.949 10.8063 170.629 10.8561C170.316 10.8976 169.974 10.9391 169.603 10.9806C169.415 11.3375 169.224 11.6986 169.028 12.0638C168.832 12.4207 168.663 12.7195 168.522 12.9603C168.675 12.8357 168.848 12.732 169.04 12.649C169.239 12.5577 169.455 12.512 169.689 12.512C170.089 12.512 170.422 12.6199 170.687 12.8357C170.96 13.0516 171.18 13.3213 171.348 13.645C171.449 13.2549 171.599 12.8939 171.797 12.5618C172.004 12.2215 172.254 11.9476 172.55 11.7401C172.853 11.5326 173.206 11.4288 173.606 11.4288C174.032 11.4288 174.377 11.4994 174.642 11.6405C174.907 11.7733 175.095 11.9352 175.207 12.1261C175.319 12.317 175.355 12.4996 175.314 12.6739C175.273 12.8399 175.161 12.9603 174.977 13.035C174.72 13.1346 174.41 13.2757 174.045 13.4583C173.688 13.6326 173.312 13.8318 172.918 14.0559C172.524 14.2717 172.138 14.4958 171.762 14.7282C171.838 15.0519 171.896 15.3632 171.935 15.662C171.983 15.9608 172.018 16.2098 172.039 16.409C172.06 16.6082 172.018 16.7659 171.913 16.8821C171.808 16.9901 171.684 17.044 171.542 17.044C171.259 17.044 171.1 16.8904 171.068 16.5833C171.065 16.5501 171.06 16.5086 171.055 16.4588C171.049 16.4007 171.047 16.3385 171.048 16.2721C171.033 16.131 171.021 15.9733 171.011 15.799C171.001 15.6247 170.981 15.4379 170.952 15.2387C170.796 15.3466 170.645 15.4503 170.496 15.5499C170.356 15.6413 170.228 15.7326 170.112 15.8239C169.888 15.9982 169.735 16.1683 169.652 16.3343C169.57 16.5003 169.548 16.6912 169.587 16.9071C169.643 17.1976 169.838 17.3885 170.173 17.4798C170.509 17.5711 170.956 17.6167 171.515 17.6167C171.907 17.6167 172.296 17.5877 172.682 17.5296C173.069 17.4715 173.367 17.4092 173.577 17.3428C173.689 17.3013 173.779 17.2847 173.847 17.293C173.914 17.293 174.004 17.3138 174.116 17.3553C174.492 17.513 174.694 17.6914 174.723 17.8906C174.752 18.0815 174.644 18.2102 174.401 18.2766C174.093 18.3596 173.673 18.4219 173.144 18.4634C172.622 18.5049 172.082 18.5256 171.523 18.5256ZM171.618 14.1928C172.002 13.9521 172.386 13.7114 172.769 13.4707C173.152 13.2217 173.491 12.9935 173.786 12.7859C174.058 12.595 174.172 12.4083 174.128 12.2257C174.083 12.0348 173.902 11.9393 173.585 11.9393C173.209 11.9393 172.887 12.0514 172.618 12.2755C172.35 12.4996 172.134 12.7859 171.97 13.1346C171.806 13.4749 171.688 13.8276 171.618 14.1928ZM184.752 19.0859C184.628 18.7788 184.498 18.5422 184.364 18.3762C184.231 18.2185 184.064 18.1023 183.864 18.0276C183.672 17.9446 183.411 17.8865 183.082 17.8533C183.045 17.8118 183.027 17.7661 183.03 17.7163C183.042 17.6665 183.067 17.6292 183.106 17.6043C183.181 17.6043 183.311 17.6084 183.496 17.6167C183.68 17.625 183.881 17.6333 184.099 17.6416C184.325 17.6499 184.526 17.6541 184.701 17.6541C184.935 17.6541 185.041 17.5503 185.019 17.3428L184.607 13.4209C184.14 13.4209 183.664 13.4209 183.18 13.4209C182.704 13.4209 182.245 13.4168 181.801 13.4085C181.284 13.4085 180.808 13.4085 180.374 13.4085C179.94 13.4085 179.573 13.4085 179.273 13.4085C178.972 13.4085 178.772 13.4126 178.673 13.4209C178.673 13.4209 178.586 13.4251 178.411 13.4334C178.244 13.4334 178.054 13.45 177.841 13.4832L177.672 12.9478C177.936 12.9976 178.16 13.0267 178.344 13.035C178.537 13.0433 178.634 13.0474 178.634 13.0474H184.568L184.398 11.4288C184.36 11.0719 184.302 10.8354 184.223 10.7192C184.193 10.6777 184.189 10.632 184.208 10.5822C184.229 10.5407 184.27 10.5283 184.33 10.5449C184.431 10.5532 184.571 10.5739 184.749 10.6071C184.928 10.6403 185.107 10.6777 185.287 10.7192C185.466 10.7524 185.607 10.7856 185.711 10.8188C185.788 10.8437 185.831 10.8976 185.84 10.9806C185.841 11.0636 185.796 11.1134 185.706 11.13C185.615 11.1383 185.529 11.1591 185.449 11.1923C185.377 11.2172 185.347 11.2877 185.359 11.4039L185.532 13.0474H186.909C186.976 13.0474 187.031 13.0225 187.076 12.9727C187.105 12.9312 187.153 12.8689 187.219 12.7859C187.285 12.6946 187.35 12.5992 187.415 12.4996C187.488 12.4 187.542 12.3253 187.579 12.2755C187.637 12.1925 187.719 12.1842 187.827 12.2506C187.907 12.3004 188.019 12.3792 188.164 12.4871C188.318 12.595 188.467 12.7071 188.613 12.8233C188.767 12.9395 188.877 13.0308 188.942 13.0972C189.015 13.1553 189.043 13.2259 189.027 13.3089C189.018 13.3836 188.98 13.4209 188.913 13.4209H185.571L185.611 13.8069C185.644 14.114 185.685 14.4668 185.735 14.8652C185.785 15.2553 185.833 15.6371 185.881 16.0106C185.937 16.3841 185.983 16.7037 186.019 16.9693C186.055 17.2349 186.076 17.3968 186.083 17.4549C186.123 17.8367 186.053 18.1645 185.873 18.4385C185.701 18.7124 185.328 18.9282 184.752 19.0859ZM178.27 12.3253C178.055 12.3502 177.884 12.3045 177.755 12.1883C177.633 12.0638 177.568 11.9186 177.559 11.7526C177.557 11.5783 177.626 11.4413 177.766 11.3417C178.067 11.1093 178.292 10.7939 178.443 10.3955C178.592 9.98874 178.665 9.53637 178.663 9.03836C178.745 8.94705 178.832 8.93875 178.923 9.01345C178.997 9.23756 179.059 9.46997 179.109 9.71068H182.477L182.36 8.60259C182.329 8.30378 182.279 8.10457 182.21 8.00497C182.171 7.95517 182.162 7.90536 182.182 7.85556C182.204 7.83066 182.249 7.81821 182.315 7.81821C182.417 7.82651 182.561 7.84726 182.748 7.88046C182.934 7.90536 183.121 7.93441 183.308 7.96762C183.495 8.00082 183.64 8.03402 183.744 8.06722C183.838 8.09212 183.882 8.15022 183.875 8.24153C183.884 8.33283 183.839 8.37848 183.739 8.37848C183.656 8.38678 183.575 8.40753 183.495 8.44073C183.423 8.47393 183.394 8.54864 183.406 8.66484L183.516 9.71068H186.583C186.658 9.71068 186.714 9.68993 186.752 9.64843C186.789 9.60693 186.849 9.54467 186.932 9.46167C187.024 9.37867 187.092 9.31642 187.138 9.27491C187.213 9.19191 187.3 9.18776 187.4 9.26246C187.499 9.32887 187.621 9.42017 187.767 9.53637C187.911 9.64428 188.057 9.75633 188.203 9.87254C188.357 9.98874 188.48 10.0883 188.572 10.1713C188.664 10.2544 188.682 10.3415 188.624 10.4328C188.567 10.5241 188.471 10.5573 188.334 10.5324C188.223 10.5075 188.131 10.5034 188.058 10.52C187.984 10.5283 187.891 10.5615 187.78 10.6196C187.661 10.6777 187.504 10.769 187.308 10.8935C187.121 11.018 186.939 11.1508 186.762 11.2919C186.584 11.4247 186.449 11.5326 186.358 11.6156C186.243 11.6322 186.17 11.5783 186.14 11.4537C186.173 11.3707 186.227 11.2421 186.3 11.0678C186.373 10.8852 186.441 10.6984 186.504 10.5075C186.576 10.3166 186.628 10.1755 186.66 10.0842H179.174C179.221 10.4577 179.221 10.8105 179.172 11.1425C179.131 11.4662 179.038 11.736 178.894 11.9518C178.75 12.1676 178.542 12.2921 178.27 12.3253ZM182.454 16.7576C182.35 16.7991 182.245 16.7991 182.141 16.7576C182.035 16.7078 181.941 16.5999 181.856 16.4339C181.64 15.9608 181.372 15.5209 181.054 15.1142C180.744 14.6992 180.359 14.3381 179.901 14.031C179.855 13.9065 179.889 13.8318 180.003 13.8069C180.328 13.8816 180.674 14.0019 181.042 14.1679C181.41 14.334 181.745 14.5373 182.045 14.778C182.355 15.0187 182.57 15.2843 182.693 15.5749C182.814 15.8571 182.845 16.1102 182.785 16.3343C182.724 16.5501 182.614 16.6912 182.454 16.7576ZM196.696 18.2642C195.971 18.2725 195.414 18.1396 195.027 17.8657C194.638 17.5835 194.449 17.2142 194.46 16.7576C194.47 16.4588 194.591 16.2181 194.822 16.0355C195.061 15.8529 195.375 15.7824 195.764 15.8239C196.209 15.8571 196.58 16.0065 196.875 16.2721C197.177 16.5294 197.403 16.8863 197.551 17.3428C197.945 17.2017 198.262 16.9652 198.503 16.6331C198.742 16.2928 198.83 15.8571 198.766 15.3258C198.698 14.7614 198.475 14.3008 198.095 13.9438C197.715 13.5869 197.217 13.4126 196.6 13.4209C196.159 13.4292 195.761 13.533 195.406 13.7322C195.051 13.9314 194.733 14.1928 194.449 14.5166C194.166 14.8403 193.915 15.193 193.697 15.5749C193.477 15.9484 193.287 16.3177 193.125 16.6829C193.036 16.8738 192.905 16.9776 192.732 16.9942C192.557 17.0025 192.416 16.9278 192.308 16.7701C192.187 16.5709 192.132 16.3675 192.143 16.16C192.163 15.9525 192.241 15.7782 192.376 15.6371C192.564 15.4379 192.775 15.1847 193.01 14.8776C193.252 14.5622 193.504 14.2177 193.765 13.8442C194.034 13.4624 194.294 13.0765 194.545 12.6863C194.804 12.2879 195.043 11.9103 195.265 11.5534C195.485 11.1881 195.677 10.8686 195.84 10.5947C196.003 10.3208 196.119 10.1132 196.188 9.97214C196.27 9.80613 196.291 9.68578 196.25 9.61108C196.209 9.53637 196.119 9.51977 195.982 9.56128C195.542 9.66918 195.101 9.91404 194.657 10.2959C194.526 10.4038 194.412 10.5075 194.314 10.6071C194.223 10.6984 194.083 10.7482 193.891 10.7565C193.725 10.7565 193.563 10.686 193.406 10.5449C193.258 10.4038 193.124 10.2419 193.004 10.0593C192.893 9.86839 192.81 9.71483 192.756 9.59863C192.784 9.47412 192.855 9.42847 192.967 9.46167C193.097 9.58618 193.218 9.67333 193.332 9.72313C193.453 9.76463 193.605 9.78123 193.788 9.77293C193.929 9.76463 194.119 9.70653 194.358 9.59863C194.606 9.49072 194.88 9.36622 195.183 9.22511C195.493 9.08401 195.81 8.96365 196.134 8.86405C196.369 8.79765 196.554 8.7686 196.688 8.7769C196.822 8.7769 196.959 8.8184 197.102 8.9014C197.466 9.10891 197.666 9.31227 197.704 9.51147C197.742 9.71068 197.631 9.88499 197.371 10.0344C197.253 10.1008 197.097 10.2461 196.903 10.4702C196.718 10.6943 196.513 10.9599 196.286 11.267C196.068 11.5741 195.846 11.8854 195.621 12.2008C195.403 12.5162 195.204 12.8067 195.024 13.0723C194.851 13.3379 194.718 13.5371 194.623 13.6699C194.868 13.4541 195.161 13.2715 195.505 13.1221C195.848 12.9727 196.198 12.8939 196.556 12.8856C197.172 12.8689 197.717 12.9686 198.19 13.1844C198.663 13.3919 199.044 13.6824 199.333 14.0559C199.622 14.4211 199.796 14.8403 199.854 15.3134C199.936 15.9359 199.85 16.4671 199.596 16.9071C199.35 17.347 198.976 17.6831 198.475 17.9155C197.972 18.1396 197.38 18.2559 196.696 18.2642ZM196.629 17.5047H196.691C196.633 17.264 196.536 17.0565 196.401 16.8821C196.265 16.6995 196.073 16.5833 195.826 16.5335C195.443 16.4671 195.232 16.5626 195.192 16.8199C195.185 16.9112 195.217 17.015 195.288 17.1312C195.366 17.2391 195.509 17.3304 195.717 17.4051C195.933 17.4798 196.237 17.513 196.629 17.5047ZM203.402 18.3389L203.231 17.791C203.495 17.8408 203.72 17.8699 203.904 17.8782C204.097 17.8865 204.193 17.8906 204.193 17.8906H208.275L207.404 9.61108C207.096 9.61108 206.795 9.61108 206.503 9.61108C206.211 9.61108 205.94 9.61108 205.689 9.61108C205.28 9.61108 204.938 9.61108 204.663 9.61108C204.387 9.61108 204.22 9.61108 204.162 9.61108C204.162 9.61108 204.075 9.61523 203.9 9.62353C203.725 9.62353 203.535 9.64013 203.33 9.67333L203.148 9.13796C203.42 9.18776 203.649 9.21681 203.833 9.22511C204.018 9.23341 204.11 9.23756 204.11 9.23756H210.958C211.025 9.23756 211.081 9.21266 211.125 9.16286C211.147 9.12966 211.195 9.06741 211.269 8.9761C211.351 8.8848 211.429 8.7935 211.503 8.70219C211.577 8.61089 211.625 8.55694 211.648 8.54034C211.707 8.46563 211.786 8.45733 211.884 8.51544C211.946 8.54864 212.053 8.61919 212.206 8.72709C212.368 8.835 212.526 8.94705 212.68 9.06326C212.833 9.17116 212.933 9.24586 212.979 9.28737C213.052 9.34547 213.084 9.41602 213.076 9.49902C213.067 9.57373 213.025 9.61108 212.95 9.61108H208.531L209.401 17.8906H212.406C212.489 17.8906 212.549 17.8657 212.586 17.8159C212.607 17.7827 212.655 17.7205 212.729 17.6292C212.811 17.5379 212.889 17.4466 212.963 17.3553C213.044 17.2557 213.096 17.1934 213.119 17.1685C213.17 17.1021 213.248 17.0938 213.354 17.1436C213.424 17.1768 213.54 17.2515 213.703 17.3677C213.874 17.4839 214.036 17.6001 214.19 17.7163C214.352 17.8242 214.456 17.8989 214.502 17.9404C214.575 17.9985 214.603 18.0691 214.587 18.1521C214.578 18.2268 214.536 18.2642 214.461 18.2642C214.427 18.2642 214.34 18.2642 214.198 18.2642C214.056 18.2642 213.872 18.2642 213.647 18.2642C213.246 18.2642 212.749 18.26 212.156 18.2517C211.563 18.2517 210.925 18.2517 210.24 18.2517C209.556 18.2517 208.876 18.2517 208.2 18.2517C207.524 18.2517 206.898 18.2517 206.322 18.2517C205.746 18.2517 205.27 18.2517 204.895 18.2517C204.519 18.2517 204.298 18.2559 204.233 18.2642C204.233 18.2642 204.145 18.2642 203.97 18.2642C203.795 18.2725 203.606 18.2974 203.402 18.3389ZM220.618 12.649C220.46 12.649 220.372 12.566 220.354 12.4C220.346 12.3253 220.336 12.151 220.324 11.8771C220.311 11.5949 220.288 11.2545 220.255 10.8561C220.229 10.4577 220.195 10.051 220.151 9.63598C220.107 9.21266 220.062 8.9097 220.018 8.72709C219.973 8.53619 219.925 8.39508 219.874 8.30378C219.851 8.24568 219.855 8.20417 219.886 8.17927C219.923 8.13777 219.968 8.12947 220.021 8.15437C220.099 8.18757 220.205 8.23738 220.337 8.30378C220.477 8.37018 220.622 8.44073 220.772 8.51544C220.921 8.58184 221.04 8.63994 221.128 8.68974H223.958C224.025 8.68974 224.08 8.66484 224.125 8.61504C224.161 8.55694 224.208 8.49054 224.267 8.41583C224.333 8.33283 224.381 8.27058 224.41 8.22908C224.477 8.14607 224.563 8.13777 224.67 8.20417C224.742 8.24568 224.836 8.30793 224.953 8.39093C225.069 8.46563 225.186 8.54034 225.302 8.61504C225.427 8.68974 225.517 8.752 225.572 8.8018C225.636 8.8516 225.666 8.90555 225.664 8.96365C225.669 9.01346 225.637 9.05911 225.566 9.10061C225.527 9.12551 225.479 9.15041 225.423 9.17531C225.376 9.20021 225.333 9.22511 225.294 9.25001C225.255 9.27491 225.228 9.30397 225.215 9.33717C225.202 9.37037 225.2 9.43262 225.21 9.52392C225.232 9.73973 225.263 9.98874 225.301 10.271C225.338 10.5449 225.375 10.8146 225.411 11.0802C225.455 11.3375 225.491 11.5617 225.519 11.7526C225.547 11.9352 225.562 12.0389 225.564 12.0638C225.574 12.1551 225.499 12.2381 225.34 12.3128C225.181 12.3875 225.006 12.4249 224.814 12.4249C224.638 12.4249 224.543 12.3543 224.528 12.2132L224.488 11.8273H221.321L221.369 12.2879C221.378 12.3709 221.303 12.4539 221.145 12.5369C220.986 12.6116 220.81 12.649 220.618 12.649ZM218.064 19.0734C217.88 19.0734 217.78 18.9987 217.765 18.8493C217.76 18.8078 217.748 18.6501 217.727 18.3762C217.716 18.1106 217.692 17.7661 217.656 17.3428C217.628 16.9112 217.591 16.4422 217.546 15.9359C217.509 15.4296 217.465 14.9233 217.411 14.417L217.368 14.0061C217.125 14.7116 216.842 15.3507 216.518 15.9235C216.203 16.4962 215.907 16.9735 215.63 17.3553C215.506 17.3719 215.43 17.3221 215.401 17.2059C215.599 16.7825 215.802 16.2928 216.01 15.7367C216.218 15.1723 216.408 14.5622 216.582 13.9065C216.762 13.2425 216.894 12.5494 216.976 11.8273C216.876 11.8273 216.78 11.8273 216.689 11.8273C216.605 11.8273 216.522 11.8273 216.438 11.8273C216.305 11.8273 216.188 11.8273 216.088 11.8273C215.996 11.8273 215.929 11.8273 215.887 11.8273C215.887 11.8273 215.808 11.8314 215.651 11.8397C215.492 11.8397 215.314 11.8563 215.118 11.8895L214.949 11.3541C215.204 11.4039 215.416 11.433 215.584 11.4413C215.752 11.4496 215.836 11.4537 215.836 11.4537H217.1L216.902 9.57373C216.539 9.68993 216.178 9.79368 215.821 9.88499C215.472 9.97629 215.154 10.0551 214.869 10.1215C214.762 10.0551 214.733 9.97214 214.78 9.87254C215.303 9.68163 215.79 9.47412 216.242 9.25001C216.694 9.01761 217.078 8.7852 217.396 8.55279C217.721 8.31208 217.94 8.08797 218.051 7.88046C218.072 7.83896 218.095 7.81821 218.12 7.81821C218.144 7.80991 218.183 7.81821 218.235 7.84311C218.315 7.88461 218.426 7.95517 218.57 8.05477C218.723 8.15437 218.875 8.25398 219.028 8.35358C219.18 8.45318 219.297 8.53619 219.379 8.60259C219.443 8.65239 219.458 8.71464 219.424 8.78935C219.397 8.85575 219.342 8.88065 219.256 8.86405C219.17 8.83915 219.09 8.8267 219.015 8.8267C218.947 8.8184 218.861 8.835 218.757 8.8765C218.606 8.9512 218.439 9.02591 218.255 9.10061C218.071 9.17531 217.886 9.24586 217.701 9.31227L217.926 11.4537H218.164C218.231 11.4537 218.279 11.433 218.308 11.3915C218.343 11.3334 218.401 11.2504 218.482 11.1425C218.57 11.0263 218.632 10.9433 218.669 10.8935C218.727 10.8188 218.806 10.8146 218.905 10.881C219.003 10.9391 219.143 11.0387 219.325 11.1798C219.506 11.3209 219.639 11.4288 219.722 11.5035C219.795 11.57 219.828 11.6405 219.819 11.7152C219.81 11.7899 219.768 11.8273 219.693 11.8273H217.965L218.092 13.035C218.332 13.0931 218.575 13.1802 218.821 13.2964C219.074 13.4043 219.301 13.5371 219.501 13.6948C219.709 13.8442 219.86 14.0102 219.954 14.1928C220.069 14.4087 220.102 14.6079 220.055 14.7905C220.006 14.9648 219.909 15.0727 219.763 15.1142C219.674 15.1391 219.586 15.1391 219.5 15.1142C219.413 15.081 219.337 14.9897 219.271 14.8403C218.962 14.2011 218.581 13.7156 218.129 13.3836L218.239 14.4294C218.29 14.9108 218.345 15.3964 218.405 15.8861C218.464 16.3675 218.515 16.8199 218.56 17.2432C218.612 17.6582 218.656 17.9985 218.692 18.2642C218.729 18.5381 218.75 18.6999 218.756 18.7497C218.764 18.8327 218.693 18.9074 218.541 18.9738C218.39 19.0402 218.23 19.0734 218.064 19.0734ZM219.849 18.5505L219.68 18.0151C219.944 18.0649 220.168 18.094 220.353 18.1023C220.545 18.1106 220.642 18.1147 220.642 18.1147H222.97L222.751 16.0231C222.609 16.0231 222.471 16.0231 222.337 16.0231C222.204 16.0231 222.083 16.0231 221.974 16.0231C221.791 16.0231 221.636 16.0231 221.511 16.0231C221.386 16.0231 221.298 16.0231 221.248 16.0231C221.248 16.0231 221.161 16.0272 220.987 16.0355C220.811 16.0355 220.621 16.0521 220.416 16.0853L220.233 15.5375C220.506 15.5873 220.734 15.6164 220.918 15.6247C221.111 15.633 221.208 15.6371 221.208 15.6371H222.71L222.505 13.6824C222.338 13.6824 222.175 13.6824 222.016 13.6824C221.866 13.6824 221.724 13.6824 221.591 13.6824C221.374 13.6824 221.186 13.6824 221.027 13.6824C220.869 13.6824 220.76 13.6824 220.702 13.6824C220.702 13.6824 220.615 13.6865 220.44 13.6948C220.265 13.6948 220.075 13.7114 219.87 13.7446L219.701 13.2093C219.965 13.2591 220.189 13.2881 220.373 13.2964C220.566 13.3047 220.663 13.3089 220.663 13.3089H224.831C224.906 13.3089 224.958 13.284 224.986 13.2342C225.008 13.201 225.048 13.147 225.107 13.0723C225.166 12.9976 225.221 12.9229 225.271 12.8482C225.329 12.7652 225.369 12.7112 225.392 12.6863C225.45 12.6033 225.528 12.595 225.627 12.6614C225.69 12.7029 225.781 12.7735 225.9 12.8731C226.018 12.9644 226.132 13.0557 226.242 13.147C226.36 13.2383 226.442 13.3089 226.489 13.3587C226.564 13.4334 226.592 13.5081 226.575 13.5828C226.566 13.6492 226.523 13.6824 226.448 13.6824H223.481L223.686 15.6371H224.963C225.039 15.6371 225.095 15.6164 225.132 15.5749C225.169 15.525 225.227 15.442 225.306 15.3258C225.386 15.2096 225.44 15.1308 225.469 15.0893C225.519 15.0063 225.598 15.0021 225.706 15.0768C225.804 15.1349 225.935 15.2345 226.1 15.3756C226.264 15.5084 226.393 15.6164 226.485 15.6994C226.559 15.7658 226.591 15.8363 226.582 15.911C226.573 15.9857 226.531 16.0231 226.456 16.0231H223.727L223.947 18.1147H225.474C225.558 18.1147 225.613 18.0898 225.642 18.04C225.671 17.9985 225.71 17.9404 225.761 17.8657C225.819 17.7827 225.878 17.7039 225.936 17.6292C225.994 17.5462 226.034 17.4881 226.056 17.4549C226.106 17.3719 226.18 17.3636 226.279 17.43C226.35 17.4715 226.449 17.542 226.576 17.6416C226.712 17.7412 226.843 17.8408 226.971 17.9404C227.098 18.04 227.185 18.1147 227.232 18.1645C227.307 18.2393 227.335 18.3098 227.317 18.3762C227.308 18.4509 227.262 18.4883 227.178 18.4883C227.128 18.4883 227.028 18.4883 226.878 18.4883C226.736 18.4883 226.557 18.4883 226.34 18.4883C226.006 18.4883 225.609 18.4841 225.149 18.4758C224.698 18.4758 224.231 18.4758 223.747 18.4758C223.263 18.4758 222.804 18.4758 222.37 18.4758C221.936 18.4758 221.564 18.4758 221.256 18.4758C220.955 18.4758 220.764 18.48 220.681 18.4883C220.681 18.4883 220.593 18.4883 220.418 18.4883C220.244 18.4966 220.054 18.5173 219.849 18.5505ZM221.281 11.4537H224.449L224.197 9.06326H221.03L221.281 11.4537ZM231.223 17.7786C231.138 17.845 231.02 17.874 230.869 17.8657C230.726 17.8574 230.591 17.8076 230.465 17.7163C230.156 17.4756 229.886 17.127 229.654 16.6705C229.422 16.214 229.265 15.5915 229.182 14.8029C229.126 14.2634 229.108 13.7778 229.129 13.3462C229.151 12.9146 229.184 12.5203 229.23 12.1634C229.284 11.7982 229.327 11.4537 229.36 11.13C229.391 10.798 229.39 10.4702 229.356 10.1464C229.339 9.98044 229.292 9.81443 229.216 9.64843C229.14 9.47412 229.063 9.33717 228.985 9.23756C228.971 9.10476 229.024 9.04666 229.142 9.06326C229.417 9.21266 229.681 9.42432 229.935 9.69823C230.189 9.97214 230.33 10.2751 230.356 10.6071C230.382 10.8561 230.363 11.1093 230.298 11.3666C230.234 11.6239 230.155 11.9103 230.063 12.2257C229.979 12.5328 229.912 12.8897 229.863 13.2964C229.822 13.7031 229.83 14.1804 229.888 14.7282C229.942 15.2428 230.05 15.633 230.211 15.8986C230.262 15.9816 230.307 16.0189 230.348 16.0106C230.398 16.0023 230.431 15.9608 230.448 15.8861C230.498 15.6454 230.56 15.3673 230.636 15.0519C230.718 14.7282 230.799 14.4211 230.877 14.1306C230.962 13.8318 231.026 13.6035 231.068 13.4458C231.18 13.4043 231.263 13.4375 231.316 13.5454C231.29 13.6948 231.251 13.9189 231.199 14.2177C231.154 14.5083 231.114 14.8361 231.077 15.2013C231.04 15.5666 231.02 15.9318 231.017 16.297C231.025 16.4547 231.047 16.5833 231.082 16.6829C231.125 16.7742 231.202 16.9071 231.312 17.0814C231.392 17.2059 231.418 17.3387 231.392 17.4798C231.372 17.6126 231.316 17.7122 231.223 17.7786ZM235.802 17.2806C235.135 17.2806 234.596 17.1976 234.186 17.0316C233.776 16.8572 233.462 16.6165 233.247 16.3094C233.038 15.994 232.89 15.6205 232.803 15.1889C232.876 15.0893 232.958 15.0727 233.048 15.1391C233.265 15.6122 233.569 15.9235 233.96 16.0729C234.351 16.214 234.905 16.2845 235.623 16.2845C235.998 16.2845 236.351 16.2638 236.68 16.2223C237.01 16.1808 237.317 16.1268 237.602 16.0604C237.7 16.0355 237.778 16.0314 237.839 16.048C237.907 16.0646 237.977 16.0936 238.048 16.1351C238.233 16.2264 238.366 16.3385 238.446 16.4713C238.527 16.6041 238.544 16.7286 238.498 16.8448C238.452 16.961 238.335 17.0399 238.148 17.0814C237.479 17.2308 236.697 17.2972 235.802 17.2806ZM234.77 11.1549C234.23 11.1715 233.784 11.0968 233.432 10.9308C233.081 10.7648 232.78 10.5158 232.528 10.1838C232.53 10.1257 232.546 10.08 232.576 10.0468C232.614 10.0136 232.659 10.0053 232.711 10.0219C232.875 10.1547 233.11 10.2419 233.414 10.2834C233.727 10.3166 234.061 10.3208 234.417 10.2959C234.773 10.2627 235.11 10.2128 235.428 10.1464C235.747 10.08 235.998 10.0136 236.183 9.94724C236.296 9.90574 236.42 9.89744 236.556 9.92234C236.692 9.94724 236.835 10.0302 236.983 10.1713C237.196 10.3706 237.28 10.5324 237.234 10.6569C237.189 10.7814 237.032 10.8769 236.764 10.9433C236.568 10.9848 236.288 11.0263 235.926 11.0678C235.563 11.1093 235.178 11.1383 234.77 11.1549ZM244.137 18.7995C243.981 18.7414 243.925 18.646 243.969 18.5132C244.311 18.3472 244.641 18.1521 244.959 17.928C245.286 17.7039 245.57 17.43 245.812 17.1063C246.053 16.7825 246.213 16.3924 246.29 15.9359C246.241 15.9525 246.205 15.9608 246.18 15.9608C245.941 15.994 245.722 15.9774 245.523 15.911C245.324 15.8363 245.181 15.7077 245.095 15.525C245.019 15.359 244.934 15.2262 244.84 15.1266C244.754 15.0187 244.667 14.9067 244.579 14.7905C244.5 14.6743 244.431 14.529 244.371 14.3547C244.214 13.8899 244.206 13.5039 244.349 13.1968C244.5 12.8814 244.762 12.678 245.136 12.5867C245.414 12.5286 245.706 12.5701 246.013 12.7112C245.977 12.4456 245.943 12.1966 245.91 11.9642C245.876 11.7235 245.852 11.5284 245.836 11.379L245.833 11.3541C245.339 11.4122 244.874 11.4828 244.441 11.5658C244.007 11.6488 243.6 11.7443 243.219 11.8522C242.983 11.9103 242.766 11.985 242.567 12.0763C242.367 12.1676 242.172 12.2132 241.98 12.2132C241.73 12.2132 241.505 12.1385 241.305 11.9891C241.114 11.8397 240.953 11.653 240.821 11.4288C240.697 11.2047 240.611 10.9848 240.564 10.769C240.618 10.6528 240.699 10.6237 240.805 10.6818C240.888 10.8395 241.014 10.964 241.182 11.0553C241.359 11.1466 241.588 11.1881 241.871 11.1798C242.414 11.1798 243.027 11.1342 243.71 11.0429C244.393 10.9516 245.081 10.8644 245.773 10.7814C245.721 10.3664 245.682 10.0385 245.657 9.79783C245.639 9.54883 245.625 9.33717 245.615 9.16286C245.614 8.91385 245.552 8.75615 245.428 8.68974C245.384 8.66484 245.32 8.65239 245.236 8.65239C245.16 8.64409 245.098 8.64409 245.048 8.65239C244.948 8.56939 244.93 8.48224 244.996 8.39093C245.14 8.33283 245.317 8.30793 245.526 8.31623C245.743 8.31623 245.931 8.34943 246.088 8.41583C246.287 8.48224 246.444 8.59014 246.56 8.73954C246.684 8.88895 246.695 9.03421 246.593 9.17531C246.447 9.37452 246.413 9.88084 246.49 10.6943C246.853 10.6528 247.201 10.6279 247.534 10.6196C247.592 10.6196 247.62 10.603 247.616 10.5698C247.62 10.5283 247.591 10.4909 247.529 10.4577C247.404 10.383 247.249 10.2917 247.062 10.1838C246.875 10.0676 246.727 9.96799 246.618 9.88499C246.589 9.76878 246.632 9.70238 246.747 9.68578C246.872 9.76048 247.074 9.85594 247.353 9.97214C247.632 10.0883 247.909 10.1796 248.183 10.2461C248.38 10.2959 248.555 10.3291 248.707 10.3457C248.858 10.354 249.074 10.3498 249.356 10.3332C249.588 10.3166 249.795 10.3374 249.976 10.3955C250.165 10.4453 250.36 10.5532 250.561 10.7192C250.708 10.8437 250.788 10.9682 250.801 11.0927C250.821 11.2089 250.785 11.3002 250.692 11.3666C250.607 11.433 250.484 11.4537 250.323 11.4288C249.184 11.2379 247.924 11.1923 246.54 11.2919L246.544 11.3292C246.593 11.7941 246.641 12.1717 246.688 12.4622C246.735 12.7444 246.78 12.981 246.825 13.1719C246.87 13.3545 246.913 13.5288 246.956 13.6948C247.131 14.0185 247.24 14.3796 247.282 14.778C247.349 15.4088 247.301 15.9525 247.141 16.409C246.987 16.8572 246.756 17.2349 246.446 17.542C246.136 17.8491 245.779 18.1023 245.374 18.3015C244.97 18.509 244.558 18.675 244.137 18.7995ZM245.869 15.027C246.065 14.9855 246.177 14.9025 246.206 14.778C246.243 14.6535 246.251 14.5 246.232 14.3174L246.228 14.28C246.136 13.8816 246.011 13.5994 245.851 13.4334C245.691 13.2591 245.521 13.1885 245.341 13.2217C245.087 13.2715 244.938 13.396 244.892 13.5952C244.854 13.7861 244.883 14.0268 244.98 14.3174C245.076 14.5913 245.201 14.7863 245.355 14.9025C245.517 15.0187 245.689 15.0602 245.869 15.027ZM259.291 18.2642C258.566 18.2725 258.01 18.1396 257.622 17.8657C257.233 17.5835 257.044 17.2142 257.055 16.7576C257.065 16.4588 257.186 16.2181 257.417 16.0355C257.657 15.8529 257.971 15.7824 258.359 15.8239C258.805 15.8571 259.175 16.0065 259.47 16.2721C259.773 16.5294 259.998 16.8863 260.146 17.3428C260.54 17.2017 260.857 16.9652 261.098 16.6331C261.338 16.2928 261.425 15.8571 261.361 15.3258C261.293 14.7614 261.07 14.3008 260.69 13.9438C260.31 13.5869 259.812 13.4126 259.195 13.4209C258.754 13.4292 258.356 13.533 258.001 13.7322C257.647 13.9314 257.328 14.1928 257.045 14.5166C256.762 14.8403 256.511 15.193 256.292 15.5749C256.073 15.9484 255.882 16.3177 255.72 16.6829C255.632 16.8738 255.501 16.9776 255.327 16.9942C255.153 17.0025 255.011 16.9278 254.903 16.7701C254.782 16.5709 254.727 16.3675 254.739 16.16C254.759 15.9525 254.836 15.7782 254.972 15.6371C255.159 15.4379 255.371 15.1847 255.605 14.8776C255.848 14.5622 256.099 14.2177 256.361 13.8442C256.629 13.4624 256.889 13.0765 257.14 12.6863C257.399 12.2879 257.639 11.9103 257.86 11.5534C258.08 11.1881 258.272 10.8686 258.435 10.5947C258.598 10.3208 258.714 10.1132 258.783 9.97214C258.866 9.80613 258.886 9.68578 258.845 9.61108C258.804 9.53637 258.714 9.51977 258.577 9.56128C258.138 9.66918 257.696 9.91404 257.252 10.2959C257.121 10.4038 257.007 10.5075 256.909 10.6071C256.819 10.6984 256.678 10.7482 256.487 10.7565C256.32 10.7565 256.158 10.686 256.001 10.5449C255.853 10.4038 255.719 10.2419 255.6 10.0593C255.488 9.86839 255.405 9.71483 255.351 9.59863C255.38 9.47412 255.45 9.42847 255.562 9.46167C255.692 9.58618 255.814 9.67333 255.927 9.72313C256.049 9.76463 256.201 9.78123 256.383 9.77293C256.524 9.76463 256.714 9.70653 256.953 9.59863C257.201 9.49072 257.476 9.36622 257.778 9.22511C258.089 9.08401 258.406 8.96365 258.729 8.86405C258.964 8.79765 259.149 8.7686 259.283 8.7769C259.417 8.7769 259.555 8.8184 259.697 8.9014C260.061 9.10891 260.262 9.31227 260.299 9.51147C260.337 9.71068 260.226 9.88499 259.966 10.0344C259.848 10.1008 259.692 10.2461 259.499 10.4702C259.314 10.6943 259.108 10.9599 258.881 11.267C258.663 11.5741 258.441 11.8854 258.216 12.2008C257.999 12.5162 257.8 12.8067 257.619 13.0723C257.447 13.3379 257.313 13.5371 257.219 13.6699C257.463 13.4541 257.757 13.2715 258.1 13.1221C258.443 12.9727 258.794 12.8939 259.152 12.8856C259.768 12.8689 260.312 12.9686 260.786 13.1844C261.258 13.3919 261.639 13.6824 261.929 14.0559C262.217 14.4211 262.391 14.8403 262.449 15.3134C262.531 15.9359 262.445 16.4671 262.191 16.9071C261.945 17.347 261.571 17.6831 261.07 17.9155C260.568 18.1396 259.975 18.2559 259.291 18.2642ZM259.224 17.5047H259.287C259.228 17.264 259.131 17.0565 258.996 16.8821C258.86 16.6995 258.668 16.5833 258.421 16.5335C258.038 16.4671 257.827 16.5626 257.787 16.8199C257.78 16.9112 257.812 17.015 257.883 17.1312C257.961 17.2391 258.104 17.3304 258.312 17.4051C258.529 17.4798 258.833 17.513 259.224 17.5047ZM267.961 18.924C267.619 18.924 267.297 18.841 266.996 18.675C266.695 18.509 266.446 18.2849 266.249 18.0027C266.052 17.7122 265.935 17.3968 265.9 17.0565C265.864 16.7161 265.915 16.409 266.053 16.1351C266.19 15.8529 266.392 15.6288 266.659 15.4628C266.925 15.2968 267.229 15.2138 267.571 15.2138C267.922 15.2138 268.244 15.2968 268.536 15.4628C268.838 15.6288 269.087 15.8529 269.283 16.1351C269.479 16.409 269.595 16.7161 269.63 17.0565C269.666 17.3968 269.616 17.7122 269.479 18.0027C269.342 18.2849 269.14 18.509 268.874 18.675C268.616 18.841 268.312 18.924 267.961 18.924ZM267.906 18.4011C268.274 18.4011 268.568 18.2683 268.791 18.0027C269.013 17.7371 269.105 17.4217 269.067 17.0565C269.029 16.6912 268.871 16.38 268.593 16.1227C268.316 15.8654 267.994 15.7367 267.626 15.7367C267.267 15.7367 266.972 15.8654 266.74 16.1227C266.517 16.38 266.425 16.6912 266.463 17.0565C266.501 17.4217 266.66 17.7371 266.938 18.0027C267.225 18.2683 267.547 18.4011 267.906 18.4011Z" fill="#161616"/>
</svg>
