<svg width="273" height="27" viewBox="0 0 273 27" fill="none" xmlns="http://www.w3.org/2000/svg">
<path d="M0 0H267L273 27H6L0 0Z" fill="white"/>
<path d="M23.3253 18.9116C23.2622 18.6294 23.1761 18.4053 23.0668 18.2393C22.9668 18.0815 22.8243 17.957 22.6395 17.8657C22.4537 17.7661 22.2058 17.6707 21.8958 17.5794C21.8252 17.4632 21.8419 17.3843 21.946 17.3428C22.0563 17.3594 22.2142 17.3926 22.4197 17.4424C22.6327 17.4839 22.8541 17.5254 23.0838 17.5669C23.321 17.6001 23.5314 17.6167 23.715 17.6167C24.1323 17.6167 24.4182 17.3594 24.5728 16.8448C24.7348 16.3219 24.8006 15.5583 24.7702 14.5539C24.7388 13.5413 24.646 12.3004 24.4916 10.8312H21.2617C21.1006 11.2047 20.9257 11.5658 20.737 11.9144C20.5475 12.2547 20.3465 12.566 20.1341 12.8482C20.0115 12.8731 19.9358 12.8274 19.9069 12.7112C20.093 12.3377 20.2554 11.8978 20.3941 11.3915C20.5412 10.8852 20.6545 10.3747 20.7339 9.86009C20.8125 9.33717 20.8471 8.87235 20.8378 8.46563C20.8339 8.34943 20.8243 8.25813 20.809 8.19172C20.802 8.12532 20.7917 8.06722 20.7781 8.01742C20.7562 7.96762 20.7564 7.93026 20.7789 7.90536C20.7921 7.87216 20.8288 7.86386 20.8889 7.88046C20.9917 7.90536 21.1333 7.94271 21.3138 7.99252C21.4943 8.04232 21.6753 8.09627 21.8566 8.15437C22.0371 8.20417 22.1755 8.24983 22.2716 8.29133C22.3494 8.31623 22.3843 8.37018 22.3763 8.45318C22.3767 8.53619 22.3351 8.57769 22.2517 8.57769C22.1524 8.58599 22.0753 8.60674 22.0203 8.63994C21.9645 8.66484 21.9219 8.73539 21.8924 8.8516C21.8359 9.10891 21.7679 9.37452 21.6882 9.64843C21.6085 9.92234 21.5158 10.1921 21.4102 10.4577H24.2645C24.3229 10.4577 24.3662 10.4328 24.3944 10.383C24.4467 10.3249 24.5019 10.2544 24.5599 10.1713C24.6263 10.0883 24.6852 10.0136 24.7367 9.94724C24.7864 9.86424 24.8652 9.86009 24.9732 9.93479C25.0527 9.97629 25.1557 10.0427 25.2821 10.134C25.4077 10.217 25.5295 10.3042 25.6476 10.3955C25.7732 10.4785 25.8678 10.5449 25.9314 10.5947C25.9775 10.6362 25.9994 10.686 25.9972 10.7441C26.0024 10.7939 25.9739 10.8395 25.9115 10.881C25.8556 10.9059 25.7998 10.9308 25.744 10.9557C25.6966 10.9806 25.6454 11.0097 25.5904 11.0429C25.5113 11.0844 25.4783 11.1674 25.4914 11.2919C25.6205 12.5203 25.7013 13.5662 25.7336 14.4294C25.7659 15.2926 25.7449 16.0065 25.6707 16.5709C25.5965 17.1353 25.4637 17.5794 25.2724 17.9031C25.0811 18.2268 24.8222 18.4634 24.4957 18.6128C24.1784 18.7705 23.7883 18.8701 23.3253 18.9116ZM18.0856 19.0859C17.902 19.0859 17.8019 19.007 17.7853 18.8493C17.781 18.8078 17.7716 18.6792 17.7573 18.4634C17.7438 18.2559 17.7242 17.9902 17.6986 17.6665C17.6812 17.3428 17.658 17.0025 17.6288 16.6456C17.5988 16.2804 17.5667 15.9359 17.5327 15.6122L17.3273 13.6575C17.1072 13.7073 16.8991 13.7529 16.7032 13.7944C16.5147 13.8276 16.355 13.8567 16.2241 13.8816C16.1174 13.8982 16.0495 13.9272 16.0204 13.9687C15.9905 14.0019 15.9887 14.0642 16.015 14.1555C16.0404 14.2385 16.0127 14.2925 15.9319 14.3174C15.851 14.3423 15.7946 14.3215 15.7626 14.2551C15.7222 14.1887 15.6571 14.0849 15.5671 13.9438C15.4847 13.7944 15.398 13.645 15.3072 13.4956C15.2247 13.3462 15.1578 13.2259 15.1065 13.1346C15.0754 13.0765 15.0752 13.035 15.1059 13.0101C15.1301 13.0018 15.176 13.0018 15.2436 13.0101C15.2863 13.0184 15.3414 13.0267 15.409 13.035C15.485 13.0433 15.5735 13.0516 15.6745 13.0599H16.6635C16.8276 12.7942 16.9969 12.4996 17.1715 12.1759C17.3453 11.8439 17.5024 11.5118 17.6427 11.1798C17.7914 10.8478 17.909 10.5366 17.9953 10.2461C18.0891 9.94724 18.1376 9.69408 18.1408 9.48657C18.1347 9.42847 18.147 9.38697 18.1778 9.36207C18.2011 9.34547 18.2432 9.34962 18.3043 9.37452C18.4004 9.41602 18.528 9.47827 18.687 9.56128C18.845 9.63598 19.004 9.71898 19.1638 9.81028C19.3228 9.89329 19.447 9.96384 19.5366 10.0219C19.6069 10.0551 19.6301 10.1174 19.6063 10.2087C19.5816 10.2917 19.5263 10.3208 19.4402 10.2959C19.3458 10.271 19.2619 10.2668 19.1885 10.2834C19.1226 10.2917 19.0652 10.3415 19.0164 10.4328C18.8467 10.7233 18.6494 11.0304 18.4247 11.3541C18.1991 11.6696 17.9685 11.9767 17.7328 12.2755C17.4963 12.566 17.2813 12.8233 17.0879 13.0474C17.4375 13.0391 17.7826 13.0267 18.123 13.0101C18.4718 12.9935 18.7747 12.9769 19.0317 12.9603C18.94 12.8025 18.8408 12.6531 18.7342 12.512C18.6267 12.3626 18.513 12.234 18.3932 12.1261C18.3625 11.9933 18.4098 11.9269 18.535 11.9269C18.7708 12.0265 19.0059 12.1593 19.2404 12.3253C19.4823 12.483 19.6967 12.6573 19.8837 12.8482C20.0698 13.0308 20.198 13.2176 20.2681 13.4085C20.3602 13.6492 20.369 13.8525 20.2947 14.0185C20.2203 14.1845 20.1265 14.2842 20.0131 14.3174C19.9072 14.3423 19.8104 14.334 19.7225 14.2925C19.6338 14.2427 19.5595 14.1306 19.4994 13.9563C19.4538 13.8401 19.4041 13.7239 19.3501 13.6077C19.3045 13.4915 19.2506 13.3753 19.1883 13.2591C19.0499 13.2923 18.8911 13.3296 18.7118 13.3711C18.54 13.4043 18.3604 13.4417 18.1728 13.4832L18.3965 15.6122C18.4445 16.0687 18.4967 16.5252 18.553 16.9818C18.6177 17.4383 18.6716 17.8325 18.7149 18.1645C18.7572 18.4883 18.7819 18.6833 18.7889 18.7497C18.7976 18.8327 18.7262 18.9074 18.5746 18.9738C18.4239 19.0485 18.2609 19.0859 18.0856 19.0859ZM16.6868 11.8522C16.5985 11.8854 16.5109 11.8854 16.4239 11.8522C16.337 11.819 16.2657 11.736 16.21 11.6032C16.0328 11.1881 15.8238 10.8271 15.5828 10.52C15.3503 10.2129 15.0799 9.94309 14.7717 9.71068C14.7419 9.58618 14.7846 9.51562 14.8997 9.49902C15.3436 9.67333 15.7447 9.87669 16.103 10.1091C16.2514 9.69408 16.3714 9.28737 16.463 8.88895C16.5538 8.48224 16.587 8.16267 16.5626 7.93026C16.5573 7.88046 16.5659 7.84311 16.5883 7.81821C16.6283 7.80161 16.6705 7.80576 16.7148 7.83066C16.8101 7.86386 16.941 7.91781 17.1074 7.99252C17.2738 8.06722 17.4407 8.14607 17.608 8.22908C17.7744 8.30378 17.902 8.36603 17.9907 8.41583C18.0609 8.44903 18.0842 8.51129 18.0604 8.60259C18.0349 8.67729 17.9795 8.70634 17.8943 8.68974C17.7915 8.66484 17.7118 8.66069 17.6551 8.67729C17.6068 8.69389 17.554 8.74784 17.4969 8.83915C17.3478 9.08816 17.1633 9.35792 16.9435 9.64843C16.7311 9.93064 16.546 10.1547 16.3882 10.3208C16.6178 10.52 16.7814 10.7275 16.8792 10.9433C16.9871 11.1757 17.0081 11.3749 16.9421 11.5409C16.8844 11.7069 16.7993 11.8107 16.6868 11.8522ZM15.6402 18.4509C15.591 18.4592 15.5438 18.4468 15.4986 18.4136C15.4543 18.3887 15.4257 18.3555 15.413 18.314C15.5129 18.0732 15.6017 17.7661 15.6792 17.3926C15.7643 17.0108 15.8314 16.6165 15.8804 16.2098C15.9295 15.8031 15.9528 15.4296 15.9504 15.0893C15.9518 15.0229 15.9453 14.9606 15.9308 14.9025C15.9163 14.8444 15.9028 14.7946 15.8901 14.7531C15.8883 14.7365 15.887 14.7241 15.8861 14.7158C15.8792 14.6494 15.879 14.6079 15.8856 14.5913C15.8904 14.5581 15.9313 14.5498 16.0081 14.5664C16.1026 14.5913 16.2233 14.6286 16.3704 14.6784C16.525 14.7199 16.6759 14.7656 16.823 14.8154C16.9701 14.8652 17.0872 14.9067 17.1741 14.9399C17.2444 14.9731 17.2713 15.0312 17.255 15.1142C17.2378 15.1889 17.1917 15.2262 17.1166 15.2262C17.0314 15.2096 16.9696 15.2179 16.9314 15.2511C16.9015 15.2843 16.8751 15.3507 16.8522 15.4503C16.7803 15.799 16.6773 16.1683 16.543 16.5584C16.4079 16.9403 16.2622 17.3013 16.106 17.6416C15.949 17.9736 15.7937 18.2434 15.6402 18.4509ZM23.1711 15.3009C23.0679 15.3507 22.9598 15.3549 22.8469 15.3134C22.7416 15.2636 22.6459 15.1474 22.5599 14.9648C22.3709 14.5166 22.1325 14.114 21.8446 13.7571C21.5558 13.3919 21.2143 13.0806 20.82 12.8233C20.7819 12.6988 20.8158 12.6241 20.9217 12.5992C21.2568 12.6905 21.5874 12.8191 21.9137 12.9852C22.2399 13.1512 22.5312 13.3421 22.7876 13.5579C23.044 13.7737 23.2307 14.0019 23.3478 14.2427C23.475 14.5 23.5153 14.7241 23.4686 14.915C23.4302 15.1059 23.3311 15.2345 23.1711 15.3009ZM20.3857 17.5047C20.2789 17.5213 20.1812 17.5047 20.0925 17.4549C20.0113 17.3968 19.9448 17.2806 19.8931 17.1063C19.7651 16.6829 19.6009 16.2721 19.4005 15.8737C19.2075 15.4669 18.9587 15.0851 18.6542 14.7282C18.6569 14.5954 18.7175 14.5373 18.8361 14.5539C19.1031 14.7116 19.3685 14.8942 19.6323 15.1017C19.8962 15.3092 20.1288 15.5375 20.3303 15.7865C20.5317 16.0355 20.669 16.3094 20.7421 16.6082C20.81 16.8572 20.8068 17.0648 20.7324 17.2308C20.6572 17.3885 20.5416 17.4798 20.3857 17.5047ZM33.4952 19.0734C33.3033 19.0734 33.199 18.9946 33.1824 18.8369C33.1781 18.7954 33.1692 18.6709 33.1557 18.4634C33.1422 18.2559 33.1231 17.9944 33.0983 17.679C33.0726 17.3553 33.0443 17.0067 33.0134 16.6331C32.9825 16.2596 32.9478 15.8903 32.9095 15.525L32.861 15.0644C32.4521 15.6205 31.9813 16.1434 31.4485 16.6331C30.9232 17.1146 30.376 17.5462 29.8069 17.928C29.2461 18.3098 28.703 18.6211 28.1774 18.8618C28.1265 18.8535 28.0863 18.8286 28.0569 18.7871C28.0275 18.7456 28.0144 18.6999 28.0175 18.6501C28.4868 18.3513 28.9692 17.9778 29.4646 17.5296C29.9591 17.0731 30.4354 16.5626 30.8935 15.9982C31.36 15.4337 31.7688 14.8361 32.1198 14.2053H30.2419L30.2812 14.5788C30.2899 14.6618 30.2151 14.7448 30.057 14.8278C29.9062 14.9025 29.7224 14.9399 29.5054 14.9399C29.3385 14.9399 29.2463 14.8569 29.2288 14.6909C29.221 14.6162 29.2086 14.4585 29.1916 14.2177C29.1821 13.9687 29.1624 13.6616 29.1323 13.2964C29.1098 12.9229 29.0762 12.5245 29.0317 12.1012C28.9899 11.7028 28.9468 11.4122 28.9026 11.2296C28.8658 11.0387 28.8163 10.8852 28.754 10.769C28.7312 10.7109 28.7348 10.6652 28.7647 10.632C28.8029 10.5988 28.8484 10.5947 28.9011 10.6196C29.0231 10.6694 29.2071 10.7524 29.453 10.8686C29.6981 10.9765 29.8954 11.0678 30.0452 11.1425H32.4488L32.3167 9.88499C31.9327 9.88499 31.5572 9.88499 31.19 9.88499C30.8311 9.88499 30.4926 9.88084 30.1746 9.87254C29.6571 9.87254 29.219 9.87254 28.8601 9.87254C28.5096 9.87254 28.2972 9.87669 28.2229 9.88499C28.2229 9.88499 28.1357 9.88914 27.9613 9.89744C27.7861 9.89744 27.5917 9.91404 27.3782 9.94724L27.2092 9.41187C27.4732 9.46167 27.6974 9.49072 27.8819 9.49902C28.0747 9.50732 28.1712 9.51147 28.1712 9.51147H32.2774L32.1832 8.61504C32.1509 8.30793 32.0953 8.09627 32.0163 7.98007C31.9869 7.93856 31.9825 7.89706 32.0032 7.85556C32.0331 7.82236 32.0735 7.80991 32.1245 7.81821C32.2255 7.82651 32.357 7.84726 32.5191 7.88046C32.6886 7.90536 32.8591 7.93856 33.0303 7.98007C33.2091 8.01327 33.3545 8.04647 33.4665 8.07967C33.5525 8.10457 33.5916 8.15852 33.5836 8.24153C33.584 8.32453 33.5433 8.37433 33.4616 8.39093C33.3707 8.39923 33.2852 8.41998 33.2053 8.45318C33.1336 8.48639 33.1044 8.56524 33.1175 8.68974L33.2038 9.51147H36.1458C36.2209 9.51147 36.2809 9.48657 36.3257 9.43677C36.3556 9.40357 36.4075 9.34132 36.4814 9.25001C36.5552 9.15871 36.6291 9.06741 36.703 8.9761C36.7852 8.8848 36.8333 8.8267 36.8474 8.8018C36.9146 8.72709 36.9972 8.71879 37.0951 8.7769C37.1838 8.8267 37.3002 8.9014 37.4442 9.001C37.5966 9.10061 37.7447 9.20021 37.8887 9.29982C38.0327 9.39942 38.1416 9.48242 38.2154 9.54883C38.2891 9.61523 38.3178 9.68993 38.3015 9.77293C38.2927 9.84764 38.2549 9.88499 38.1881 9.88499H33.2431L33.3752 11.1425H35.4784C35.5452 11.1425 35.5931 11.1217 35.6221 11.0802C35.6736 11.0138 35.7321 10.935 35.7976 10.8437C35.8714 10.7524 35.9345 10.6777 35.9868 10.6196C36.0374 10.5449 36.1204 10.5407 36.2359 10.6071C36.3062 10.6403 36.4083 10.6984 36.5422 10.7814C36.6761 10.8644 36.8146 10.9516 36.9577 11.0429C37.1009 11.1342 37.2089 11.2089 37.2818 11.267C37.3538 11.3168 37.3886 11.3707 37.3864 11.4288C37.3842 11.4869 37.3435 11.5367 37.2644 11.5783C37.2169 11.6032 37.1616 11.6322 37.0983 11.6654C37.0425 11.6903 36.9946 11.7111 36.9546 11.7277C36.8838 11.7692 36.8537 11.8397 36.8642 11.9393C36.8869 12.1551 36.9168 12.4 36.9539 12.6739C36.991 12.9478 37.0319 13.2176 37.0765 13.4832C37.1203 13.7405 37.1559 13.9604 37.1834 14.143C37.211 14.3257 37.2265 14.4336 37.23 14.4668C37.2396 14.5581 37.1657 14.6494 37.0084 14.7407C36.8502 14.8237 36.6584 14.8652 36.4331 14.8652C36.2578 14.8652 36.1623 14.7905 36.1466 14.6411L36.1008 14.2053H33.8849C34.4296 14.861 35.0171 15.4088 35.6476 15.8488C36.2864 16.2887 36.9248 16.6456 37.5629 16.9195C38.2001 17.1851 38.7969 17.3843 39.3533 17.5171C39.0967 17.6167 38.8666 17.7703 38.6631 17.9778C38.4679 18.1853 38.3336 18.3762 38.2601 18.5505C37.8043 18.343 37.2972 18.0442 36.7387 17.6541C36.1886 17.264 35.6473 16.7991 35.1149 16.2596C34.5816 15.7118 34.1182 15.1142 33.7246 14.4668L33.8372 15.5375C33.8738 15.8861 33.9151 16.2389 33.9609 16.5958C34.0068 16.9527 34.0459 17.2847 34.0781 17.5918C34.1179 17.8906 34.1528 18.1438 34.183 18.3513C34.2132 18.5588 34.2308 18.6875 34.2361 18.7373C34.2448 18.8203 34.1692 18.895 34.0093 18.9614C33.8502 19.0361 33.6788 19.0734 33.4952 19.0734ZM30.2013 13.8193H32.7302L32.4881 11.516H29.9592L30.2013 13.8193ZM33.6566 13.8193H36.0603L35.8182 11.516H33.4145L33.6566 13.8193ZM45.4698 11.3915C45.2194 11.3915 44.9978 11.3085 44.8051 11.1425C44.6199 10.9682 44.5142 10.7565 44.488 10.5075C44.4618 10.2585 44.5235 10.051 44.673 9.88499C44.8299 9.71068 45.0336 9.62353 45.284 9.62353C45.5343 9.62353 45.7521 9.71068 45.9374 9.88499C46.1301 10.051 46.2395 10.2585 46.2657 10.5075C46.2919 10.7565 46.2265 10.9682 46.0696 11.1425C45.9201 11.3085 45.7202 11.3915 45.4698 11.3915ZM46.1175 17.5545C45.8672 17.5545 45.6456 17.4715 45.4529 17.3055C45.2676 17.1312 45.1619 16.9195 45.1358 16.6705C45.1096 16.4215 45.1712 16.214 45.3207 16.048C45.4777 15.8737 45.6813 15.7865 45.9317 15.7865C46.1821 15.7865 46.3999 15.8737 46.5851 16.048C46.7779 16.214 46.8873 16.4215 46.9135 16.6705C46.9396 16.9195 46.8743 17.1312 46.7173 17.3055C46.5678 17.4715 46.3679 17.5545 46.1175 17.5545ZM60.8757 19.0859C60.6921 19.0859 60.5916 19.0029 60.5741 18.8369C60.5706 18.8037 60.5595 18.6584 60.5408 18.4011C60.5221 18.1438 60.4973 17.8284 60.4664 17.4549C60.443 17.0731 60.4141 16.6788 60.3797 16.2721C60.3444 15.8571 60.3089 15.4794 60.2731 15.1391H58.9586L59.0096 15.6247C59.0183 15.7077 58.9557 15.7865 58.8217 15.8612C58.696 15.9359 58.5497 15.9733 58.3828 15.9733C58.2826 15.9733 58.2057 15.9567 58.1522 15.9235C58.0986 15.8903 58.0666 15.8239 58.0561 15.7243C58.0509 15.6745 58.0389 15.5209 58.0202 15.2636C58.0007 14.998 57.9741 14.666 57.9406 14.2676C57.9145 13.8608 57.8808 13.4209 57.8394 12.9478C57.7972 12.4664 57.7507 11.985 57.7001 11.5035C57.6504 11.0304 57.5995 10.6652 57.5474 10.4079C57.5028 10.1423 57.454 9.95554 57.4009 9.84764C57.3698 9.78953 57.3691 9.74388 57.399 9.71068C57.4373 9.67748 57.4869 9.67333 57.548 9.69823C57.6617 9.74803 57.829 9.83104 58.0499 9.94724C58.2782 10.0551 58.4631 10.1464 58.6044 10.2211H59.7562L59.5887 8.62749C59.5538 8.29548 59.5023 8.08382 59.4343 7.99252C59.3948 7.93441 59.39 7.88876 59.4199 7.85556C59.4415 7.82236 59.4819 7.80991 59.5412 7.81821C59.6339 7.82651 59.7612 7.84726 59.9233 7.88046C60.0854 7.91366 60.2474 7.94687 60.4095 7.98007C60.579 8.00497 60.711 8.02987 60.8054 8.05477C60.8999 8.07967 60.9435 8.13777 60.9364 8.22908C60.9359 8.30378 60.8907 8.34943 60.8006 8.36603C60.7097 8.37433 60.6284 8.39508 60.5568 8.42828C60.4843 8.45318 60.4541 8.52374 60.4663 8.63994L60.6325 10.2211H61.7342C61.8093 10.2211 61.8614 10.2004 61.8904 10.1589C61.926 10.1008 61.9733 10.0344 62.0322 9.95969C62.0911 9.88499 62.1384 9.81859 62.174 9.76048C62.2321 9.67748 62.3147 9.66918 62.4218 9.73558C62.5281 9.79368 62.6758 9.88914 62.865 10.0219C63.0617 10.1464 63.2099 10.2461 63.3096 10.3208C63.3816 10.3706 63.4169 10.4287 63.4155 10.4951C63.4133 10.5532 63.3726 10.603 63.2935 10.6445C63.261 10.6528 63.221 10.6694 63.1735 10.6943C63.1344 10.7192 63.0953 10.7441 63.0562 10.769C63.0162 10.7856 62.9901 10.8146 62.9777 10.8561C62.9645 10.8893 62.9627 10.9516 62.9723 11.0429C63.0159 11.4579 63.0677 11.9103 63.1275 12.4C63.1873 12.8897 63.2487 13.3545 63.3116 13.7944C63.3745 14.2344 63.4263 14.6079 63.4669 14.915C63.5067 15.2138 63.5287 15.3839 63.5331 15.4254C63.5418 15.5084 63.4754 15.5915 63.3339 15.6745C63.1999 15.7492 63.0327 15.7865 62.8324 15.7865C62.6572 15.7865 62.5621 15.716 62.5473 15.5749L62.5015 15.1391H61.1494C61.1861 15.4877 61.2295 15.8612 61.2797 16.2596C61.3374 16.6497 61.3892 17.0233 61.435 17.3802C61.4809 17.7371 61.5207 18.0359 61.5543 18.2766C61.5879 18.5173 61.6074 18.6626 61.6126 18.7124C61.6213 18.7954 61.5508 18.8784 61.4009 18.9614C61.2511 19.0444 61.076 19.0859 60.8757 19.0859ZM55.1545 19.0859C54.9709 19.0859 54.8704 19.0029 54.8529 18.8369C54.8494 18.8037 54.8388 18.6626 54.8209 18.4136C54.804 18.1728 54.7838 17.8616 54.7603 17.4798C54.7369 17.098 54.7062 16.6871 54.6683 16.2472C54.6305 15.8073 54.5893 15.3756 54.5448 14.9523L54.4715 14.2551C53.9268 14.8693 53.3525 15.4005 52.7486 15.8488C52.6217 15.8322 52.5605 15.7658 52.5649 15.6496C52.8515 15.359 53.1529 15.0104 53.4691 14.6037C53.7852 14.197 54.0904 13.7654 54.3846 13.3089C54.6862 12.844 54.9504 12.3792 55.1769 11.9144C55.4118 11.4496 55.5826 11.0097 55.6892 10.5947H53.1478C53.1478 10.5947 53.069 10.5988 52.9113 10.6071C52.7527 10.6071 52.575 10.6237 52.3782 10.6569L52.2093 10.1215C52.4565 10.1713 52.6682 10.2004 52.8444 10.2087C53.0205 10.217 53.1086 10.2211 53.1086 10.2211H54.0475L53.8761 8.59014C53.8429 8.27473 53.7928 8.07552 53.7256 7.99252C53.6954 7.94271 53.6906 7.89706 53.7112 7.85556C53.7328 7.82236 53.7732 7.80991 53.8325 7.81821C53.9252 7.82651 54.0526 7.84726 54.2146 7.88046C54.385 7.91366 54.5554 7.94687 54.7259 7.98007C54.8963 8.01327 55.0287 8.04232 55.1231 8.06722C55.2092 8.09212 55.2482 8.14607 55.2403 8.22908C55.2499 8.32038 55.2088 8.36603 55.117 8.36603C55.026 8.37433 54.9447 8.39508 54.8731 8.42828C54.8006 8.45318 54.7705 8.52374 54.7827 8.63994L54.9489 10.2211H55.5999C55.6583 10.2211 55.7029 10.2087 55.7337 10.1838C55.771 10.1423 55.8192 10.0842 55.8781 10.0095C55.9453 9.93479 55.9939 9.88084 56.0238 9.84764C56.0845 9.78953 56.1554 9.78953 56.2366 9.84764C56.2994 9.88914 56.3894 9.95139 56.5066 10.0344C56.6322 10.1174 56.7582 10.2045 56.8847 10.2959C57.0102 10.3789 57.1053 10.4494 57.1698 10.5075C57.2335 10.5573 57.2563 10.6154 57.2382 10.6818C57.2276 10.7399 57.1856 10.7773 57.1123 10.7939C57.0798 10.8022 57.0435 10.8146 57.0035 10.8312C56.971 10.8395 56.9348 10.852 56.8948 10.8686C56.8381 10.8852 56.7827 10.9142 56.7287 10.9557C56.6821 10.9889 56.6427 11.0512 56.6106 11.1425C56.4676 11.4496 56.3 11.7609 56.1078 12.0763C55.9156 12.3917 55.7068 12.7071 55.4812 13.0225C55.8949 13.147 56.2975 13.3255 56.6892 13.5579C57.08 13.782 57.3471 14.06 57.4905 14.3921C57.5891 14.6162 57.6068 14.8237 57.5434 15.0146C57.4874 15.1972 57.3907 15.3092 57.2532 15.3507C57.1557 15.3756 57.063 15.3673 56.9752 15.3258C56.8948 15.276 56.8171 15.1723 56.7422 15.0146C56.5904 14.6826 56.3816 14.363 56.1156 14.0559C55.8571 13.7405 55.5834 13.479 55.2945 13.2715L55.2721 13.2964L55.4461 14.9523C55.4924 15.3922 55.5424 15.828 55.5961 16.2596C55.6489 16.6829 55.6941 17.0731 55.7316 17.43C55.7775 17.7869 55.8163 18.0774 55.8482 18.3015C55.881 18.5339 55.8996 18.6709 55.9039 18.7124C55.9127 18.7954 55.8379 18.8784 55.6797 18.9614C55.5299 19.0444 55.3548 19.0859 55.1545 19.0859ZM61.1102 14.7656H62.4622L62.2555 12.7984H60.9034L61.1102 14.7656ZM58.9193 14.7656H60.2338L60.0271 12.7984H58.7126L58.9193 14.7656ZM60.8641 12.4249H62.2162L62.0238 10.5947H60.6718L60.8641 12.4249ZM58.6733 12.4249H59.9878L59.7955 10.5947H58.481L58.6733 12.4249ZM65.6441 19.0734C65.5849 19.0651 65.5405 19.0402 65.5111 18.9987C65.4817 18.9572 65.4686 18.9116 65.4717 18.8618C65.9205 18.4468 66.2525 17.9529 66.4677 17.3802C66.6904 16.7991 66.815 16.1185 66.8415 15.3383C66.8755 14.5498 66.8388 13.645 66.7315 12.6241C66.6722 12.0597 66.6103 11.5907 66.5461 11.2172C66.4901 10.8437 66.4292 10.5822 66.3635 10.4328C66.3323 10.3747 66.3321 10.3332 66.3629 10.3083C66.4003 10.2668 66.4453 10.2585 66.498 10.2834C66.5849 10.3166 66.7033 10.3706 66.853 10.4453C67.0102 10.5117 67.1683 10.5864 67.3272 10.6694C67.4853 10.7441 67.6175 10.8105 67.7238 10.8686H73.1946C73.2697 10.8686 73.3218 10.8478 73.3508 10.8063C73.3855 10.7399 73.4278 10.6652 73.4775 10.5822C73.5355 10.4992 73.5856 10.4204 73.6279 10.3457C73.6859 10.2627 73.7727 10.2544 73.8881 10.3208C73.976 10.3623 74.0914 10.4287 74.2346 10.52C74.3768 10.603 74.5195 10.6901 74.6627 10.7814C74.8049 10.8644 74.9121 10.9308 74.9841 10.9806C75.0552 11.0221 75.0901 11.0761 75.0887 11.1425C75.0957 11.2089 75.0592 11.2587 74.9792 11.2919C74.9234 11.3168 74.8718 11.3417 74.8243 11.3666C74.7843 11.3832 74.7364 11.4039 74.6806 11.4288C74.6015 11.4703 74.5703 11.57 74.5869 11.7277C74.6174 12.0182 74.6538 12.3253 74.6962 12.649C74.7461 12.9644 74.7904 13.2674 74.8293 13.5579C74.8765 13.8484 74.9152 14.0974 74.9454 14.3049C74.983 14.5041 75.0049 14.6328 75.011 14.6909C75.0223 14.7988 74.9322 14.8942 74.7406 14.9772C74.5574 15.0602 74.3447 15.1017 74.1027 15.1017C73.9274 15.1017 73.832 15.027 73.8163 14.8776L73.7521 14.2676H67.9308C67.9356 15.5043 67.7319 16.5045 67.3197 17.2681C66.9151 18.0234 66.3565 18.6252 65.6441 19.0734ZM67.9166 13.894H73.7129L73.4355 11.2545H67.6767L67.8586 12.9852C67.8917 13.3006 67.9111 13.6035 67.9166 13.894ZM64.8125 9.37452L64.6423 8.8267C64.9062 8.8765 65.1305 8.90555 65.315 8.91385C65.5078 8.92215 65.6042 8.9263 65.6042 8.9263H73.7917C73.8751 8.9263 73.9355 8.90555 73.9729 8.86405C74.0019 8.82255 74.0496 8.7603 74.116 8.67729C74.1815 8.58599 74.2471 8.49469 74.3126 8.40338C74.3864 8.31208 74.4341 8.24983 74.4557 8.21663C74.5221 8.13362 74.6047 8.12532 74.7035 8.19172C74.7913 8.23323 74.9076 8.30793 75.0525 8.41583C75.1974 8.52374 75.3381 8.63164 75.4746 8.73954C75.6112 8.84745 75.7117 8.93045 75.7762 8.98855C75.8491 9.04666 75.8774 9.11721 75.8611 9.20021C75.8439 9.27492 75.8019 9.31227 75.7351 9.31227C75.7101 9.31227 75.6391 9.31227 75.5223 9.31227C75.4055 9.31227 75.2511 9.31227 75.0591 9.31227C74.7419 9.31227 74.3413 9.31227 73.8573 9.31227C73.3807 9.30397 72.8586 9.29982 72.2911 9.29982C71.7235 9.29982 71.1393 9.29982 70.5384 9.29982C69.9458 9.29982 69.37 9.29982 68.8108 9.29982C68.2516 9.29982 67.7425 9.29982 67.2835 9.29982C66.8328 9.29982 66.4614 9.29982 66.1693 9.29982C65.8771 9.29982 65.7065 9.30397 65.6573 9.31227C65.6573 9.31227 65.5701 9.31642 65.3957 9.32472C65.2204 9.32472 65.026 9.34132 64.8125 9.37452ZM83.5088 19.0734C83.3169 19.0734 83.2126 18.9946 83.196 18.8369C83.1917 18.7954 83.181 18.6543 83.1641 18.4136C83.1471 18.1728 83.1278 17.8699 83.1061 17.5047C83.0835 17.1312 83.055 16.741 83.0206 16.3343C82.9854 15.9193 82.9481 15.525 82.9088 15.1515L82.8369 14.4668C82.4613 14.4668 82.0941 14.4668 81.7352 14.4668C81.3763 14.4668 81.0379 14.4626 80.7198 14.4543C80.194 14.4543 79.7433 14.4543 79.3678 14.4543C79.0006 14.4543 78.759 14.4585 78.643 14.4668C78.643 14.4668 78.5558 14.4709 78.3814 14.4792C78.2061 14.4792 78.0159 14.4958 77.8107 14.529L77.6293 13.9936C77.9016 14.0434 78.13 14.0725 78.3145 14.0808C78.499 14.0891 78.5912 14.0932 78.5912 14.0932H82.7976L82.4796 11.0678H79.7755C79.5559 11.599 79.3041 12.1012 79.0199 12.5743C78.7442 13.0474 78.4527 13.45 78.1454 13.782C78.0962 13.7903 78.0494 13.782 78.005 13.7571C77.9682 13.7239 77.9429 13.6824 77.9294 13.6326C78.1545 13.2342 78.3499 12.7901 78.5154 12.3004C78.6893 11.8107 78.8261 11.3251 78.9257 10.8437C79.0328 10.354 79.1034 9.91404 79.1375 9.52392C79.1716 9.13381 79.1657 8.83915 79.1197 8.63994C79.1119 8.56524 79.1154 8.51959 79.1304 8.50299C79.1611 8.47809 79.2024 8.47393 79.2542 8.49054C79.357 8.51544 79.5079 8.56109 79.7068 8.62749C79.9057 8.69389 80.1005 8.7603 80.2911 8.8267C80.49 8.8931 80.6418 8.94705 80.7463 8.98855C80.8165 9.02176 80.8477 9.07986 80.8397 9.16286C80.8234 9.24586 80.7772 9.28321 80.7013 9.27491C80.5743 9.25831 80.483 9.26246 80.4271 9.28737C80.3713 9.31227 80.3287 9.38282 80.2992 9.49902C80.2533 9.69823 80.195 9.89744 80.1241 10.0966C80.0616 10.2959 79.9949 10.4951 79.924 10.6943H82.4404L82.2297 8.68974C82.2096 8.49884 82.1856 8.34943 82.1575 8.24153C82.1286 8.12532 82.0949 8.04232 82.0562 7.99252C82.0167 7.93441 82.0119 7.88876 82.0418 7.85556C82.0634 7.82236 82.1038 7.80991 82.1631 7.81821C82.2641 7.82651 82.404 7.84726 82.5828 7.88046C82.7615 7.91366 82.9403 7.94687 83.119 7.98007C83.3062 8.01327 83.4511 8.04232 83.5539 8.06722C83.6483 8.09212 83.6919 8.15022 83.6848 8.24153C83.6944 8.33283 83.6492 8.37848 83.549 8.37848C83.4664 8.38678 83.3851 8.40753 83.3052 8.44073C83.2336 8.47393 83.2038 8.54864 83.2161 8.66484L83.4294 10.6943H85.6077C85.6911 10.6943 85.7511 10.6694 85.7876 10.6196C85.8175 10.5864 85.8656 10.5283 85.932 10.4453C86.0068 10.3623 86.0773 10.2793 86.1437 10.1962C86.2176 10.1049 86.2657 10.0468 86.2882 10.0219C86.3462 9.93894 86.4246 9.93064 86.5234 9.99704C86.5853 10.0302 86.6845 10.1008 86.8211 10.2087C86.9567 10.3083 87.0928 10.4121 87.2294 10.52C87.365 10.6196 87.4563 10.6943 87.5033 10.7441C87.5779 10.8188 87.6066 10.8935 87.5894 10.9682C87.5797 11.0346 87.5415 11.0678 87.4747 11.0678H83.4686L83.7866 14.0932H86.8162C86.883 14.0932 86.943 14.0683 86.9962 14.0185C87.0252 13.977 87.0724 13.9106 87.138 13.8193C87.2035 13.728 87.2727 13.6326 87.3457 13.533C87.4187 13.4334 87.4697 13.3628 87.4987 13.3213C87.5643 13.23 87.6506 13.2176 87.7577 13.284C87.8455 13.3255 87.9623 13.4043 88.1081 13.5205C88.2613 13.6284 88.4108 13.7405 88.5565 13.8567C88.7106 13.9729 88.8246 14.0642 88.8983 14.1306C88.9721 14.197 89.0049 14.2717 88.997 14.3547C88.9881 14.4294 88.9462 14.4668 88.871 14.4668H83.8259L83.8978 15.1515C83.9397 15.5499 83.9862 15.9525 84.0373 16.3592C84.0875 16.7576 84.1351 17.1312 84.1801 17.4798C84.2326 17.8201 84.2743 18.0981 84.3053 18.314C84.3372 18.5381 84.3554 18.6709 84.3597 18.7124C84.3693 18.8037 84.2862 18.8867 84.1105 18.9614C83.9431 19.0361 83.7425 19.0734 83.5088 19.0734ZM98.958 18.1272C98.1229 18.2019 97.3694 18.1396 96.6975 17.9404C96.033 17.7329 95.4902 17.3719 95.0688 16.8572C94.6559 16.3426 94.3994 15.6496 94.2995 14.778C94.2222 14.1223 94.247 13.5247 94.3739 12.9852C94.5008 12.4456 94.7011 11.9684 94.9746 11.5534C95.2556 11.13 95.5728 10.7731 95.9262 10.4826C95.3691 10.5822 94.8397 10.7067 94.3379 10.8561C93.8445 11.0055 93.3384 11.1923 92.8194 11.4164C92.6678 11.4828 92.5092 11.5617 92.3435 11.653C92.177 11.736 92.0228 11.7775 91.8809 11.7775C91.6147 11.7858 91.3865 11.7194 91.1964 11.5783C91.0055 11.4288 90.8486 11.2462 90.7257 11.0304C90.6104 10.8063 90.5247 10.5864 90.4686 10.3706C90.5148 10.2544 90.5952 10.2253 90.7098 10.2834C90.8814 10.5656 91.2129 10.7026 91.7045 10.6943C91.9214 10.6943 92.2147 10.6652 92.5841 10.6071C92.9527 10.5407 93.3697 10.4577 93.8349 10.3581C94.3076 10.2502 94.805 10.1381 95.3269 10.0219C95.848 9.89744 96.3695 9.77708 96.8914 9.66088C97.4217 9.54468 97.9245 9.44507 98.3998 9.36207C98.424 9.35377 98.4649 9.34547 98.5224 9.33717C98.6867 9.31227 98.8356 9.29982 98.9692 9.29982C99.1018 9.29152 99.2309 9.32887 99.3565 9.41187C99.5883 9.55298 99.7464 9.70653 99.8306 9.87254C99.9148 10.0385 99.925 10.1755 99.8612 10.2834C99.8049 10.383 99.667 10.4204 99.4474 10.3955C99.4307 10.3955 99.4094 10.3913 99.3835 10.383C99.062 10.3415 98.7163 10.3083 98.3464 10.2834C97.9849 10.2585 97.6274 10.271 97.2737 10.3208C96.9284 10.3706 96.6202 10.4951 96.349 10.6943C95.7451 11.1425 95.3672 11.7152 95.2151 12.4124C95.0622 13.1014 95.0398 13.8816 95.1481 14.7531C95.2538 15.5998 95.6026 16.2181 96.1944 16.6082C96.7863 16.9984 97.5652 17.1436 98.5312 17.044C98.6221 17.0357 98.7014 17.0357 98.7691 17.044C98.8451 17.0523 98.9278 17.0855 99.0174 17.1436C99.3774 17.3926 99.5341 17.6126 99.4874 17.8035C99.4481 17.9861 99.2717 18.094 98.958 18.1272ZM99.3169 13.9189C99.2344 13.9272 99.1533 13.9106 99.0738 13.8691C98.9935 13.8193 98.925 13.7239 98.8685 13.5828C98.7527 13.2757 98.6045 12.9769 98.4237 12.6863C98.2421 12.3875 98.0101 12.1261 97.7279 11.902C97.7134 11.8439 97.717 11.7982 97.7385 11.765C97.7675 11.7235 97.8066 11.6986 97.8558 11.6903C98.1149 11.7733 98.3655 11.8937 98.6074 12.0514C98.8493 12.2091 99.06 12.3875 99.2395 12.5867C99.419 12.7859 99.5368 12.9935 99.5929 13.2093C99.6556 13.4085 99.6521 13.5745 99.5826 13.7073C99.5123 13.8318 99.4237 13.9023 99.3169 13.9189ZM100.7 13.0225C100.619 13.0474 100.536 13.0474 100.45 13.0225C100.364 12.9976 100.28 12.9188 100.199 12.7859C100.027 12.4954 99.8238 12.2298 99.5898 11.9891C99.3642 11.7484 99.0833 11.5367 98.7469 11.3541C98.7013 11.2379 98.731 11.1632 98.836 11.13C99.0824 11.1715 99.3407 11.2462 99.6107 11.3541C99.8808 11.462 100.124 11.5949 100.341 11.7526C100.566 11.9103 100.722 12.0846 100.809 12.2755C100.904 12.4581 100.929 12.6241 100.887 12.7735C100.851 12.9146 100.789 12.9976 100.7 13.0225ZM108.133 18.5879C108.078 18.5464 108.044 18.4924 108.028 18.426C108.022 18.3679 108.038 18.3181 108.075 18.2766C108.379 18.2268 108.721 18.1521 109.103 18.0525C109.485 17.9529 109.863 17.8201 110.238 17.6541C110.62 17.4798 110.965 17.2681 111.273 17.0191C111.588 16.7618 111.828 16.463 111.993 16.1227C112.165 15.7741 112.227 15.3715 112.179 14.915C112.1 14.251 111.86 13.7073 111.456 13.284C111.061 12.8606 110.512 12.5992 109.809 12.4996C109.786 12.9146 109.642 13.3711 109.377 13.8691C109.111 14.3589 108.801 14.8237 108.447 15.2636C108.546 15.413 108.647 15.5416 108.75 15.6496C108.815 15.7077 108.856 15.8197 108.873 15.9857C108.898 16.1434 108.884 16.2887 108.832 16.4215C108.779 16.5543 108.668 16.6165 108.501 16.6082C108.359 16.6082 108.224 16.5543 108.096 16.4464C107.976 16.3385 107.874 16.2057 107.791 16.048L107.774 16.0106C107.321 16.4588 106.845 16.8199 106.348 17.0938C105.86 17.3677 105.397 17.5337 104.961 17.5918C104.195 17.6914 103.798 17.3636 103.768 16.6082C103.74 16.1019 103.857 15.5873 104.119 15.0644C104.39 14.5415 104.764 14.0517 105.242 13.5952C105.728 13.1387 106.278 12.7693 106.891 12.4871L106.846 12.0638C106.828 11.8895 106.81 11.7235 106.794 11.5658C106.777 11.4081 106.766 11.2587 106.759 11.1176C106.389 11.1674 106.062 11.1923 105.778 11.1923C105.436 11.1923 105.154 11.1259 104.931 10.9931C104.708 10.8603 104.531 10.6818 104.399 10.4577C104.267 10.2336 104.171 9.99289 104.11 9.73558C104.174 9.62768 104.26 9.61108 104.368 9.68578C104.475 9.90989 104.628 10.0925 104.826 10.2336C105.025 10.3747 105.324 10.4411 105.723 10.4328C105.873 10.4245 106.03 10.4162 106.196 10.4079C106.362 10.3913 106.531 10.3706 106.703 10.3457C106.691 10.0717 106.683 9.83934 106.68 9.64843C106.676 9.44922 106.671 9.28321 106.665 9.15041C106.666 8.918 106.613 8.7686 106.505 8.70219C106.452 8.66899 106.383 8.65239 106.3 8.65239C106.216 8.64409 106.144 8.63994 106.086 8.63994C105.993 8.54864 105.98 8.46563 106.047 8.39093C106.184 8.34113 106.352 8.31623 106.552 8.31623C106.76 8.30793 106.951 8.33283 107.124 8.39093C107.322 8.44903 107.48 8.56109 107.597 8.72709C107.722 8.8848 107.73 9.03421 107.619 9.17531C107.553 9.25831 107.504 9.39112 107.473 9.57373C107.442 9.75633 107.423 9.97214 107.416 10.2211C107.785 10.1547 108.143 10.0717 108.492 9.97214C108.84 9.87254 109.146 9.76878 109.41 9.66088C109.499 9.62768 109.58 9.60693 109.654 9.59863C109.729 9.59033 109.835 9.60693 109.972 9.64843C110.293 9.75633 110.475 9.90159 110.519 10.0842C110.562 10.2585 110.479 10.3789 110.269 10.4453C110.075 10.5034 109.823 10.5698 109.514 10.6445C109.204 10.7109 108.868 10.7773 108.508 10.8437C108.148 10.9101 107.787 10.9723 107.426 11.0304C107.434 11.1881 107.443 11.3541 107.453 11.5284C107.471 11.6945 107.49 11.8729 107.51 12.0638L107.528 12.2381C107.786 12.1468 108.045 12.0763 108.307 12.0265C108.577 11.9767 108.846 11.9518 109.113 11.9518H109.201C109.14 11.7775 109.001 11.6447 108.783 11.5534C108.759 11.4869 108.757 11.4288 108.777 11.379C108.805 11.3209 108.847 11.2877 108.905 11.2794C109.025 11.3126 109.178 11.379 109.364 11.4786C109.549 11.5783 109.68 11.7484 109.755 11.9891C110.336 12.0389 110.877 12.18 111.377 12.4124C111.886 12.6448 112.308 12.9686 112.644 13.3836C112.988 13.7986 113.196 14.3132 113.269 14.9274C113.364 15.6745 113.201 16.3094 112.781 16.8323C112.367 17.347 111.759 17.7495 110.955 18.04C110.151 18.3306 109.21 18.5132 108.133 18.5879ZM105.173 16.6331C105.492 16.5667 105.852 16.4215 106.254 16.1974C106.664 15.965 107.065 15.6579 107.459 15.276C107.255 14.6867 107.091 13.9521 106.965 13.0723C106.499 13.3296 106.086 13.6409 105.723 14.0061C105.36 14.363 105.078 14.7365 104.877 15.1266C104.675 15.5084 104.583 15.8654 104.602 16.1974C104.633 16.5709 104.823 16.7161 105.173 16.6331ZM108.087 14.5788C108.382 14.2136 108.637 13.8525 108.85 13.4956C109.062 13.1304 109.188 12.7859 109.229 12.4622H109.142C108.883 12.4622 108.623 12.4913 108.362 12.5494C108.108 12.5992 107.858 12.6739 107.609 12.7735C107.666 13.1553 107.735 13.4956 107.817 13.7944C107.907 14.0932 107.997 14.3547 108.087 14.5788ZM121.582 18.2642C120.857 18.2725 120.3 18.1396 119.912 17.8657C119.524 17.5835 119.335 17.2142 119.345 16.7576C119.356 16.4588 119.476 16.2181 119.708 16.0355C119.947 15.8529 120.261 15.7824 120.649 15.8239C121.095 15.8571 121.466 16.0065 121.761 16.2721C122.063 16.5294 122.288 16.8863 122.436 17.3428C122.831 17.2017 123.148 16.9652 123.388 16.6331C123.628 16.2928 123.716 15.8571 123.652 15.3258C123.584 14.7614 123.36 14.3008 122.981 13.9438C122.601 13.5869 122.103 13.4126 121.486 13.4209C121.044 13.4292 120.646 13.533 120.292 13.7322C119.937 13.9314 119.618 14.1928 119.335 14.5166C119.052 14.8403 118.801 15.193 118.583 15.5749C118.363 15.9484 118.172 16.3177 118.01 16.6829C117.922 16.8738 117.791 16.9776 117.618 16.9942C117.443 17.0025 117.302 16.9278 117.193 16.7701C117.072 16.5709 117.018 16.3675 117.029 16.16C117.049 15.9525 117.127 15.7782 117.262 15.6371C117.45 15.4379 117.661 15.1847 117.896 14.8776C118.138 14.5622 118.39 14.2177 118.651 13.8442C118.92 13.4624 119.18 13.0765 119.431 12.6863C119.689 12.2879 119.929 11.9103 120.15 11.5534C120.371 11.1881 120.562 10.8686 120.726 10.5947C120.889 10.3208 121.005 10.1132 121.073 9.97214C121.156 9.80613 121.177 9.68578 121.136 9.61108C121.094 9.53637 121.005 9.51977 120.867 9.56128C120.428 9.66918 119.986 9.91404 119.542 10.2959C119.412 10.4038 119.298 10.5075 119.2 10.6071C119.109 10.6984 118.968 10.7482 118.777 10.7565C118.61 10.7565 118.448 10.686 118.292 10.5449C118.143 10.4038 118.009 10.2419 117.89 10.0593C117.778 9.86839 117.695 9.71483 117.641 9.59863C117.67 9.47412 117.74 9.42847 117.852 9.46167C117.982 9.58618 118.104 9.67333 118.218 9.72313C118.339 9.76463 118.491 9.78123 118.674 9.77293C118.815 9.76463 119.005 9.70653 119.244 9.59863C119.491 9.49072 119.766 9.36622 120.068 9.22511C120.379 9.08401 120.696 8.96365 121.019 8.86405C121.255 8.79765 121.439 8.7686 121.574 8.7769C121.707 8.7769 121.845 8.8184 121.987 8.9014C122.351 9.10891 122.552 9.31227 122.59 9.51147C122.627 9.71068 122.516 9.88499 122.257 10.0344C122.138 10.1008 121.983 10.2461 121.789 10.4702C121.604 10.6943 121.398 10.9599 121.172 11.267C120.954 11.5741 120.732 11.8854 120.506 12.2008C120.289 12.5162 120.09 12.8067 119.909 13.0723C119.737 13.3379 119.604 13.5371 119.509 13.6699C119.753 13.4541 120.047 13.2715 120.39 13.1221C120.734 12.9727 121.084 12.8939 121.442 12.8856C122.058 12.8689 122.603 12.9686 123.076 13.1844C123.548 13.3919 123.93 13.6824 124.219 14.0559C124.508 14.4211 124.681 14.8403 124.739 15.3134C124.822 15.9359 124.736 16.4671 124.481 16.9071C124.235 17.347 123.862 17.6831 123.36 17.9155C122.858 18.1396 122.265 18.2559 121.582 18.2642ZM121.515 17.5047H121.577C121.518 17.264 121.422 17.0565 121.286 16.8821C121.15 16.6995 120.959 16.5833 120.711 16.5335C120.329 16.4671 120.118 16.5626 120.078 16.8199C120.071 16.9112 120.103 17.015 120.173 17.1312C120.251 17.2391 120.395 17.3304 120.603 17.4051C120.819 17.4798 121.123 17.513 121.515 17.5047ZM132.538 18.9987C132.467 19.0402 132.408 19.0278 132.359 18.9614C132.3 18.8784 132.211 18.7497 132.093 18.5754C131.975 18.4094 131.857 18.2393 131.739 18.0649C131.629 17.8906 131.544 17.7578 131.484 17.6665C131.453 17.6084 131.444 17.5669 131.459 17.542C131.473 17.5171 131.517 17.5047 131.592 17.5047C131.609 17.5047 131.638 17.5047 131.68 17.5047C131.722 17.5047 131.768 17.5088 131.819 17.5171C131.869 17.5171 131.927 17.513 131.993 17.5047C132.158 17.4881 132.344 17.4673 132.55 17.4424C132.763 17.4092 132.985 17.376 133.215 17.3428L132.439 9.95969C132.381 9.40357 132.331 9.0093 132.29 8.7769C132.248 8.53619 132.195 8.35358 132.132 8.22908C132.103 8.18757 132.107 8.14607 132.144 8.10457C132.174 8.07137 132.215 8.06722 132.268 8.09212C132.346 8.11702 132.451 8.16267 132.583 8.22908C132.714 8.28718 132.851 8.35358 132.992 8.42828C133.141 8.49469 133.26 8.55279 133.348 8.60259H135.952C136.011 8.60259 136.062 8.57769 136.107 8.52789C136.144 8.47809 136.188 8.41998 136.239 8.35358C136.29 8.27888 136.337 8.21247 136.381 8.15437C136.44 8.07967 136.522 8.07137 136.629 8.12947C136.743 8.18757 136.899 8.27888 137.096 8.40338C137.292 8.52789 137.44 8.62749 137.54 8.70219C137.603 8.74369 137.634 8.79765 137.632 8.86405C137.63 8.92215 137.589 8.97195 137.51 9.01345C137.47 9.03006 137.431 9.05081 137.392 9.07571C137.36 9.09231 137.32 9.10891 137.272 9.12551C137.193 9.16701 137.161 9.26246 137.177 9.41187C137.221 9.83519 137.271 10.2668 137.325 10.7067C137.379 11.1383 137.43 11.5492 137.48 11.9393C137.528 12.3211 137.57 12.6407 137.606 12.898C137.641 13.1553 137.662 13.3172 137.669 13.3836C137.678 13.4666 137.602 13.5413 137.442 13.6077C137.282 13.6741 137.115 13.7073 136.939 13.7073C136.764 13.7073 136.669 13.6326 136.653 13.4832L136.633 13.2964H135.181C135.376 14.0351 135.647 14.6743 135.996 15.2138C136.357 14.998 136.699 14.7531 137.021 14.4792C137.341 14.197 137.564 13.9272 137.687 13.6699C137.714 13.6118 137.74 13.5828 137.765 13.5828C137.805 13.5662 137.844 13.5786 137.882 13.6201C137.962 13.6699 138.071 13.7529 138.208 13.8691C138.353 13.977 138.495 14.0932 138.633 14.2177C138.779 14.334 138.889 14.4294 138.964 14.5041C139.027 14.5539 139.038 14.612 138.995 14.6784C138.944 14.7531 138.883 14.7697 138.812 14.7282C138.723 14.6784 138.646 14.6535 138.579 14.6535C138.512 14.6535 138.427 14.6743 138.322 14.7158C137.979 14.8652 137.602 15.0104 137.191 15.1515C136.788 15.2843 136.445 15.3922 136.161 15.4752C136.59 16.0646 137.101 16.5543 137.693 16.9444C138.284 17.3262 138.92 17.625 139.602 17.8408C139.369 17.9238 139.15 18.0608 138.944 18.2517C138.739 18.4426 138.591 18.6211 138.5 18.7871C138.02 18.5049 137.533 18.123 137.04 17.6416C136.547 17.1602 136.1 16.5626 135.7 15.8488C135.307 15.1266 135.005 14.2759 134.793 13.2964H133.716L134.125 17.181C134.534 17.1063 134.922 17.0274 135.289 16.9444C135.655 16.8531 135.944 16.7784 136.154 16.7203C136.206 16.7369 136.243 16.7701 136.265 16.8199C136.287 16.8697 136.288 16.9195 136.268 16.9693C136.07 17.0689 135.815 17.1851 135.504 17.3179C135.201 17.4507 134.877 17.5918 134.534 17.7412C134.19 17.8823 133.858 18.0193 133.538 18.1521C133.226 18.2766 132.961 18.3804 132.745 18.4634C132.656 18.4966 132.598 18.5339 132.569 18.5754C132.548 18.6169 132.561 18.7041 132.609 18.8369C132.625 18.9116 132.601 18.9655 132.538 18.9987ZM130.355 19.0734C130.163 19.0734 130.059 18.9946 130.042 18.8369C130.039 18.8037 130.03 18.6792 130.016 18.4634C130.001 18.2476 129.981 17.9736 129.954 17.6416C129.935 17.3013 129.909 16.9361 129.877 16.546C129.843 16.1476 129.81 15.7533 129.777 15.3632C129.745 14.9731 129.712 14.6203 129.679 14.3049L129.592 13.4832C129.374 14.1057 129.121 14.6784 128.834 15.2013C128.546 15.716 128.25 16.1559 127.946 16.5211C127.823 16.5377 127.746 16.4879 127.718 16.3717C127.926 15.9733 128.138 15.4877 128.353 14.915C128.576 14.334 128.769 13.7073 128.932 13.035C129.103 12.3626 129.207 11.6862 129.244 11.0055H128.268C128.268 11.0055 128.189 11.0097 128.031 11.018C127.873 11.018 127.699 11.0346 127.511 11.0678L127.343 10.5449C127.589 10.5864 127.796 10.6113 127.964 10.6196C128.14 10.6279 128.228 10.632 128.228 10.632H129.293L129.092 8.72709C129.07 8.51129 129.044 8.34528 129.015 8.22908C128.994 8.11287 128.964 8.02572 128.925 7.96762C128.886 7.91781 128.882 7.87631 128.912 7.84311C128.934 7.81821 128.971 7.80991 129.022 7.81821C129.115 7.82651 129.242 7.84726 129.404 7.88046C129.566 7.91366 129.728 7.94687 129.89 7.98007C130.061 8.01327 130.193 8.04232 130.287 8.06722C130.365 8.09212 130.408 8.14607 130.417 8.22908C130.418 8.31208 130.373 8.36188 130.283 8.37848C130.192 8.38678 130.106 8.40753 130.026 8.44073C129.954 8.46563 129.924 8.54449 129.938 8.67729L130.144 10.632H130.582C130.657 10.632 130.713 10.6113 130.751 10.5698C130.786 10.5117 130.841 10.4328 130.914 10.3332C130.994 10.2253 131.053 10.1506 131.09 10.1091C131.157 10.0261 131.24 10.0219 131.34 10.0966C131.438 10.163 131.561 10.2585 131.708 10.383C131.854 10.5075 131.97 10.6154 132.055 10.7067C132.128 10.7731 132.156 10.8395 132.138 10.9059C132.128 10.9723 132.09 11.0055 132.023 11.0055H130.183L130.338 12.4747C130.571 12.5494 130.82 12.6573 131.085 12.7984C131.359 12.9395 131.606 13.1055 131.826 13.2964C132.054 13.479 132.208 13.6782 132.289 13.894C132.37 14.1015 132.382 14.2966 132.326 14.4792C132.278 14.6618 132.186 14.7739 132.048 14.8154C131.83 14.8818 131.65 14.7614 131.51 14.4543C131.379 14.1638 131.219 13.8733 131.03 13.5828C130.84 13.284 130.621 13.0308 130.374 12.8233L130.53 14.3049C130.58 14.778 130.631 15.2677 130.684 15.7741C130.745 16.2721 130.803 16.741 130.857 17.181C130.911 17.6126 130.953 17.9695 130.982 18.2517C131.02 18.5339 131.042 18.6958 131.046 18.7373C131.055 18.8203 130.983 18.895 130.832 18.9614C130.689 19.0361 130.53 19.0734 130.355 19.0734ZM133.677 12.9229H136.594L136.404 11.1176H133.487L133.677 12.9229ZM133.448 10.7441H136.365L136.179 8.9761H133.262L133.448 10.7441ZM141.987 19.0859C141.885 18.8369 141.786 18.6418 141.687 18.5007C141.597 18.3596 141.477 18.2517 141.328 18.177C141.186 18.1023 140.985 18.0483 140.722 18.0151C140.637 17.9155 140.64 17.8284 140.732 17.7537C140.842 17.762 141.001 17.7703 141.211 17.7786C141.419 17.7786 141.616 17.7786 141.799 17.7786C141.941 17.7786 142.031 17.7578 142.068 17.7163C142.114 17.6748 142.131 17.6001 142.12 17.4922L141.824 14.6784C141.722 14.7448 141.625 14.8112 141.532 14.8776C141.446 14.9357 141.364 14.9855 141.285 15.027C141.199 15.0851 141.151 15.1474 141.141 15.2138C141.14 15.2802 141.156 15.3549 141.19 15.4379C141.222 15.5043 141.203 15.5583 141.132 15.5998C141.061 15.6413 141.001 15.6288 140.953 15.5624C140.894 15.4794 140.802 15.3632 140.678 15.2138C140.562 15.0644 140.447 14.915 140.331 14.7656C140.222 14.6079 140.139 14.4917 140.081 14.417C140.05 14.3589 140.042 14.3174 140.056 14.2925C140.086 14.2593 140.126 14.2468 140.177 14.2551C140.211 14.2634 140.257 14.2634 140.315 14.2551C140.38 14.2468 140.45 14.2344 140.523 14.2177C140.54 14.2177 140.553 14.2177 140.561 14.2177C140.724 14.1762 140.902 14.1264 141.096 14.0683C141.298 14.0019 141.512 13.9314 141.737 13.8567L141.435 10.9806C141.368 10.9806 141.306 10.9806 141.247 10.9806C141.189 10.9806 141.135 10.9806 141.085 10.9806C141.001 10.9806 140.926 10.9806 140.859 10.9806C140.801 10.9806 140.755 10.9806 140.722 10.9806C140.722 10.9806 140.643 10.9848 140.485 10.9931C140.326 10.9931 140.152 11.0055 139.963 11.0304L139.796 10.5075C140.042 10.549 140.249 10.5739 140.417 10.5822C140.585 10.5905 140.668 10.5947 140.668 10.5947H141.395L141.194 8.68974C141.177 8.52374 141.155 8.39093 141.127 8.29133C141.099 8.18342 141.071 8.10872 141.041 8.06722C141.002 8.00912 140.997 7.96347 141.027 7.93026C141.048 7.89706 141.089 7.88461 141.148 7.89291C141.241 7.90121 141.364 7.92196 141.518 7.95517C141.68 7.98837 141.842 8.02157 142.004 8.05477C142.166 8.08797 142.294 8.11702 142.389 8.14192C142.483 8.16682 142.526 8.22078 142.518 8.30378C142.52 8.39508 142.474 8.44073 142.383 8.44073C142.3 8.44903 142.219 8.46978 142.139 8.50299C142.067 8.53619 142.037 8.61089 142.05 8.72709L142.246 10.5947H142.396C142.455 10.5947 142.502 10.5739 142.54 10.5324C142.575 10.4743 142.63 10.3955 142.703 10.2959C142.776 10.1962 142.83 10.1215 142.867 10.0717C142.933 9.98874 143.016 9.98459 143.116 10.0593C143.206 10.1257 143.317 10.2212 143.447 10.3457C143.584 10.4619 143.699 10.5656 143.792 10.6569C143.867 10.7316 143.896 10.8063 143.878 10.881C143.869 10.9474 143.826 10.9806 143.751 10.9806H142.286L142.556 13.5454C142.78 13.4541 142.984 13.3711 143.168 13.2964C143.361 13.2217 143.517 13.1553 143.636 13.0972C143.754 12.5577 143.846 12.0057 143.912 11.4413C143.978 10.8769 144.021 10.3332 144.041 9.81028C144.061 9.27906 144.056 8.8018 144.029 8.37848C144.026 8.27888 144.018 8.19587 144.002 8.12947C143.987 8.06307 143.973 8.00497 143.959 7.95517C143.957 7.93856 143.956 7.92611 143.955 7.91781C143.955 7.91781 143.955 7.91366 143.954 7.90536C143.93 7.83896 143.926 7.79746 143.941 7.78086C143.963 7.75596 144.004 7.75181 144.065 7.76841C144.158 7.78501 144.282 7.81406 144.437 7.85556C144.599 7.88876 144.761 7.92611 144.924 7.96762C145.087 8.00912 145.216 8.04647 145.312 8.07967C145.381 8.10457 145.412 8.15852 145.404 8.24153C145.404 8.32453 145.363 8.36603 145.279 8.36603C145.171 8.36603 145.098 8.38678 145.06 8.42828C145.022 8.46148 145.002 8.54449 144.999 8.67729C144.995 8.9595 144.98 9.25001 144.953 9.54883C144.925 9.83934 144.893 10.134 144.858 10.4328H145.559C145.609 10.4328 145.653 10.4121 145.69 10.3706C145.719 10.3291 145.756 10.2834 145.801 10.2336C145.853 10.1755 145.902 10.1215 145.947 10.0717C146.014 9.99704 146.097 9.99704 146.197 10.0717C146.295 10.1298 146.425 10.217 146.588 10.3332C146.758 10.4494 146.885 10.5407 146.967 10.6071C147.031 10.6569 147.057 10.7109 147.046 10.769C147.044 10.8271 147.011 10.8686 146.947 10.8935C146.868 10.935 146.813 10.9682 146.782 10.9931C146.726 11.018 146.688 11.047 146.666 11.0802C146.653 11.1134 146.643 11.1757 146.636 11.267C146.613 12.2381 146.524 13.1014 146.369 13.8567C146.223 14.6037 146.018 15.276 145.755 15.8737C145.835 15.9982 145.919 16.1185 146.006 16.2347C146.101 16.3426 146.195 16.4464 146.289 16.546C146.669 16.1061 146.938 15.6122 147.097 15.0644C147.257 14.5166 147.334 13.8982 147.328 13.2093C147.33 12.512 147.286 11.736 147.196 10.881C147.118 10.1423 147.047 9.58203 146.982 9.20021C146.925 8.8184 146.861 8.56524 146.789 8.44073C146.752 8.39923 146.751 8.35773 146.789 8.31623C146.819 8.28303 146.86 8.27888 146.913 8.30378C147.017 8.34528 147.179 8.41583 147.398 8.51544C147.625 8.61504 147.805 8.69804 147.937 8.76445H148.463C148.522 8.76445 148.57 8.74369 148.607 8.70219C148.636 8.66069 148.673 8.61504 148.718 8.56524C148.762 8.50714 148.806 8.44903 148.85 8.39093C148.902 8.33283 148.973 8.33283 149.062 8.39093C149.169 8.44903 149.308 8.54034 149.479 8.66484C149.659 8.78105 149.793 8.87235 149.884 8.93875C149.938 8.98025 149.964 9.02591 149.961 9.07571C149.966 9.12551 149.933 9.17116 149.862 9.21266C149.831 9.22926 149.8 9.25001 149.769 9.27491C149.737 9.29152 149.706 9.30812 149.674 9.32472C149.635 9.34962 149.604 9.37867 149.583 9.41187C149.569 9.43677 149.567 9.49487 149.576 9.58618L150.2 15.525C150.21 15.6164 150.237 15.6786 150.283 15.7118C150.336 15.745 150.405 15.7616 150.488 15.7616C150.63 15.7616 150.728 15.7367 150.781 15.6869C150.834 15.6371 150.874 15.5458 150.902 15.413C150.932 15.2968 150.959 15.1225 150.985 14.8901C151.011 14.6577 151.033 14.4294 151.051 14.2053C151.069 13.9812 151.078 13.8276 151.077 13.7446C151.178 13.6699 151.262 13.6782 151.33 13.7695L151.499 15.3756C151.507 15.4503 151.525 15.5043 151.554 15.5375C151.582 15.5707 151.627 15.5998 151.688 15.6247C151.802 15.6745 151.891 15.7284 151.956 15.7865C152.02 15.8446 152.058 15.9318 152.071 16.048C152.084 16.1725 152.054 16.2845 151.981 16.3841C151.915 16.4754 151.789 16.5418 151.601 16.5833C151.389 16.6331 151.134 16.6663 150.835 16.6829C150.545 16.6995 150.299 16.7037 150.098 16.6954C149.663 16.6871 149.427 16.5086 149.391 16.16L148.653 9.13796H147.877L148.083 11.1051C148.229 12.4913 148.183 13.6367 147.944 14.5415C147.713 15.4462 147.232 16.1849 146.499 16.7576C146.858 17.0731 147.28 17.3179 147.766 17.4922C148.25 17.6582 148.818 17.7412 149.469 17.7412C150.062 17.7412 150.589 17.7122 151.05 17.6541C151.52 17.596 151.902 17.5379 152.196 17.4798C152.071 17.6375 151.968 17.8491 151.887 18.1147C151.806 18.3721 151.762 18.5879 151.755 18.7622H150.128C148.992 18.7622 148.048 18.5505 147.294 18.1272C146.548 17.6956 145.952 17.1104 145.507 16.3717C145.229 16.9029 144.908 17.3802 144.543 17.8035C144.179 18.2268 143.774 18.6252 143.33 18.9987C143.203 18.9821 143.141 18.9157 143.146 18.7995C143.528 18.3845 143.887 17.9114 144.224 17.3802C144.56 16.8489 144.846 16.2389 145.083 15.5499C144.906 15.1349 144.755 14.6909 144.63 14.2177C144.512 13.7363 144.418 13.2342 144.346 12.7112C144.21 13.1595 144.054 13.5869 143.88 13.9936C143.706 14.4004 143.512 14.778 143.298 15.1266C143.192 15.1515 143.116 15.1059 143.071 14.9897C143.165 14.7739 143.253 14.5415 143.336 14.2925C143.417 14.0351 143.49 13.7737 143.554 13.5081C143.421 13.5994 143.273 13.699 143.109 13.8069C142.954 13.9148 142.79 14.0268 142.619 14.143L142.652 14.4543C142.678 14.7033 142.713 14.998 142.757 15.3383C142.801 15.6786 142.845 16.0189 142.889 16.3592C142.933 16.6912 142.971 16.9818 143.006 17.2308C143.04 17.4715 143.059 17.6167 143.064 17.6665C143.103 18.0317 143.054 18.3223 142.918 18.5381C142.783 18.7622 142.473 18.9448 141.987 19.0859ZM145.268 14.9274C145.424 14.3547 145.542 13.728 145.621 13.0474C145.699 12.3585 145.724 11.6032 145.696 10.7814H144.794C144.759 10.9972 144.719 11.213 144.675 11.4288C144.63 11.6364 144.581 11.848 144.529 12.0638C144.62 12.6116 144.724 13.1263 144.841 13.6077C144.967 14.0891 145.109 14.529 145.268 14.9274ZM159.004 18.5256C158.219 18.5256 157.565 18.4136 157.04 18.1894C156.524 17.9653 156.227 17.6001 156.149 17.0938C156.093 16.7203 156.177 16.4049 156.4 16.1476C156.623 15.882 156.916 15.6205 157.282 15.3632C157.414 15.2719 157.57 15.1681 157.75 15.0519C157.937 14.9274 158.136 14.7988 158.348 14.666C158.291 14.3672 158.212 14.0891 158.11 13.8318C158.015 13.5662 157.893 13.3545 157.743 13.1968C157.592 13.0308 157.399 12.9478 157.166 12.9478C156.873 12.9478 156.598 13.0308 156.34 13.1968C156.082 13.3545 155.853 13.562 155.655 13.8193C155.464 14.0683 155.304 14.3298 155.174 14.6037C155.059 14.861 154.931 14.998 154.791 15.0146C154.65 15.0229 154.508 14.9399 154.365 14.7656C154.2 14.5498 154.139 14.363 154.18 14.2053C154.231 14.0476 154.328 13.9023 154.473 13.7695C154.67 13.5786 154.878 13.3379 155.098 13.0474C155.326 12.7569 155.551 12.4373 155.773 12.0887C155.995 11.7401 156.2 11.3873 156.388 11.0304C156.255 11.0387 156.123 11.047 155.99 11.0553C155.857 11.0553 155.727 11.0553 155.602 11.0553C155.135 11.0553 154.788 10.9308 154.561 10.6818C154.342 10.4245 154.206 10.1174 154.151 9.76048C154.224 9.66088 154.311 9.64843 154.41 9.72313C154.488 9.98044 154.622 10.1464 154.813 10.2211C155.004 10.2876 155.237 10.3208 155.512 10.3208C155.695 10.3125 155.895 10.3042 156.111 10.2959C156.334 10.2793 156.553 10.2544 156.766 10.2211C156.821 10.1049 156.867 9.99289 156.906 9.88499C156.952 9.76878 156.987 9.66088 157.01 9.56128C157.099 9.29567 157.1 9.07156 157.014 8.88895C156.928 8.70634 156.765 8.57769 156.523 8.50299C156.485 8.46148 156.472 8.41583 156.484 8.36603C156.495 8.31623 156.516 8.27888 156.547 8.25398C156.74 8.26228 156.961 8.30378 157.211 8.37848C157.468 8.44488 157.677 8.52789 157.838 8.62749C157.99 8.71879 158.077 8.835 158.1 8.9761C158.122 9.10891 158.088 9.22096 157.998 9.31227C157.945 9.37037 157.89 9.44092 157.832 9.52392C157.774 9.60693 157.728 9.68163 157.693 9.74803C157.653 9.84764 157.603 9.95969 157.541 10.0842C157.662 10.051 157.776 10.0219 157.882 9.99704C157.987 9.96384 158.079 9.93064 158.159 9.89744C158.239 9.85594 158.32 9.83519 158.403 9.83519C158.495 9.83519 158.612 9.87669 158.754 9.95969C159.002 10.0925 159.13 10.2336 159.137 10.383C159.144 10.5324 159.043 10.6403 158.833 10.7067C158.671 10.7565 158.43 10.8063 158.11 10.8561C157.797 10.8976 157.455 10.9391 157.084 10.9806C156.896 11.3375 156.705 11.6986 156.509 12.0638C156.313 12.4207 156.144 12.7195 156.003 12.9603C156.156 12.8357 156.329 12.732 156.521 12.649C156.72 12.5577 156.936 12.512 157.17 12.512C157.57 12.512 157.903 12.6199 158.168 12.8357C158.441 13.0516 158.661 13.3213 158.829 13.645C158.93 13.2549 159.079 12.8939 159.278 12.5618C159.485 12.2215 159.735 11.9476 160.031 11.7401C160.334 11.5326 160.686 11.4288 161.087 11.4288C161.513 11.4288 161.858 11.4994 162.123 11.6405C162.388 11.7733 162.576 11.9352 162.688 12.1261C162.8 12.317 162.835 12.4996 162.795 12.6739C162.754 12.8399 162.642 12.9603 162.458 13.035C162.201 13.1346 161.89 13.2757 161.526 13.4583C161.168 13.6326 160.793 13.8318 160.399 14.0559C160.005 14.2717 159.619 14.4958 159.243 14.7282C159.319 15.0519 159.377 15.3632 159.416 15.662C159.464 15.9608 159.499 16.2098 159.52 16.409C159.541 16.6082 159.499 16.7659 159.394 16.8821C159.289 16.9901 159.165 17.044 159.023 17.044C158.739 17.044 158.581 16.8904 158.549 16.5833C158.546 16.5501 158.541 16.5086 158.536 16.4588C158.53 16.4007 158.528 16.3385 158.529 16.2721C158.514 16.131 158.502 15.9733 158.492 15.799C158.482 15.6247 158.462 15.4379 158.433 15.2387C158.277 15.3466 158.125 15.4503 157.977 15.5499C157.837 15.6413 157.709 15.7326 157.593 15.8239C157.369 15.9982 157.216 16.1683 157.133 16.3343C157.051 16.5003 157.029 16.6912 157.068 16.9071C157.124 17.1976 157.319 17.3885 157.654 17.4798C157.989 17.5711 158.437 17.6167 158.996 17.6167C159.388 17.6167 159.777 17.5877 160.163 17.5296C160.55 17.4715 160.848 17.4092 161.058 17.3428C161.17 17.3013 161.26 17.2847 161.328 17.293C161.395 17.293 161.484 17.3138 161.597 17.3553C161.973 17.513 162.175 17.6914 162.204 17.8906C162.233 18.0815 162.125 18.2102 161.882 18.2766C161.574 18.3596 161.154 18.4219 160.625 18.4634C160.103 18.5049 159.563 18.5256 159.004 18.5256ZM159.099 14.1928C159.483 13.9521 159.866 13.7114 160.25 13.4707C160.633 13.2217 160.972 12.9935 161.267 12.7859C161.539 12.595 161.653 12.4083 161.609 12.2257C161.564 12.0348 161.383 11.9393 161.066 11.9393C160.69 11.9393 160.368 12.0514 160.099 12.2755C159.831 12.4996 159.615 12.7859 159.451 13.1346C159.287 13.4749 159.169 13.8276 159.099 14.1928ZM168.963 18.8244C168.85 18.8659 168.738 18.8701 168.626 18.8369C168.515 18.812 168.41 18.7248 168.311 18.5754C167.995 18.1106 167.609 17.6582 167.154 17.2183C166.699 16.7784 166.222 16.4132 165.724 16.1227C165.686 16.0729 165.672 16.0231 165.684 15.9733C165.694 15.9152 165.728 15.882 165.786 15.8737C166.213 15.8903 166.646 15.9608 167.085 16.0853C167.531 16.2015 167.936 16.3634 168.3 16.5709C168.672 16.7701 168.957 17.0191 169.155 17.3179C169.302 17.5254 169.382 17.7329 169.396 17.9404C169.417 18.1479 169.387 18.3306 169.303 18.4883C169.228 18.646 169.114 18.758 168.963 18.8244ZM178.675 17.9653C178.525 17.9653 178.442 17.8948 178.427 17.7537C178.423 17.7122 178.405 17.5462 178.375 17.2557C178.353 16.9652 178.317 16.5875 178.268 16.1227C178.228 15.6579 178.181 15.1349 178.128 14.5539C178.075 13.9646 178.015 13.3587 177.95 12.7361C177.892 12.1053 177.831 11.4869 177.767 10.881C177.713 10.3581 177.665 9.94724 177.625 9.64843C177.585 9.34132 177.548 9.11306 177.516 8.96365C177.483 8.81425 177.447 8.70219 177.405 8.62749C177.384 8.57769 177.388 8.54034 177.419 8.51544C177.448 8.47393 177.489 8.46978 177.543 8.50299C177.604 8.52789 177.691 8.56939 177.806 8.62749C177.929 8.68559 178.052 8.74784 178.176 8.81425C178.308 8.88065 178.415 8.93875 178.495 8.98855H179.334C179.392 8.98855 179.44 8.9678 179.477 8.9263C179.515 8.8848 179.559 8.83085 179.611 8.76445C179.661 8.68974 179.701 8.63579 179.731 8.60259C179.775 8.54449 179.846 8.54034 179.943 8.59014C180.04 8.63994 180.178 8.72294 180.357 8.83915C180.536 8.95535 180.666 9.04251 180.748 9.10061C180.81 9.14211 180.841 9.19191 180.838 9.25001C180.836 9.30812 180.803 9.35377 180.74 9.38697C180.709 9.40357 180.673 9.42432 180.634 9.44922C180.602 9.46582 180.567 9.48657 180.528 9.51147C180.456 9.54467 180.427 9.62768 180.441 9.76048L180.555 10.8437C180.633 11.5824 180.712 12.2962 180.793 12.9852C180.873 13.6658 180.946 14.28 181.012 14.8278C181.077 15.3673 181.131 15.8031 181.174 16.1351C181.217 16.4671 181.241 16.6497 181.244 16.6829C181.252 16.7576 181.193 16.8323 181.067 16.9071C180.941 16.9735 180.786 17.0067 180.602 17.0067C180.435 17.0067 180.345 16.9403 180.331 16.8074L180.285 16.3717H179.183L179.314 17.6167C179.322 17.6914 179.268 17.7703 179.151 17.8533C179.034 17.928 178.875 17.9653 178.675 17.9653ZM180.997 19.0983C180.889 19.0236 180.868 18.9406 180.934 18.8493C181.611 18.6999 182.314 18.48 183.042 18.1894C183.771 17.8989 184.435 17.5005 185.033 16.9942C184.627 16.629 184.262 16.2098 183.936 15.7367C183.585 16.2015 183.194 16.6124 182.764 16.9693C182.334 17.3262 181.882 17.6292 181.407 17.8782C181.356 17.8616 181.315 17.8325 181.286 17.791C181.256 17.7495 181.243 17.708 181.247 17.6665C181.766 17.2764 182.262 16.795 182.736 16.2223C183.209 15.6413 183.58 15.0021 183.849 14.3049C183.607 14.2302 183.471 14.0476 183.44 13.7571L183.324 12.649C183.307 12.483 183.284 12.3502 183.257 12.2506C183.229 12.1427 183.2 12.068 183.171 12.0265C183.131 11.9684 183.127 11.9227 183.157 11.8895C183.171 11.8646 183.207 11.8522 183.265 11.8522C183.35 11.8605 183.46 11.8812 183.597 11.9144C183.733 11.9393 183.87 11.9642 184.006 11.9891C184.142 12.014 184.249 12.0389 184.327 12.0638C184.411 12.0721 184.45 12.1219 184.442 12.2132C184.444 12.3045 184.403 12.3502 184.319 12.3502C184.237 12.3585 184.176 12.3792 184.138 12.4124C184.099 12.4373 184.085 12.5037 184.096 12.6116L184.187 13.4707C184.201 13.6118 184.293 13.6865 184.46 13.6948C184.545 13.7031 184.679 13.7114 184.864 13.7197C185.047 13.7197 185.239 13.7156 185.438 13.7073C185.646 13.699 185.812 13.6865 185.935 13.6699C186.082 13.6367 186.175 13.5703 186.215 13.4707C186.255 13.3794 186.292 13.2508 186.324 13.0848C186.357 12.9188 186.386 12.7569 186.411 12.5992C186.435 12.4332 186.448 12.3211 186.451 12.263C186.552 12.1966 186.641 12.2091 186.718 12.3004C186.723 12.3502 186.73 12.4539 186.738 12.6116C186.746 12.7693 186.754 12.9271 186.762 13.0848C186.77 13.2342 186.775 13.3213 186.777 13.3462C186.787 13.4375 186.818 13.4915 186.87 13.5081C186.965 13.5413 187.04 13.5828 187.095 13.6326C187.159 13.6824 187.196 13.7529 187.205 13.8442C187.229 14.0683 187.04 14.2136 186.638 14.28C186.416 14.3132 186.126 14.3381 185.769 14.3547C185.411 14.363 185.074 14.3672 184.756 14.3672C184.709 14.4751 184.654 14.583 184.59 14.6909C184.534 14.7905 184.478 14.8901 184.421 14.9897H186.262C186.337 14.9897 186.397 14.9648 186.442 14.915L186.703 14.666C186.763 14.5996 186.842 14.5996 186.941 14.666C186.985 14.6909 187.066 14.7448 187.184 14.8278C187.301 14.9108 187.418 14.9938 187.535 15.0768C187.652 15.1515 187.728 15.2055 187.765 15.2387C187.855 15.3051 187.88 15.3798 187.839 15.4628C187.806 15.5458 187.743 15.5832 187.65 15.5749C187.524 15.5666 187.434 15.579 187.379 15.6122C187.323 15.6371 187.263 15.7035 187.199 15.8114C186.876 16.3094 186.532 16.7286 186.167 17.0689C186.763 17.3428 187.372 17.5379 187.994 17.6541C188.614 17.762 189.208 17.8491 189.774 17.9155C189.552 18.0234 189.363 18.177 189.209 18.3762C189.064 18.5837 188.974 18.7622 188.94 18.9116C188.368 18.7954 187.803 18.6211 187.245 18.3887C186.687 18.1645 186.155 17.8657 185.648 17.4922C184.967 17.9985 184.221 18.3679 183.411 18.6003C182.609 18.8327 181.805 18.9987 180.997 19.0983ZM181.36 13.0225C181.204 13.0474 181.076 13.0142 180.974 12.9229C180.881 12.8316 180.835 12.7154 180.837 12.5743C180.848 12.4332 180.922 12.3087 181.061 12.2008C181.502 11.8688 181.698 11.3541 181.65 10.6569C181.74 10.5656 181.828 10.5656 181.913 10.6569C181.938 10.7399 181.959 10.8188 181.975 10.8935C181.991 10.9682 182.008 11.047 182.025 11.13H185.969C186.056 10.9308 186.131 10.6943 186.194 10.4204C186.266 10.1464 186.322 9.88914 186.364 9.64843C186.404 9.39942 186.418 9.21681 186.406 9.10061C186.375 8.9595 186.429 8.918 186.568 8.9761C186.664 9.00931 186.786 9.05911 186.935 9.12551C187.083 9.18361 187.231 9.24586 187.38 9.31227C187.528 9.37037 187.638 9.42017 187.709 9.46167C187.787 9.49487 187.814 9.55298 187.79 9.63598C187.773 9.71898 187.718 9.75218 187.625 9.73558C187.54 9.71898 187.473 9.71898 187.424 9.73558C187.384 9.74388 187.342 9.78123 187.299 9.84764C187.178 10.0551 187.031 10.2793 186.856 10.52C186.68 10.7524 186.518 10.9557 186.369 11.13H187.383C187.433 11.13 187.466 11.1259 187.482 11.1176C187.505 11.101 187.529 11.0844 187.552 11.0678C187.582 11.0346 187.639 10.9806 187.723 10.9059C187.807 10.8312 187.868 10.7773 187.906 10.7441C187.989 10.6611 188.069 10.6652 188.145 10.7565C188.181 10.7814 188.26 10.852 188.38 10.9682C188.501 11.0844 188.622 11.2006 188.742 11.3168C188.862 11.4247 188.936 11.4952 188.965 11.5284C189.031 11.6032 189.039 11.6779 188.989 11.7526C188.956 11.8356 188.888 11.8646 188.785 11.8397C188.594 11.7733 188.384 11.7982 188.154 11.9144C187.933 12.0306 187.722 12.1717 187.523 12.3377C187.398 12.3377 187.329 12.2796 187.317 12.1634C187.342 12.0887 187.376 11.9767 187.419 11.8273C187.47 11.6779 187.507 11.5575 187.531 11.4662H182.085C182.138 11.8895 182.108 12.2381 181.995 12.512C181.882 12.7859 181.67 12.9561 181.36 13.0225ZM181.258 9.31227C181.165 9.22096 181.156 9.13381 181.231 9.05081C181.694 9.0093 182.192 8.94705 182.726 8.86405C183.259 8.77275 183.774 8.66899 184.271 8.55279C184.776 8.43658 185.21 8.31623 185.572 8.19172C185.942 8.05892 186.187 7.93026 186.308 7.80576C186.345 7.76426 186.376 7.74351 186.401 7.74351C186.435 7.74351 186.483 7.76426 186.546 7.80576C186.608 7.84726 186.711 7.91366 186.854 8.00497C186.998 8.09627 187.145 8.18757 187.296 8.27888C187.448 8.37018 187.56 8.44073 187.632 8.49054C187.676 8.51544 187.7 8.54864 187.705 8.59014C187.709 8.63164 187.705 8.66899 187.691 8.70219C187.642 8.7852 187.565 8.8101 187.461 8.7769C187.365 8.73539 187.284 8.71464 187.217 8.71464C187.158 8.70634 187.083 8.71049 186.993 8.72709C186.617 8.8018 186.19 8.87235 185.713 8.93875C185.236 9.00515 184.738 9.06741 184.218 9.12551C183.698 9.17531 183.184 9.21681 182.679 9.25001C182.173 9.28321 181.7 9.30397 181.258 9.31227ZM179.143 15.9857H180.244L179.911 12.8108H178.809L179.143 15.9857ZM178.77 12.4373H179.872L179.548 9.36207H178.447L178.77 12.4373ZM185.397 16.6456C185.593 16.4547 185.772 16.2513 185.933 16.0355C186.094 15.8197 186.241 15.5832 186.372 15.3258H184.219C184.176 15.3922 184.14 15.4503 184.112 15.5001C184.303 15.7326 184.505 15.9442 184.717 16.1351C184.937 16.326 185.164 16.4962 185.397 16.6456ZM181.973 14.4419C181.801 14.4751 181.668 14.4419 181.574 14.3423C181.479 14.2344 181.437 14.1098 181.447 13.9687C181.466 13.8276 181.546 13.7197 181.689 13.645C181.957 13.5039 182.155 13.3172 182.281 13.0848C182.406 12.8523 182.482 12.5784 182.507 12.263C182.545 12.2215 182.589 12.2049 182.64 12.2132C182.691 12.2215 182.731 12.2464 182.76 12.2879C182.929 13.5745 182.666 14.2925 181.973 14.4419ZM188.688 14.2551C188.512 14.3215 188.366 14.2427 188.25 14.0185C188.109 13.7114 187.916 13.4168 187.669 13.1346C187.431 12.8523 187.195 12.6324 186.961 12.4747C186.948 12.4249 186.951 12.3792 186.972 12.3377C186.993 12.2962 187.027 12.2713 187.077 12.263C187.432 12.3875 187.779 12.5494 188.117 12.7486C188.463 12.9478 188.705 13.1802 188.841 13.4458C188.944 13.6284 188.974 13.7986 188.932 13.9563C188.898 14.1057 188.816 14.2053 188.688 14.2551ZM184.894 11.0304C184.828 11.0387 184.76 11.0221 184.688 10.9806C184.626 10.9391 184.575 10.8561 184.537 10.7316C184.473 10.5158 184.365 10.2876 184.215 10.0468C184.072 9.79783 183.917 9.59448 183.75 9.43677C183.738 9.32057 183.786 9.26246 183.894 9.26246C184.182 9.37867 184.444 9.52392 184.679 9.69823C184.923 9.87254 185.094 10.0759 185.194 10.3083C185.271 10.4909 185.272 10.6528 185.195 10.7939C185.125 10.9267 185.025 11.0055 184.894 11.0304ZM183.068 11.0429C183.002 11.0512 182.934 11.0387 182.863 11.0055C182.793 10.9723 182.739 10.8935 182.701 10.769C182.645 10.5532 182.546 10.3332 182.406 10.1091C182.265 9.87669 182.115 9.68163 181.956 9.52392C181.952 9.48242 181.961 9.44507 181.982 9.41187C182.012 9.37867 182.048 9.36622 182.091 9.37452C182.369 9.48242 182.621 9.61108 182.845 9.76048C183.069 9.90159 183.231 10.0966 183.332 10.3457C183.402 10.5283 183.406 10.686 183.344 10.8188C183.291 10.9433 183.198 11.018 183.068 11.0429ZM185.8 13.0972C185.737 13.1304 185.666 13.1387 185.59 13.1221C185.512 13.0972 185.447 13.0391 185.396 12.9478C185.292 12.7569 185.151 12.566 184.973 12.3751C184.802 12.1759 184.622 12.0182 184.435 11.902C184.389 11.7858 184.427 11.7111 184.549 11.6779C184.841 11.7609 185.102 11.8605 185.331 11.9767C185.56 12.0846 185.737 12.2257 185.864 12.4C185.962 12.5411 185.998 12.6822 185.971 12.8233C185.952 12.9561 185.895 13.0474 185.8 13.0972ZM197.621 19.0859C197.429 19.0859 197.325 19.0029 197.307 18.8369C197.303 18.7954 197.292 18.6501 197.274 18.4011C197.257 18.1604 197.233 17.8533 197.202 17.4798C197.171 17.1063 197.137 16.6995 197.099 16.2596C197.061 15.8197 197.02 15.3881 196.975 14.9648L196.91 14.3423C196.378 15.3134 195.744 16.1559 195.01 16.8697C194.274 17.5752 193.507 18.1355 192.708 18.5505C192.586 18.509 192.541 18.4343 192.571 18.3264C193.311 17.8201 194.002 17.127 194.644 16.2472C195.294 15.3673 195.841 14.3755 196.284 13.2715H194.769C194.769 13.2715 194.682 13.2757 194.508 13.284C194.341 13.284 194.167 13.3006 193.987 13.3338L193.819 12.8108C194.057 12.8523 194.269 12.8772 194.453 12.8856C194.638 12.8939 194.73 12.898 194.73 12.898H196.758L196.538 10.8063H194.898C194.898 10.8063 194.815 10.8105 194.649 10.8188C194.482 10.8188 194.309 10.8354 194.129 10.8686L193.96 10.3332C194.19 10.383 194.398 10.4121 194.582 10.4204C194.767 10.4287 194.859 10.4328 194.859 10.4328H196.499L196.312 8.65239C196.277 8.32038 196.225 8.10042 196.155 7.99252C196.115 7.93441 196.111 7.88876 196.14 7.85556C196.162 7.82236 196.202 7.80991 196.262 7.81821C196.363 7.82651 196.494 7.84726 196.656 7.88046C196.827 7.91366 196.997 7.94687 197.168 7.98007C197.338 8.01327 197.47 8.04232 197.565 8.06722C197.659 8.09212 197.702 8.14607 197.695 8.22908C197.695 8.31208 197.65 8.36188 197.56 8.37848C197.469 8.38678 197.388 8.40753 197.316 8.44073C197.244 8.46563 197.214 8.53619 197.226 8.65239L197.413 10.4328H198.84C198.907 10.4328 198.963 10.4079 199.007 10.3581C199.029 10.3249 199.069 10.271 199.128 10.1962C199.187 10.1215 199.242 10.0468 199.292 9.97214C199.35 9.88914 199.391 9.83519 199.413 9.81028C199.464 9.73558 199.542 9.72728 199.648 9.78538C199.719 9.82689 199.814 9.89329 199.932 9.98459C200.059 10.0759 200.181 10.1672 200.299 10.2585C200.417 10.3498 200.5 10.4204 200.547 10.4702C200.622 10.5532 200.651 10.632 200.634 10.7067C200.624 10.7731 200.578 10.8063 200.494 10.8063H197.452L197.672 12.898H199.575C199.658 12.898 199.715 12.8772 199.744 12.8357C199.765 12.8025 199.809 12.7444 199.875 12.6614C199.95 12.5784 200.02 12.4913 200.086 12.4C200.151 12.3087 200.195 12.2506 200.218 12.2257C200.276 12.1427 200.354 12.1344 200.453 12.2008C200.524 12.2423 200.628 12.317 200.765 12.4249C200.909 12.5245 201.045 12.6282 201.173 12.7361C201.308 12.8357 201.399 12.9063 201.445 12.9478C201.519 13.0142 201.552 13.0848 201.543 13.1595C201.534 13.2342 201.492 13.2715 201.417 13.2715H197.886C198.197 13.8442 198.597 14.3962 199.087 14.9274C199.576 15.4503 200.101 15.9152 200.661 16.3219C201.229 16.7286 201.785 17.0482 202.326 17.2806C202.074 17.3387 201.836 17.459 201.613 17.6416C201.398 17.8159 201.245 17.9861 201.154 18.1521C200.747 17.8533 200.331 17.4715 199.907 17.0067C199.49 16.5418 199.094 16.0231 198.716 15.4503C198.347 14.8776 198.027 14.2883 197.754 13.6824L197.889 14.9648C197.953 15.5707 198.022 16.1476 198.096 16.6954C198.17 17.2432 198.231 17.6997 198.278 18.0649C198.333 18.4302 198.364 18.646 198.371 18.7124C198.38 18.8037 198.306 18.8867 198.146 18.9614C197.988 19.0444 197.813 19.0859 197.621 19.0859ZM191.261 17.293C191.102 17.293 191.016 17.2225 191.001 17.0814C190.996 17.0316 190.978 16.824 190.948 16.4588C190.918 16.0936 190.877 15.6247 190.825 15.0519C190.772 14.4709 190.713 13.8235 190.646 13.1097C190.579 12.3958 190.507 11.6654 190.428 10.9184C190.369 10.354 190.319 9.92234 190.28 9.62353C190.24 9.32472 190.204 9.10476 190.173 8.96365C190.141 8.82255 190.105 8.71464 190.064 8.63994C190.042 8.59014 190.046 8.54864 190.075 8.51544C190.105 8.48224 190.147 8.47809 190.199 8.50299C190.296 8.54449 190.449 8.61919 190.661 8.72709C190.881 8.835 191.057 8.92215 191.189 8.98855H192.241C192.299 8.98855 192.347 8.9678 192.385 8.9263C192.422 8.8848 192.466 8.83085 192.518 8.76445C192.568 8.68974 192.609 8.63579 192.639 8.60259C192.668 8.56109 192.695 8.54034 192.72 8.54034C192.745 8.54034 192.788 8.55694 192.85 8.59014C192.947 8.63994 193.085 8.72294 193.264 8.83915C193.452 8.95535 193.59 9.04251 193.68 9.10061C193.734 9.14211 193.76 9.19191 193.758 9.25001C193.764 9.30812 193.732 9.35377 193.66 9.38697C193.628 9.40357 193.593 9.42432 193.554 9.44922C193.522 9.46582 193.49 9.48242 193.459 9.49902C193.42 9.52392 193.389 9.55298 193.368 9.58618C193.355 9.61938 193.353 9.68163 193.362 9.77293L193.475 10.8437C193.576 11.8065 193.676 12.6739 193.774 13.4458C193.87 14.2094 193.948 14.8237 194.005 15.2885C194.07 15.7533 194.107 16.0189 194.114 16.0853C194.121 16.16 194.05 16.2306 193.898 16.297C193.754 16.3551 193.598 16.3841 193.431 16.3841C193.264 16.3841 193.174 16.3177 193.16 16.1849L193.108 15.6869H191.793L191.932 17.0067C191.94 17.0814 191.872 17.1478 191.727 17.2059C191.592 17.264 191.436 17.293 191.261 17.293ZM191.754 15.3134H193.068L192.769 12.4622H191.454L191.754 15.3134ZM191.415 12.0887H192.729L192.443 9.36207H191.128L191.415 12.0887ZM206.185 17.7786C206.1 17.845 205.982 17.874 205.831 17.8657C205.688 17.8574 205.553 17.8076 205.427 17.7163C205.118 17.4756 204.848 17.127 204.616 16.6705C204.384 16.214 204.227 15.5915 204.144 14.8029C204.087 14.2634 204.07 13.7778 204.091 13.3462C204.113 12.9146 204.146 12.5203 204.192 12.1634C204.246 11.7982 204.289 11.4537 204.322 11.13C204.353 10.798 204.352 10.4702 204.318 10.1464C204.301 9.98044 204.254 9.81443 204.178 9.64843C204.102 9.47412 204.025 9.33717 203.947 9.23756C203.933 9.10476 203.986 9.04666 204.104 9.06326C204.379 9.21266 204.643 9.42432 204.897 9.69823C205.151 9.97214 205.292 10.2751 205.318 10.6071C205.344 10.8561 205.325 11.1093 205.26 11.3666C205.196 11.6239 205.117 11.9103 205.025 12.2257C204.941 12.5328 204.874 12.8897 204.825 13.2964C204.784 13.7031 204.792 14.1804 204.85 14.7282C204.904 15.2428 205.012 15.633 205.173 15.8986C205.224 15.9816 205.269 16.0189 205.31 16.0106C205.359 16.0023 205.393 15.9608 205.41 15.8861C205.46 15.6454 205.522 15.3673 205.598 15.0519C205.68 14.7282 205.761 14.4211 205.839 14.1306C205.924 13.8318 205.988 13.6035 206.03 13.4458C206.142 13.4043 206.225 13.4375 206.278 13.5454C206.252 13.6948 206.213 13.9189 206.161 14.2177C206.116 14.5083 206.076 14.8361 206.039 15.2013C206.002 15.5666 205.982 15.9318 205.979 16.297C205.987 16.4547 206.009 16.5833 206.044 16.6829C206.087 16.7742 206.164 16.9071 206.274 17.0814C206.354 17.2059 206.38 17.3387 206.353 17.4798C206.334 17.6126 206.278 17.7122 206.185 17.7786ZM210.764 17.2806C210.097 17.2806 209.558 17.1976 209.148 17.0316C208.738 16.8572 208.424 16.6165 208.208 16.3094C208 15.994 207.852 15.6205 207.765 15.1889C207.838 15.0893 207.92 15.0727 208.01 15.1391C208.227 15.6122 208.531 15.9235 208.922 16.0729C209.313 16.214 209.867 16.2845 210.584 16.2845C210.96 16.2845 211.313 16.2638 211.642 16.2223C211.972 16.1808 212.279 16.1268 212.564 16.0604C212.662 16.0355 212.74 16.0314 212.801 16.048C212.869 16.0646 212.939 16.0936 213.01 16.1351C213.195 16.2264 213.328 16.3385 213.408 16.4713C213.489 16.6041 213.506 16.7286 213.46 16.8448C213.414 16.961 213.297 17.0399 213.109 17.0814C212.441 17.2308 211.659 17.2972 210.764 17.2806ZM209.732 11.1549C209.192 11.1715 208.746 11.0968 208.394 10.9308C208.043 10.7648 207.741 10.5158 207.49 10.1838C207.492 10.1257 207.508 10.08 207.538 10.0468C207.576 10.0136 207.621 10.0053 207.673 10.0219C207.837 10.1547 208.072 10.2419 208.376 10.2834C208.689 10.3166 209.023 10.3208 209.379 10.2959C209.735 10.2627 210.072 10.2128 210.39 10.1464C210.709 10.08 210.96 10.0136 211.145 9.94724C211.258 9.90574 211.382 9.89744 211.518 9.92234C211.654 9.94724 211.797 10.0302 211.945 10.1713C212.158 10.3706 212.242 10.5324 212.196 10.6569C212.151 10.7814 211.994 10.8769 211.726 10.9433C211.53 10.9848 211.25 11.0263 210.887 11.0678C210.525 11.1093 210.14 11.1383 209.732 11.1549ZM221.22 18.3762C220.653 18.3762 220.156 18.2974 219.731 18.1396C219.313 17.9736 218.974 17.6873 218.714 17.2806C218.462 16.8655 218.296 16.2804 218.216 15.525C218.178 15.1598 218.141 14.7324 218.107 14.2427C218.08 13.7529 218.056 13.2466 218.035 12.7237C218.012 12.1925 217.984 11.6903 217.951 11.2172C217.926 10.7358 217.895 10.3208 217.858 9.97214C217.828 9.68993 217.776 9.46997 217.701 9.31227C217.626 9.15456 217.489 9.04251 217.29 8.9761C217.252 8.9346 217.239 8.88895 217.251 8.83915C217.262 8.78935 217.288 8.75615 217.328 8.73954C217.959 8.78935 218.445 8.96365 218.785 9.26246C218.941 9.39527 219.035 9.53222 219.066 9.67333C219.098 9.81444 219.09 9.94309 219.044 10.0593C218.984 10.2004 218.943 10.5283 218.922 11.0429C218.909 11.5575 218.919 12.2008 218.95 12.9727C218.98 13.7363 219.043 14.5747 219.139 15.4877C219.211 16.1766 219.401 16.6746 219.709 16.9818C220.024 17.2806 220.495 17.43 221.121 17.43C222.014 17.43 222.784 17.2972 223.432 17.0316C224.088 16.7576 224.677 16.4422 225.198 16.0853C225.36 16.1102 225.44 16.1974 225.439 16.3468C225.27 16.5709 225.04 16.8033 224.748 17.044C224.464 17.2764 224.132 17.4964 223.753 17.7039C223.382 17.9031 222.982 18.0649 222.553 18.1894C222.123 18.314 221.679 18.3762 221.22 18.3762ZM234.335 18.563C233.961 18.5796 233.613 18.5298 233.292 18.4136C232.981 18.3057 232.726 18.1438 232.528 17.928C232.337 17.7039 232.235 17.4424 232.22 17.1436C232.195 16.7452 232.345 16.4256 232.67 16.1849C232.994 15.9359 233.424 15.8114 233.958 15.8114C234.142 15.8114 234.322 15.8197 234.499 15.8363C234.684 15.8529 234.862 15.8737 235.031 15.8986C234.986 15.5499 234.936 15.1889 234.88 14.8154C234.824 14.4419 234.772 14.0268 234.724 13.5703C234.67 13.0557 234.757 12.6905 234.984 12.4747C235.212 12.2589 235.512 12.1385 235.885 12.1136C236.068 12.1053 236.185 12.0638 236.235 11.9891C236.286 11.9144 236.3 11.8107 236.278 11.6779C236.254 11.5367 236.16 11.3915 235.994 11.2421C235.836 11.0927 235.637 10.9806 235.395 10.9059C235.325 10.7897 235.341 10.7109 235.446 10.6694C235.655 10.6777 235.881 10.7192 236.122 10.7939C236.364 10.8686 236.595 10.964 236.816 11.0802C237.045 11.1964 237.23 11.3292 237.371 11.4786C237.52 11.6281 237.599 11.7858 237.608 11.9518C237.622 12.1593 237.584 12.3128 237.494 12.4124C237.404 12.512 237.286 12.5784 237.139 12.6116C236.992 12.6365 236.838 12.6448 236.679 12.6365C236.519 12.6282 236.376 12.6158 236.249 12.5992C236.223 12.5909 236.202 12.5867 236.185 12.5867C235.872 12.5452 235.631 12.5909 235.461 12.7237C235.299 12.8482 235.238 13.1055 235.279 13.4956C235.33 13.977 235.424 14.4377 235.562 14.8776C235.7 15.3175 235.818 15.7201 235.915 16.0853C236.36 16.1932 236.753 16.3219 237.094 16.4713C237.436 16.6207 237.691 16.7452 237.86 16.8448C238.011 16.9361 238.125 17.0689 238.202 17.2432C238.279 17.4175 238.304 17.5752 238.277 17.7163C238.253 17.8823 238.181 17.9944 238.062 18.0525C237.943 18.1106 237.806 18.0815 237.652 17.9653C237.434 17.7993 237.191 17.6292 236.922 17.4549C236.654 17.2806 236.358 17.1229 236.034 16.9818C236.024 17.4466 235.876 17.8201 235.588 18.1023C235.3 18.3762 234.882 18.5298 234.335 18.563ZM229.466 16.3094C229.335 16.1766 229.247 16.0189 229.203 15.8363C229.158 15.6454 229.19 15.4752 229.3 15.3258C229.51 15.027 229.73 14.6577 229.96 14.2177C230.188 13.7695 230.404 13.284 230.608 12.761C230.82 12.2381 230.993 11.7069 231.129 11.1674C231.029 11.1757 230.93 11.184 230.831 11.1923C230.731 11.1923 230.631 11.1923 230.53 11.1923C230.056 11.2006 229.691 11.0678 229.437 10.7939C229.191 10.52 229.054 10.2045 229.025 9.84764C229.054 9.80613 229.093 9.78123 229.142 9.77293C229.19 9.75633 229.233 9.76463 229.27 9.79783C229.338 10.0468 229.486 10.2295 229.715 10.3457C229.945 10.4619 230.193 10.52 230.46 10.52C230.593 10.52 230.73 10.5117 230.87 10.4951C231.01 10.4785 231.154 10.4536 231.301 10.4204C231.344 10.1962 231.375 9.98044 231.395 9.77293C231.414 9.55713 231.422 9.34962 231.417 9.15041C231.419 9.0093 231.408 8.9014 231.383 8.8267C231.367 8.752 231.323 8.68559 231.25 8.62749C231.213 8.59429 231.152 8.57354 231.068 8.56524C230.983 8.54864 230.915 8.53619 230.864 8.52789C230.777 8.41998 230.781 8.33698 230.875 8.27888C231.04 8.25398 231.228 8.25813 231.44 8.29133C231.66 8.32453 231.85 8.38263 232.009 8.46563C232.176 8.54864 232.306 8.67314 232.399 8.83915C232.499 8.99685 232.493 9.13796 232.381 9.26246C232.229 9.40357 232.135 9.58618 232.1 9.81028C232.088 9.93479 232.065 10.0717 232.031 10.2211C232.434 10.0883 232.781 9.93479 233.072 9.76048C233.188 9.67748 233.402 9.73143 233.714 9.92234C233.857 10.0053 233.935 10.1174 233.95 10.2585C233.972 10.3913 233.904 10.4951 233.745 10.5698C233.545 10.6528 233.275 10.7399 232.934 10.8312C232.601 10.9225 232.242 11.0014 231.857 11.0678C231.754 11.516 231.632 11.9891 231.493 12.4871C231.353 12.9852 231.204 13.4749 231.046 13.9563C230.887 14.4294 230.732 14.861 230.581 15.2511C230.43 15.6413 230.296 15.9484 230.178 16.1725C230.109 16.3136 229.997 16.3966 229.841 16.4215C229.692 16.4381 229.567 16.4007 229.466 16.3094ZM234.2 17.7537C234.49 17.7371 234.713 17.6333 234.868 17.4424C235.031 17.2515 235.113 16.9942 235.112 16.6705C234.751 16.5709 234.366 16.5211 233.957 16.5211C233.231 16.5211 232.869 16.7244 232.87 17.1312C232.875 17.3387 232.992 17.5005 233.221 17.6167C233.45 17.7329 233.777 17.7786 234.2 17.7537ZM244.086 17.4798C243.784 17.4632 243.485 17.3221 243.19 17.0565C242.895 16.7908 242.634 16.4132 242.408 15.9235C242.181 15.4337 242.019 14.8486 241.923 14.1679C241.883 13.8691 241.849 13.5869 241.821 13.3213C241.801 13.0474 241.777 12.7818 241.75 12.5245C241.727 12.2257 241.7 11.9269 241.668 11.6281C241.645 11.3292 241.605 11.0263 241.548 10.7192C241.52 10.5366 241.465 10.3747 241.384 10.2336C241.302 10.0925 241.225 9.98874 241.151 9.92234C241.12 9.78953 241.167 9.72313 241.293 9.72313C241.58 9.83934 241.838 9.99289 242.067 10.1838C242.303 10.3664 242.453 10.5947 242.515 10.8686C242.571 11.0844 242.602 11.3002 242.608 11.516C242.622 11.7318 242.63 11.9642 242.631 12.2132C242.632 12.4622 242.64 12.7403 242.656 13.0474C242.671 13.3462 242.706 13.6824 242.762 14.0559C242.835 14.5124 242.928 14.8776 243.04 15.1515C243.151 15.4171 243.26 15.6164 243.366 15.7492C243.46 15.8571 243.549 15.9069 243.632 15.8986C243.713 15.882 243.782 15.8156 243.836 15.6994C243.919 15.5333 244.026 15.3175 244.156 15.0519C244.287 14.7863 244.418 14.5249 244.549 14.2676C244.68 14.0019 244.784 13.7944 244.86 13.645C244.98 13.6035 245.064 13.6409 245.109 13.7571C245.07 13.8567 245.018 14.0019 244.955 14.1928C244.9 14.3838 244.838 14.5954 244.771 14.8278C244.711 15.0519 244.651 15.276 244.591 15.5001C244.539 15.716 244.5 15.9027 244.475 16.0604C244.454 16.1766 244.456 16.2721 244.48 16.3468C244.512 16.4132 244.548 16.4796 244.589 16.546C244.61 16.5875 244.631 16.6331 244.653 16.6829C244.674 16.7244 244.692 16.7742 244.706 16.8323C244.792 17.015 244.785 17.1851 244.685 17.3428C244.584 17.4922 244.384 17.5379 244.086 17.4798ZM250.16 15.2387C250.003 15.2553 249.884 15.2345 249.803 15.1764C249.722 15.1183 249.666 14.9897 249.637 14.7905C249.572 14.334 249.447 13.894 249.261 13.4707C249.073 13.0391 248.817 12.6614 248.49 12.3377C248.172 12.0057 247.776 11.7692 247.302 11.6281C247.264 11.5866 247.247 11.5409 247.25 11.4911C247.261 11.4413 247.286 11.4039 247.326 11.379C247.897 11.4205 248.432 11.5824 248.929 11.8646C249.426 12.1468 249.836 12.512 250.158 12.9603C250.489 13.4085 250.679 13.9023 250.727 14.4419C250.738 14.6245 250.694 14.7988 250.594 14.9648C250.495 15.1308 250.35 15.2221 250.16 15.2387ZM255.442 18.924C255.1 18.924 254.778 18.841 254.477 18.675C254.176 18.509 253.927 18.2849 253.73 18.0027C253.533 17.7122 253.416 17.3968 253.381 17.0565C253.345 16.7161 253.396 16.409 253.534 16.1351C253.671 15.8529 253.873 15.6288 254.14 15.4628C254.406 15.2968 254.71 15.2138 255.052 15.2138C255.403 15.2138 255.725 15.2968 256.017 15.4628C256.319 15.6288 256.567 15.8529 256.764 16.1351C256.96 16.409 257.076 16.7161 257.111 17.0565C257.147 17.3968 257.097 17.7122 256.96 18.0027C256.823 18.2849 256.621 18.509 256.355 18.675C256.097 18.841 255.793 18.924 255.442 18.924ZM255.387 18.4011C255.754 18.4011 256.049 18.2683 256.272 18.0027C256.494 17.7371 256.586 17.4217 256.548 17.0565C256.51 16.6912 256.352 16.38 256.074 16.1227C255.797 15.8654 255.474 15.7367 255.107 15.7367C254.748 15.7367 254.453 15.8654 254.221 16.1227C253.998 16.38 253.906 16.6912 253.944 17.0565C253.982 17.4217 254.141 17.7371 254.419 18.0027C254.706 18.2683 255.028 18.4011 255.387 18.4011Z" fill="#161616"/>
</svg>
