<svg width="286" height="27" viewBox="0 0 286 27" fill="none" xmlns="http://www.w3.org/2000/svg">
<path d="M0 0H280L286 27H6L0 0Z" fill="white"/>
<path d="M23.3253 18.9116C23.2622 18.6294 23.1761 18.4053 23.0668 18.2393C22.9668 18.0815 22.8243 17.957 22.6395 17.8657C22.4537 17.7661 22.2058 17.6707 21.8958 17.5794C21.8252 17.4632 21.8419 17.3843 21.946 17.3428C22.0563 17.3594 22.2142 17.3926 22.4197 17.4424C22.6327 17.4839 22.8541 17.5254 23.0838 17.5669C23.321 17.6001 23.5314 17.6167 23.715 17.6167C24.1323 17.6167 24.4182 17.3594 24.5728 16.8448C24.7348 16.3219 24.8006 15.5583 24.7702 14.5539C24.7388 13.5413 24.646 12.3004 24.4916 10.8312H21.2617C21.1006 11.2047 20.9257 11.5658 20.737 11.9144C20.5475 12.2547 20.3465 12.566 20.1341 12.8482C20.0115 12.8731 19.9358 12.8274 19.9069 12.7112C20.093 12.3377 20.2554 11.8978 20.3941 11.3915C20.5412 10.8852 20.6545 10.3747 20.7339 9.86009C20.8125 9.33717 20.8471 8.87235 20.8378 8.46563C20.8339 8.34943 20.8243 8.25813 20.809 8.19172C20.802 8.12532 20.7917 8.06722 20.7781 8.01742C20.7562 7.96762 20.7564 7.93026 20.7789 7.90536C20.7921 7.87216 20.8288 7.86386 20.8889 7.88046C20.9917 7.90536 21.1333 7.94271 21.3138 7.99252C21.4943 8.04232 21.6753 8.09627 21.8566 8.15437C22.0371 8.20417 22.1755 8.24983 22.2716 8.29133C22.3494 8.31623 22.3843 8.37018 22.3763 8.45318C22.3767 8.53619 22.3351 8.57769 22.2517 8.57769C22.1524 8.58599 22.0753 8.60674 22.0203 8.63994C21.9645 8.66484 21.9219 8.73539 21.8924 8.8516C21.8359 9.10891 21.7679 9.37452 21.6882 9.64843C21.6085 9.92234 21.5158 10.1921 21.4102 10.4577H24.2645C24.3229 10.4577 24.3662 10.4328 24.3944 10.383C24.4467 10.3249 24.5019 10.2544 24.5599 10.1713C24.6263 10.0883 24.6852 10.0136 24.7367 9.94724C24.7864 9.86424 24.8652 9.86009 24.9732 9.93479C25.0527 9.97629 25.1557 10.0427 25.2821 10.134C25.4077 10.217 25.5295 10.3042 25.6476 10.3955C25.7732 10.4785 25.8678 10.5449 25.9314 10.5947C25.9775 10.6362 25.9994 10.686 25.9972 10.7441C26.0024 10.7939 25.9739 10.8395 25.9115 10.881C25.8556 10.9059 25.7998 10.9308 25.744 10.9557C25.6966 10.9806 25.6454 11.0097 25.5904 11.0429C25.5113 11.0844 25.4783 11.1674 25.4914 11.2919C25.6205 12.5203 25.7013 13.5662 25.7336 14.4294C25.7659 15.2926 25.7449 16.0065 25.6707 16.5709C25.5965 17.1353 25.4637 17.5794 25.2724 17.9031C25.0811 18.2268 24.8222 18.4634 24.4957 18.6128C24.1784 18.7705 23.7883 18.8701 23.3253 18.9116ZM18.0856 19.0859C17.902 19.0859 17.8019 19.007 17.7853 18.8493C17.781 18.8078 17.7716 18.6792 17.7573 18.4634C17.7438 18.2559 17.7242 17.9902 17.6986 17.6665C17.6812 17.3428 17.658 17.0025 17.6288 16.6456C17.5988 16.2804 17.5667 15.9359 17.5327 15.6122L17.3273 13.6575C17.1072 13.7073 16.8991 13.7529 16.7032 13.7944C16.5147 13.8276 16.355 13.8567 16.2241 13.8816C16.1174 13.8982 16.0495 13.9272 16.0204 13.9687C15.9905 14.0019 15.9887 14.0642 16.015 14.1555C16.0404 14.2385 16.0127 14.2925 15.9319 14.3174C15.851 14.3423 15.7946 14.3215 15.7626 14.2551C15.7222 14.1887 15.6571 14.0849 15.5671 13.9438C15.4847 13.7944 15.398 13.645 15.3072 13.4956C15.2247 13.3462 15.1578 13.2259 15.1065 13.1346C15.0754 13.0765 15.0752 13.035 15.1059 13.0101C15.1301 13.0018 15.176 13.0018 15.2436 13.0101C15.2863 13.0184 15.3414 13.0267 15.409 13.035C15.485 13.0433 15.5735 13.0516 15.6745 13.0599H16.6635C16.8276 12.7942 16.9969 12.4996 17.1715 12.1759C17.3453 11.8439 17.5024 11.5118 17.6427 11.1798C17.7914 10.8478 17.909 10.5366 17.9953 10.2461C18.0891 9.94724 18.1376 9.69408 18.1408 9.48657C18.1347 9.42847 18.147 9.38697 18.1778 9.36207C18.2011 9.34547 18.2432 9.34962 18.3043 9.37452C18.4004 9.41602 18.528 9.47827 18.687 9.56128C18.845 9.63598 19.004 9.71898 19.1638 9.81028C19.3228 9.89329 19.447 9.96384 19.5366 10.0219C19.6069 10.0551 19.6301 10.1174 19.6063 10.2087C19.5816 10.2917 19.5263 10.3208 19.4402 10.2959C19.3458 10.271 19.2619 10.2668 19.1885 10.2834C19.1226 10.2917 19.0652 10.3415 19.0164 10.4328C18.8467 10.7233 18.6494 11.0304 18.4247 11.3541C18.1991 11.6696 17.9685 11.9767 17.7328 12.2755C17.4963 12.566 17.2813 12.8233 17.0879 13.0474C17.4375 13.0391 17.7826 13.0267 18.123 13.0101C18.4718 12.9935 18.7747 12.9769 19.0317 12.9603C18.94 12.8025 18.8408 12.6531 18.7342 12.512C18.6267 12.3626 18.513 12.234 18.3932 12.1261C18.3625 11.9933 18.4098 11.9269 18.535 11.9269C18.7708 12.0265 19.0059 12.1593 19.2404 12.3253C19.4823 12.483 19.6967 12.6573 19.8837 12.8482C20.0698 13.0308 20.198 13.2176 20.2681 13.4085C20.3602 13.6492 20.369 13.8525 20.2947 14.0185C20.2203 14.1845 20.1265 14.2842 20.0131 14.3174C19.9072 14.3423 19.8104 14.334 19.7225 14.2925C19.6338 14.2427 19.5595 14.1306 19.4994 13.9563C19.4538 13.8401 19.4041 13.7239 19.3501 13.6077C19.3045 13.4915 19.2506 13.3753 19.1883 13.2591C19.0499 13.2923 18.8911 13.3296 18.7118 13.3711C18.54 13.4043 18.3604 13.4417 18.1728 13.4832L18.3965 15.6122C18.4445 16.0687 18.4967 16.5252 18.553 16.9818C18.6177 17.4383 18.6716 17.8325 18.7149 18.1645C18.7572 18.4883 18.7819 18.6833 18.7889 18.7497C18.7976 18.8327 18.7262 18.9074 18.5746 18.9738C18.4239 19.0485 18.2609 19.0859 18.0856 19.0859ZM16.6868 11.8522C16.5985 11.8854 16.5109 11.8854 16.4239 11.8522C16.337 11.819 16.2657 11.736 16.21 11.6032C16.0328 11.1881 15.8238 10.8271 15.5828 10.52C15.3503 10.2129 15.0799 9.94309 14.7717 9.71068C14.7419 9.58618 14.7846 9.51562 14.8997 9.49902C15.3436 9.67333 15.7447 9.87669 16.103 10.1091C16.2514 9.69408 16.3714 9.28737 16.463 8.88895C16.5538 8.48224 16.587 8.16267 16.5626 7.93026C16.5573 7.88046 16.5659 7.84311 16.5883 7.81821C16.6283 7.80161 16.6705 7.80576 16.7148 7.83066C16.8101 7.86386 16.941 7.91781 17.1074 7.99252C17.2738 8.06722 17.4407 8.14607 17.608 8.22908C17.7744 8.30378 17.902 8.36603 17.9907 8.41583C18.0609 8.44903 18.0842 8.51129 18.0604 8.60259C18.0349 8.67729 17.9795 8.70634 17.8943 8.68974C17.7915 8.66484 17.7118 8.66069 17.6551 8.67729C17.6068 8.69389 17.554 8.74784 17.4969 8.83915C17.3478 9.08816 17.1633 9.35792 16.9435 9.64843C16.7311 9.93064 16.546 10.1547 16.3882 10.3208C16.6178 10.52 16.7814 10.7275 16.8792 10.9433C16.9871 11.1757 17.0081 11.3749 16.9421 11.5409C16.8844 11.7069 16.7993 11.8107 16.6868 11.8522ZM15.6402 18.4509C15.591 18.4592 15.5438 18.4468 15.4986 18.4136C15.4543 18.3887 15.4257 18.3555 15.413 18.314C15.5129 18.0732 15.6017 17.7661 15.6792 17.3926C15.7643 17.0108 15.8314 16.6165 15.8804 16.2098C15.9295 15.8031 15.9528 15.4296 15.9504 15.0893C15.9518 15.0229 15.9453 14.9606 15.9308 14.9025C15.9163 14.8444 15.9028 14.7946 15.8901 14.7531C15.8883 14.7365 15.887 14.7241 15.8861 14.7158C15.8792 14.6494 15.879 14.6079 15.8856 14.5913C15.8904 14.5581 15.9313 14.5498 16.0081 14.5664C16.1026 14.5913 16.2233 14.6286 16.3704 14.6784C16.525 14.7199 16.6759 14.7656 16.823 14.8154C16.9701 14.8652 17.0872 14.9067 17.1741 14.9399C17.2444 14.9731 17.2713 15.0312 17.255 15.1142C17.2378 15.1889 17.1917 15.2262 17.1166 15.2262C17.0314 15.2096 16.9696 15.2179 16.9314 15.2511C16.9015 15.2843 16.8751 15.3507 16.8522 15.4503C16.7803 15.799 16.6773 16.1683 16.543 16.5584C16.4079 16.9403 16.2622 17.3013 16.106 17.6416C15.949 17.9736 15.7937 18.2434 15.6402 18.4509ZM23.1711 15.3009C23.0679 15.3507 22.9598 15.3549 22.8469 15.3134C22.7416 15.2636 22.6459 15.1474 22.5599 14.9648C22.3709 14.5166 22.1325 14.114 21.8446 13.7571C21.5558 13.3919 21.2143 13.0806 20.82 12.8233C20.7819 12.6988 20.8158 12.6241 20.9217 12.5992C21.2568 12.6905 21.5874 12.8191 21.9137 12.9852C22.2399 13.1512 22.5312 13.3421 22.7876 13.5579C23.044 13.7737 23.2307 14.0019 23.3478 14.2427C23.475 14.5 23.5153 14.7241 23.4686 14.915C23.4302 15.1059 23.3311 15.2345 23.1711 15.3009ZM20.3857 17.5047C20.2789 17.5213 20.1812 17.5047 20.0925 17.4549C20.0113 17.3968 19.9448 17.2806 19.8931 17.1063C19.7651 16.6829 19.6009 16.2721 19.4005 15.8737C19.2075 15.4669 18.9587 15.0851 18.6542 14.7282C18.6569 14.5954 18.7175 14.5373 18.8361 14.5539C19.1031 14.7116 19.3685 14.8942 19.6323 15.1017C19.8962 15.3092 20.1288 15.5375 20.3303 15.7865C20.5317 16.0355 20.669 16.3094 20.7421 16.6082C20.81 16.8572 20.8068 17.0648 20.7324 17.2308C20.6572 17.3885 20.5416 17.4798 20.3857 17.5047ZM33.4952 19.0734C33.3033 19.0734 33.199 18.9946 33.1824 18.8369C33.1781 18.7954 33.1692 18.6709 33.1557 18.4634C33.1422 18.2559 33.1231 17.9944 33.0983 17.679C33.0726 17.3553 33.0443 17.0067 33.0134 16.6331C32.9825 16.2596 32.9478 15.8903 32.9095 15.525L32.861 15.0644C32.4521 15.6205 31.9813 16.1434 31.4485 16.6331C30.9232 17.1146 30.376 17.5462 29.8069 17.928C29.2461 18.3098 28.703 18.6211 28.1774 18.8618C28.1265 18.8535 28.0863 18.8286 28.0569 18.7871C28.0275 18.7456 28.0144 18.6999 28.0175 18.6501C28.4868 18.3513 28.9692 17.9778 29.4646 17.5296C29.9591 17.0731 30.4354 16.5626 30.8935 15.9982C31.36 15.4337 31.7688 14.8361 32.1198 14.2053H30.2419L30.2812 14.5788C30.2899 14.6618 30.2151 14.7448 30.057 14.8278C29.9062 14.9025 29.7224 14.9399 29.5054 14.9399C29.3385 14.9399 29.2463 14.8569 29.2288 14.6909C29.221 14.6162 29.2086 14.4585 29.1916 14.2177C29.1821 13.9687 29.1624 13.6616 29.1323 13.2964C29.1098 12.9229 29.0762 12.5245 29.0317 12.1012C28.9899 11.7028 28.9468 11.4122 28.9026 11.2296C28.8658 11.0387 28.8163 10.8852 28.754 10.769C28.7312 10.7109 28.7348 10.6652 28.7647 10.632C28.8029 10.5988 28.8484 10.5947 28.9011 10.6196C29.0231 10.6694 29.2071 10.7524 29.453 10.8686C29.6981 10.9765 29.8954 11.0678 30.0452 11.1425H32.4488L32.3167 9.88499C31.9327 9.88499 31.5572 9.88499 31.19 9.88499C30.8311 9.88499 30.4926 9.88084 30.1746 9.87254C29.6571 9.87254 29.219 9.87254 28.8601 9.87254C28.5096 9.87254 28.2972 9.87669 28.2229 9.88499C28.2229 9.88499 28.1357 9.88914 27.9613 9.89744C27.7861 9.89744 27.5917 9.91404 27.3782 9.94724L27.2092 9.41187C27.4732 9.46167 27.6974 9.49072 27.8819 9.49902C28.0747 9.50732 28.1712 9.51147 28.1712 9.51147H32.2774L32.1832 8.61504C32.1509 8.30793 32.0953 8.09627 32.0163 7.98007C31.9869 7.93856 31.9825 7.89706 32.0032 7.85556C32.0331 7.82236 32.0735 7.80991 32.1245 7.81821C32.2255 7.82651 32.357 7.84726 32.5191 7.88046C32.6886 7.90536 32.8591 7.93856 33.0303 7.98007C33.2091 8.01327 33.3545 8.04647 33.4665 8.07967C33.5525 8.10457 33.5916 8.15852 33.5836 8.24153C33.584 8.32453 33.5433 8.37433 33.4616 8.39093C33.3707 8.39923 33.2852 8.41998 33.2053 8.45318C33.1336 8.48639 33.1044 8.56524 33.1175 8.68974L33.2038 9.51147H36.1458C36.2209 9.51147 36.2809 9.48657 36.3257 9.43677C36.3556 9.40357 36.4075 9.34132 36.4814 9.25001C36.5552 9.15871 36.6291 9.06741 36.703 8.9761C36.7852 8.8848 36.8333 8.8267 36.8474 8.8018C36.9146 8.72709 36.9972 8.71879 37.0951 8.7769C37.1838 8.8267 37.3002 8.9014 37.4442 9.001C37.5966 9.10061 37.7447 9.20021 37.8887 9.29982C38.0327 9.39942 38.1416 9.48242 38.2154 9.54883C38.2891 9.61523 38.3178 9.68993 38.3015 9.77293C38.2927 9.84764 38.2549 9.88499 38.1881 9.88499H33.2431L33.3752 11.1425H35.4784C35.5452 11.1425 35.5931 11.1217 35.6221 11.0802C35.6736 11.0138 35.7321 10.935 35.7976 10.8437C35.8714 10.7524 35.9345 10.6777 35.9868 10.6196C36.0374 10.5449 36.1204 10.5407 36.2359 10.6071C36.3062 10.6403 36.4083 10.6984 36.5422 10.7814C36.6761 10.8644 36.8146 10.9516 36.9577 11.0429C37.1009 11.1342 37.2089 11.2089 37.2818 11.267C37.3538 11.3168 37.3886 11.3707 37.3864 11.4288C37.3842 11.4869 37.3435 11.5367 37.2644 11.5783C37.2169 11.6032 37.1616 11.6322 37.0983 11.6654C37.0425 11.6903 36.9946 11.7111 36.9546 11.7277C36.8838 11.7692 36.8537 11.8397 36.8642 11.9393C36.8869 12.1551 36.9168 12.4 36.9539 12.6739C36.991 12.9478 37.0319 13.2176 37.0765 13.4832C37.1203 13.7405 37.1559 13.9604 37.1834 14.143C37.211 14.3257 37.2265 14.4336 37.23 14.4668C37.2396 14.5581 37.1657 14.6494 37.0084 14.7407C36.8502 14.8237 36.6584 14.8652 36.4331 14.8652C36.2578 14.8652 36.1623 14.7905 36.1466 14.6411L36.1008 14.2053H33.8849C34.4296 14.861 35.0171 15.4088 35.6476 15.8488C36.2864 16.2887 36.9248 16.6456 37.5629 16.9195C38.2001 17.1851 38.7969 17.3843 39.3533 17.5171C39.0967 17.6167 38.8666 17.7703 38.6631 17.9778C38.4679 18.1853 38.3336 18.3762 38.2601 18.5505C37.8043 18.343 37.2972 18.0442 36.7387 17.6541C36.1886 17.264 35.6473 16.7991 35.1149 16.2596C34.5816 15.7118 34.1182 15.1142 33.7246 14.4668L33.8372 15.5375C33.8738 15.8861 33.9151 16.2389 33.9609 16.5958C34.0068 16.9527 34.0459 17.2847 34.0781 17.5918C34.1179 17.8906 34.1528 18.1438 34.183 18.3513C34.2132 18.5588 34.2308 18.6875 34.2361 18.7373C34.2448 18.8203 34.1692 18.895 34.0093 18.9614C33.8502 19.0361 33.6788 19.0734 33.4952 19.0734ZM30.2013 13.8193H32.7302L32.4881 11.516H29.9592L30.2013 13.8193ZM33.6566 13.8193H36.0603L35.8182 11.516H33.4145L33.6566 13.8193ZM45.4698 11.3915C45.2194 11.3915 44.9978 11.3085 44.8051 11.1425C44.6199 10.9682 44.5142 10.7565 44.488 10.5075C44.4618 10.2585 44.5235 10.051 44.673 9.88499C44.8299 9.71068 45.0336 9.62353 45.284 9.62353C45.5343 9.62353 45.7521 9.71068 45.9374 9.88499C46.1301 10.051 46.2395 10.2585 46.2657 10.5075C46.2919 10.7565 46.2265 10.9682 46.0696 11.1425C45.9201 11.3085 45.7202 11.3915 45.4698 11.3915ZM46.1175 17.5545C45.8672 17.5545 45.6456 17.4715 45.4529 17.3055C45.2676 17.1312 45.1619 16.9195 45.1358 16.6705C45.1096 16.4215 45.1712 16.214 45.3207 16.048C45.4777 15.8737 45.6813 15.7865 45.9317 15.7865C46.1821 15.7865 46.3999 15.8737 46.5851 16.048C46.7779 16.214 46.8873 16.4215 46.9135 16.6705C46.9396 16.9195 46.8743 17.1312 46.7173 17.3055C46.5678 17.4715 46.3679 17.5545 46.1175 17.5545ZM57.5783 14.9897C57.4025 15.0644 57.2153 14.9897 57.0164 14.7656C56.7118 14.4087 56.3829 14.0974 56.0294 13.8318C55.6752 13.5579 55.2572 13.313 54.7754 13.0972C54.7535 13.0474 54.7483 12.9976 54.7597 12.9478C54.7795 12.898 54.8099 12.8689 54.8507 12.8606C55.2157 12.9188 55.5708 13.0018 55.916 13.1097C56.2603 13.2093 56.5738 13.3338 56.8566 13.4832C56.8953 13.3753 56.9402 13.2466 56.9913 13.0972C57.0499 12.9395 57.1005 12.7859 57.1432 12.6365C57.1934 12.4788 57.2216 12.3502 57.2278 12.2506C56.8439 12.2506 56.4725 12.2506 56.1136 12.2506C55.7631 12.2506 55.4376 12.2506 55.1371 12.2506C54.6447 12.2506 54.2399 12.2506 53.9228 12.2506C53.6056 12.2506 53.422 12.2506 53.372 12.2506C53.372 12.2506 53.2848 12.2547 53.1104 12.263C52.9351 12.263 52.7407 12.2796 52.5272 12.3128L52.3583 11.7775C52.6222 11.8273 52.8464 11.8563 53.0309 11.8646C53.2238 11.8729 53.3202 11.8771 53.3202 11.8771H57.5391L57.4305 10.8437C57.1634 10.8437 56.9047 10.8437 56.6543 10.8437C56.4039 10.8437 56.1702 10.8437 55.9532 10.8437C55.5944 10.8437 55.2939 10.8437 55.0519 10.8437C54.8098 10.8437 54.6554 10.8437 54.5887 10.8437C54.5887 10.8437 54.5015 10.8478 54.3271 10.8561C54.1518 10.8561 53.9574 10.8727 53.7439 10.9059L53.575 10.3706C53.8389 10.4204 54.0632 10.4494 54.2476 10.4577C54.4405 10.466 54.5369 10.4702 54.5369 10.4702H57.3912L57.2826 9.43677C56.9321 9.43677 56.5899 9.43677 56.2561 9.43677C55.9222 9.43677 55.6092 9.43677 55.3171 9.43677C54.8497 9.43677 54.4533 9.43677 54.1278 9.43677C53.8107 9.43677 53.6187 9.43677 53.5519 9.43677C53.5519 9.43677 53.4647 9.44092 53.2903 9.44922C53.1151 9.44922 52.9207 9.46582 52.7072 9.49902L52.5382 8.96365C52.8022 9.01346 53.0264 9.04251 53.2109 9.05081C53.4037 9.05911 53.5002 9.06326 53.5002 9.06326H57.2434L57.1989 8.63994C57.1631 8.29963 57.1112 8.08382 57.0432 7.99252C57.0046 7.94271 56.9998 7.89706 57.0288 7.85556C57.0503 7.82236 57.0908 7.80991 57.1501 7.81821C57.2427 7.82651 57.3743 7.84726 57.5447 7.88046C57.7234 7.91366 57.9022 7.94687 58.081 7.98007C58.2597 8.01327 58.3963 8.04232 58.4907 8.06722C58.5685 8.09212 58.6117 8.14607 58.6204 8.22908C58.6208 8.31208 58.5759 8.36188 58.4859 8.37848C58.3949 8.38678 58.3137 8.40753 58.242 8.44073C58.1695 8.46563 58.1394 8.53619 58.1516 8.65239L58.1948 9.06326H61.1493C61.2328 9.06326 61.2886 9.03836 61.3167 8.98855C61.3532 8.93875 61.4229 8.84745 61.5258 8.71464C61.6287 8.58184 61.6984 8.49054 61.7349 8.44073C61.7938 8.36603 61.868 8.35773 61.9576 8.41583C62.0287 8.45733 62.1233 8.52374 62.2414 8.61504C62.3586 8.69804 62.4726 8.78935 62.5832 8.88895C62.7013 8.98025 62.7884 9.05496 62.8446 9.11306C62.9192 9.18776 62.9521 9.26246 62.9433 9.33717C62.9336 9.40357 62.887 9.43677 62.8035 9.43677H58.2341L58.3427 10.4702H60.3958C60.4793 10.4702 60.5351 10.4453 60.5632 10.3955C60.5997 10.3457 60.6694 10.2544 60.7723 10.1215C60.8752 9.98874 60.9411 9.90159 60.9701 9.86009C61.0291 9.78538 61.1033 9.77708 61.1929 9.83519C61.264 9.87669 61.3544 9.94309 61.4642 10.0344C61.5814 10.1174 61.6953 10.2087 61.806 10.3083C61.9157 10.3996 61.9987 10.4743 62.0549 10.5324C62.1295 10.6071 62.1578 10.6777 62.1397 10.7441C62.13 10.8105 62.0876 10.8437 62.0125 10.8437H58.3819L58.4905 11.8771H61.7956C61.8957 11.8771 61.9636 11.848 61.9992 11.7899C62.0423 11.7235 62.1112 11.6239 62.2057 11.4911C62.2994 11.35 62.3644 11.2545 62.4009 11.2047C62.459 11.1217 62.5416 11.1134 62.6487 11.1798C62.7282 11.2213 62.832 11.296 62.9602 11.4039C63.0959 11.5035 63.2273 11.6032 63.3547 11.7028C63.482 11.8024 63.5737 11.8812 63.6299 11.9393C63.7036 12.0057 63.7319 12.0763 63.7147 12.151C63.705 12.2174 63.6668 12.2506 63.6 12.2506H58.2293C58.2812 12.2672 58.3593 12.2962 58.4638 12.3377C58.5684 12.3792 58.6298 12.4083 58.6483 12.4249C58.7286 12.4747 58.7598 12.5328 58.7417 12.5992C58.7245 12.6739 58.6742 12.7112 58.5907 12.7112C58.4379 12.6863 58.2929 12.7361 58.1558 12.8606C58.0111 12.9935 57.8511 13.1387 57.6758 13.2964C57.5078 13.4458 57.3465 13.5786 57.1918 13.6948C57.2638 13.7446 57.3321 13.7986 57.3966 13.8567C57.4612 13.9148 57.522 13.977 57.579 14.0434C57.7502 14.2427 57.8212 14.4419 57.792 14.6411C57.762 14.832 57.6908 14.9482 57.5783 14.9897ZM58.5096 19.0859C58.3176 19.0859 58.2134 19.007 58.1968 18.8493C58.1924 18.8078 58.184 18.6875 58.1714 18.4883C58.1588 18.2891 58.1423 18.0525 58.1218 17.7786C58.1005 17.4964 58.0792 17.2142 58.0579 16.932C58.0366 16.6497 58.0159 16.4132 57.9958 16.2223L57.9421 15.7118C57.2898 15.7782 56.6746 15.8405 56.0964 15.8986C55.5267 15.9567 55.0729 16.0065 54.735 16.048C54.5207 16.0729 54.4369 16.1891 54.4837 16.3966C54.5083 16.4713 54.4801 16.5211 54.3993 16.546C54.3268 16.5709 54.2704 16.5501 54.23 16.4837C54.1778 16.3841 54.1017 16.2555 54.0017 16.0978C53.91 15.9401 53.8141 15.7824 53.7141 15.6247C53.6215 15.4586 53.5496 15.33 53.4982 15.2387C53.4671 15.1806 53.4669 15.1391 53.4977 15.1142C53.5201 15.0893 53.5693 15.081 53.6453 15.0893C53.738 15.0976 53.8311 15.11 53.9246 15.1266C54.0265 15.1432 54.1317 15.1515 54.2402 15.1515C54.6426 15.1681 55.1855 15.1723 55.869 15.164C56.5525 15.1557 57.2648 15.1432 58.0058 15.1266C58.197 14.9606 58.3981 14.7697 58.6091 14.5539C58.8276 14.3298 59.0327 14.0974 59.2244 13.8567C59.4245 13.616 59.5878 13.3836 59.7145 13.1595C59.8486 12.9271 59.9274 12.7237 59.9508 12.5494C59.9623 12.4996 59.9759 12.4705 59.9917 12.4622C60.0243 12.4539 60.0669 12.4622 60.1195 12.4871C60.2074 12.5286 60.3312 12.595 60.491 12.6863C60.6508 12.7776 60.8065 12.8689 60.958 12.9603C61.1178 13.0516 61.2429 13.1304 61.3334 13.1968C61.4045 13.2383 61.4273 13.2964 61.4018 13.3711C61.3762 13.4458 61.3209 13.4749 61.2357 13.4583C61.1412 13.4334 61.0569 13.4251 60.9827 13.4334C60.9075 13.4334 60.8201 13.4749 60.7203 13.5579C60.4135 13.8152 60.0701 14.0808 59.6899 14.3547C59.3088 14.6203 58.9302 14.8693 58.5541 15.1017C59.1866 15.0851 59.7858 15.0685 60.3516 15.0519C60.9248 15.027 61.3984 15.0063 61.7722 14.9897C61.6071 14.8486 61.435 14.7199 61.2559 14.6037C61.0851 14.4875 60.9077 14.3879 60.7237 14.3049C60.7009 14.2468 60.6999 14.197 60.7205 14.1555C60.7404 14.1057 60.7707 14.0766 60.8115 14.0683C61.1774 14.1347 61.5342 14.2344 61.882 14.3672C62.2373 14.4917 62.5493 14.6411 62.818 14.8154C63.0942 14.9814 63.2983 15.1764 63.4303 15.4005C63.5523 15.6081 63.5932 15.799 63.5531 15.9733C63.5214 16.1476 63.4455 16.2596 63.3256 16.3094C63.1414 16.3841 62.9713 16.3136 62.8151 16.0978C62.6101 15.8156 62.3593 15.5333 62.0626 15.2511C61.7089 15.3009 61.2477 15.359 60.6788 15.4254C60.109 15.4835 59.5104 15.5458 58.8831 15.6122L58.9486 16.2347C58.9695 16.4339 58.9981 16.6663 59.0344 16.932C59.0706 17.1976 59.1069 17.4632 59.1431 17.7288C59.1785 17.9861 59.2104 18.2102 59.2388 18.4011C59.2673 18.592 59.2836 18.7082 59.288 18.7497C59.2967 18.8327 59.2086 18.9074 59.0236 18.9738C58.8479 19.0485 58.6765 19.0859 58.5096 19.0859ZM53.2266 19.0859C53.1036 19.0278 53.0657 18.9448 53.1128 18.8369C53.4524 18.6543 53.7853 18.4468 54.1114 18.2143C54.4459 17.9819 54.7461 17.7412 55.012 17.4922C55.2863 17.2432 55.5114 17.0025 55.6873 16.7701C55.8623 16.5294 55.9652 16.3177 55.9961 16.1351C56.0067 16.077 56.0282 16.0438 56.0608 16.0355C56.0849 16.0272 56.1234 16.0355 56.176 16.0604C56.2028 16.077 56.2698 16.1185 56.3769 16.1849C56.4832 16.243 56.5991 16.3136 56.7247 16.3966C56.8577 16.4713 56.9778 16.5418 57.0849 16.6082C57.2004 16.6746 57.272 16.7203 57.2996 16.7452C57.3448 16.7784 57.3692 16.8116 57.3727 16.8448C57.3753 16.8697 57.37 16.8988 57.3568 16.932C57.3212 16.9901 57.2654 17.015 57.1894 17.0067C57.0941 16.9735 57.0177 16.961 56.9601 16.9693C56.9026 16.9776 56.8202 17.0274 56.7129 17.1187C56.3921 17.4009 56.0319 17.6665 55.6324 17.9155C55.2413 18.1645 54.8392 18.3887 54.4261 18.5879C54.0131 18.7871 53.6132 18.9531 53.2266 19.0859ZM63.2375 18.6875C63.1417 18.729 63.042 18.7331 62.9383 18.6999C62.8347 18.6667 62.717 18.5796 62.5854 18.4385C62.1938 18.0483 61.7373 17.6748 61.2157 17.3179C60.6941 16.961 60.1804 16.6788 59.6745 16.4713C59.6214 16.3634 59.6465 16.2845 59.7498 16.2347C60.0471 16.2845 60.3633 16.3551 60.6984 16.4464C61.041 16.5294 61.377 16.629 61.7063 16.7452C62.0357 16.8614 62.3292 16.9942 62.587 17.1436C62.8522 17.2847 63.0561 17.4383 63.1987 17.6043C63.3892 17.8284 63.4749 18.0483 63.4559 18.2642C63.4461 18.4883 63.3733 18.6294 63.2375 18.6875ZM73.5437 19.0734C73.4288 18.7746 73.3084 18.5422 73.1824 18.3762C73.0648 18.2102 72.9015 18.0857 72.6925 18.0027C72.4909 17.9114 72.209 17.8491 71.8466 17.8159C71.7694 17.7163 71.7732 17.6333 71.858 17.5669C71.9164 17.5669 72.0379 17.5711 72.2224 17.5794C72.4143 17.5794 72.6276 17.5835 72.8621 17.5918C73.1051 17.6001 73.3308 17.6043 73.5395 17.6043C73.6647 17.6043 73.7455 17.5794 73.782 17.5296C73.8269 17.4798 73.844 17.4051 73.8336 17.3055L73.3677 12.8731C72.9506 13.8276 72.3894 14.6826 71.6843 15.4379C70.9866 16.1849 70.2399 16.7825 69.4441 17.2308C69.3145 17.1893 69.2649 17.1146 69.2953 17.0067C69.8724 16.5418 70.3977 15.9816 70.8713 15.3258C71.3532 14.6701 71.7645 13.977 72.105 13.2466C72.453 12.5079 72.7105 11.7816 72.8775 11.0678C72.7607 11.0678 72.6438 11.0678 72.527 11.0678C72.4185 11.0678 72.3141 11.0678 72.214 11.0678C72.0554 11.0678 71.9177 11.0678 71.8009 11.0678C71.684 11.0678 71.5964 11.0678 71.538 11.0678C71.538 11.0678 71.4591 11.0719 71.3014 11.0802C71.1428 11.0802 70.9572 11.101 70.7446 11.1425L70.5743 10.5947C70.8383 10.6445 71.0542 10.6735 71.222 10.6818C71.3981 10.6901 71.4862 10.6943 71.4862 10.6943H73.1387L72.9267 8.67729C72.8892 8.32038 72.8314 8.08797 72.7533 7.98007C72.723 7.93026 72.7182 7.88461 72.7389 7.84311C72.7688 7.80991 72.8092 7.79746 72.8601 7.80576C72.9612 7.81406 73.0969 7.83481 73.2673 7.86801C73.4377 7.90121 73.6086 7.93856 73.7798 7.98007C73.9503 8.01327 74.0868 8.04232 74.1896 8.06722C74.2673 8.09212 74.3106 8.14607 74.3193 8.22908C74.3214 8.32868 74.2766 8.37848 74.1848 8.37848C74.0938 8.38678 74.0126 8.40753 73.9409 8.44073C73.8693 8.47393 73.8396 8.54864 73.8518 8.66484L74.0651 10.6943H74.4156C74.4824 10.6943 74.5345 10.6735 74.5719 10.632C74.6009 10.5905 74.6448 10.5324 74.7038 10.4577C74.7618 10.3747 74.8198 10.2917 74.8779 10.2087C74.9359 10.1257 74.9757 10.0676 74.9973 10.0344C75.0637 9.95139 75.1463 9.94309 75.245 10.0095C75.3531 10.0842 75.4992 10.2045 75.6836 10.3706C75.8671 10.5283 76.0054 10.6528 76.0984 10.7441C76.1731 10.8188 76.2018 10.8935 76.1846 10.9682C76.1749 11.0346 76.1283 11.0678 76.0448 11.0678H74.1044L74.2863 12.7984C74.3438 13.3462 74.4047 13.8857 74.4689 14.417C74.5322 14.9399 74.5949 15.4171 74.6569 15.8488C74.719 16.2804 74.769 16.6373 74.807 16.9195C74.8442 17.1934 74.8654 17.3553 74.8706 17.4051C74.8976 17.6624 74.885 17.8989 74.8325 18.1147C74.7801 18.3306 74.6537 18.5173 74.4532 18.675C74.2537 18.841 73.9505 18.9738 73.5437 19.0734ZM68.1868 19.0859C68.0032 19.0859 67.9031 19.007 67.8865 18.8493C67.8848 18.8327 67.8754 18.7041 67.8585 18.4634C67.8424 18.231 67.8189 17.928 67.788 17.5545C67.7654 17.181 67.7389 16.7701 67.7085 16.3219C67.6781 15.8737 67.6431 15.4213 67.6034 14.9648C67.5638 14.5083 67.5235 14.0849 67.4825 13.6948L67.472 13.5952C67.2282 14.2925 66.9265 14.9565 66.5672 15.5873C66.207 16.2098 65.8101 16.7618 65.3767 17.2432C65.2515 17.2432 65.1828 17.1851 65.1706 17.0689C65.4622 16.5875 65.7362 16.0189 65.9928 15.3632C66.2569 14.6992 66.4836 13.9978 66.673 13.2591C66.8708 12.5203 67.0069 11.7899 67.0812 11.0678C66.9643 11.0678 66.8517 11.0678 66.7432 11.0678C66.643 11.0678 66.547 11.0678 66.4552 11.0678C66.2967 11.0678 66.1589 11.0678 66.0421 11.0678C65.9336 11.0678 65.8501 11.0678 65.7917 11.0678C65.7917 11.0678 65.7129 11.0719 65.5552 11.0802C65.3966 11.0802 65.211 11.101 64.9984 11.1425L64.8281 10.5947C65.0921 10.6445 65.3121 10.6735 65.4883 10.6818C65.6644 10.6901 65.7525 10.6943 65.7525 10.6943H67.1671L66.9499 8.62749C66.9159 8.30378 66.8607 8.09627 66.7843 8.00497C66.754 7.95517 66.7492 7.90951 66.7699 7.86801C66.7831 7.83481 66.8231 7.81821 66.8899 7.81821C66.9825 7.82651 67.1141 7.84726 67.2845 7.88046C67.4549 7.91366 67.6258 7.95102 67.797 7.99252C67.9675 8.02572 68.0999 8.05477 68.1943 8.07967C68.2804 8.10457 68.3194 8.15852 68.3115 8.24153C68.3118 8.32453 68.2712 8.37433 68.1895 8.39093C68.0985 8.39923 68.0131 8.41998 67.9331 8.45318C67.8615 8.48639 67.8318 8.56109 67.844 8.67729L68.056 10.6943H68.7821C68.8488 10.6943 68.9009 10.6735 68.9383 10.632C68.9748 10.5822 69.037 10.4992 69.1249 10.383C69.2129 10.2668 69.2788 10.1796 69.3228 10.1215C69.3892 10.0385 69.468 10.0344 69.5593 10.1091C69.6573 10.1672 69.7934 10.271 69.9676 10.4204C70.141 10.5615 70.2692 10.6694 70.3522 10.7441C70.4268 10.8188 70.4555 10.8935 70.4383 10.9682C70.4286 11.0346 70.382 11.0678 70.2986 11.0678H68.0952L68.2418 12.4622C68.4891 12.512 68.7477 12.5909 69.0178 12.6988C69.2953 12.7984 69.5588 12.9229 69.8082 13.0723C70.0576 13.2217 70.2637 13.396 70.4265 13.5952C70.617 13.8193 70.699 14.0434 70.6724 14.2676C70.6543 14.4917 70.574 14.6411 70.4316 14.7158C70.2501 14.8154 70.085 14.7531 69.9363 14.529C69.7235 14.1721 69.4729 13.8525 69.1845 13.5703C68.8961 13.2881 68.5945 13.0391 68.2797 12.8233L68.3713 13.6948C68.4272 14.2261 68.4856 14.7822 68.5467 15.3632C68.6152 15.9359 68.6757 16.4713 68.728 16.9693C68.7887 17.4673 68.8356 17.874 68.8688 18.1894C68.9112 18.5132 68.9341 18.6916 68.9376 18.7248C68.9472 18.8161 68.8724 18.8991 68.7134 18.9738C68.5626 19.0485 68.3871 19.0859 68.1868 19.0859ZM83.2169 18.2019C83.0896 18.1023 83.0699 17.9944 83.1579 17.8782C83.6908 17.7869 84.2 17.6292 84.6855 17.4051C85.1794 17.181 85.6121 16.8905 85.9835 16.5335C86.3633 16.1766 86.6485 15.7533 86.8391 15.2636C87.0288 14.7656 87.0909 14.2053 87.0255 13.5828C86.9408 12.7776 86.7136 12.0846 86.3437 11.5035C85.9822 10.9225 85.5136 10.4743 84.938 10.1589C84.3623 9.84349 83.7115 9.68578 82.9854 9.68578C83.0437 9.84349 83.0866 10.0136 83.1141 10.1962C83.1408 10.3706 83.1582 10.5366 83.1665 10.6943C83.2326 11.4828 83.204 12.2423 83.0804 12.9727C82.9653 13.7031 82.788 14.3589 82.5486 14.9399C82.3175 15.5209 82.058 15.9899 81.77 16.3468C81.4821 16.7037 81.2071 16.9071 80.9453 16.9569C80.7428 17.015 80.5258 17.015 80.2943 16.9569C80.0703 16.8904 79.8515 16.7535 79.6377 16.546C79.3761 16.2804 79.1334 15.9567 78.9097 15.5749C78.6859 15.193 78.5413 14.6909 78.4759 14.0683C78.4065 13.4873 78.4585 12.9105 78.632 12.3377C78.8139 11.765 79.0969 11.2421 79.4812 10.769C79.8738 10.2959 80.3557 9.91819 80.927 9.63598C81.4974 9.34547 82.1452 9.19606 82.8704 9.18776C83.5539 9.17946 84.1949 9.28321 84.7935 9.49902C85.4004 9.71483 85.9418 10.0219 86.4177 10.4204C86.8935 10.8188 87.2771 11.2919 87.5684 11.8397C87.868 12.3875 88.0527 12.9935 88.1225 13.6575C88.1975 14.3713 88.1177 15.0021 87.8832 15.5499C87.6487 16.0978 87.2969 16.5626 86.8279 16.9444C86.3581 17.3179 85.8132 17.6126 85.1932 17.8284C84.5724 18.0359 83.9136 18.1604 83.2169 18.2019ZM80.6609 15.799C80.8419 15.7741 81.0295 15.6537 81.2238 15.4379C81.4181 15.2221 81.6013 14.9399 81.7733 14.5913C81.9528 14.2344 82.1112 13.8359 82.2486 13.396C82.3851 12.9478 82.4819 12.4788 82.5389 11.9891C82.6034 11.4911 82.6145 11.0014 82.5723 10.52C82.5714 10.5117 82.5701 10.4992 82.5683 10.4826C82.5619 10.3415 82.5521 10.2087 82.539 10.0842C82.525 9.95139 82.5078 9.82689 82.4872 9.71068C81.8107 9.78538 81.2225 10.0261 80.7228 10.4328C80.2305 10.8312 79.8673 11.3458 79.6332 11.9767C79.399 12.6075 79.3262 13.3047 79.4148 14.0683C79.4943 14.666 79.65 15.1142 79.8817 15.413C80.1217 15.7118 80.3815 15.8405 80.6609 15.799ZM92.1206 19.061C92.0398 19.0859 91.975 19.0651 91.9263 18.9987C91.8758 18.9157 91.7914 18.7871 91.6729 18.6128C91.5553 18.4468 91.4368 18.2725 91.3175 18.0898C91.2056 17.8989 91.1148 17.7495 91.045 17.6416C91.0139 17.5835 91.0095 17.542 91.0319 17.5171C91.0544 17.4922 91.099 17.4798 91.1657 17.4798C91.1908 17.4798 91.2408 17.4798 91.316 17.4798C91.3669 17.4881 91.4258 17.4922 91.4925 17.4922C91.5676 17.4922 91.6469 17.4922 91.7304 17.4922C91.8872 17.4756 92.0566 17.459 92.2384 17.4424C92.4203 17.4258 92.6143 17.4051 92.8203 17.3802L92.1294 10.8063C92.0831 10.3664 92.0353 10.0302 91.9858 9.79783C91.9363 9.56543 91.8754 9.38282 91.803 9.25001C91.7728 9.20021 91.7763 9.15456 91.8137 9.11306C91.8436 9.07986 91.889 9.07571 91.9501 9.10061C92.0287 9.13381 92.1387 9.18776 92.2801 9.26246C92.4289 9.32887 92.5828 9.40357 92.7418 9.48657C92.8999 9.56128 93.0325 9.63183 93.1396 9.69823H94.8172L94.7112 8.68974C94.6911 8.49884 94.667 8.34943 94.639 8.24153C94.6101 8.12532 94.5805 8.04232 94.5502 7.99252C94.5116 7.94271 94.5027 7.89706 94.5233 7.85556C94.5532 7.82236 94.5936 7.80991 94.6446 7.81821C94.7456 7.82651 94.8855 7.84726 95.0643 7.88046C95.2514 7.91366 95.4389 7.95102 95.6269 7.99252C95.814 8.02572 95.9589 8.05477 96.0617 8.07967C96.1394 8.10457 96.1827 8.15852 96.1914 8.24153C96.1918 8.32453 96.1469 8.37433 96.0569 8.39093C95.9659 8.39923 95.8846 8.41998 95.813 8.45318C95.7405 8.47808 95.7104 8.54864 95.7226 8.66484L95.8312 9.69823H97.4587C97.5254 9.69823 97.5733 9.67748 97.6024 9.63598C97.638 9.57788 97.6848 9.50732 97.7429 9.42432C97.8 9.33302 97.8464 9.25831 97.8821 9.20021C97.9335 9.13381 98.0161 9.12551 98.1298 9.17531C98.2084 9.20851 98.3147 9.26661 98.4486 9.34962C98.5825 9.43262 98.7164 9.51562 98.8503 9.59863C98.9834 9.67333 99.0813 9.73143 99.1441 9.77293C99.2152 9.81444 99.2501 9.86839 99.2487 9.93479C99.2474 10.0012 99.2071 10.0551 99.128 10.0966C99.0072 10.1381 98.9039 10.1879 98.8182 10.2461C98.7791 10.271 98.753 10.3 98.7398 10.3332C98.7266 10.3664 98.7248 10.4287 98.7344 10.52C98.7954 11.101 98.8622 11.6571 98.9347 12.1883C99.0073 12.7195 99.0706 13.1636 99.1248 13.5205C99.179 13.8774 99.2088 14.0808 99.214 14.1306C99.2236 14.2219 99.1489 14.3049 98.9898 14.3796C98.8307 14.4543 98.6552 14.4917 98.4632 14.4917C98.2963 14.4917 98.2055 14.4211 98.1906 14.28L98.1566 13.9563H95.8907C96.0963 14.4045 96.3343 14.8029 96.6047 15.1515C96.8825 15.4918 97.1768 15.7907 97.4876 16.048C97.8031 15.8737 98.1156 15.6703 98.425 15.4379C98.7344 15.2055 99.0021 14.9731 99.228 14.7407C99.4623 14.5083 99.6083 14.3091 99.666 14.143C99.67 14.1015 99.692 14.0725 99.7319 14.0559C99.7719 14.0393 99.8108 14.0517 99.8485 14.0932C99.939 14.1596 100.058 14.2551 100.204 14.3796C100.359 14.5041 100.51 14.6286 100.657 14.7531C100.803 14.8776 100.909 14.9731 100.975 15.0395C101.039 15.0976 101.046 15.164 100.995 15.2387C100.952 15.2968 100.891 15.3134 100.813 15.2885C100.697 15.2221 100.606 15.1889 100.54 15.1889C100.473 15.1889 100.384 15.2138 100.272 15.2636C100.025 15.3798 99.7506 15.5043 99.4475 15.6371C99.1517 15.7616 98.8551 15.8778 98.5577 15.9857C98.2686 16.0936 98.0069 16.1849 97.7727 16.2596C98.3948 16.6995 99.0623 17.015 99.7751 17.2059C100.495 17.3885 101.188 17.5047 101.852 17.5545C101.583 17.6956 101.361 17.8865 101.186 18.1272C101.011 18.3596 100.899 18.5713 100.853 18.7622C100.388 18.6294 99.9009 18.4426 99.3915 18.2019C98.8905 17.9612 98.3946 17.6499 97.9038 17.2681C97.4213 16.8863 96.9723 16.4256 96.5567 15.8861C96.1402 15.3383 95.7889 14.695 95.5026 13.9563H93.4244L93.7725 17.2681C94.2087 17.21 94.645 17.1519 95.0812 17.0938C95.5258 17.0357 95.9286 16.9776 96.2897 16.9195C96.6583 16.8531 96.9489 16.7991 97.1616 16.7576C97.205 16.7742 97.2377 16.8074 97.2597 16.8572C97.2816 16.9071 97.2822 16.9527 97.2615 16.9942C97.0858 17.0689 96.8367 17.1602 96.5142 17.2681C96.1991 17.3677 95.8479 17.4798 95.4603 17.6043C95.0728 17.7288 94.6807 17.8491 94.2839 17.9653C93.8872 18.0815 93.5146 18.1894 93.1662 18.2891C92.8261 18.3887 92.5465 18.4675 92.3273 18.5256C92.2381 18.5505 92.1836 18.5879 92.1638 18.6377C92.1523 18.6875 92.161 18.7705 92.1899 18.8867C92.2154 18.9697 92.1922 19.0278 92.1206 19.061ZM93.3851 13.5828H98.1173L97.9485 11.9767H93.2163L93.3851 13.5828ZM93.1771 11.6032H97.9093L97.7483 10.0717H93.0161L93.1771 11.6032ZM108.243 18.3264C107.531 18.3015 106.948 18.1977 106.495 18.0151C106.041 17.8242 105.702 17.5752 105.478 17.2681C105.254 16.961 105.126 16.6207 105.095 16.2472C105.064 15.7907 105.187 15.413 105.464 15.1142C105.741 14.8071 106.114 14.583 106.583 14.4419C107.052 14.3008 107.551 14.2385 108.078 14.2551C108.404 14.2634 108.69 14.2842 108.936 14.3174C109.181 14.3423 109.396 14.3713 109.584 14.4045C109.77 14.4294 109.935 14.4502 110.078 14.4668C110.222 14.4834 110.36 14.4834 110.491 14.4668C110.813 14.4336 110.933 14.2634 110.851 13.9563C110.78 13.6824 110.637 13.4251 110.419 13.1844C110.209 12.9354 109.959 12.6946 109.667 12.4622C109.376 12.2298 109.073 12.0057 108.758 11.7899C108.41 11.8978 108.032 11.9933 107.624 12.0763C107.215 12.1593 106.791 12.2132 106.351 12.2381C105.987 12.263 105.666 12.2298 105.389 12.1385C105.112 12.0389 104.873 11.9103 104.673 11.7526C104.473 11.5949 104.309 11.4288 104.182 11.2545C104.055 11.0802 103.96 10.9267 103.896 10.7939C103.942 10.6777 104.022 10.6445 104.136 10.6943C104.324 10.9765 104.589 11.1923 104.93 11.3417C105.279 11.4828 105.706 11.5367 106.211 11.5035C106.551 11.4786 106.864 11.4413 107.151 11.3915C107.446 11.3417 107.72 11.2836 107.972 11.2172C107.635 10.9516 107.348 10.686 107.112 10.4204C106.875 10.1547 106.742 9.88084 106.712 9.59863C106.684 9.32472 106.748 9.10061 106.905 8.9263C107.069 8.74369 107.281 8.65239 107.539 8.65239C107.815 8.65239 108.013 8.7935 108.135 9.07571C108.176 9.15041 108.174 9.21266 108.129 9.26246C108.083 9.30397 108.011 9.33302 107.913 9.34962C107.846 9.34962 107.791 9.37867 107.747 9.43677C107.702 9.48657 107.684 9.55713 107.694 9.64843C107.721 9.90574 107.817 10.1464 107.983 10.3706C108.157 10.5947 108.367 10.8063 108.613 11.0055C108.822 10.9308 108.994 10.8561 109.128 10.7814C109.269 10.6984 109.378 10.6237 109.455 10.5573C109.53 10.4826 109.519 10.4204 109.422 10.3706C109.369 10.3374 109.303 10.3083 109.225 10.2834C109.148 10.2585 109.075 10.2378 109.006 10.2211C108.968 10.1796 108.951 10.134 108.954 10.0842C108.966 10.0344 108.991 9.99704 109.03 9.97214C109.217 10.0053 109.39 10.0219 109.549 10.0219C109.715 10.0219 109.909 9.99289 110.128 9.93479C110.259 9.90989 110.419 9.93064 110.61 9.99704C110.811 10.08 110.915 10.1962 110.922 10.3457C110.938 10.4951 110.87 10.6403 110.718 10.7814C110.573 10.9142 110.387 11.047 110.158 11.1798C109.93 11.3126 109.668 11.4371 109.371 11.5534C109.721 11.7858 110.072 12.0265 110.424 12.2755C110.775 12.5162 111.086 12.7776 111.358 13.0599C111.629 13.3421 111.813 13.6575 111.908 14.0061C112.009 14.3298 112.004 14.6411 111.893 14.9399C111.791 15.2387 111.589 15.4213 111.287 15.4877C111.116 15.5209 110.964 15.5126 110.834 15.4628C110.703 15.4047 110.573 15.3258 110.446 15.2262C110.264 15.0851 109.953 14.9772 109.511 14.9025C109.068 14.8195 108.608 14.7739 108.132 14.7656C107.738 14.749 107.371 14.7946 107.032 14.9025C106.692 15.0021 106.425 15.1598 106.23 15.3756C106.036 15.5915 105.952 15.8654 105.979 16.1974C106.008 16.5543 106.229 16.8282 106.641 17.0191C107.061 17.2017 107.564 17.3013 108.15 17.3179C108.426 17.3262 108.733 17.3096 109.071 17.2681C109.409 17.2266 109.679 17.181 109.883 17.1312C110.029 17.098 110.137 17.0897 110.206 17.1063C110.273 17.1146 110.361 17.1519 110.468 17.2183C110.744 17.3843 110.884 17.5669 110.888 17.7661C110.893 17.9653 110.772 18.0898 110.527 18.1396C110.249 18.1977 109.924 18.2434 109.552 18.2766C109.189 18.3181 108.753 18.3347 108.243 18.3264ZM121.447 18.5256C120.662 18.5256 120.008 18.4136 119.483 18.1894C118.967 17.9653 118.67 17.6001 118.592 17.0938C118.536 16.7203 118.62 16.4049 118.843 16.1476C119.065 15.882 119.359 15.6205 119.725 15.3632C119.857 15.2719 120.013 15.1681 120.193 15.0519C120.38 14.9274 120.579 14.7988 120.791 14.666C120.734 14.3672 120.655 14.0891 120.553 13.8318C120.458 13.5662 120.336 13.3545 120.185 13.1968C120.034 13.0308 119.842 12.9478 119.608 12.9478C119.316 12.9478 119.041 13.0308 118.783 13.1968C118.524 13.3545 118.296 13.562 118.098 13.8193C117.907 14.0683 117.746 14.3298 117.617 14.6037C117.502 14.861 117.374 14.998 117.234 15.0146C117.093 15.0229 116.951 14.9399 116.807 14.7656C116.643 14.5498 116.581 14.363 116.623 14.2053C116.674 14.0476 116.771 13.9023 116.916 13.7695C117.112 13.5786 117.321 13.3379 117.541 13.0474C117.769 12.7569 117.994 12.4373 118.216 12.0887C118.438 11.7401 118.643 11.3873 118.831 11.0304C118.698 11.0387 118.566 11.047 118.433 11.0553C118.299 11.0553 118.17 11.0553 118.045 11.0553C117.578 11.0553 117.231 10.9308 117.004 10.6818C116.785 10.4245 116.649 10.1174 116.594 9.76048C116.667 9.66088 116.754 9.64843 116.853 9.72313C116.93 9.98044 117.065 10.1464 117.256 10.2211C117.447 10.2876 117.68 10.3208 117.955 10.3208C118.138 10.3125 118.337 10.3042 118.553 10.2959C118.777 10.2793 118.996 10.2544 119.209 10.2211C119.264 10.1049 119.31 9.99289 119.349 9.88499C119.395 9.76878 119.43 9.66088 119.453 9.56128C119.542 9.29567 119.543 9.07156 119.457 8.88895C119.371 8.70634 119.208 8.57769 118.966 8.50299C118.928 8.46148 118.915 8.41583 118.927 8.36603C118.938 8.31623 118.959 8.27888 118.99 8.25398C119.183 8.26228 119.404 8.30378 119.654 8.37848C119.911 8.44488 120.12 8.52789 120.281 8.62749C120.433 8.71879 120.52 8.835 120.543 8.9761C120.565 9.10891 120.531 9.22096 120.441 9.31227C120.388 9.37037 120.333 9.44092 120.275 9.52392C120.217 9.60693 120.171 9.68163 120.136 9.74803C120.096 9.84764 120.045 9.95969 119.983 10.0842C120.105 10.051 120.219 10.0219 120.325 9.99704C120.43 9.96384 120.522 9.93064 120.602 9.89744C120.681 9.85594 120.763 9.83519 120.846 9.83519C120.938 9.83519 121.055 9.87669 121.197 9.95969C121.445 10.0925 121.572 10.2336 121.58 10.383C121.587 10.5324 121.486 10.6403 121.276 10.7067C121.114 10.7565 120.873 10.8063 120.553 10.8561C120.24 10.8976 119.898 10.9391 119.527 10.9806C119.339 11.3375 119.147 11.6986 118.952 12.0638C118.756 12.4207 118.587 12.7195 118.445 12.9603C118.599 12.8357 118.772 12.732 118.964 12.649C119.163 12.5577 119.379 12.512 119.613 12.512C120.013 12.512 120.346 12.6199 120.611 12.8357C120.884 13.0516 121.104 13.3213 121.272 13.645C121.372 13.2549 121.522 12.8939 121.721 12.5618C121.927 12.2215 122.178 11.9476 122.474 11.7401C122.777 11.5326 123.129 11.4288 123.53 11.4288C123.956 11.4288 124.301 11.4994 124.566 11.6405C124.831 11.7733 125.019 11.9352 125.131 12.1261C125.242 12.317 125.278 12.4996 125.238 12.6739C125.197 12.8399 125.085 12.9603 124.901 13.035C124.644 13.1346 124.333 13.2757 123.969 13.4583C123.611 13.6326 123.236 13.8318 122.842 14.0559C122.447 14.2717 122.062 14.4958 121.686 14.7282C121.762 15.0519 121.819 15.3632 121.859 15.662C121.907 15.9608 121.942 16.2098 121.963 16.409C121.984 16.6082 121.942 16.7659 121.837 16.8821C121.732 16.9901 121.608 17.044 121.466 17.044C121.182 17.044 121.024 16.8904 120.992 16.5833C120.989 16.5501 120.984 16.5086 120.979 16.4588C120.973 16.4007 120.97 16.3385 120.972 16.2721C120.957 16.131 120.945 15.9733 120.935 15.799C120.925 15.6247 120.905 15.4379 120.876 15.2387C120.72 15.3466 120.568 15.4503 120.42 15.5499C120.28 15.6413 120.151 15.7326 120.036 15.8239C119.812 15.9982 119.659 16.1683 119.576 16.3343C119.494 16.5003 119.472 16.6912 119.511 16.9071C119.567 17.1976 119.762 17.3885 120.097 17.4798C120.432 17.5711 120.879 17.6167 121.439 17.6167C121.831 17.6167 122.22 17.5877 122.606 17.5296C122.992 17.4715 123.291 17.4092 123.501 17.3428C123.613 17.3013 123.703 17.2847 123.771 17.293C123.838 17.293 123.927 17.3138 124.04 17.3553C124.416 17.513 124.618 17.6914 124.647 17.8906C124.676 18.0815 124.568 18.2102 124.325 18.2766C124.016 18.3596 123.597 18.4219 123.067 18.4634C122.546 18.5049 122.006 18.5256 121.447 18.5256ZM121.542 14.1928C121.926 13.9521 122.309 13.7114 122.693 13.4707C123.076 13.2217 123.415 12.9935 123.71 12.7859C123.982 12.595 124.096 12.4083 124.052 12.2257C124.007 12.0348 123.826 11.9393 123.508 11.9393C123.133 11.9393 122.811 12.0514 122.542 12.2755C122.274 12.4996 122.058 12.7859 121.894 13.1346C121.729 13.4749 121.612 13.8276 121.542 14.1928ZM131.406 18.8244C131.293 18.8659 131.181 18.8701 131.069 18.8369C130.958 18.812 130.853 18.7248 130.753 18.5754C130.438 18.1106 130.052 17.6582 129.597 17.2183C129.142 16.7784 128.665 16.4132 128.167 16.1227C128.128 16.0729 128.115 16.0231 128.126 15.9733C128.137 15.9152 128.171 15.882 128.229 15.8737C128.656 15.8903 129.089 15.9608 129.528 16.0853C129.974 16.2015 130.379 16.3634 130.743 16.5709C131.115 16.7701 131.399 17.0191 131.598 17.3179C131.745 17.5254 131.825 17.7329 131.838 17.9404C131.86 18.1479 131.829 18.3306 131.746 18.4883C131.671 18.646 131.557 18.758 131.406 18.8244ZM148.242 18.924C148.155 18.6584 148.053 18.4426 147.936 18.2766C147.819 18.1189 147.664 17.9902 147.47 17.8906C147.283 17.7827 147.034 17.679 146.723 17.5794C146.694 17.5379 146.685 17.4922 146.696 17.4424C146.708 17.3926 146.733 17.3594 146.773 17.3428C146.816 17.3511 146.863 17.3636 146.915 17.3802C146.966 17.3885 147.017 17.3968 147.068 17.4051C147.307 17.4549 147.562 17.5047 147.835 17.5545C148.115 17.6043 148.367 17.6126 148.589 17.5794C148.827 17.5462 149.028 17.43 149.19 17.2308C149.352 17.0233 149.471 16.6871 149.548 16.2223C149.624 15.7575 149.649 15.1183 149.621 14.3049C149.602 13.4832 149.53 12.4456 149.407 11.1923L149.229 9.49902H147.301L147.414 10.5698C147.553 11.8978 147.565 13.0391 147.448 13.9936C147.331 14.9482 147.078 15.7492 146.687 16.3966C146.296 17.044 145.758 17.5711 145.075 17.9778C144.399 18.3762 143.563 18.6833 142.568 18.8991C142.445 18.841 142.411 18.758 142.467 18.6501C143.434 18.3264 144.206 17.928 144.782 17.4549C145.367 16.9818 145.792 16.4173 146.056 15.7616C146.329 15.0976 146.482 14.3298 146.515 13.4583C146.556 12.5784 146.519 11.5824 146.402 10.4702L146.3 9.49902H144.509C144.509 9.49902 144.422 9.50317 144.248 9.51147C144.081 9.51147 143.891 9.52807 143.677 9.56128L143.507 9.01345C143.771 9.06326 143.995 9.09231 144.18 9.10061C144.372 9.10891 144.469 9.11306 144.469 9.11306H148.951C149.017 9.11306 149.069 9.09231 149.107 9.05081C149.158 8.9844 149.22 8.9014 149.293 8.8018C149.366 8.70219 149.429 8.62334 149.481 8.56524C149.518 8.51544 149.553 8.49054 149.586 8.49054C149.62 8.49054 149.667 8.50714 149.729 8.54034C149.791 8.57354 149.89 8.63994 150.026 8.73954C150.16 8.83085 150.296 8.93045 150.433 9.03836C150.577 9.13796 150.68 9.21266 150.744 9.26246C150.807 9.30397 150.837 9.35377 150.835 9.41187C150.833 9.46997 150.796 9.51977 150.725 9.56128C150.67 9.59448 150.607 9.62768 150.536 9.66088C150.471 9.68578 150.416 9.71483 150.369 9.74803C150.322 9.77293 150.288 9.80613 150.267 9.84764C150.255 9.88914 150.254 9.95554 150.263 10.0468L150.385 11.2047C150.527 12.6324 150.61 13.8276 150.636 14.7905C150.662 15.745 150.6 16.5086 150.452 17.0814C150.312 17.6541 150.06 18.0815 149.698 18.3638C149.343 18.646 148.858 18.8327 148.242 18.924ZM142.795 16.297C142.485 16.2887 142.255 16.2389 142.103 16.1476C141.951 16.048 141.863 15.8861 141.84 15.662L141.524 12.6614C141.369 12.6946 141.23 12.7237 141.108 12.7486C140.993 12.7652 140.915 12.7818 140.875 12.7984C140.875 12.7984 140.79 12.8191 140.619 12.8606C140.448 12.9022 140.27 12.9603 140.086 13.035L139.807 12.5245C140.074 12.5245 140.298 12.512 140.479 12.4871C140.659 12.4539 140.749 12.4373 140.749 12.4373L141.484 12.2755L141.15 9.10061C141.129 8.9014 141.105 8.74785 141.076 8.63994C141.048 8.53204 141.019 8.44903 140.988 8.39093C140.948 8.33283 140.943 8.28718 140.973 8.25398C140.987 8.22908 141.028 8.21663 141.095 8.21663C141.196 8.23323 141.329 8.26228 141.492 8.30378C141.662 8.33698 141.829 8.37433 141.992 8.41583C142.162 8.44903 142.299 8.47809 142.402 8.50299C142.479 8.52789 142.523 8.58184 142.531 8.66484C142.533 8.75615 142.487 8.8018 142.395 8.8018C142.313 8.8101 142.236 8.83085 142.164 8.86405C142.093 8.89725 142.064 8.98025 142.078 9.11306L142.39 12.0887L144.276 11.6903C144.351 11.682 144.401 11.6447 144.427 11.5783C144.462 11.5118 144.51 11.4081 144.57 11.267C144.638 11.1176 144.685 11.0138 144.713 10.9557C144.752 10.8561 144.829 10.8312 144.943 10.881C145.064 10.9225 145.231 11.0014 145.443 11.1176C145.656 11.2338 145.811 11.3251 145.91 11.3915C146.008 11.4496 146.057 11.5201 146.058 11.6032C146.057 11.6779 146.016 11.7235 145.934 11.7401L142.431 12.4747L142.703 15.0644C142.715 15.1806 142.749 15.2594 142.803 15.3009C142.865 15.3341 142.967 15.3549 143.11 15.3632C143.245 15.3715 143.403 15.3715 143.586 15.3632C143.768 15.3466 143.9 15.33 143.981 15.3134C144.079 15.2885 144.147 15.2594 144.185 15.2262C144.223 15.193 144.255 15.1349 144.279 15.0519C144.295 14.9606 144.314 14.8278 144.338 14.6535C144.368 14.4709 144.398 14.28 144.428 14.0808C144.456 13.8733 144.483 13.6907 144.508 13.533C144.532 13.367 144.545 13.2549 144.547 13.1968C144.585 13.1553 144.629 13.1387 144.68 13.147C144.731 13.1553 144.771 13.1802 144.8 13.2217C144.806 13.2715 144.812 13.3753 144.821 13.533C144.836 13.6824 144.854 13.8525 144.874 14.0434C144.894 14.2344 144.908 14.4045 144.915 14.5539C144.931 14.7033 144.941 14.7988 144.946 14.8403C144.955 14.9316 144.983 15.0021 145.03 15.0519C145.076 15.0934 145.138 15.1266 145.216 15.1515C145.336 15.1847 145.434 15.2345 145.507 15.3009C145.589 15.3673 145.635 15.4462 145.645 15.5375C145.689 15.8031 145.545 15.9816 145.213 16.0729C145.01 16.131 144.761 16.1808 144.465 16.2223C144.176 16.2555 143.883 16.2804 143.584 16.297C143.293 16.3053 143.03 16.3053 142.795 16.297ZM157.244 18.812C157.094 18.7373 157.046 18.6377 157.099 18.5132C157.505 18.3223 157.878 18.094 158.217 17.8284C158.564 17.5628 158.864 17.2391 159.116 16.8572C159.368 16.4754 159.557 16.0106 159.683 15.4628C159.818 14.915 159.87 14.2593 159.84 13.4956C159.819 12.7403 159.735 12.1385 159.587 11.6903C159.447 11.2338 159.259 10.9059 159.021 10.7067C158.783 10.5075 158.514 10.4121 158.214 10.4204C157.99 10.4287 157.782 10.5117 157.59 10.6694C157.397 10.8188 157.234 11.018 157.102 11.267C156.977 11.5077 156.887 11.7692 156.833 12.0514C156.78 12.3336 156.774 12.5992 156.817 12.8482C156.884 13.2466 156.962 13.5537 157.052 13.7695C157.14 13.977 157.236 14.1762 157.34 14.3672C157.431 14.5249 157.468 14.6784 157.451 14.8278C157.441 14.9689 157.358 15.0934 157.202 15.2013C156.898 15.4005 156.629 15.2677 156.397 14.8029C156.164 14.3381 155.999 13.8816 155.902 13.4334C155.812 12.9769 155.767 12.5411 155.765 12.1261C155.763 11.7111 155.781 11.3292 155.82 10.9806C155.865 10.6237 155.912 10.3125 155.959 10.0468C155.99 9.86424 156.015 9.70653 156.035 9.57373C156.053 9.43262 156.058 9.32057 156.049 9.23756C156.021 9.04666 155.972 8.89725 155.902 8.78935C155.832 8.68144 155.723 8.59429 155.574 8.52789C155.519 8.40338 155.545 8.32868 155.651 8.30378C155.921 8.32868 156.185 8.41998 156.443 8.57769C156.701 8.72709 156.85 8.95535 156.891 9.26246C156.911 9.37037 156.904 9.50317 156.87 9.66088C156.837 9.81859 156.792 9.99289 156.737 10.1838C156.672 10.4328 156.609 10.7067 156.548 11.0055C156.495 11.296 156.485 11.5907 156.516 11.8895C156.583 11.5741 156.693 11.267 156.845 10.9682C156.997 10.6694 157.188 10.4204 157.417 10.2211C157.646 10.0136 157.909 9.90159 158.208 9.88499C158.713 9.84349 159.167 9.95139 159.569 10.2087C159.979 10.4577 160.309 10.8561 160.559 11.4039C160.808 11.9518 160.944 12.649 160.966 13.4956C160.998 14.832 160.715 15.9442 160.115 16.8323C159.516 17.7205 158.559 18.3804 157.244 18.812ZM165.859 19.0734C165.753 19.0153 165.723 18.9323 165.77 18.8244C166.422 18.592 167.01 18.231 167.534 17.7412C168.059 17.2515 168.469 16.629 168.765 15.8737C169.069 15.11 169.208 14.2094 169.182 13.1719H167.843C167.843 13.1719 167.756 13.1761 167.581 13.1844C167.406 13.1844 167.22 13.201 167.023 13.2342L166.853 12.6863C167.108 12.7361 167.329 12.7652 167.513 12.7735C167.697 12.7818 167.79 12.7859 167.79 12.7859H172.585C172.66 12.7859 172.712 12.7652 172.741 12.7237C172.777 12.6739 172.829 12.6116 172.896 12.5369C172.964 12.4622 173.02 12.4 173.065 12.3502C173.116 12.2838 173.191 12.2796 173.289 12.3377C173.36 12.3792 173.454 12.4415 173.571 12.5245C173.697 12.6075 173.822 12.6905 173.948 12.7735C174.073 12.8565 174.168 12.9229 174.232 12.9727C174.304 13.0225 174.339 13.0806 174.338 13.147C174.345 13.2134 174.316 13.2591 174.252 13.284C174.188 13.3089 174.128 13.3338 174.072 13.3587C174.016 13.3836 173.968 13.4043 173.928 13.4209C173.848 13.4541 173.812 13.5454 173.819 13.6948C173.877 14.7241 173.88 15.5832 173.827 16.2721C173.774 16.9527 173.655 17.4922 173.472 17.8906C173.296 18.2891 173.052 18.5796 172.737 18.7622C172.431 18.9448 172.045 19.0485 171.58 19.0734C171.519 18.8078 171.434 18.5962 171.326 18.4385C171.226 18.2808 171.083 18.1521 170.897 18.0525C170.72 17.9529 170.476 17.8574 170.166 17.7661C170.112 17.6499 170.133 17.5711 170.229 17.5296C170.255 17.5379 170.298 17.5503 170.358 17.5669C170.554 17.6084 170.802 17.6624 171.101 17.7288C171.399 17.7869 171.673 17.8118 171.923 17.8035C172.362 17.7786 172.642 17.3843 172.762 16.6207C172.881 15.8488 172.89 14.6992 172.788 13.1719H170.259C170.29 14.2593 170.115 15.2138 169.734 16.0355C169.352 16.8489 168.825 17.513 168.153 18.0276C167.48 18.5339 166.715 18.8825 165.859 19.0734ZM175.662 13.3587C175.109 13.1014 174.566 12.7818 174.034 12.4C173.5 12.0099 173.019 11.5243 172.591 10.9433C172.163 10.3623 171.826 9.66088 171.581 8.83915H169.979C169.979 8.83915 169.904 8.8433 169.755 8.8516C169.605 8.8516 169.427 8.8682 169.222 8.9014L169.051 8.35358C169.308 8.41168 169.52 8.44488 169.688 8.45318C169.856 8.46148 169.94 8.46563 169.94 8.46563H171.116C171.183 8.46563 171.231 8.44073 171.259 8.39093C171.294 8.33283 171.348 8.24983 171.42 8.14192C171.5 8.02572 171.562 7.93856 171.606 7.88046C171.665 7.80576 171.743 7.79746 171.841 7.85556C171.912 7.89706 172.011 7.96762 172.139 8.06722C172.273 8.15852 172.409 8.25398 172.544 8.35358C172.68 8.45318 172.78 8.53204 172.845 8.59014C172.89 8.62334 172.911 8.66899 172.909 8.72709C172.915 8.7852 172.887 8.83085 172.823 8.86405C172.743 8.89725 172.652 8.93875 172.548 8.98855C172.444 9.03006 172.356 9.06741 172.285 9.10061C172.237 9.12551 172.207 9.15456 172.194 9.18776C172.18 9.21266 172.189 9.26246 172.222 9.33717C172.466 9.90989 172.826 10.3955 173.302 10.7939C173.777 11.1923 174.316 11.5118 174.917 11.7526C175.517 11.985 176.12 12.1551 176.723 12.263C176.459 12.3709 176.231 12.5369 176.037 12.761C175.851 12.9769 175.726 13.1761 175.662 13.3587ZM165.303 14.0185C165.176 14.0019 165.115 13.9397 165.12 13.8318C165.48 13.4417 165.804 12.9935 166.093 12.4871C166.381 11.9725 166.628 11.4579 166.832 10.9433C167.037 10.4287 167.183 9.95554 167.272 9.52392C167.368 9.09231 167.4 8.7603 167.367 8.52789C167.359 8.45318 167.363 8.40753 167.378 8.39093C167.409 8.36603 167.45 8.36603 167.503 8.39093C167.607 8.42413 167.759 8.48223 167.96 8.56524C168.16 8.64824 168.357 8.73124 168.549 8.81425C168.741 8.88895 168.876 8.94705 168.955 8.98855C169.027 9.03836 169.055 9.10476 169.039 9.18776C169.023 9.27076 168.968 9.30397 168.874 9.28737C168.772 9.27076 168.689 9.27491 168.625 9.29982C168.561 9.32472 168.506 9.39527 168.46 9.51147C168.153 10.4079 167.724 11.2504 167.173 12.0389C166.629 12.8191 166.006 13.479 165.303 14.0185ZM183.963 18.7248C183.902 18.7082 183.853 18.6709 183.813 18.6128C183.783 18.563 183.773 18.509 183.784 18.4509C184.229 18.1604 184.594 17.8201 184.878 17.43C185.163 17.0399 185.359 16.5667 185.468 16.0106C185.576 15.4545 185.589 14.7863 185.507 14.0061C185.474 13.6907 185.44 13.4043 185.404 13.147C185.368 12.8814 185.334 12.6365 185.302 12.4124C185.104 12.429 184.909 12.4456 184.719 12.4622C184.528 12.4705 184.336 12.4747 184.144 12.4747C183.685 12.4747 183.294 12.3668 182.971 12.151C182.647 11.9269 182.417 11.6032 182.281 11.1798C182.328 11.0719 182.404 11.047 182.511 11.1051C182.675 11.3956 182.894 11.5783 183.169 11.653C183.443 11.7194 183.713 11.7484 183.98 11.7401C184.38 11.7401 184.782 11.7152 185.186 11.6654C185.134 11.3251 185.087 10.9972 185.045 10.6818C185.011 10.3581 184.99 10.0012 184.983 9.61108C184.98 9.34547 184.917 9.18361 184.794 9.12551C184.749 9.09231 184.684 9.07571 184.601 9.07571C184.525 9.06741 184.458 9.06326 184.399 9.06326C184.298 8.97195 184.289 8.88895 184.373 8.81425C184.51 8.76445 184.687 8.73954 184.904 8.73954C185.129 8.73954 185.324 8.7686 185.489 8.8267C185.687 8.8848 185.852 8.98855 185.985 9.13796C186.117 9.28737 186.146 9.44092 186.071 9.59863C185.975 9.79783 185.932 10.0634 185.941 10.3955C185.96 10.7275 185.998 11.0927 186.057 11.4911C186.358 11.4164 186.595 11.3292 186.768 11.2296C186.823 11.1964 186.843 11.1549 186.83 11.1051C186.816 11.0553 186.778 11.0138 186.717 10.9806C186.663 10.9474 186.583 10.9018 186.477 10.8437C186.371 10.7856 186.277 10.7316 186.197 10.6818C186.159 10.5573 186.197 10.4868 186.312 10.4702C186.391 10.5034 186.492 10.549 186.615 10.6071C186.746 10.6652 186.881 10.7192 187.02 10.769C187.159 10.8188 187.27 10.8478 187.354 10.8561C187.523 10.8727 187.651 10.9018 187.739 10.9433C187.827 10.9848 187.9 11.0429 187.958 11.1176C188.089 11.2587 188.134 11.3998 188.09 11.5409C188.045 11.6737 187.919 11.7816 187.711 11.8646C187.47 11.9559 187.224 12.0389 186.973 12.1136C186.722 12.18 186.465 12.2381 186.203 12.2879C186.25 12.5784 186.298 12.8772 186.347 13.1844C186.404 13.4832 186.447 13.7778 186.478 14.0683C186.553 14.7822 186.534 15.3964 186.421 15.911C186.308 16.4256 186.124 16.8614 185.87 17.2183C185.624 17.5752 185.334 17.874 185 18.1147C184.667 18.3555 184.321 18.5588 183.963 18.7248ZM181.283 17.5296C181.197 17.5877 181.075 17.6126 180.915 17.6043C180.764 17.596 180.625 17.5462 180.499 17.4549C180.165 17.2142 179.884 16.8448 179.656 16.3468C179.429 15.8488 179.273 15.2013 179.189 14.4045C179.144 13.9729 179.135 13.5662 179.161 13.1844C179.196 12.8025 179.241 12.4373 179.297 12.0887C179.359 11.7318 179.406 11.379 179.436 11.0304C179.474 10.6818 179.474 10.3208 179.435 9.94724C179.416 9.77293 179.374 9.60693 179.307 9.44922C179.24 9.29152 179.168 9.15871 179.09 9.05081C179.084 8.9927 179.096 8.94705 179.126 8.91385C179.164 8.88065 179.208 8.8682 179.259 8.8765C179.533 9.01761 179.781 9.22926 180.002 9.51147C180.231 9.78538 180.362 10.0759 180.394 10.383C180.423 10.6569 180.405 10.9225 180.34 11.1798C180.275 11.4288 180.195 11.7028 180.101 12.0016C180.015 12.2921 179.946 12.6324 179.895 13.0225C179.844 13.4043 179.846 13.865 179.903 14.4045C179.965 14.9938 180.071 15.4088 180.222 15.6496C180.272 15.7326 180.321 15.7658 180.37 15.7492C180.427 15.7326 180.463 15.6869 180.481 15.6122C180.546 15.3632 180.617 15.081 180.692 14.7656C180.767 14.4502 180.843 14.1389 180.919 13.8318C181.003 13.5164 181.075 13.2508 181.136 13.035C181.249 12.9935 181.331 13.0225 181.383 13.1221C181.359 13.2881 181.327 13.4998 181.287 13.7571C181.247 14.0144 181.209 14.2842 181.172 14.5664C181.135 14.8486 181.105 15.1225 181.083 15.3881C181.06 15.6454 181.053 15.8612 181.063 16.0355C181.072 16.1932 181.094 16.3219 181.129 16.4215C181.173 16.5211 181.249 16.6539 181.359 16.8199C181.447 16.9444 181.478 17.0772 181.451 17.2183C181.431 17.3511 181.375 17.4549 181.283 17.5296ZM199.11 18.1272C198.275 18.2019 197.522 18.1396 196.85 17.9404C196.185 17.7329 195.643 17.3719 195.221 16.8572C194.808 16.3426 194.552 15.6496 194.452 14.778C194.375 14.1223 194.399 13.5247 194.526 12.9852C194.653 12.4456 194.853 11.9684 195.127 11.5534C195.408 11.13 195.725 10.7731 196.079 10.4826C195.521 10.5822 194.992 10.7067 194.49 10.8561C193.997 11.0055 193.491 11.1923 192.972 11.4164C192.82 11.4828 192.662 11.5617 192.496 11.653C192.329 11.736 192.175 11.7775 192.033 11.7775C191.767 11.7858 191.539 11.7194 191.349 11.5783C191.158 11.4288 191.001 11.2462 190.878 11.0304C190.763 10.8063 190.677 10.5864 190.621 10.3706C190.667 10.2544 190.748 10.2253 190.862 10.2834C191.034 10.5656 191.365 10.7026 191.857 10.6943C192.074 10.6943 192.367 10.6652 192.737 10.6071C193.105 10.5407 193.522 10.4577 193.987 10.3581C194.46 10.2502 194.957 10.1381 195.479 10.0219C196 9.89744 196.522 9.77708 197.044 9.66088C197.574 9.54468 198.077 9.44507 198.552 9.36207C198.576 9.35377 198.617 9.34547 198.675 9.33717C198.839 9.31227 198.988 9.29982 199.122 9.29982C199.254 9.29152 199.383 9.32887 199.509 9.41187C199.741 9.55298 199.899 9.70653 199.983 9.87254C200.067 10.0385 200.077 10.1755 200.014 10.2834C199.957 10.383 199.819 10.4204 199.6 10.3955C199.583 10.3955 199.562 10.3913 199.536 10.383C199.214 10.3415 198.869 10.3083 198.499 10.2834C198.137 10.2585 197.78 10.271 197.426 10.3208C197.081 10.3706 196.773 10.4951 196.501 10.6943C195.898 11.1425 195.52 11.7152 195.367 12.4124C195.215 13.1014 195.192 13.8816 195.301 14.7531C195.406 15.5998 195.755 16.2181 196.347 16.6082C196.939 16.9984 197.718 17.1436 198.684 17.044C198.775 17.0357 198.854 17.0357 198.921 17.044C198.997 17.0523 199.08 17.0855 199.17 17.1436C199.53 17.3926 199.686 17.6126 199.64 17.8035C199.601 17.9861 199.424 18.094 199.11 18.1272ZM199.469 13.9189C199.387 13.9272 199.306 13.9106 199.226 13.8691C199.146 13.8193 199.077 13.7239 199.021 13.5828C198.905 13.2757 198.757 12.9769 198.576 12.6863C198.394 12.3875 198.163 12.1261 197.88 11.902C197.866 11.8439 197.869 11.7982 197.891 11.765C197.92 11.7235 197.959 11.6986 198.008 11.6903C198.267 11.7733 198.518 11.8937 198.76 12.0514C199.002 12.2091 199.212 12.3875 199.392 12.5867C199.571 12.7859 199.689 12.9935 199.745 13.2093C199.808 13.4085 199.805 13.5745 199.735 13.7073C199.665 13.8318 199.576 13.9023 199.469 13.9189ZM200.852 13.0225C200.772 13.0474 200.688 13.0474 200.602 13.0225C200.516 12.9976 200.432 12.9188 200.352 12.7859C200.179 12.4954 199.976 12.2298 199.742 11.9891C199.517 11.7484 199.236 11.5367 198.899 11.3541C198.854 11.2379 198.883 11.1632 198.988 11.13C199.235 11.1715 199.493 11.2462 199.763 11.3541C200.033 11.462 200.277 11.5949 200.494 11.7526C200.719 11.9103 200.875 12.0846 200.962 12.2755C201.056 12.4581 201.082 12.6241 201.039 12.7735C201.004 12.9146 200.942 12.9976 200.852 13.0225ZM203.441 19.0734C203.389 19.0485 203.351 19.0112 203.329 18.9614C203.316 18.9116 203.32 18.8701 203.341 18.8369C204.038 18.6377 204.65 18.3472 205.178 17.9653C205.705 17.5835 206.102 17.0689 206.367 16.4215C206.641 15.7658 206.728 14.9316 206.63 13.9189H204.076C204.076 13.9189 203.989 13.9231 203.815 13.9314C203.639 13.9314 203.45 13.9521 203.245 13.9936L203.075 13.4458C203.339 13.4956 203.563 13.5247 203.748 13.533C203.941 13.5413 204.037 13.5454 204.037 13.5454H211.811C211.895 13.5454 211.955 13.5205 211.991 13.4707C212.021 13.4375 212.069 13.3794 212.136 13.2964C212.202 13.2134 212.269 13.1304 212.335 13.0474C212.4 12.9561 212.444 12.8939 212.466 12.8606C212.532 12.7776 212.614 12.7652 212.712 12.8233C212.792 12.8731 212.901 12.952 213.037 13.0599C213.181 13.1595 213.317 13.2632 213.446 13.3711C213.581 13.4707 213.677 13.5496 213.733 13.6077C213.807 13.6741 213.835 13.7446 213.818 13.8193C213.808 13.8857 213.77 13.9189 213.703 13.9189H209.96L210.335 17.4798C210.347 17.596 210.385 17.6831 210.45 17.7412C210.522 17.791 210.638 17.8242 210.798 17.8408C210.958 17.8491 211.171 17.8533 211.438 17.8533C211.713 17.8533 211.984 17.845 212.249 17.8284C212.522 17.8035 212.727 17.7744 212.866 17.7412C212.979 17.708 213.063 17.6707 213.117 17.6292C213.17 17.5794 213.208 17.5005 213.23 17.3926C213.254 17.3013 213.286 17.1685 213.326 16.9942C213.365 16.8116 213.403 16.6165 213.439 16.409C213.476 16.2015 213.506 16.0148 213.531 15.8488C213.563 15.6828 213.581 15.5707 213.583 15.5126C213.675 15.4379 213.764 15.4503 213.85 15.5499C213.848 15.6164 213.852 15.7326 213.861 15.8986C213.871 16.0646 213.881 16.2472 213.894 16.4464C213.906 16.6373 213.916 16.8116 213.924 16.9693C213.932 17.127 213.939 17.2308 213.944 17.2806C213.951 17.43 214.02 17.5254 214.149 17.5669C214.271 17.6084 214.373 17.6665 214.456 17.7412C214.538 17.8076 214.585 17.8989 214.597 18.0151C214.611 18.1479 214.577 18.2642 214.496 18.3638C214.415 18.4634 214.248 18.5464 213.997 18.6128C213.801 18.6626 213.543 18.7041 213.221 18.7373C212.907 18.7705 212.571 18.7912 212.213 18.7995C211.856 18.8161 211.511 18.8244 211.177 18.8244C210.851 18.8244 210.575 18.8161 210.348 18.7995C210.029 18.7829 209.796 18.7082 209.648 18.5754C209.502 18.4509 209.416 18.2725 209.392 18.04L208.959 13.9189H207.682C207.749 14.7988 207.686 15.5458 207.492 16.16C207.306 16.7742 207.012 17.2764 206.611 17.6665C206.218 18.0566 205.75 18.3638 205.206 18.5879C204.662 18.812 204.073 18.9738 203.441 19.0734ZM203.454 12.2879C203.232 12.3211 203.057 12.2796 202.928 12.1634C202.798 12.0389 202.733 11.8937 202.732 11.7277C202.739 11.5617 202.816 11.4205 202.963 11.3043C203.263 11.0636 203.487 10.7316 203.634 10.3083C203.79 9.88499 203.869 9.44507 203.871 8.98855C203.908 8.94705 203.948 8.92215 203.988 8.91385C204.038 8.90555 204.081 8.92215 204.119 8.96365C204.164 9.07156 204.2 9.18361 204.229 9.29982C204.266 9.40772 204.294 9.51977 204.315 9.63598H207.482L207.373 8.60259C207.34 8.28718 207.29 8.08382 207.222 7.99252C207.182 7.93441 207.177 7.88876 207.207 7.85556C207.229 7.82236 207.269 7.80991 207.329 7.81821C207.438 7.82651 207.582 7.84726 207.761 7.88046C207.948 7.91366 208.135 7.94687 208.322 7.98007C208.509 8.01327 208.654 8.04232 208.757 8.06722C208.835 8.09212 208.878 8.14607 208.887 8.22908C208.889 8.32868 208.844 8.37848 208.752 8.37848C208.661 8.38678 208.58 8.40753 208.508 8.44073C208.437 8.47393 208.407 8.54864 208.419 8.66484L208.521 9.63598H211.501C211.567 9.63598 211.619 9.61108 211.656 9.56128C211.693 9.51977 211.753 9.45752 211.836 9.37452C211.918 9.28321 211.982 9.21266 212.027 9.16286C212.094 9.08816 212.181 9.08401 212.288 9.15041C212.378 9.20851 212.5 9.29567 212.654 9.41187C212.815 9.51977 212.974 9.63598 213.129 9.76048C213.291 9.87669 213.414 9.97214 213.497 10.0468C213.58 10.1215 213.597 10.2087 213.549 10.3083C213.493 10.4079 213.396 10.4411 213.259 10.4079C213.157 10.383 213.068 10.3747 212.994 10.383C212.928 10.3913 212.839 10.4204 212.728 10.4702C212.608 10.5283 212.455 10.6154 212.267 10.7316C212.078 10.8395 211.898 10.9516 211.726 11.0678C211.555 11.184 211.427 11.2753 211.342 11.3417C211.217 11.3417 211.148 11.2836 211.136 11.1674C211.17 11.0927 211.216 10.9806 211.276 10.8312C211.335 10.6818 211.394 10.5283 211.453 10.3706C211.511 10.2128 211.553 10.0925 211.577 10.0095H204.379C204.426 10.3747 204.425 10.7233 204.376 11.0553C204.328 11.3873 204.228 11.6654 204.076 11.8895C203.932 12.1136 203.725 12.2464 203.454 12.2879ZM204.844 12.0514L204.661 11.5035C204.934 11.5534 205.162 11.5824 205.346 11.5907C205.531 11.599 205.623 11.6032 205.623 11.6032H209.504C209.579 11.6032 209.635 11.5824 209.673 11.5409C209.708 11.4828 209.773 11.3873 209.868 11.2545C209.971 11.1217 210.041 11.0304 210.077 10.9806C210.135 10.8976 210.21 10.8935 210.301 10.9682C210.372 11.0097 210.463 11.0761 210.572 11.1674C210.691 11.2587 210.804 11.35 210.914 11.4413C211.032 11.5326 211.119 11.6073 211.176 11.6654C211.25 11.7401 211.279 11.8148 211.262 11.8895C211.252 11.9559 211.205 11.9891 211.122 11.9891C211.072 11.9891 210.976 11.9891 210.834 11.9891C210.701 11.9891 210.538 11.9891 210.346 11.9891C210.053 11.9808 209.719 11.9767 209.343 11.9767C208.976 11.9767 208.592 11.9767 208.191 11.9767C207.798 11.9684 207.426 11.9642 207.076 11.9642C206.725 11.9642 206.425 11.9684 206.176 11.9767C205.925 11.9767 205.759 11.9808 205.676 11.9891C205.676 11.9891 205.589 11.9933 205.415 12.0016C205.239 12.0016 205.049 12.0182 204.844 12.0514ZM215.866 19.0112C215.731 18.9946 215.665 18.9282 215.67 18.812C216.049 18.3721 216.307 17.8408 216.441 17.2183C216.585 16.5958 216.64 15.8529 216.608 14.9897C216.584 14.1264 216.512 13.1304 216.394 12.0016C216.329 11.3873 216.267 10.9142 216.207 10.5822C216.146 10.2419 216.088 10.0053 216.032 9.87254C216.011 9.83104 216.011 9.78953 216.032 9.74803C216.07 9.71483 216.116 9.71068 216.168 9.73558C216.247 9.76878 216.357 9.82274 216.498 9.89744C216.647 9.96384 216.796 10.0344 216.946 10.1091C217.104 10.1838 217.232 10.2461 217.329 10.2959H220.872C220.845 10.1215 220.818 9.94309 220.79 9.76048C220.763 9.57788 220.735 9.39527 220.708 9.21266C220.663 8.86405 220.617 8.59014 220.571 8.39093C220.534 8.19172 220.49 8.05477 220.44 7.98007C220.41 7.93026 220.41 7.88876 220.44 7.85556C220.461 7.81406 220.497 7.80161 220.549 7.81821C220.658 7.82651 220.798 7.84726 220.968 7.88046C221.139 7.91366 221.309 7.94687 221.48 7.98007C221.658 8.01327 221.803 8.04232 221.914 8.06722C222 8.09212 222.039 8.14607 222.032 8.22908C222.032 8.31208 221.991 8.36188 221.91 8.37848C221.819 8.38678 221.741 8.40753 221.678 8.44073C221.614 8.46563 221.585 8.54449 221.59 8.67729C221.612 8.9595 221.633 9.23756 221.653 9.51147C221.681 9.77708 221.713 10.0385 221.748 10.2959H224.314C224.415 10.2959 224.479 10.271 224.507 10.2211C224.537 10.1879 224.585 10.1298 224.651 10.0468C224.717 9.95554 224.783 9.86839 224.849 9.78538C224.915 9.69408 224.959 9.63598 224.981 9.61108C225.047 9.52807 225.13 9.51977 225.229 9.58618C225.3 9.62768 225.404 9.70238 225.54 9.81028C225.676 9.90989 225.808 10.0136 225.936 10.1215C226.072 10.2212 226.163 10.2959 226.21 10.3457C226.275 10.4121 226.304 10.4826 226.295 10.5573C226.286 10.632 226.248 10.6694 226.181 10.6694H221.8C221.939 11.599 222.126 12.4207 222.359 13.1346C222.592 13.8401 222.853 14.4543 223.141 14.9772C223.347 14.5539 223.513 14.1098 223.64 13.645C223.766 13.1802 223.855 12.7569 223.907 12.3751C223.967 11.9933 223.983 11.7111 223.956 11.5284C223.949 11.462 223.961 11.4164 223.991 11.3915C224.022 11.3666 224.064 11.3666 224.117 11.3915C224.204 11.4247 224.343 11.4828 224.536 11.5658C224.727 11.6405 224.91 11.7152 225.085 11.7899C225.268 11.8646 225.378 11.9144 225.414 11.9393C225.492 11.9725 225.52 12.0348 225.496 12.1261C225.471 12.2091 225.412 12.2423 225.318 12.2257C225.089 12.1842 224.959 12.2589 224.929 12.4498C224.815 13.1138 224.658 13.728 224.459 14.2925C224.259 14.8486 224.004 15.3632 223.695 15.8363C223.955 16.1683 224.228 16.4588 224.513 16.7078C224.805 16.9486 225.098 17.1519 225.39 17.3179C225.541 17.4009 225.658 17.4424 225.742 17.4424C225.832 17.4341 225.914 17.3719 225.985 17.2557C226.027 17.181 226.077 17.0648 226.136 16.9071C226.203 16.7493 226.268 16.575 226.331 16.3841C226.395 16.1932 226.448 16.0231 226.491 15.8737C226.541 15.716 226.575 15.6081 226.594 15.5499C226.642 15.525 226.691 15.5209 226.743 15.5375C226.795 15.5541 226.831 15.5832 226.852 15.6247C226.844 15.6994 226.828 15.828 226.805 16.0106C226.782 16.1849 226.756 16.3758 226.728 16.5833C226.708 16.7908 226.686 16.9818 226.663 17.1561C226.647 17.3221 226.634 17.4383 226.624 17.5047C226.619 17.6126 226.624 17.6997 226.639 17.7661C226.655 17.8325 226.703 17.8989 226.786 17.9653C227.052 18.1977 227.126 18.4302 227.009 18.6626C226.948 18.7954 226.759 18.8618 226.442 18.8618C226.134 18.8701 225.775 18.7539 225.366 18.5132C224.992 18.2891 224.613 18.0234 224.231 17.7163C223.855 17.4009 223.493 17.015 223.145 16.5584C222.161 17.679 220.707 18.4966 218.783 19.0112C218.668 18.9448 218.638 18.8618 218.694 18.7622C219.569 18.4302 220.336 18.0234 220.995 17.542C221.661 17.0523 222.214 16.4796 222.655 15.8239C222.3 15.2345 221.975 14.5207 221.678 13.6824C221.382 12.844 221.134 11.8397 220.936 10.6694H217.23L217.455 12.8108H219.233C219.283 12.8108 219.327 12.7901 219.364 12.7486C219.401 12.6988 219.444 12.6324 219.494 12.5494C219.552 12.4664 219.606 12.3917 219.658 12.3253C219.708 12.2506 219.787 12.2464 219.894 12.3128C219.992 12.3709 220.14 12.4664 220.338 12.5992C220.535 12.732 220.688 12.8357 220.796 12.9105C220.86 12.9603 220.89 13.0142 220.888 13.0723C220.894 13.1304 220.861 13.1761 220.79 13.2093C220.75 13.2259 220.71 13.2466 220.671 13.2715C220.632 13.2964 220.593 13.3213 220.554 13.3462C220.466 13.3877 220.428 13.4624 220.44 13.5703L220.495 14.0932C220.581 14.915 220.581 15.5873 220.494 16.1102C220.406 16.6248 220.226 17.015 219.953 17.2806C219.688 17.5379 219.318 17.7039 218.841 17.7786C218.746 17.43 218.608 17.1893 218.427 17.0565C218.254 16.9154 217.974 16.795 217.588 16.6954C217.518 16.5792 217.534 16.4962 217.637 16.4464C217.782 16.4713 217.952 16.5003 218.147 16.5335C218.35 16.5584 218.593 16.5709 218.877 16.5709C219.194 16.5709 219.41 16.3592 219.524 15.9359C219.646 15.5126 219.657 14.8154 219.555 13.8442L219.485 13.1844H217.482C217.581 14.5207 217.512 15.6911 217.275 16.6954C217.046 17.6914 216.576 18.4634 215.866 19.0112ZM224.186 9.90989C224.09 9.95139 223.999 9.95554 223.912 9.92234C223.824 9.88084 223.726 9.78123 223.618 9.62353C223.456 9.35792 223.283 9.13796 223.098 8.96365C222.912 8.78105 222.673 8.61089 222.381 8.45318C222.349 8.39508 222.34 8.34113 222.351 8.29133C222.371 8.24153 222.41 8.21248 222.467 8.20417C222.89 8.26228 223.269 8.36603 223.601 8.51544C223.933 8.65654 224.16 8.8267 224.281 9.02591C224.402 9.22511 224.442 9.40772 224.401 9.57373C224.369 9.73973 224.297 9.85179 224.186 9.90989ZM233.434 18.3264C232.721 18.3015 232.139 18.1977 231.686 18.0151C231.232 17.8242 230.892 17.5752 230.668 17.2681C230.444 16.961 230.316 16.6207 230.286 16.2472C230.254 15.7907 230.377 15.413 230.655 15.1142C230.931 14.8071 231.304 14.583 231.773 14.4419C232.243 14.3008 232.741 14.2385 233.269 14.2551C233.595 14.2634 233.881 14.2842 234.126 14.3174C234.371 14.3423 234.587 14.3713 234.774 14.4045C234.96 14.4294 235.125 14.4502 235.269 14.4668C235.412 14.4834 235.55 14.4834 235.682 14.4668C236.004 14.4336 236.124 14.2634 236.041 13.9563C235.971 13.6824 235.827 13.4251 235.61 13.1844C235.4 12.9354 235.149 12.6946 234.858 12.4622C234.566 12.2298 234.263 12.0057 233.948 11.7899C233.601 11.8978 233.223 11.9933 232.814 12.0763C232.406 12.1593 231.981 12.2132 231.542 12.2381C231.177 12.263 230.856 12.2298 230.58 12.1385C230.302 12.0389 230.063 11.9103 229.863 11.7526C229.663 11.5949 229.5 11.4288 229.373 11.2545C229.246 11.0802 229.15 10.9267 229.086 10.7939C229.133 10.6777 229.213 10.6445 229.326 10.6943C229.515 10.9765 229.779 11.1923 230.12 11.3417C230.469 11.4828 230.896 11.5367 231.402 11.5035C231.741 11.4786 232.055 11.4413 232.342 11.3915C232.637 11.3417 232.91 11.2836 233.162 11.2172C232.825 10.9516 232.539 10.686 232.302 10.4204C232.066 10.1547 231.932 9.88084 231.903 9.59863C231.874 9.32472 231.938 9.10061 232.095 8.9263C232.259 8.74369 232.471 8.65239 232.73 8.65239C233.005 8.65239 233.204 8.7935 233.325 9.07571C233.366 9.15041 233.364 9.21266 233.32 9.26246C233.274 9.30397 233.202 9.33302 233.103 9.34962C233.037 9.34962 232.981 9.37867 232.937 9.43677C232.893 9.48657 232.875 9.55713 232.884 9.64843C232.912 9.90574 233.008 10.1464 233.173 10.3706C233.347 10.5947 233.557 10.8063 233.803 11.0055C234.012 10.9308 234.184 10.8561 234.318 10.7814C234.46 10.6984 234.569 10.6237 234.645 10.5573C234.721 10.4826 234.71 10.4204 234.613 10.3706C234.559 10.3374 234.494 10.3083 234.416 10.2834C234.338 10.2585 234.265 10.2378 234.197 10.2211C234.159 10.1796 234.142 10.134 234.145 10.0842C234.156 10.0344 234.181 9.99704 234.22 9.97214C234.408 10.0053 234.58 10.0219 234.739 10.0219C234.906 10.0219 235.099 9.99289 235.318 9.93479C235.449 9.90989 235.61 9.93064 235.801 9.99704C236.001 10.08 236.105 10.1962 236.113 10.3457C236.128 10.4951 236.06 10.6403 235.908 10.7814C235.763 10.9142 235.577 11.047 235.349 11.1798C235.121 11.3126 234.859 11.4371 234.562 11.5534C234.912 11.7858 235.263 12.0265 235.614 12.2755C235.965 12.5162 236.276 12.7776 236.548 13.0599C236.82 13.3421 237.003 13.6575 237.098 14.0061C237.199 14.3298 237.194 14.6411 237.084 14.9399C236.982 15.2387 236.78 15.4213 236.478 15.4877C236.306 15.5209 236.155 15.5126 236.024 15.4628C235.893 15.4047 235.764 15.3258 235.637 15.2262C235.455 15.0851 235.143 14.9772 234.701 14.9025C234.258 14.8195 233.799 14.7739 233.322 14.7656C232.928 14.749 232.562 14.7946 232.222 14.9025C231.882 15.0021 231.615 15.1598 231.421 15.3756C231.226 15.5915 231.143 15.8654 231.169 16.1974C231.198 16.5543 231.419 16.8282 231.831 17.0191C232.251 17.2017 232.754 17.3013 233.34 17.3179C233.616 17.3262 233.923 17.3096 234.261 17.2681C234.599 17.2266 234.87 17.181 235.073 17.1312C235.22 17.098 235.327 17.0897 235.396 17.1063C235.464 17.1146 235.551 17.1519 235.658 17.2183C235.934 17.3843 236.075 17.5669 236.079 17.7661C236.083 17.9653 235.963 18.0898 235.717 18.1396C235.44 18.1977 235.115 18.2434 234.743 18.2766C234.38 18.3181 233.944 18.3347 233.434 18.3264ZM246.722 18.0276C246.363 18.0193 246.026 17.9902 245.712 17.9404C245.397 17.8823 245.11 17.7744 244.851 17.6167C244.6 17.4507 244.391 17.2059 244.223 16.8821C244.055 16.5501 243.941 16.1061 243.883 15.5499C243.835 15.0934 243.787 14.6743 243.738 14.2925C243.698 13.9106 243.657 13.5579 243.615 13.2342C243.582 13.2425 243.542 13.2549 243.493 13.2715C243.453 13.2881 243.413 13.3047 243.373 13.3213C243.172 13.3877 242.993 13.4749 242.838 13.5828C242.681 13.6824 242.524 13.7737 242.366 13.8567C242.215 13.9314 242.035 13.9687 241.826 13.9687C241.584 13.9687 241.372 13.894 241.189 13.7446C241.006 13.5869 240.857 13.4043 240.744 13.1968C240.639 12.9893 240.568 12.7984 240.533 12.6241C240.562 12.5826 240.602 12.5577 240.651 12.5494C240.699 12.5328 240.742 12.5411 240.779 12.5743C240.87 12.732 240.985 12.8357 241.124 12.8856C241.263 12.9354 241.428 12.9603 241.62 12.9603C241.695 12.9603 241.863 12.9312 242.124 12.8731C242.393 12.8067 242.682 12.7361 242.991 12.6614C243.08 12.6365 243.166 12.6158 243.247 12.5992C243.337 12.5743 243.43 12.5494 243.528 12.5245C243.411 11.653 243.305 11.0429 243.21 10.6943C243.15 10.437 243.057 10.2751 242.934 10.2087C242.826 10.1423 242.714 10.1008 242.595 10.0842C242.557 10.0427 242.536 9.99704 242.531 9.94724C242.534 9.89744 242.555 9.86009 242.594 9.83519C242.758 9.81028 242.938 9.81028 243.132 9.83519C243.327 9.86009 243.493 9.89744 243.632 9.94724C243.849 10.0219 244.037 10.1423 244.196 10.3083C244.363 10.466 244.4 10.6237 244.308 10.7814C244.239 10.9142 244.206 11.1217 244.211 11.4039C244.223 11.6779 244.248 11.9974 244.287 12.3626C244.712 12.2796 245.175 12.1966 245.675 12.1136C246.176 12.0306 246.694 11.9601 247.23 11.902C247.212 11.57 247.186 11.2379 247.151 10.9059C247.115 10.5656 247.081 10.2461 247.05 9.94724C247.035 9.80613 247.003 9.69823 246.953 9.62353C246.912 9.54882 246.856 9.49487 246.786 9.46167C246.679 9.39527 246.566 9.35377 246.447 9.33717C246.354 9.23756 246.353 9.15456 246.446 9.08816C246.602 9.06326 246.773 9.06326 246.96 9.08816C247.153 9.10476 247.324 9.13796 247.471 9.18776C247.653 9.25416 247.809 9.34962 247.939 9.47412C248.068 9.59033 248.086 9.72313 247.993 9.87254C247.966 9.93064 247.941 10.0053 247.917 10.0966C247.893 10.1879 247.888 10.3 247.902 10.4328C247.925 10.6486 247.948 10.8727 247.973 11.1051C247.997 11.3375 248.018 11.5741 248.035 11.8148C248.192 11.7982 248.349 11.7858 248.507 11.7775C248.664 11.7609 248.821 11.7484 248.978 11.7401C249.069 11.7318 249.121 11.7069 249.133 11.6654C249.153 11.6156 249.121 11.5492 249.037 11.4662C249 11.4247 248.926 11.3583 248.816 11.267C248.714 11.1674 248.608 11.0719 248.498 10.9806C248.387 10.881 248.313 10.8105 248.275 10.769C248.262 10.7192 248.27 10.6777 248.3 10.6445C248.329 10.603 248.369 10.5822 248.419 10.5822C248.517 10.6403 248.668 10.7358 248.874 10.8686C249.088 10.9931 249.309 11.1176 249.54 11.2421C249.777 11.3583 249.969 11.4371 250.115 11.4786C250.252 11.5118 250.379 11.5617 250.494 11.6281C250.61 11.6945 250.716 11.7899 250.812 11.9144C250.974 12.1053 251.016 12.2713 250.94 12.4124C250.87 12.5452 250.691 12.5909 250.403 12.5494C250.013 12.4913 249.621 12.4539 249.227 12.4373C248.841 12.4207 248.461 12.4166 248.086 12.4249C248.112 12.981 248.1 13.5039 248.051 13.9936C248.002 14.4751 247.871 14.861 247.659 15.1515C247.572 15.2677 247.461 15.3673 247.328 15.4503C247.203 15.5333 247.057 15.5749 246.89 15.5749C246.465 15.5832 246.236 15.4296 246.203 15.1142C246.188 14.9648 246.127 14.7822 246.021 14.5664C245.914 14.3423 245.8 14.1306 245.678 13.9314C245.565 13.7239 245.483 13.5786 245.432 13.4956C245.462 13.3794 245.533 13.3421 245.646 13.3836C245.723 13.4832 245.839 13.6367 245.995 13.8442C246.158 14.0517 246.309 14.2177 246.448 14.3423C246.55 14.4419 246.643 14.4917 246.726 14.4917C246.826 14.4834 246.92 14.4294 247.01 14.3298C247.136 14.1804 247.215 13.9397 247.247 13.6077C247.279 13.2757 247.285 12.898 247.265 12.4747C246.736 12.5162 246.226 12.5867 245.735 12.6863C245.244 12.7776 244.784 12.8856 244.355 13.0101L244.613 15.4628C244.662 15.9359 244.762 16.2928 244.913 16.5335C245.072 16.7742 245.293 16.9361 245.577 17.0191C245.861 17.0938 246.223 17.1312 246.666 17.1312C247.016 17.1312 247.384 17.098 247.769 17.0316C248.162 16.9569 248.5 16.878 248.784 16.795C248.977 16.7286 249.181 16.7618 249.395 16.8946C249.682 17.0855 249.835 17.2681 249.853 17.4424C249.871 17.6084 249.749 17.7205 249.488 17.7786C249.129 17.8616 248.707 17.928 248.219 17.9778C247.731 18.0193 247.232 18.0359 246.722 18.0276ZM259.291 18.2642C258.566 18.2725 258.01 18.1396 257.622 17.8657C257.233 17.5835 257.044 17.2142 257.055 16.7576C257.065 16.4588 257.186 16.2181 257.417 16.0355C257.657 15.8529 257.971 15.7824 258.359 15.8239C258.805 15.8571 259.175 16.0065 259.47 16.2721C259.773 16.5294 259.998 16.8863 260.146 17.3428C260.54 17.2017 260.857 16.9652 261.098 16.6331C261.338 16.2928 261.425 15.8571 261.361 15.3258C261.293 14.7614 261.07 14.3008 260.69 13.9438C260.31 13.5869 259.812 13.4126 259.195 13.4209C258.754 13.4292 258.356 13.533 258.001 13.7322C257.647 13.9314 257.328 14.1928 257.045 14.5166C256.762 14.8403 256.511 15.193 256.292 15.5749C256.073 15.9484 255.882 16.3177 255.72 16.6829C255.632 16.8738 255.501 16.9776 255.327 16.9942C255.153 17.0025 255.011 16.9278 254.903 16.7701C254.782 16.5709 254.727 16.3675 254.739 16.16C254.759 15.9525 254.836 15.7782 254.972 15.6371C255.159 15.4379 255.371 15.1847 255.605 14.8776C255.848 14.5622 256.099 14.2177 256.361 13.8442C256.629 13.4624 256.889 13.0765 257.14 12.6863C257.399 12.2879 257.639 11.9103 257.86 11.5534C258.08 11.1881 258.272 10.8686 258.435 10.5947C258.598 10.3208 258.714 10.1132 258.783 9.97214C258.866 9.80613 258.886 9.68578 258.845 9.61108C258.804 9.53637 258.714 9.51977 258.577 9.56128C258.138 9.66918 257.696 9.91404 257.252 10.2959C257.121 10.4038 257.007 10.5075 256.909 10.6071C256.819 10.6984 256.678 10.7482 256.487 10.7565C256.32 10.7565 256.158 10.686 256.001 10.5449C255.853 10.4038 255.719 10.2419 255.6 10.0593C255.488 9.86839 255.405 9.71483 255.351 9.59863C255.38 9.47412 255.45 9.42847 255.562 9.46167C255.692 9.58618 255.814 9.67333 255.927 9.72313C256.049 9.76463 256.201 9.78123 256.383 9.77293C256.524 9.76463 256.714 9.70653 256.953 9.59863C257.201 9.49072 257.476 9.36622 257.778 9.22511C258.089 9.08401 258.406 8.96365 258.729 8.86405C258.964 8.79765 259.149 8.7686 259.283 8.7769C259.417 8.7769 259.555 8.8184 259.697 8.9014C260.061 9.10891 260.262 9.31227 260.299 9.51147C260.337 9.71068 260.226 9.88499 259.966 10.0344C259.848 10.1008 259.692 10.2461 259.499 10.4702C259.314 10.6943 259.108 10.9599 258.881 11.267C258.663 11.5741 258.441 11.8854 258.216 12.2008C257.999 12.5162 257.8 12.8067 257.619 13.0723C257.447 13.3379 257.313 13.5371 257.219 13.6699C257.463 13.4541 257.757 13.2715 258.1 13.1221C258.443 12.9727 258.794 12.8939 259.152 12.8856C259.768 12.8689 260.312 12.9686 260.786 13.1844C261.258 13.3919 261.639 13.6824 261.929 14.0559C262.217 14.4211 262.391 14.8403 262.449 15.3134C262.531 15.9359 262.445 16.4671 262.191 16.9071C261.945 17.347 261.571 17.6831 261.07 17.9155C260.568 18.1396 259.975 18.2559 259.291 18.2642ZM259.224 17.5047H259.287C259.228 17.264 259.131 17.0565 258.996 16.8821C258.86 16.6995 258.668 16.5833 258.421 16.5335C258.038 16.4671 257.827 16.5626 257.787 16.8199C257.78 16.9112 257.812 17.015 257.883 17.1312C257.961 17.2391 258.104 17.3304 258.312 17.4051C258.529 17.4798 258.833 17.513 259.224 17.5047ZM267.961 18.924C267.619 18.924 267.297 18.841 266.996 18.675C266.695 18.509 266.446 18.2849 266.249 18.0027C266.052 17.7122 265.935 17.3968 265.9 17.0565C265.864 16.7161 265.915 16.409 266.053 16.1351C266.19 15.8529 266.392 15.6288 266.659 15.4628C266.925 15.2968 267.229 15.2138 267.571 15.2138C267.922 15.2138 268.244 15.2968 268.536 15.4628C268.838 15.6288 269.087 15.8529 269.283 16.1351C269.479 16.409 269.595 16.7161 269.63 17.0565C269.666 17.3968 269.616 17.7122 269.479 18.0027C269.342 18.2849 269.14 18.509 268.874 18.675C268.616 18.841 268.312 18.924 267.961 18.924ZM267.906 18.4011C268.274 18.4011 268.568 18.2683 268.791 18.0027C269.013 17.7371 269.105 17.4217 269.067 17.0565C269.029 16.6912 268.871 16.38 268.593 16.1227C268.316 15.8654 267.994 15.7367 267.626 15.7367C267.267 15.7367 266.972 15.8654 266.74 16.1227C266.517 16.38 266.425 16.6912 266.463 17.0565C266.501 17.4217 266.66 17.7371 266.938 18.0027C267.225 18.2683 267.547 18.4011 267.906 18.4011Z" fill="#161616"/>
</svg>
