<svg width="301" height="27" viewBox="0 0 301 27" fill="none" xmlns="http://www.w3.org/2000/svg">
<path d="M0 0H295L301 27H6L0 0Z" fill="white"/>
<path d="M23.3263 18.9116C23.2632 18.6294 23.1771 18.4053 23.0678 18.2393C22.9678 18.0815 22.8253 17.957 22.6405 17.8657C22.4547 17.7661 22.2068 17.6707 21.8968 17.5794C21.8261 17.4632 21.8429 17.3843 21.947 17.3428C22.0573 17.3594 22.2152 17.3926 22.4207 17.4424C22.6337 17.4839 22.8551 17.5254 23.0848 17.5669C23.322 17.6001 23.5323 17.6167 23.716 17.6167C24.1333 17.6167 24.4192 17.3594 24.5738 16.8448C24.7358 16.3219 24.8016 15.5583 24.7711 14.5539C24.7398 13.5413 24.647 12.3004 24.4925 10.8312H21.2626C21.1016 11.2047 20.9267 11.5658 20.738 11.9144C20.5484 12.2547 20.3475 12.566 20.1351 12.8482C20.0125 12.8731 19.9368 12.8274 19.9079 12.7112C20.0939 12.3377 20.2564 11.8978 20.3951 11.3915C20.5422 10.8852 20.6555 10.3747 20.7349 9.86009C20.8135 9.33717 20.8481 8.87235 20.8387 8.46563C20.8349 8.34943 20.8253 8.25813 20.8099 8.19172C20.803 8.12532 20.7927 8.06722 20.7791 8.01742C20.7572 7.96762 20.7574 7.93026 20.7798 7.90536C20.793 7.87216 20.8297 7.86386 20.8899 7.88046C20.9927 7.90536 21.1343 7.94271 21.3148 7.99252C21.4953 8.04232 21.6762 8.09627 21.8576 8.15437C22.0381 8.20417 22.1764 8.24983 22.2726 8.29133C22.3503 8.31623 22.3852 8.37018 22.3773 8.45318C22.3776 8.53619 22.3361 8.57769 22.2526 8.57769C22.1534 8.58599 22.0763 8.60674 22.0213 8.63994C21.9655 8.66484 21.9229 8.73539 21.8933 8.8516C21.8369 9.10891 21.7689 9.37452 21.6891 9.64843C21.6094 9.92234 21.5168 10.1921 21.4112 10.4577H24.2655C24.3239 10.4577 24.3672 10.4328 24.3954 10.383C24.4477 10.3249 24.5029 10.2544 24.5609 10.1713C24.6273 10.0883 24.6862 10.0136 24.7376 9.94724C24.7873 9.86424 24.8662 9.86009 24.9742 9.93479C25.0537 9.97629 25.1566 10.0427 25.2831 10.134C25.4086 10.217 25.5305 10.3042 25.6486 10.3955C25.7741 10.4785 25.8687 10.5449 25.9324 10.5947C25.9785 10.6362 26.0004 10.686 25.9982 10.7441C26.0034 10.7939 25.9748 10.8395 25.9124 10.881C25.8566 10.9059 25.8008 10.9308 25.745 10.9557C25.6976 10.9806 25.6464 11.0097 25.5914 11.0429C25.5123 11.0844 25.4793 11.1674 25.4924 11.2919C25.6215 12.5203 25.7022 13.5662 25.7345 14.4294C25.7668 15.2926 25.7459 16.0065 25.6717 16.5709C25.5975 17.1353 25.4647 17.5794 25.2734 17.9031C25.0821 18.2268 24.8232 18.4634 24.4967 18.6128C24.1794 18.7705 23.7893 18.8701 23.3263 18.9116ZM18.0866 19.0859C17.903 19.0859 17.8029 19.007 17.7863 18.8493C17.7819 18.8078 17.7726 18.6792 17.7582 18.4634C17.7448 18.2559 17.7252 17.9902 17.6995 17.6665C17.6822 17.3428 17.659 17.0025 17.6298 16.6456C17.5997 16.2804 17.5677 15.9359 17.5337 15.6122L17.3282 13.6575C17.1081 13.7073 16.9001 13.7529 16.7042 13.7944C16.5157 13.8276 16.356 13.8567 16.2251 13.8816C16.1183 13.8982 16.0504 13.9272 16.0214 13.9687C15.9915 14.0019 15.9897 14.0642 16.016 14.1555C16.0414 14.2385 16.0137 14.2925 15.9329 14.3174C15.852 14.3423 15.7956 14.3215 15.7636 14.2551C15.7232 14.1887 15.6581 14.0849 15.5681 13.9438C15.4856 13.7944 15.399 13.645 15.3082 13.4956C15.2257 13.3462 15.1588 13.2259 15.1075 13.1346C15.0763 13.0765 15.0761 13.035 15.1069 13.0101C15.1311 13.0018 15.177 13.0018 15.2446 13.0101C15.2872 13.0184 15.3424 13.0267 15.41 13.035C15.486 13.0433 15.5745 13.0516 15.6755 13.0599H16.6645C16.8286 12.7942 16.9979 12.4996 17.1725 12.1759C17.3463 11.8439 17.5033 11.5118 17.6437 11.1798C17.7924 10.8478 17.9099 10.5366 17.9962 10.2461C18.09 9.94724 18.1385 9.69408 18.1418 9.48657C18.1357 9.42847 18.148 9.38697 18.1788 9.36207C18.202 9.34547 18.2442 9.34962 18.3053 9.37452C18.4014 9.41602 18.529 9.47827 18.6879 9.56128C18.846 9.63598 19.005 9.71898 19.1648 9.81028C19.3237 9.89329 19.448 9.96384 19.5376 10.0219C19.6078 10.0551 19.6311 10.1174 19.6073 10.2087C19.5826 10.2917 19.5272 10.3208 19.4412 10.2959C19.3467 10.271 19.2629 10.2668 19.1895 10.2834C19.1236 10.2917 19.0662 10.3415 19.0174 10.4328C18.8476 10.7233 18.6504 11.0304 18.4257 11.3541C18.2001 11.6696 17.9695 11.9767 17.7338 12.2755C17.4973 12.566 17.2823 12.8233 17.0889 13.0474C17.4385 13.0391 17.7836 13.0267 18.124 13.0101C18.4728 12.9935 18.7757 12.9769 19.0327 12.9603C18.941 12.8025 18.8418 12.6531 18.7352 12.512C18.6277 12.3626 18.514 12.234 18.3941 12.1261C18.3635 11.9933 18.4108 11.9269 18.536 11.9269C18.7718 12.0265 19.0069 12.1593 19.2413 12.3253C19.4833 12.483 19.6977 12.6573 19.8847 12.8482C20.0708 13.0308 20.1989 13.2176 20.2691 13.4085C20.3612 13.6492 20.37 13.8525 20.2956 14.0185C20.2213 14.1845 20.1274 14.2842 20.0141 14.3174C19.9082 14.3423 19.8113 14.334 19.7235 14.2925C19.6348 14.2427 19.5605 14.1306 19.5004 13.9563C19.4548 13.8401 19.405 13.7239 19.3511 13.6077C19.3055 13.4915 19.2516 13.3753 19.1893 13.2591C19.0509 13.2923 18.892 13.3296 18.7128 13.3711C18.541 13.4043 18.3613 13.4417 18.1737 13.4832L18.3975 15.6122C18.4455 16.0687 18.4976 16.5252 18.554 16.9818C18.6186 17.4383 18.6726 17.8325 18.7158 18.1645C18.7582 18.4883 18.7829 18.6833 18.7899 18.7497C18.7986 18.8327 18.7272 18.9074 18.5756 18.9738C18.4248 19.0485 18.2618 19.0859 18.0866 19.0859ZM16.6878 11.8522C16.5995 11.8854 16.5119 11.8854 16.4249 11.8522C16.338 11.819 16.2666 11.736 16.211 11.6032C16.0338 11.1881 15.8248 10.8271 15.5838 10.52C15.3512 10.2129 15.0808 9.94309 14.7727 9.71068C14.7429 9.58618 14.7855 9.51562 14.9006 9.49902C15.3446 9.67333 15.7457 9.87669 16.104 10.1091C16.2523 9.69408 16.3723 9.28737 16.464 8.88895C16.5548 8.48224 16.588 8.16267 16.5635 7.93026C16.5583 7.88046 16.5669 7.84311 16.5893 7.81821C16.6293 7.80161 16.6715 7.80576 16.7158 7.83066C16.8111 7.86386 16.942 7.91781 17.1084 7.99252C17.2748 8.06722 17.4417 8.14607 17.609 8.22908C17.7754 8.30378 17.903 8.36603 17.9917 8.41583C18.0619 8.44903 18.0852 8.51129 18.0614 8.60259C18.0358 8.67729 17.9805 8.70634 17.8953 8.68974C17.7925 8.66484 17.7128 8.66069 17.6561 8.67729C17.6078 8.69389 17.555 8.74784 17.4978 8.83915C17.3487 9.08816 17.1643 9.35792 16.9444 9.64843C16.7321 9.93064 16.547 10.1547 16.3891 10.3208C16.6187 10.52 16.7824 10.7275 16.8802 10.9433C16.9881 11.1757 17.009 11.3749 16.943 11.5409C16.8854 11.7069 16.8003 11.8107 16.6878 11.8522ZM15.6412 18.4509C15.592 18.4592 15.5448 18.4468 15.4996 18.4136C15.4552 18.3887 15.4267 18.3555 15.414 18.314C15.5139 18.0732 15.6026 17.7661 15.6802 17.3926C15.7653 17.0108 15.8323 16.6165 15.8814 16.2098C15.9305 15.8031 15.9538 15.4296 15.9514 15.0893C15.9528 15.0229 15.9462 14.9606 15.9318 14.9025C15.9173 14.8444 15.9037 14.7946 15.891 14.7531C15.8893 14.7365 15.888 14.7241 15.8871 14.7158C15.8801 14.6494 15.8799 14.6079 15.8865 14.5913C15.8914 14.5581 15.9323 14.5498 16.0091 14.5664C16.1035 14.5913 16.2243 14.6286 16.3714 14.6784C16.526 14.7199 16.6769 14.7656 16.824 14.8154C16.9711 14.8652 17.0881 14.9067 17.1751 14.9399C17.2453 14.9731 17.2723 15.0312 17.256 15.1142C17.2388 15.1889 17.1927 15.2262 17.1176 15.2262C17.0323 15.2096 16.9706 15.2179 16.9324 15.2511C16.9025 15.2843 16.8761 15.3507 16.8532 15.4503C16.7813 15.799 16.6782 16.1683 16.544 16.5584C16.4088 16.9403 16.2632 17.3013 16.107 17.6416C15.9499 17.9736 15.7947 18.2434 15.6412 18.4509ZM23.1721 15.3009C23.0688 15.3507 22.9608 15.3549 22.8479 15.3134C22.7425 15.2636 22.6469 15.1474 22.5609 14.9648C22.3719 14.5166 22.1335 14.114 21.8456 13.7571C21.5568 13.3919 21.2153 13.0806 20.821 12.8233C20.7829 12.6988 20.8168 12.6241 20.9226 12.5992C21.2577 12.6905 21.5884 12.8191 21.9147 12.9852C22.2409 13.1512 22.5322 13.3421 22.7886 13.5579C23.045 13.7737 23.2317 14.0019 23.3488 14.2427C23.476 14.5 23.5163 14.7241 23.4696 14.915C23.4312 15.1059 23.332 15.2345 23.1721 15.3009ZM20.3866 17.5047C20.2799 17.5213 20.1822 17.5047 20.0935 17.4549C20.0122 17.3968 19.9458 17.2806 19.8941 17.1063C19.7661 16.6829 19.6019 16.2721 19.4015 15.8737C19.2085 15.4669 18.9597 15.0851 18.6551 14.7282C18.6579 14.5954 18.7185 14.5373 18.8371 14.5539C19.1041 14.7116 19.3695 14.8942 19.6333 15.1017C19.8972 15.3092 20.1298 15.5375 20.3312 15.7865C20.5327 16.0355 20.67 16.3094 20.7431 16.6082C20.811 16.8572 20.8078 17.0648 20.7334 17.2308C20.6582 17.3885 20.5426 17.4798 20.3866 17.5047ZM33.4962 19.0734C33.3043 19.0734 33.2 18.9946 33.1834 18.8369C33.179 18.7954 33.1701 18.6709 33.1567 18.4634C33.1432 18.2559 33.1241 17.9944 33.0993 17.679C33.0736 17.3553 33.0453 17.0067 33.0144 16.6331C32.9835 16.2596 32.9488 15.8903 32.9104 15.525L32.862 15.0644C32.4531 15.6205 31.9823 16.1434 31.4495 16.6331C30.9242 17.1146 30.377 17.5462 29.8079 17.928C29.2471 18.3098 28.7039 18.6211 28.1784 18.8618C28.1275 18.8535 28.0873 18.8286 28.0579 18.7871C28.0285 18.7456 28.0153 18.6999 28.0185 18.6501C28.4878 18.3513 28.9702 17.9778 29.4656 17.5296C29.9601 17.0731 30.4364 16.5626 30.8945 15.9982C31.361 15.4337 31.7697 14.8361 32.1207 14.2053H30.2429L30.2821 14.5788C30.2909 14.6618 30.2161 14.7448 30.0579 14.8278C29.9072 14.9025 29.7233 14.9399 29.5063 14.9399C29.3394 14.9399 29.2472 14.8569 29.2298 14.6909C29.2219 14.6162 29.2095 14.4585 29.1926 14.2177C29.1831 13.9687 29.1633 13.6616 29.1333 13.2964C29.1107 12.9229 29.0772 12.5245 29.0327 12.1012C28.9908 11.7028 28.9478 11.4122 28.9036 11.2296C28.8668 11.0387 28.8173 10.8852 28.755 10.769C28.7322 10.7109 28.7357 10.6652 28.7656 10.632C28.8039 10.5988 28.8493 10.5947 28.902 10.6196C29.0241 10.6694 29.2081 10.7524 29.454 10.8686C29.699 10.9765 29.8964 11.0678 30.0462 11.1425H32.4498L32.3176 9.88499C31.9337 9.88499 31.5582 9.88499 31.1909 9.88499C30.8321 9.88499 30.4936 9.88084 30.1756 9.87254C29.6581 9.87254 29.22 9.87254 28.8611 9.87254C28.5105 9.87254 28.2982 9.87669 28.2239 9.88499C28.2239 9.88499 28.1367 9.88914 27.9623 9.89744C27.7871 9.89744 27.5927 9.91404 27.3792 9.94724L27.2102 9.41187C27.4742 9.46167 27.6984 9.49072 27.8829 9.49902C28.0757 9.50732 28.1721 9.51147 28.1721 9.51147H32.2784L32.1842 8.61504C32.1519 8.30793 32.0963 8.09627 32.0173 7.98007C31.9879 7.93856 31.9835 7.89706 32.0042 7.85556C32.0341 7.82236 32.0745 7.80991 32.1255 7.81821C32.2265 7.82651 32.358 7.84726 32.5201 7.88046C32.6896 7.90536 32.86 7.93856 33.0313 7.98007C33.2101 8.01327 33.3554 8.04647 33.4674 8.07967C33.5535 8.10457 33.5926 8.15852 33.5846 8.24153C33.585 8.32453 33.5443 8.37433 33.4626 8.39093C33.3717 8.39923 33.2862 8.41998 33.2062 8.45318C33.1346 8.48639 33.1053 8.56524 33.1184 8.68974L33.2048 9.51147H36.1468C36.2219 9.51147 36.2819 9.48657 36.3267 9.43677C36.3566 9.40357 36.4085 9.34132 36.4823 9.25001C36.5562 9.15871 36.6301 9.06741 36.7039 8.9761C36.7861 8.8848 36.8343 8.8267 36.8484 8.8018C36.9156 8.72709 36.9982 8.71879 37.0961 8.7769C37.1848 8.8267 37.3012 8.9014 37.4452 9.001C37.5975 9.10061 37.7457 9.20021 37.8897 9.29982C38.0337 9.39942 38.1426 9.48242 38.2163 9.54883C38.2901 9.61523 38.3188 9.68993 38.3025 9.77293C38.2936 9.84764 38.2558 9.88499 38.1891 9.88499H33.2441L33.3762 11.1425H35.4794C35.5462 11.1425 35.5941 11.1217 35.6231 11.0802C35.6746 11.0138 35.733 10.935 35.7985 10.8437C35.8724 10.7524 35.9355 10.6777 35.9878 10.6196C36.0384 10.5449 36.1214 10.5407 36.2369 10.6071C36.3071 10.6403 36.4092 10.6984 36.5431 10.7814C36.6771 10.8644 36.8156 10.9516 36.9587 11.0429C37.1019 11.1342 37.2099 11.2089 37.2827 11.267C37.3547 11.3168 37.3896 11.3707 37.3874 11.4288C37.3851 11.4869 37.3445 11.5367 37.2654 11.5783C37.2179 11.6032 37.1625 11.6322 37.0993 11.6654C37.0435 11.6903 36.9956 11.7111 36.9556 11.7277C36.8848 11.7692 36.8547 11.8397 36.8652 11.9393C36.8878 12.1551 36.9177 12.4 36.9549 12.6739C36.992 12.9478 37.0329 13.2176 37.0775 13.4832C37.1212 13.7405 37.1569 13.9604 37.1844 14.143C37.2119 14.3257 37.2275 14.4336 37.231 14.4668C37.2405 14.5581 37.1667 14.6494 37.0094 14.7407C36.8512 14.8237 36.6594 14.8652 36.434 14.8652C36.2588 14.8652 36.1633 14.7905 36.1476 14.6411L36.1018 14.2053H33.8859C34.4306 14.861 35.0181 15.4088 35.6486 15.8488C36.2874 16.2887 36.9258 16.6456 37.5639 16.9195C38.201 17.1851 38.7978 17.3843 39.3543 17.5171C39.0977 17.6167 38.8676 17.7703 38.6641 17.9778C38.4689 18.1853 38.3346 18.3762 38.2611 18.5505C37.8053 18.343 37.2982 18.0442 36.7397 17.6541C36.1896 17.264 35.6483 16.7991 35.1159 16.2596C34.5826 15.7118 34.1192 15.1142 33.7256 14.4668L33.8382 15.5375C33.8748 15.8861 33.916 16.2389 33.9619 16.5958C34.0078 16.9527 34.0468 17.2847 34.0791 17.5918C34.1189 17.8906 34.1538 18.1438 34.184 18.3513C34.2141 18.5588 34.2318 18.6875 34.2371 18.7373C34.2458 18.8203 34.1702 18.895 34.0102 18.9614C33.8512 19.0361 33.6798 19.0734 33.4962 19.0734ZM30.2023 13.8193H32.7312L32.4891 11.516H29.9602L30.2023 13.8193ZM33.6576 13.8193H36.0612L35.8191 11.516H33.4155L33.6576 13.8193ZM45.4708 11.3915C45.2204 11.3915 44.9988 11.3085 44.8061 11.1425C44.6209 10.9682 44.5152 10.7565 44.489 10.5075C44.4628 10.2585 44.5245 10.051 44.6739 9.88499C44.8309 9.71068 45.0346 9.62353 45.2849 9.62353C45.5353 9.62353 45.7531 9.71068 45.9384 9.88499C46.1311 10.051 46.2405 10.2585 46.2667 10.5075C46.2929 10.7565 46.2275 10.9682 46.0705 11.1425C45.9211 11.3085 45.7211 11.3915 45.4708 11.3915ZM46.1185 17.5545C45.8681 17.5545 45.6466 17.4715 45.4539 17.3055C45.2686 17.1312 45.1629 16.9195 45.1367 16.6705C45.1106 16.4215 45.1722 16.214 45.3217 16.048C45.4786 15.8737 45.6823 15.7865 45.9327 15.7865C46.1831 15.7865 46.4009 15.8737 46.5861 16.048C46.7788 16.214 46.8883 16.4215 46.9145 16.6705C46.9406 16.9195 46.8752 17.1312 46.7183 17.3055C46.5688 17.4715 46.3689 17.5545 46.1185 17.5545ZM59.823 14.778L59.0915 7.81821H62.7971L62.8547 8.36603H59.775L60.4489 14.778H59.823ZM71.3788 19.0734C71.1869 19.0734 71.0826 18.9946 71.066 18.8369C71.0617 18.7954 71.0528 18.6709 71.0393 18.4634C71.0267 18.2642 71.0085 18.011 70.9845 17.7039C70.9597 17.3885 70.9327 17.0523 70.9036 16.6954C70.8744 16.3385 70.8424 15.994 70.8075 15.662L70.6701 14.3547H68.8673C68.8673 14.3547 68.7801 14.3589 68.6057 14.3672C68.4305 14.3672 68.2361 14.3838 68.0226 14.417L67.8523 13.8691C68.1163 13.9189 68.3405 13.948 68.525 13.9563C68.7178 13.9646 68.8142 13.9687 68.8142 13.9687H73.7092C73.7676 13.9687 73.8113 13.948 73.8404 13.9065L74.1352 13.4956C74.1783 13.4292 74.2525 13.4209 74.3579 13.4707C74.4809 13.5288 74.6541 13.6284 74.8776 13.7695C75.101 13.9106 75.2718 14.0268 75.3899 14.1181C75.4435 14.1513 75.4692 14.197 75.4669 14.2551C75.4647 14.3132 75.4319 14.3589 75.3686 14.3921C75.3045 14.417 75.2408 14.446 75.1775 14.4792C75.1217 14.5041 75.0701 14.529 75.0226 14.5539C74.9668 14.5788 74.9327 14.612 74.9204 14.6535C74.9155 14.6867 74.9166 14.7365 74.9236 14.8029C74.9803 15.3424 75.0329 15.8031 75.0813 16.1849C75.1298 16.5667 75.1589 16.8033 75.1685 16.8946C75.2068 17.2598 75.1251 17.5545 74.9234 17.7786C74.729 17.9944 74.4126 18.1604 73.9742 18.2766C73.872 18.0193 73.7718 17.8201 73.6735 17.679C73.5743 17.5296 73.442 17.4217 73.2764 17.3553C73.1183 17.2806 72.8919 17.2308 72.5972 17.2059C72.5108 17.098 72.5146 17.015 72.6086 16.9569C72.7013 16.9652 72.8691 16.9735 73.112 16.9818C73.3632 16.9901 73.6099 16.9942 73.8519 16.9942C74.0773 16.9942 74.1808 16.9071 74.1624 16.7327L73.9125 14.3547H71.609L71.7477 15.6745C71.7939 16.1144 71.8448 16.5584 71.9002 17.0067C71.964 17.4549 72.0171 17.8408 72.0595 18.1645C72.101 18.48 72.1252 18.6709 72.1322 18.7373C72.1409 18.8203 72.0612 18.895 71.8929 18.9614C71.7255 19.0361 71.5541 19.0734 71.3788 19.0734ZM67.6133 13.6201C67.5549 13.6201 67.5073 13.6035 67.4704 13.5703C67.4326 13.5288 67.4153 13.4832 67.4184 13.4334C67.7763 13.0267 68.1168 12.5743 68.4401 12.0763C68.7708 11.57 69.0635 11.0595 69.3182 10.5449C69.572 10.0219 69.7709 9.53222 69.9149 9.07571C70.0589 8.61919 70.1268 8.23323 70.1187 7.91781C70.1143 7.87631 70.1276 7.84311 70.1583 7.81821C70.1807 7.79331 70.2183 7.79331 70.271 7.81821C70.3654 7.84311 70.5079 7.88876 70.6985 7.95517C70.8966 8.01327 71.0867 8.07552 71.269 8.14192C71.4504 8.20002 71.5757 8.24153 71.6451 8.26643C71.7237 8.29963 71.759 8.35773 71.7511 8.44073C71.7431 8.52374 71.6932 8.56524 71.6014 8.56524L71.55 8.55279C71.8501 9.02591 72.1997 9.45337 72.5987 9.83519C73.0052 10.2087 73.4365 10.5407 73.8927 10.8312C74.3489 11.1217 74.8003 11.3666 75.2468 11.5658C75.6926 11.7567 76.1005 11.9061 76.4707 12.014C76.2207 12.097 76.001 12.2298 75.8116 12.4124C75.6296 12.5867 75.5023 12.7652 75.4297 12.9478C74.8992 12.6656 74.3772 12.3045 73.8636 11.8646C73.35 11.4247 72.8678 10.9267 72.4171 10.3706C71.9747 9.81444 71.5873 9.22511 71.2548 8.60259C70.9767 9.29152 70.6408 9.94724 70.2472 10.5698C69.8527 11.184 69.4284 11.7526 68.9743 12.2755C68.5276 12.7901 68.074 13.2383 67.6133 13.6201ZM66.9293 18.1894C66.7066 18.2143 66.5454 18.1894 66.4457 18.1147C66.3461 18.04 66.2884 17.928 66.2727 17.7786C66.2648 17.7039 66.2603 17.6209 66.259 17.5296C66.2569 17.43 66.2581 17.3221 66.2626 17.2059C66.2632 16.9735 66.2583 16.7286 66.248 16.4713C66.2367 16.2057 66.2027 15.9608 66.1457 15.7367C66.0743 15.4545 65.9791 15.2636 65.8602 15.164C65.7487 15.0561 65.5346 14.9648 65.218 14.8901C65.1802 14.8486 65.1629 14.8029 65.166 14.7531C65.1775 14.7033 65.2027 14.666 65.2419 14.6411C65.4632 14.6826 65.6486 14.6992 65.7979 14.6909C65.9548 14.6743 66.0763 14.5996 66.1625 14.4668C66.2561 14.3257 66.372 14.1181 66.5102 13.8442C66.6474 13.562 66.7946 13.2549 66.9516 12.9229C67.1087 12.5909 67.2583 12.2672 67.4004 11.9518C67.5509 11.6364 67.6807 11.3624 67.7898 11.13C67.898 10.8893 67.9691 10.7316 68.0029 10.6569C68.0513 10.6403 68.0976 10.6445 68.142 10.6694C68.1947 10.6943 68.2274 10.7275 68.2401 10.769C68.2071 10.852 68.1419 11.0263 68.0446 11.2919C67.9465 11.5492 67.8327 11.8563 67.7033 12.2132C67.5823 12.5701 67.4625 12.9395 67.3441 13.3213C67.2247 13.6948 67.1241 14.0476 67.0422 14.3796C66.9593 14.7033 66.9113 14.9606 66.8979 15.1515C66.8868 15.442 66.9353 15.745 67.0436 16.0604C67.1518 16.3758 67.2608 16.658 67.3704 16.9071C67.427 17.0482 67.4734 17.1727 67.5098 17.2806C67.5545 17.3885 67.585 17.4798 67.6012 17.5545C67.6397 17.762 67.5932 17.9155 67.4618 18.0151C67.3379 18.1064 67.1604 18.1645 66.9293 18.1894ZM66.9545 10.8063C66.8596 10.8561 66.7649 10.8686 66.6705 10.8437C66.5844 10.8188 66.514 10.7441 66.4592 10.6196C66.2737 10.2045 66.0378 9.82689 65.7517 9.48657C65.473 9.13796 65.157 8.83085 64.8036 8.56524C64.7816 8.51544 64.781 8.46978 64.8017 8.42828C64.8215 8.37848 64.856 8.34943 64.9052 8.34113C65.1876 8.40753 65.4735 8.50714 65.7629 8.63994C66.0597 8.76445 66.3262 8.918 66.5624 9.10061C66.8061 9.27492 66.9902 9.47827 67.1148 9.71068C67.2486 9.95139 67.2934 10.1796 67.2494 10.3955C67.2044 10.603 67.1061 10.7399 66.9545 10.8063ZM69.4235 12.4996L69.2545 11.9642C69.5018 12.014 69.7093 12.0431 69.8771 12.0514C70.0533 12.0597 70.1413 12.0638 70.1413 12.0638H72.0442C72.1194 12.0638 72.171 12.0389 72.1991 11.9891L72.525 11.516C72.5747 11.433 72.6577 11.4288 72.7741 11.5035C72.872 11.5617 73.0072 11.6571 73.1797 11.7899C73.3606 11.9227 73.4971 12.0306 73.5893 12.1136C73.6538 12.1717 73.6821 12.2423 73.6742 12.3253C73.6653 12.4 73.6275 12.4373 73.5607 12.4373C73.519 12.4373 73.4481 12.4373 73.3479 12.4373C73.2478 12.4373 73.1309 12.4373 72.9974 12.4373C72.772 12.4373 72.5091 12.4373 72.2087 12.4373C71.9157 12.429 71.6232 12.4249 71.331 12.4249C71.0473 12.4249 70.8011 12.4249 70.5924 12.4249C70.3838 12.4249 70.2465 12.429 70.1806 12.4373C70.1806 12.4373 70.1018 12.4415 69.9441 12.4498C69.7855 12.4498 69.612 12.4664 69.4235 12.4996ZM84.7242 19.0734C84.5322 19.0734 84.4284 18.9987 84.4127 18.8493C84.4092 18.8161 84.3998 18.6875 84.3846 18.4634C84.3703 18.2476 84.3511 17.9861 84.3272 17.679C84.3024 17.3636 84.2776 17.0482 84.2528 16.7327C84.2271 16.409 84.2025 16.1351 84.1789 15.911L84.1214 15.3632C83.7555 15.8529 83.33 16.3302 82.8447 16.795C82.3594 17.2598 81.8568 17.679 81.3369 18.0525C80.8244 18.4177 80.33 18.7165 79.8537 18.9489C79.7333 18.9157 79.6796 18.841 79.6924 18.7248C80.2075 18.3845 80.7035 17.9819 81.1804 17.5171C81.6574 17.0523 82.0975 16.5543 82.5007 16.0231C82.9113 15.4835 83.259 14.9399 83.5436 14.3921H82.2291L82.2605 14.6909C82.2692 14.7739 82.2028 14.8569 82.0613 14.9399C81.9189 15.0146 81.7518 15.0519 81.5598 15.0519C81.4012 15.0519 81.3132 14.9689 81.2958 14.8029C81.2879 14.7282 81.2746 14.5622 81.2559 14.3049C81.2456 14.0476 81.2245 13.728 81.1927 13.3462C81.1601 12.9561 81.1211 12.5452 81.0757 12.1136C81.0277 11.6571 80.9832 11.3126 80.9421 11.0802C80.9001 10.8395 80.8475 10.6569 80.7843 10.5324C80.7615 10.4743 80.7651 10.4287 80.795 10.3955C80.8249 10.3623 80.8703 10.3581 80.9314 10.383C81.0442 10.4245 81.2023 10.4992 81.4056 10.6071C81.6173 10.715 81.7938 10.8063 81.9352 10.881H83.6503L83.5351 9.78538C83.2847 9.78538 83.0427 9.78538 82.809 9.78538C82.5837 9.78538 82.3708 9.78538 82.1705 9.78538C81.845 9.78538 81.5696 9.78538 81.3443 9.78538C81.1273 9.78538 80.9896 9.78538 80.9312 9.78538C80.9312 9.78538 80.844 9.78953 80.6696 9.79783C80.4943 9.79783 80.2999 9.81443 80.0864 9.84764L79.9175 9.31227C80.1814 9.36207 80.4056 9.39112 80.5901 9.39942C80.783 9.40772 80.8794 9.41187 80.8794 9.41187H83.4959L83.4134 8.62749C83.3803 8.31208 83.3246 8.10042 83.2465 7.99252C83.2163 7.94271 83.2115 7.89706 83.2321 7.85556C83.2537 7.82236 83.2941 7.80991 83.3534 7.81821C83.4461 7.82651 83.5734 7.84726 83.7355 7.88046C83.8967 7.90536 84.0583 7.93441 84.2204 7.96762C84.3825 8.00082 84.5153 8.03402 84.619 8.06722C84.705 8.09212 84.7441 8.14607 84.7361 8.22908C84.7457 8.32038 84.7046 8.36603 84.6128 8.36603C84.5219 8.37433 84.4406 8.39508 84.369 8.42828C84.2965 8.45318 84.2663 8.52374 84.2785 8.63994L84.3597 9.41187H86.563C86.6465 9.41187 86.7023 9.38697 86.7304 9.33717C86.7603 9.30397 86.8047 9.25001 86.8637 9.17531C86.9217 9.09231 86.9802 9.01345 87.0391 8.93875C87.0971 8.85575 87.1369 8.79765 87.1585 8.76445C87.2174 8.68974 87.3 8.68144 87.4062 8.73954C87.4857 8.78105 87.5845 8.84745 87.7026 8.93875C87.8207 9.03006 87.9392 9.12551 88.0582 9.22511C88.1763 9.31642 88.2639 9.39527 88.3209 9.46167C88.3955 9.53637 88.4284 9.61108 88.4196 9.68578C88.4099 9.75218 88.3633 9.78538 88.2798 9.78538H84.3989L84.5141 10.881H86.2417C86.3085 10.881 86.3564 10.8603 86.3854 10.8188C86.4285 10.7524 86.4683 10.6943 86.5048 10.6445C86.5488 10.5864 86.5927 10.5283 86.6367 10.4702C86.6947 10.3872 86.7773 10.3789 86.8845 10.4453C86.9547 10.4785 87.0485 10.5366 87.1657 10.6196C87.2904 10.6943 87.4113 10.7731 87.5286 10.8561C87.6533 10.9308 87.7474 10.9931 87.8111 11.0429C87.9643 11.1508 87.9618 11.2462 87.8036 11.3292C87.772 11.3458 87.7329 11.3707 87.6863 11.4039C87.6472 11.4288 87.6076 11.4496 87.5676 11.4662C87.4969 11.5077 87.4663 11.5741 87.4759 11.6654C87.5047 11.9393 87.5403 12.2381 87.5826 12.5618C87.6241 12.8772 87.6689 13.1844 87.717 13.4832C87.7651 13.782 87.8043 14.0351 87.8344 14.2427C87.8637 14.4419 87.8797 14.5539 87.8823 14.5788C87.8936 14.6867 87.8151 14.7739 87.6469 14.8403C87.4869 14.9067 87.3235 14.9399 87.1566 14.9399C86.9813 14.9399 86.8862 14.8693 86.8714 14.7282L86.8361 14.3921H85.0834C85.4915 14.9399 85.9478 15.4296 86.4522 15.8612C86.9557 16.2845 87.4782 16.6497 88.0195 16.9569C88.5601 17.2557 89.0852 17.4881 89.5951 17.6541C89.3526 17.7288 89.1245 17.8616 88.9109 18.0525C88.7047 18.2351 88.5561 18.4094 88.4651 18.5754C88.0265 18.2932 87.585 17.9446 87.1408 17.5296C86.6957 17.1063 86.2805 16.6497 85.8952 16.16C85.509 15.662 85.1808 15.1598 84.9106 14.6535L85.0428 15.911C85.0646 16.1185 85.0953 16.3717 85.1351 16.6705C85.1749 16.9693 85.2146 17.2681 85.2544 17.5669C85.2941 17.8657 85.3291 18.1189 85.3592 18.3264C85.3902 18.5422 85.4084 18.675 85.4136 18.7248C85.4223 18.8078 85.3555 18.8867 85.2131 18.9614C85.0791 19.0361 84.9161 19.0734 84.7242 19.0734ZM79.5605 18.0649C79.3544 18.0898 79.1937 18.0691 79.0782 18.0027C78.9702 17.928 78.9134 17.8242 78.9078 17.6914C78.9052 17.6665 78.9021 17.6375 78.8986 17.6043C78.9026 17.5628 78.9024 17.5213 78.898 17.4798C78.8907 17.3304 78.8798 17.1478 78.8655 16.932C78.8586 16.7078 78.8388 16.4796 78.806 16.2472C78.7816 16.0148 78.7436 15.8114 78.6919 15.6371C78.6205 15.3549 78.509 15.1681 78.3575 15.0768C78.2135 14.9772 77.9744 14.8859 77.6402 14.8029C77.6025 14.7614 77.5851 14.7158 77.5883 14.666C77.5997 14.6162 77.625 14.5788 77.6641 14.5539C77.9263 14.5871 78.1446 14.5996 78.319 14.5913C78.4926 14.5747 78.6257 14.4917 78.7185 14.3423C78.8337 14.1679 78.9712 13.9272 79.1308 13.6201C79.2905 13.313 79.4531 12.9935 79.6185 12.6614C79.7839 12.3294 79.9278 12.0306 80.0501 11.765C80.1807 11.4994 80.2663 11.3209 80.3068 11.2296C80.421 11.2047 80.5005 11.2462 80.5452 11.3541C80.5122 11.4371 80.4537 11.5949 80.3696 11.8273C80.293 12.0514 80.1994 12.3128 80.089 12.6116C79.9868 12.9105 79.8856 13.2176 79.7852 13.533C79.6848 13.8484 79.5994 14.1472 79.5289 14.4294C79.4659 14.7033 79.4314 14.9316 79.4256 15.1142C79.4144 15.4047 79.4662 15.6994 79.5811 15.9982C79.7043 16.297 79.8249 16.5709 79.9429 16.8199C79.996 16.9278 80.0444 17.0316 80.0883 17.1312C80.1405 17.2308 80.1747 17.3179 80.1909 17.3926C80.236 17.5835 80.1979 17.7371 80.0765 17.8533C79.9636 17.9695 79.7915 18.04 79.5605 18.0649ZM84.8439 14.0185H86.7968L86.6673 12.7859H84.7143L84.8439 14.0185ZM79.3232 11.0429C79.1 11.1425 78.9276 11.0512 78.8061 10.769C78.6206 10.354 78.3848 9.97629 78.0987 9.63598C77.8125 9.29567 77.5116 9.01345 77.1959 8.78935C77.1824 8.73954 77.1859 8.69389 77.2066 8.65239C77.2273 8.61089 77.2622 8.58599 77.3114 8.57769C77.7141 8.67729 78.1197 8.8433 78.528 9.07571C78.9438 9.29982 79.2573 9.58203 79.4683 9.92234C79.6188 10.163 79.6724 10.3955 79.6292 10.6196C79.5935 10.8354 79.4915 10.9765 79.3232 11.0429ZM84.675 12.4124H86.628L86.5063 11.2545H84.5533L84.675 12.4124ZM82.1898 14.0185H83.98L83.8505 12.7859H82.0603L82.1898 14.0185ZM82.021 12.4124H83.8112L83.6895 11.2545H81.8993L82.021 12.4124ZM91.5668 18.1894C91.447 18.0815 91.3665 17.9114 91.3254 17.679C91.2926 17.4466 91.3222 17.2515 91.4141 17.0938C91.6468 16.6871 91.8624 16.1974 92.0609 15.6247C92.2678 15.0519 92.4498 14.4419 92.6071 13.7944C92.7728 13.147 92.9022 12.512 92.9953 11.8895C92.8152 11.9227 92.6342 11.9476 92.4523 11.9642C92.2788 11.9808 92.1169 11.9891 91.9667 11.9891C91.5086 11.9974 91.1675 11.8895 90.9437 11.6654C90.7282 11.4413 90.5924 11.1425 90.5365 10.769C90.5655 10.7275 90.6046 10.7026 90.6538 10.6943C90.7022 10.6777 90.7448 10.686 90.7816 10.7192C90.8579 10.9682 90.9913 11.1259 91.1819 11.1923C91.3716 11.2504 91.5996 11.2753 91.8658 11.267C92.0494 11.267 92.2479 11.2504 92.4615 11.2172C92.675 11.184 92.8876 11.1425 93.0994 11.0927C93.1307 10.8354 93.1551 10.5905 93.1724 10.3581C93.1888 10.1174 93.1945 9.89329 93.1893 9.68578C93.1903 9.53637 93.179 9.42847 93.1553 9.36207C93.1308 9.28737 93.0821 9.22096 93.0092 9.16286C92.9715 9.12136 92.9104 9.09646 92.8261 9.08816C92.7417 9.07986 92.6699 9.07156 92.6106 9.06326C92.5251 8.96365 92.5242 8.8765 92.6082 8.8018C92.7716 8.7686 92.9682 8.77275 93.1979 8.81425C93.4276 8.85575 93.6215 8.91385 93.7796 8.98855C93.9552 9.07156 94.0935 9.19606 94.1944 9.36207C94.2944 9.51977 94.2884 9.66088 94.1763 9.78538C94.109 9.86009 94.0506 9.93894 94.0009 10.0219C93.9512 10.1049 93.9241 10.2045 93.9196 10.3208C93.9028 10.4785 93.8836 10.6528 93.8619 10.8437C94.0069 10.7939 94.1389 10.7399 94.258 10.6818C94.3846 10.6154 94.499 10.5532 94.6014 10.4951C94.6471 10.4536 94.7293 10.4411 94.8479 10.4577C94.9748 10.4743 95.1136 10.5241 95.2642 10.6071C95.4148 10.6901 95.4975 10.8022 95.5124 10.9433C95.5355 11.0844 95.4676 11.1923 95.3085 11.267C95.1494 11.3417 94.9282 11.4205 94.6448 11.5035C94.3698 11.5866 94.0693 11.6654 93.7433 11.7401C93.6616 12.3128 93.5579 12.9146 93.4323 13.5454C93.315 14.1762 93.1876 14.7905 93.0501 15.3881C92.92 15.9774 92.7877 16.5045 92.6529 16.9693C92.5265 17.4341 92.4096 17.791 92.3022 18.04C92.2345 18.1894 92.118 18.2725 91.9528 18.2891C91.7969 18.314 91.6682 18.2808 91.5668 18.1894ZM97.9726 18.1521C96.9808 18.0857 96.2029 17.791 95.6388 17.2681C95.0831 16.7452 94.8077 16.0314 94.8128 15.1266C94.895 15.0353 94.9785 15.0353 95.0632 15.1266C95.1052 15.3673 95.1759 15.6039 95.2755 15.8363C95.3834 16.0687 95.5396 16.2845 95.7441 16.4837C95.9562 16.6746 96.2356 16.8323 96.5826 16.9569C96.937 17.0731 97.3779 17.1395 97.9055 17.1561C98.2402 17.1644 98.5903 17.1602 98.9558 17.1436C99.3287 17.1187 99.6182 17.0938 99.8243 17.0689C99.8893 17.0523 99.9607 17.0565 100.038 17.0814C100.115 17.098 100.185 17.127 100.248 17.1685C100.488 17.3096 100.645 17.4507 100.718 17.5918C100.791 17.7329 100.804 17.8533 100.756 17.9529C100.715 18.0442 100.634 18.1023 100.511 18.1272C100.182 18.1687 99.7918 18.1894 99.3411 18.1894C98.8997 18.1977 98.4435 18.1853 97.9726 18.1521ZM97.4649 13.3213C97.352 13.2798 97.3104 13.201 97.3399 13.0848C97.473 13.0018 97.6145 12.9188 97.7644 12.8357C97.9142 12.7527 98.0724 12.6697 98.239 12.5867C98.2948 12.5618 98.3247 12.5286 98.3287 12.4871C98.3318 12.4373 98.294 12.3958 98.2154 12.3626C98.0038 12.2547 97.7214 12.1883 97.3682 12.1634C97.0225 12.1302 96.6804 12.1302 96.3417 12.1634C96.2881 12.1302 96.2545 12.0887 96.2409 12.0389C96.2274 11.9891 96.2355 11.9476 96.2654 11.9144C96.5312 11.8231 96.8465 11.765 97.2111 11.7401C97.5831 11.7069 97.9508 11.7111 98.314 11.7526C98.6848 11.7858 98.9977 11.8646 99.2528 11.9891C99.4284 12.0721 99.5711 12.1593 99.6809 12.2506C99.7898 12.3336 99.8821 12.4581 99.958 12.6241C100.052 12.8067 100.077 12.9644 100.033 13.0972C99.9883 13.23 99.9103 13.3213 99.7987 13.3711C99.6862 13.4126 99.5713 13.3919 99.4541 13.3089C99.228 13.1429 99.0056 13.0516 98.7868 13.035C98.5672 13.0101 98.3482 13.0308 98.1299 13.0972C97.9106 13.1553 97.6931 13.23 97.4774 13.3213H97.4649ZM100.879 9.71068C100.826 9.76878 100.759 9.80198 100.676 9.81028C100.602 9.81859 100.51 9.77708 100.4 9.68578C100.162 9.48657 99.8632 9.29982 99.5027 9.12551C99.1422 8.9512 98.7669 8.835 98.3769 8.7769C98.2838 8.68559 98.2793 8.60259 98.3632 8.52789C98.6092 8.48639 98.875 8.47393 99.1605 8.49054C99.4535 8.49884 99.7328 8.53619 99.9985 8.60259C100.272 8.66069 100.494 8.74785 100.664 8.86405C100.826 8.97195 100.921 9.12136 100.949 9.31227C100.977 9.49487 100.953 9.62768 100.879 9.71068ZM100.119 11.1798C100.057 11.2213 99.9834 11.2379 99.8991 11.2296C99.8231 11.2213 99.7414 11.1591 99.6541 11.0429C99.4694 10.7939 99.2308 10.549 98.9384 10.3083C98.6535 10.0593 98.3234 9.85594 97.9479 9.69823C97.8773 9.58203 97.8982 9.50317 98.0107 9.46167C98.2711 9.47827 98.5351 9.52807 98.8026 9.61108C99.0775 9.68578 99.33 9.78538 99.5601 9.90989C99.7976 10.0261 99.9835 10.1672 100.118 10.3332C100.251 10.4909 100.306 10.6569 100.283 10.8312C100.268 11.0055 100.213 11.1217 100.119 11.1798ZM103.865 18.1147C103.789 17.9487 103.751 17.7827 103.75 17.6167C103.749 17.4424 103.798 17.2806 103.899 17.1312C104.122 16.7908 104.347 16.3509 104.575 15.8114C104.81 15.2719 105.033 14.6909 105.243 14.0683C105.46 13.4375 105.646 12.8233 105.8 12.2257C105.478 12.3419 105.181 12.4539 104.909 12.5618C104.645 12.6697 104.429 12.7237 104.263 12.7237C104.062 12.7237 103.888 12.6531 103.74 12.512C103.591 12.3709 103.474 12.2091 103.388 12.0265C103.31 11.8439 103.265 11.6862 103.251 11.5534C103.279 11.5035 103.317 11.4745 103.367 11.4662C103.416 11.4579 103.459 11.4703 103.496 11.5035C103.56 11.6364 103.649 11.7277 103.762 11.7775C103.885 11.8273 104.037 11.8522 104.221 11.8522C104.488 11.8522 104.769 11.8231 105.063 11.765C105.357 11.6986 105.658 11.6322 105.969 11.5658C106.05 11.2255 106.112 10.9059 106.156 10.6071C106.208 10.3083 106.239 10.051 106.25 9.83519C106.256 9.57788 106.209 9.40772 106.109 9.32472C106.054 9.28322 105.98 9.25416 105.887 9.23756C105.793 9.22096 105.722 9.21681 105.673 9.22511C105.579 9.12551 105.569 9.03836 105.645 8.96365C105.816 8.92215 106.016 8.918 106.245 8.9512C106.473 8.9844 106.672 9.04666 106.84 9.13796C107.016 9.22096 107.154 9.34547 107.255 9.51147C107.356 9.67748 107.35 9.81858 107.237 9.93479C107.162 10.0178 107.096 10.1049 107.039 10.1962C106.981 10.2793 106.941 10.3789 106.92 10.4951C106.886 10.7275 106.823 11.0387 106.73 11.4288C106.837 11.4122 106.944 11.3998 107.052 11.3915C107.16 11.3832 107.263 11.379 107.364 11.379C107.881 11.379 108.288 11.516 108.584 11.7899C108.879 12.0555 109.047 12.3875 109.089 12.7859C109.167 13.533 109.152 14.2593 109.042 14.9648C108.941 15.6703 108.801 16.2804 108.621 16.795C108.5 17.1519 108.324 17.4175 108.092 17.5918C107.867 17.7578 107.617 17.8367 107.34 17.8284C107.206 17.8201 107.101 17.7786 107.027 17.7039C106.961 17.6292 106.886 17.5171 106.804 17.3677C106.72 17.2017 106.605 17.0648 106.46 16.9569C106.314 16.8406 106.106 16.7203 105.834 16.5958C105.779 16.4713 105.808 16.3924 105.922 16.3592C106.069 16.409 106.254 16.4671 106.478 16.5335C106.701 16.5916 106.901 16.629 107.078 16.6456C107.204 16.6539 107.316 16.6414 107.412 16.6082C107.517 16.575 107.603 16.4796 107.67 16.3219C107.779 16.0895 107.889 15.7782 107.998 15.3881C108.107 14.998 108.192 14.5788 108.254 14.1306C108.314 13.6741 108.323 13.2425 108.28 12.8357C108.26 12.5618 108.186 12.3336 108.058 12.151C107.93 11.9684 107.721 11.8771 107.428 11.8771C107.295 11.8771 107.154 11.8895 107.007 11.9144C106.867 11.931 106.727 11.9559 106.589 11.9891C106.466 12.4871 106.322 13.0267 106.158 13.6077C106.001 14.1804 105.832 14.7531 105.65 15.3258C105.477 15.8986 105.306 16.4215 105.139 16.8946C104.972 17.3677 104.82 17.7495 104.684 18.04C104.587 18.231 104.447 18.3347 104.266 18.3513C104.093 18.3762 103.959 18.2974 103.865 18.1147ZM112.77 15.2885C112.564 15.3217 112.358 15.2262 112.151 15.0021C112.055 14.8859 111.942 14.8029 111.812 14.7531C111.69 14.7033 111.477 14.6618 111.173 14.6286C111.096 14.529 111.099 14.446 111.184 14.3796C111.386 14.3962 111.583 14.4004 111.774 14.3921C111.973 14.3755 112.135 14.3298 112.26 14.2551C112.394 14.1804 112.461 14.0642 112.462 13.9065C112.457 13.7073 112.39 13.4998 112.258 13.284C112.126 13.0599 111.958 12.844 111.752 12.6365C111.546 12.4207 111.326 12.2298 111.091 12.0638C110.865 11.8978 110.652 11.7733 110.451 11.6903C110.413 11.5658 110.447 11.4911 110.553 11.4662C111.046 11.6322 111.514 11.8397 111.958 12.0887C112.409 12.3377 112.786 12.6241 113.087 12.9478C113.396 13.2715 113.572 13.6326 113.614 14.031C113.663 14.4211 113.603 14.7199 113.433 14.9274C113.27 15.1266 113.049 15.247 112.77 15.2885ZM120.131 18.6252C120.068 18.5837 120.033 18.5298 120.026 18.4634C120.02 18.4053 120.031 18.3513 120.059 18.3015C120.721 18.2434 121.32 18.1064 121.857 17.8906C122.393 17.6748 122.814 17.3926 123.12 17.044C123.424 16.6871 123.553 16.2845 123.506 15.8363C123.474 15.5292 123.377 15.247 123.217 14.9897C123.064 14.7241 122.862 14.5166 122.613 14.3672C122.363 14.2094 122.079 14.1347 121.763 14.143C121.421 14.143 121.122 14.2385 120.867 14.4294C120.611 14.612 120.4 14.8278 120.234 15.0768C120.067 15.3175 119.947 15.5292 119.875 15.7118C119.809 15.8778 119.692 16.0397 119.525 16.1974C119.366 16.3468 119.154 16.4007 118.891 16.3592C118.611 16.3094 118.38 16.1808 118.2 15.9733C118.019 15.7658 117.905 15.4337 117.857 14.9772C117.835 14.7697 117.829 14.5456 117.837 14.3049C117.853 14.0642 117.872 13.811 117.894 13.5454C117.921 13.1636 117.942 12.7652 117.957 12.3502C117.971 11.9269 117.939 11.5077 117.862 11.0927C117.817 10.8188 117.844 10.603 117.944 10.4453C118.044 10.2876 118.187 10.1713 118.371 10.0966C118.562 10.0136 118.765 9.95554 118.978 9.92234C119.192 9.88914 119.386 9.86839 119.56 9.86009C119.883 9.83519 120.099 9.74803 120.209 9.59863C120.327 9.44922 120.332 9.26661 120.226 9.05081C120.128 8.8267 119.917 8.60674 119.594 8.39093C119.58 8.34113 119.584 8.29548 119.604 8.25398C119.625 8.21247 119.66 8.18757 119.709 8.17927C119.975 8.24568 120.241 8.35358 120.507 8.50299C120.772 8.64409 121.006 8.8101 121.21 9.001C121.414 9.19191 121.556 9.39527 121.637 9.61108C121.715 9.79368 121.725 9.97214 121.669 10.1464C121.619 10.3125 121.502 10.4328 121.318 10.5075C121.158 10.5739 121.023 10.5947 120.912 10.5698C120.8 10.5366 120.678 10.4909 120.547 10.4328C120.441 10.383 120.316 10.3374 120.169 10.2959C120.031 10.2461 119.857 10.2211 119.648 10.2211C119.214 10.2211 118.905 10.2917 118.719 10.4328C118.542 10.5739 118.499 10.8022 118.591 11.1176C118.699 11.516 118.75 11.9227 118.744 12.3377C118.745 12.7444 118.735 13.1263 118.714 13.4832C118.701 13.6741 118.69 13.8525 118.683 14.0185C118.675 14.1845 118.678 14.334 118.692 14.4668C118.726 14.7822 118.82 14.9689 118.977 15.027C119.14 15.0768 119.326 15.0187 119.534 14.8527C119.672 14.7365 119.848 14.5871 120.063 14.4045C120.285 14.2136 120.538 14.0434 120.823 13.894C121.107 13.7363 121.411 13.6533 121.736 13.645C122.194 13.6367 122.632 13.7197 123.051 13.894C123.479 14.0683 123.835 14.3215 124.12 14.6535C124.413 14.9772 124.584 15.3715 124.633 15.8363C124.681 16.2928 124.613 16.6829 124.43 17.0067C124.256 17.3304 124 17.596 123.663 17.8035C123.334 18.011 122.963 18.1728 122.549 18.2891C122.144 18.4053 121.727 18.4883 121.299 18.5381C120.878 18.5879 120.489 18.6169 120.131 18.6252ZM131.877 18.4136L131.708 17.8782C131.955 17.928 132.162 17.957 132.33 17.9653C132.498 17.9736 132.582 17.9778 132.582 17.9778H134.773L134.197 12.4996C133.947 12.4996 133.705 12.4996 133.471 12.4996C133.237 12.4996 133.02 12.4996 132.82 12.4996C132.503 12.4996 132.24 12.4996 132.031 12.4996C131.831 12.4996 131.714 12.4996 131.681 12.4996C131.681 12.4996 131.602 12.5037 131.444 12.512C131.286 12.512 131.112 12.5245 130.922 12.5494L130.755 12.0265C131.001 12.068 131.208 12.0929 131.376 12.1012C131.552 12.1095 131.64 12.1136 131.64 12.1136H134.156L133.872 9.41187C133.839 9.09646 133.801 8.8516 133.758 8.67729C133.714 8.50299 133.663 8.37433 133.604 8.29133C133.565 8.23323 133.56 8.18342 133.589 8.14192C133.611 8.11702 133.652 8.10457 133.71 8.10457C133.811 8.11287 133.96 8.13777 134.156 8.17927C134.352 8.21248 134.547 8.24983 134.744 8.29133C134.94 8.33283 135.086 8.37018 135.181 8.40338C135.276 8.42828 135.319 8.48223 135.311 8.56524C135.313 8.66484 135.268 8.71464 135.176 8.71464C135.085 8.72294 135 8.74369 134.92 8.7769C134.847 8.8018 134.817 8.87235 134.83 8.98855L135.158 12.1136H136.898C136.982 12.1136 137.042 12.0929 137.079 12.0514C137.108 12.0099 137.156 11.9476 137.222 11.8646C137.289 11.7816 137.355 11.6945 137.42 11.6032C137.494 11.5118 137.546 11.4496 137.576 11.4164C137.634 11.3334 137.717 11.3292 137.825 11.4039C137.915 11.462 138.023 11.5409 138.15 11.6405C138.286 11.7401 138.413 11.8397 138.532 11.9393C138.659 12.0306 138.755 12.1095 138.82 12.1759C138.894 12.2423 138.922 12.3128 138.905 12.3875C138.888 12.4622 138.846 12.4996 138.779 12.4996H135.199L135.774 17.9778H137.252C137.318 17.9778 137.374 17.9529 137.419 17.9031C137.449 17.8699 137.497 17.8118 137.563 17.7288C137.637 17.6375 137.707 17.5503 137.774 17.4673C137.848 17.376 137.895 17.3138 137.917 17.2806C137.976 17.2059 138.058 17.1976 138.165 17.2557C138.254 17.3138 138.363 17.3926 138.49 17.4922C138.617 17.5918 138.74 17.6914 138.859 17.791C138.987 17.8906 139.078 17.9695 139.135 18.0276C139.209 18.1023 139.238 18.1728 139.22 18.2393C139.211 18.314 139.173 18.3513 139.106 18.3513C139.073 18.3513 138.993 18.3513 138.868 18.3513C138.751 18.3513 138.601 18.3513 138.418 18.3513C138.092 18.3513 137.691 18.3472 137.214 18.3389C136.739 18.3389 136.242 18.3389 135.725 18.3389C135.216 18.3389 134.731 18.3389 134.272 18.3389C133.822 18.3389 133.446 18.3389 133.146 18.3389C132.846 18.3472 132.675 18.3513 132.634 18.3513C132.634 18.3513 132.554 18.3513 132.396 18.3513C132.238 18.3596 132.065 18.3804 131.877 18.4136ZM130.307 19.0859C130.124 19.0859 130.024 19.007 130.007 18.8493C130.003 18.8078 129.988 18.6294 129.963 18.314C129.947 17.9985 129.917 17.6001 129.875 17.1187C129.84 16.629 129.799 16.1144 129.75 15.5749C129.71 15.027 129.664 14.5124 129.613 14.031L129.416 12.151C129.149 12.5494 128.867 12.9271 128.571 13.284C128.274 13.6409 127.967 13.9729 127.649 14.28C127.532 14.28 127.468 14.2219 127.455 14.1057C127.764 13.7073 128.052 13.2674 128.318 12.7859C128.585 12.3045 128.826 11.819 129.041 11.3292C129.256 10.8312 129.44 10.3623 129.595 9.92234C129.748 9.47412 129.865 9.07986 129.946 8.73954C130.035 8.39923 130.08 8.15022 130.08 7.99252C130.073 7.92611 130.085 7.88046 130.116 7.85556C130.131 7.83896 130.164 7.83896 130.216 7.85556C130.224 7.85556 130.229 7.85556 130.229 7.85556C130.342 7.90536 130.487 7.97177 130.663 8.05477C130.846 8.12947 131.029 8.20833 131.213 8.29133C131.405 8.36603 131.554 8.43243 131.66 8.49054C131.739 8.52374 131.766 8.58184 131.741 8.66484C131.716 8.74785 131.666 8.7852 131.59 8.7769C131.461 8.74369 131.365 8.73954 131.301 8.76445C131.236 8.78935 131.185 8.8516 131.145 8.9512C131.005 9.28321 130.852 9.61523 130.686 9.94724C130.529 10.2793 130.359 10.6071 130.176 10.9308L130.503 14.0434C130.536 14.3506 130.573 14.7033 130.615 15.1017C130.665 15.5001 130.712 15.9069 130.755 16.3219C130.807 16.7286 130.851 17.1104 130.888 17.4673C130.934 17.8242 130.969 18.1189 130.994 18.3513C131.027 18.5837 131.045 18.7165 131.048 18.7497C131.057 18.8327 130.977 18.9074 130.809 18.9738C130.65 19.0485 130.483 19.0859 130.307 19.0859ZM140.885 19.0734C140.772 19.0319 140.73 18.9531 140.76 18.8369C142.061 18.1147 143.005 17.0938 143.592 15.7741C144.179 14.446 144.419 12.7237 144.314 10.6071C143.988 10.6071 143.675 10.6071 143.375 10.6071C143.074 10.6071 142.794 10.603 142.535 10.5947C142.101 10.5947 141.734 10.5947 141.433 10.5947C141.133 10.5947 140.933 10.5988 140.834 10.6071C140.834 10.6071 140.746 10.6113 140.572 10.6196C140.397 10.6196 140.207 10.6403 140.003 10.6818L139.832 10.134C140.096 10.1838 140.321 10.2128 140.505 10.2211C140.698 10.2295 140.794 10.2336 140.794 10.2336H144.563L144.408 8.76445C144.37 8.39923 144.311 8.16267 144.233 8.05477C144.203 8.00497 144.198 7.95932 144.219 7.91781C144.249 7.88461 144.293 7.87216 144.353 7.88046C144.445 7.88876 144.585 7.90951 144.772 7.94272C144.967 7.96762 145.158 8.00082 145.346 8.04232C145.542 8.07552 145.691 8.10457 145.794 8.12947C145.871 8.15437 145.915 8.21248 145.925 8.30378C145.925 8.38678 145.88 8.43658 145.79 8.45318C145.699 8.46148 145.614 8.48224 145.534 8.51544C145.461 8.54034 145.431 8.61089 145.443 8.72709L145.602 10.2336H149.007C149.09 10.2336 149.15 10.2087 149.187 10.1589C149.208 10.1257 149.256 10.0634 149.33 9.97214C149.412 9.88084 149.49 9.78953 149.564 9.69823C149.645 9.59863 149.693 9.53637 149.707 9.51147C149.767 9.44507 149.849 9.43677 149.955 9.48657C150.025 9.51977 150.141 9.59448 150.304 9.71068C150.475 9.82689 150.637 9.94309 150.791 10.0593C150.944 10.1672 151.044 10.2419 151.09 10.2834C151.163 10.3415 151.195 10.4121 151.188 10.4951C151.179 10.5698 151.137 10.6071 151.062 10.6071H145.353C145.391 11.2877 145.384 11.9352 145.332 12.5494H148.224C148.29 12.5494 148.338 12.5245 148.366 12.4747L148.719 12.0265C148.778 11.9518 148.857 11.9435 148.955 12.0016C149.033 12.0348 149.14 12.1012 149.276 12.2008C149.419 12.2921 149.559 12.3875 149.694 12.4871C149.837 12.5784 149.941 12.649 150.004 12.6988C150.077 12.7569 150.113 12.815 150.11 12.8731C150.108 12.9312 150.075 12.9769 150.012 13.0101C149.949 13.0433 149.881 13.0765 149.81 13.1097C149.746 13.1346 149.686 13.1636 149.631 13.1968C149.583 13.2134 149.536 13.2466 149.491 13.2964C149.454 13.3379 149.432 13.4043 149.425 13.4956C149.454 14.5664 149.43 15.4503 149.353 16.1476C149.284 16.8448 149.151 17.4009 148.952 17.8159C148.754 18.231 148.477 18.5298 148.12 18.7124C147.765 18.9033 147.314 19.0236 146.769 19.0734C146.706 18.7995 146.621 18.5837 146.513 18.426C146.404 18.2683 146.253 18.1396 146.059 18.04C145.865 17.9404 145.604 17.8408 145.276 17.7412C145.255 17.6914 145.245 17.6416 145.248 17.5918C145.26 17.542 145.29 17.5088 145.338 17.4922C145.457 17.5171 145.628 17.5545 145.85 17.6043C146.081 17.6541 146.319 17.6956 146.565 17.7288C146.818 17.762 147.037 17.7744 147.22 17.7661C147.535 17.7495 147.786 17.596 147.972 17.3055C148.159 17.015 148.286 16.5211 148.355 15.8239C148.423 15.1183 148.434 14.1513 148.388 12.9229H145.308C145.138 14.4751 144.688 15.7533 143.959 16.7576C143.23 17.762 142.205 18.5339 140.885 19.0734ZM159.221 18.563C158.848 18.5796 158.5 18.5298 158.179 18.4136C157.867 18.3057 157.612 18.1438 157.415 17.928C157.224 17.7039 157.121 17.4424 157.107 17.1436C157.082 16.7452 157.232 16.4256 157.557 16.1849C157.881 15.9359 158.31 15.8114 158.845 15.8114C159.028 15.8114 159.209 15.8197 159.386 15.8363C159.571 15.8529 159.748 15.8737 159.918 15.8986C159.873 15.5499 159.822 15.1889 159.766 14.8154C159.711 14.4419 159.659 14.0268 159.611 13.5703C159.556 13.0557 159.643 12.6905 159.871 12.4747C160.099 12.2589 160.399 12.1385 160.772 12.1136C160.955 12.1053 161.071 12.0638 161.122 11.9891C161.173 11.9144 161.187 11.8107 161.164 11.6779C161.141 11.5367 161.047 11.3915 160.881 11.2421C160.723 11.0927 160.524 10.9806 160.282 10.9059C160.211 10.7897 160.228 10.7109 160.332 10.6694C160.542 10.6777 160.767 10.7192 161.009 10.7939C161.25 10.8686 161.482 10.964 161.702 11.0802C161.932 11.1964 162.117 11.3292 162.258 11.4786C162.407 11.6281 162.486 11.7858 162.495 11.9518C162.509 12.1593 162.47 12.3128 162.381 12.4124C162.291 12.512 162.173 12.5784 162.026 12.6116C161.879 12.6365 161.725 12.6448 161.566 12.6365C161.406 12.6282 161.263 12.6158 161.136 12.5992C161.11 12.5909 161.089 12.5867 161.072 12.5867C160.759 12.5452 160.517 12.5909 160.348 12.7237C160.186 12.8482 160.125 13.1055 160.166 13.4956C160.217 13.977 160.311 14.4377 160.449 14.8776C160.587 15.3175 160.705 15.7201 160.801 16.0853C161.247 16.1932 161.64 16.3219 161.981 16.4713C162.322 16.6207 162.577 16.7452 162.746 16.8448C162.898 16.9361 163.012 17.0689 163.089 17.2432C163.166 17.4175 163.19 17.5752 163.164 17.7163C163.139 17.8823 163.068 17.9944 162.949 18.0525C162.829 18.1106 162.693 18.0815 162.539 17.9653C162.321 17.7993 162.078 17.6292 161.809 17.4549C161.54 17.2806 161.244 17.1229 160.921 16.9818C160.911 17.4466 160.762 17.8201 160.475 18.1023C160.187 18.3762 159.769 18.5298 159.221 18.563ZM154.353 16.3094C154.222 16.1766 154.134 16.0189 154.09 15.8363C154.045 15.6454 154.077 15.4752 154.187 15.3258C154.397 15.027 154.617 14.6577 154.846 14.2177C155.075 13.7695 155.291 13.284 155.494 12.761C155.706 12.2381 155.88 11.7069 156.015 11.1674C155.916 11.1757 155.817 11.184 155.718 11.1923C155.617 11.1923 155.517 11.1923 155.417 11.1923C154.942 11.2006 154.578 11.0678 154.324 10.7939C154.078 10.52 153.94 10.2045 153.911 9.84764C153.94 9.80613 153.979 9.78123 154.029 9.77293C154.077 9.75633 154.119 9.76463 154.156 9.79783C154.224 10.0468 154.373 10.2295 154.602 10.3457C154.831 10.4619 155.079 10.52 155.346 10.52C155.48 10.52 155.617 10.5117 155.757 10.4951C155.897 10.4785 156.041 10.4536 156.187 10.4204C156.231 10.1962 156.262 9.98044 156.282 9.77293C156.301 9.55713 156.308 9.34962 156.304 9.15041C156.306 9.0093 156.295 8.9014 156.27 8.8267C156.254 8.752 156.209 8.68559 156.137 8.62749C156.1 8.59429 156.039 8.57354 155.955 8.56524C155.87 8.54864 155.801 8.53619 155.751 8.52789C155.664 8.41998 155.668 8.33698 155.762 8.27888C155.926 8.25398 156.114 8.25813 156.327 8.29133C156.547 8.32453 156.737 8.38263 156.896 8.46563C157.063 8.54864 157.193 8.67314 157.286 8.83915C157.386 8.99685 157.38 9.13796 157.267 9.26246C157.115 9.40357 157.022 9.58618 156.987 9.81028C156.975 9.93479 156.952 10.0717 156.917 10.2211C157.321 10.0883 157.668 9.93479 157.958 9.76048C158.075 9.67748 158.289 9.73143 158.601 9.92234C158.743 10.0053 158.822 10.1174 158.837 10.2585C158.859 10.3913 158.791 10.4951 158.632 10.5698C158.432 10.6528 158.161 10.7399 157.82 10.8312C157.488 10.9225 157.129 11.0014 156.744 11.0678C156.64 11.516 156.519 11.9891 156.379 12.4871C156.24 12.9852 156.091 13.4749 155.933 13.9563C155.774 14.4294 155.619 14.861 155.468 15.2511C155.317 15.6413 155.183 15.9484 155.064 16.1725C154.996 16.3136 154.883 16.3966 154.727 16.4215C154.579 16.4381 154.454 16.4007 154.353 16.3094ZM159.086 17.7537C159.377 17.7371 159.599 17.6333 159.755 17.4424C159.918 17.2515 160 16.9942 159.999 16.6705C159.638 16.5709 159.253 16.5211 158.844 16.5211C158.118 16.5211 157.755 16.7244 157.756 17.1312C157.762 17.3387 157.879 17.5005 158.108 17.6167C158.337 17.7329 158.663 17.7786 159.086 17.7537ZM168.973 17.4798C168.67 17.4632 168.372 17.3221 168.077 17.0565C167.782 16.7908 167.521 16.4132 167.294 15.9235C167.067 15.4337 166.906 14.8486 166.809 14.1679C166.769 13.8691 166.736 13.5869 166.708 13.3213C166.687 13.0474 166.664 12.7818 166.637 12.5245C166.613 12.2257 166.586 11.9269 166.555 11.6281C166.532 11.3292 166.492 11.0263 166.434 10.7192C166.407 10.5366 166.352 10.3747 166.271 10.2336C166.189 10.0925 166.111 9.98874 166.038 9.92234C166.007 9.78953 166.054 9.72313 166.179 9.72313C166.467 9.83934 166.725 9.99289 166.954 10.1838C167.19 10.3664 167.339 10.5947 167.401 10.8686C167.457 11.0844 167.488 11.3002 167.494 11.516C167.509 11.7318 167.517 11.9642 167.518 12.2132C167.519 12.4622 167.527 12.7403 167.543 13.0474C167.557 13.3462 167.593 13.6824 167.649 14.0559C167.722 14.5124 167.814 14.8776 167.927 15.1515C168.038 15.4171 168.147 15.6164 168.252 15.7492C168.347 15.8571 168.436 15.9069 168.518 15.8986C168.6 15.882 168.668 15.8156 168.723 15.6994C168.806 15.5333 168.912 15.3175 169.043 15.0519C169.174 14.7863 169.305 14.5249 169.436 14.2676C169.567 14.0019 169.67 13.7944 169.746 13.645C169.867 13.6035 169.95 13.6409 169.996 13.7571C169.956 13.8567 169.905 14.0019 169.841 14.1928C169.786 14.3838 169.725 14.5954 169.658 14.8278C169.598 15.0519 169.538 15.276 169.478 15.5001C169.426 15.716 169.387 15.9027 169.362 16.0604C169.341 16.1766 169.342 16.2721 169.367 16.3468C169.399 16.4132 169.435 16.4796 169.475 16.546C169.496 16.5875 169.518 16.6331 169.54 16.6829C169.561 16.7244 169.579 16.7742 169.593 16.8323C169.679 17.015 169.672 17.1851 169.572 17.3428C169.47 17.4922 169.271 17.5379 168.973 17.4798ZM175.047 15.2387C174.89 15.2553 174.771 15.2345 174.69 15.1764C174.608 15.1183 174.553 14.9897 174.524 14.7905C174.459 14.334 174.334 13.894 174.147 13.4707C173.96 13.0391 173.703 12.6614 173.377 12.3377C173.058 12.0057 172.662 11.7692 172.188 11.6281C172.151 11.5866 172.133 11.5409 172.136 11.4911C172.148 11.4413 172.173 11.4039 172.212 11.379C172.784 11.4205 173.319 11.5824 173.816 11.8646C174.313 12.1468 174.722 12.512 175.045 12.9603C175.376 13.4085 175.566 13.9023 175.614 14.4419C175.625 14.6245 175.58 14.7988 175.481 14.9648C175.382 15.1308 175.237 15.2221 175.047 15.2387ZM178.805 19.0734L178.747 18.5256H181.827L181.153 12.1136H181.779L182.51 19.0734H178.805ZM196.562 18.5256C195.777 18.5256 195.123 18.4136 194.599 18.1894C194.083 17.9653 193.785 17.6001 193.707 17.0938C193.651 16.7203 193.735 16.4049 193.958 16.1476C194.181 15.882 194.475 15.6205 194.84 15.3632C194.972 15.2719 195.128 15.1681 195.308 15.0519C195.495 14.9274 195.694 14.7988 195.906 14.666C195.849 14.3672 195.77 14.0891 195.668 13.8318C195.573 13.5662 195.451 13.3545 195.301 13.1968C195.15 13.0308 194.957 12.9478 194.724 12.9478C194.432 12.9478 194.157 13.0308 193.899 13.1968C193.64 13.3545 193.411 13.562 193.213 13.8193C193.022 14.0683 192.862 14.3298 192.732 14.6037C192.617 14.861 192.49 14.998 192.349 15.0146C192.208 15.0229 192.066 14.9399 191.923 14.7656C191.758 14.5498 191.697 14.363 191.739 14.2053C191.789 14.0476 191.886 13.9023 192.031 13.7695C192.228 13.5786 192.436 13.3379 192.656 13.0474C192.884 12.7569 193.109 12.4373 193.331 12.0887C193.553 11.7401 193.758 11.3873 193.946 11.0304C193.814 11.0387 193.681 11.047 193.548 11.0553C193.415 11.0553 193.285 11.0553 193.16 11.0553C192.693 11.0553 192.346 10.9308 192.119 10.6818C191.9 10.4245 191.764 10.1174 191.71 9.76048C191.783 9.66088 191.869 9.64843 191.969 9.72313C192.046 9.98044 192.18 10.1464 192.371 10.2211C192.562 10.2876 192.795 10.3208 193.07 10.3208C193.253 10.3125 193.453 10.3042 193.669 10.2959C193.892 10.2793 194.111 10.2544 194.324 10.2211C194.379 10.1049 194.426 9.99289 194.464 9.88499C194.511 9.76878 194.545 9.66088 194.568 9.56128C194.657 9.29567 194.658 9.07156 194.572 8.88895C194.487 8.70634 194.323 8.57769 194.081 8.50299C194.043 8.46148 194.03 8.41583 194.042 8.36603C194.053 8.31623 194.074 8.27888 194.105 8.25398C194.298 8.26228 194.519 8.30378 194.769 8.37848C195.027 8.44488 195.236 8.52789 195.396 8.62749C195.548 8.71879 195.635 8.835 195.658 8.9761C195.681 9.10891 195.646 9.22096 195.556 9.31227C195.504 9.37037 195.448 9.44092 195.39 9.52392C195.332 9.60693 195.286 9.68163 195.251 9.74803C195.212 9.84764 195.161 9.95969 195.099 10.0842C195.22 10.051 195.334 10.0219 195.44 9.99704C195.545 9.96384 195.638 9.93064 195.718 9.89744C195.797 9.85594 195.878 9.83519 195.961 9.83519C196.053 9.83519 196.17 9.87669 196.312 9.95969C196.56 10.0925 196.688 10.2336 196.695 10.383C196.702 10.5324 196.601 10.6403 196.391 10.7067C196.229 10.7565 195.988 10.8063 195.668 10.8561C195.355 10.8976 195.013 10.9391 194.642 10.9806C194.454 11.3375 194.263 11.6986 194.067 12.0638C193.871 12.4207 193.702 12.7195 193.561 12.9603C193.715 12.8357 193.887 12.732 194.079 12.649C194.278 12.5577 194.494 12.512 194.728 12.512C195.129 12.512 195.461 12.6199 195.726 12.8357C195.999 13.0516 196.219 13.3213 196.387 13.645C196.488 13.2549 196.638 12.8939 196.836 12.5618C197.043 12.2215 197.293 11.9476 197.589 11.7401C197.892 11.5326 198.245 11.4288 198.645 11.4288C199.071 11.4288 199.416 11.4994 199.682 11.6405C199.946 11.7733 200.134 11.9352 200.246 12.1261C200.358 12.317 200.394 12.4996 200.353 12.6739C200.313 12.8399 200.2 12.9603 200.016 13.035C199.759 13.1346 199.449 13.2757 199.084 13.4583C198.727 13.6326 198.351 13.8318 197.957 14.0559C197.563 14.2717 197.177 14.4958 196.801 14.7282C196.877 15.0519 196.935 15.3632 196.974 15.662C197.023 15.9608 197.057 16.2098 197.078 16.409C197.099 16.6082 197.057 16.7659 196.952 16.8821C196.847 16.9901 196.723 17.044 196.581 17.044C196.298 17.044 196.14 16.8904 196.107 16.5833C196.104 16.5501 196.099 16.5086 196.094 16.4588C196.088 16.4007 196.086 16.3385 196.087 16.2721C196.072 16.131 196.06 15.9733 196.05 15.799C196.04 15.6247 196.02 15.4379 195.991 15.2387C195.835 15.3466 195.684 15.4503 195.535 15.5499C195.395 15.6413 195.267 15.7326 195.151 15.8239C194.927 15.9982 194.774 16.1683 194.692 16.3343C194.609 16.5003 194.587 16.6912 194.627 16.9071C194.682 17.1976 194.877 17.3885 195.213 17.4798C195.548 17.5711 195.995 17.6167 196.554 17.6167C196.946 17.6167 197.335 17.5877 197.722 17.5296C198.108 17.4715 198.406 17.4092 198.616 17.3428C198.728 17.3013 198.818 17.2847 198.886 17.293C198.953 17.293 199.043 17.3138 199.155 17.3553C199.531 17.513 199.733 17.6914 199.763 17.8906C199.791 18.0815 199.683 18.2102 199.44 18.2766C199.132 18.3596 198.713 18.4219 198.183 18.4634C197.661 18.5049 197.121 18.5256 196.562 18.5256ZM196.657 14.1928C197.041 13.9521 197.425 13.7114 197.808 13.4707C198.191 13.2217 198.53 12.9935 198.825 12.7859C199.097 12.595 199.211 12.4083 199.167 12.2257C199.122 12.0348 198.941 11.9393 198.624 11.9393C198.248 11.9393 197.926 12.0514 197.658 12.2755C197.389 12.4996 197.173 12.7859 197.009 13.1346C196.845 13.4749 196.727 13.8276 196.657 14.1928ZM204.683 19.0859C204.516 19.0859 204.425 19.0112 204.409 18.8618C204.404 18.812 204.388 18.6211 204.361 18.2891C204.344 17.9653 204.312 17.5462 204.267 17.0316C204.229 16.5169 204.182 15.9484 204.125 15.3258C204.076 14.7033 204.019 14.0766 203.952 13.4458C203.888 12.8316 203.835 12.4041 203.793 12.1634C203.75 11.9144 203.702 11.736 203.649 11.6281C203.625 11.5617 203.62 11.516 203.634 11.4911C203.673 11.4579 203.718 11.4537 203.771 11.4786C203.867 11.5201 204.025 11.5949 204.245 11.7028C204.472 11.8024 204.652 11.8854 204.784 11.9518H206.587C206.654 11.9518 206.701 11.9269 206.73 11.8771C206.766 11.8273 206.81 11.7692 206.861 11.7028C206.912 11.6281 206.959 11.5575 207.002 11.4911C207.061 11.4164 207.144 11.4122 207.251 11.4786C207.321 11.5118 207.415 11.57 207.532 11.653C207.649 11.7277 207.761 11.8065 207.87 11.8895C207.986 11.9642 208.072 12.0265 208.128 12.0763C208.19 12.1178 208.221 12.1717 208.22 12.2381C208.226 12.2962 208.197 12.3377 208.133 12.3626C208.093 12.3792 208.049 12.4 208.001 12.4249C207.954 12.4498 207.907 12.4747 207.859 12.4996C207.811 12.5162 207.788 12.5784 207.791 12.6863C207.795 12.7278 207.802 12.8316 207.811 12.9976C207.828 13.1553 207.84 13.313 207.849 13.4707C207.865 13.6284 207.876 13.7322 207.881 13.782C207.961 14.4626 208.035 15.0893 208.104 15.662C208.172 16.2347 208.23 16.7078 208.278 17.0814C208.325 17.4466 208.351 17.6582 208.357 17.7163C208.395 18.0732 208.337 18.3596 208.185 18.5754C208.032 18.7912 207.703 18.9572 207.198 19.0734C207.097 18.8244 206.993 18.6335 206.887 18.5007C206.79 18.3679 206.663 18.2683 206.505 18.2019C206.349 18.1438 206.136 18.0981 205.865 18.0649C205.787 17.957 205.79 17.8699 205.875 17.8035C205.993 17.8118 206.174 17.8242 206.417 17.8408C206.66 17.8491 206.882 17.8533 207.082 17.8533C207.207 17.8533 207.293 17.8325 207.339 17.791C207.383 17.7412 207.4 17.6582 207.388 17.542L207.216 15.911H205.088L205.388 18.7622C205.396 18.8452 205.325 18.9199 205.173 18.9863C205.022 19.0527 204.858 19.0859 204.683 19.0859ZM202.604 10.7441L202.435 10.2087C202.699 10.2585 202.924 10.2876 203.108 10.2959C203.301 10.3042 203.397 10.3083 203.397 10.3083H206.302C206.246 10.2585 206.201 10.1838 206.166 10.0842C205.996 9.66088 205.785 9.27906 205.532 8.93875C205.279 8.59844 204.983 8.32453 204.644 8.11702C204.631 8.06722 204.634 8.02157 204.655 7.98007C204.676 7.93856 204.711 7.91366 204.76 7.90536C205.264 8.02157 205.727 8.21247 206.147 8.47808C206.575 8.74369 206.855 9.05911 206.985 9.42432C207.065 9.63183 207.089 9.81443 207.055 9.97214C207.021 10.1215 206.953 10.2336 206.853 10.3083H208.931C209.017 10.0925 209.101 9.82689 209.185 9.51147C209.269 9.19606 209.337 8.8931 209.39 8.60259C209.442 8.30378 209.456 8.07552 209.431 7.91781C209.424 7.85141 209.432 7.80991 209.455 7.79331C209.486 7.76841 209.528 7.76841 209.58 7.79331C209.684 7.82651 209.828 7.88461 210.012 7.96762C210.195 8.04232 210.378 8.12117 210.562 8.20417C210.754 8.27888 210.903 8.34528 211.009 8.40338C211.097 8.44488 211.128 8.50299 211.102 8.57769C211.087 8.66899 211.037 8.70634 210.951 8.68974C210.841 8.67314 210.758 8.67729 210.702 8.70219C210.646 8.71879 210.588 8.7686 210.53 8.8516C210.372 9.09231 210.186 9.34547 209.972 9.61108C209.758 9.87669 209.552 10.1091 209.356 10.3083H211.823C211.914 10.3083 211.982 10.2793 212.026 10.2211C212.069 10.1547 212.138 10.051 212.231 9.90989C212.324 9.76048 212.388 9.65673 212.424 9.59863C212.483 9.52392 212.57 9.51562 212.684 9.57373C212.765 9.62353 212.873 9.70238 213.01 9.81028C213.145 9.90989 213.277 10.0136 213.405 10.1215C213.533 10.2212 213.629 10.3 213.693 10.3581C213.767 10.4245 213.795 10.4951 213.778 10.5698C213.769 10.6445 213.731 10.6818 213.665 10.6818C213.64 10.6818 213.569 10.6818 213.452 10.6818C213.335 10.6818 213.185 10.6818 213.001 10.6818C212.684 10.6818 212.279 10.6818 211.787 10.6818C211.303 10.6818 210.769 10.6818 210.184 10.6818C209.608 10.6735 209.015 10.6694 208.405 10.6694C207.796 10.6694 207.204 10.6694 206.628 10.6694C206.06 10.6694 205.543 10.6694 205.075 10.6694C204.616 10.6694 204.241 10.6735 203.95 10.6818C203.658 10.6818 203.487 10.6818 203.437 10.6818C203.437 10.6818 203.349 10.686 203.175 10.6943C203 10.6943 202.81 10.7109 202.604 10.7441ZM212.057 19.0859C211.954 18.8203 211.84 18.6086 211.715 18.4509C211.599 18.3015 211.445 18.1894 211.254 18.1147C211.062 18.04 210.801 17.9819 210.472 17.9404C210.434 17.8989 210.417 17.8533 210.42 17.8035C210.431 17.7537 210.452 17.7163 210.483 17.6914C210.566 17.6914 210.7 17.6956 210.885 17.7039C211.069 17.7122 211.266 17.7205 211.476 17.7288C211.685 17.7371 211.857 17.7412 211.99 17.7412C212.132 17.7412 212.225 17.7122 212.269 17.6541C212.312 17.5877 212.327 17.4881 212.313 17.3553L211.787 12.3502C211.768 12.1676 211.744 12.0223 211.716 11.9144C211.687 11.7982 211.658 11.7152 211.627 11.6654C211.589 11.6156 211.584 11.5741 211.614 11.5409C211.636 11.5077 211.676 11.4952 211.735 11.5035C211.837 11.5118 211.972 11.5326 212.143 11.5658C212.312 11.5907 212.482 11.6198 212.653 11.653C212.822 11.6779 212.959 11.7069 213.062 11.7401C213.138 11.7484 213.182 11.8024 213.192 11.902C213.192 11.985 213.148 12.0348 213.057 12.0514C212.967 12.0597 212.885 12.0804 212.814 12.1136C212.741 12.1385 212.711 12.2091 212.723 12.3253L212.896 13.9687C212.955 14.5332 213.016 15.0727 213.079 15.5873C213.141 16.1019 213.195 16.5377 213.241 16.8946C213.286 17.2432 213.314 17.4673 213.324 17.5669C213.37 17.9985 213.3 18.3264 213.115 18.5505C212.939 18.7829 212.586 18.9614 212.057 19.0859ZM210.031 17.0814C209.839 17.0814 209.735 17.0025 209.718 16.8448C209.713 16.795 209.699 16.6248 209.677 16.3343C209.662 16.0355 209.637 15.6745 209.601 15.2511C209.563 14.8195 209.521 14.3755 209.473 13.9189L209.338 12.6365C209.302 12.2879 209.249 12.068 209.181 11.9767C209.143 11.9269 209.138 11.8854 209.168 11.8522C209.19 11.819 209.23 11.8065 209.289 11.8148C209.39 11.8231 209.522 11.8439 209.684 11.8771C209.854 11.902 210.024 11.931 210.194 11.9642C210.364 11.9974 210.497 12.0265 210.591 12.0514C210.686 12.0763 210.729 12.1302 210.721 12.2132C210.73 12.2962 210.685 12.346 210.586 12.3626C210.504 12.3709 210.423 12.3917 210.343 12.4249C210.27 12.4498 210.24 12.5203 210.252 12.6365L210.387 13.9189C210.431 14.3423 210.479 14.7573 210.53 15.164C210.59 15.5707 210.639 15.9193 210.678 16.2098C210.716 16.492 210.738 16.6663 210.745 16.7327C210.754 16.8157 210.683 16.8946 210.532 16.9693C210.39 17.044 210.223 17.0814 210.031 17.0814ZM205.047 15.525H207.176L207.024 14.0808H204.896L205.047 15.525ZM204.856 13.7073H206.985L206.839 12.3253H204.711L204.856 13.7073ZM220.5 12.9478C220.425 12.9478 220.357 12.9312 220.295 12.898C220.24 12.8565 220.209 12.7942 220.2 12.7112C220.197 12.678 220.189 12.566 220.177 12.3751C220.166 12.1842 220.144 11.9435 220.114 11.653C220.092 11.3624 220.067 11.047 220.039 10.7067C220.012 10.3664 219.981 10.0302 219.946 9.69823C219.898 9.24171 219.85 8.9014 219.801 8.67729C219.753 8.45318 219.701 8.27888 219.646 8.15437C219.624 8.10457 219.628 8.06307 219.658 8.02987C219.688 7.99667 219.733 7.99252 219.794 8.01742C219.916 8.05892 220.082 8.12947 220.292 8.22908C220.511 8.32038 220.686 8.39923 220.818 8.46563H223.51C223.56 8.46563 223.603 8.44488 223.641 8.40338C223.67 8.36188 223.714 8.30378 223.773 8.22908C223.84 8.15437 223.892 8.09212 223.928 8.04232C223.988 7.97592 224.066 7.96762 224.164 8.01742C224.278 8.07552 224.425 8.16267 224.604 8.27888C224.792 8.39508 224.936 8.49469 225.036 8.57769C225.099 8.61919 225.133 8.66484 225.138 8.71464C225.143 8.76445 225.115 8.8101 225.052 8.8516L224.815 8.9761C224.744 9.01761 224.716 9.10061 224.729 9.22511C224.761 9.53222 224.8 9.86424 224.846 10.2211C224.892 10.5781 224.932 10.9225 224.967 11.2545C225.01 11.5866 225.048 11.8646 225.08 12.0887C225.112 12.3128 225.13 12.4498 225.135 12.4996C225.144 12.5826 225.069 12.6573 224.909 12.7237C224.756 12.7818 224.596 12.8108 224.429 12.8108C224.263 12.8108 224.172 12.7403 224.157 12.5992L224.122 12.263H221.129L221.171 12.6614C221.179 12.7361 221.111 12.8025 220.967 12.8606C220.823 12.9188 220.667 12.9478 220.5 12.9478ZM218.841 19.0734C218.73 19.0485 218.68 18.978 218.693 18.8618C219.292 18.4468 219.703 17.9031 219.924 17.2308C220.154 16.5584 220.234 15.7367 220.166 14.7656C220.154 14.6577 220.141 14.5705 220.126 14.5041C220.109 14.4294 220.091 14.3713 220.07 14.3298C220.046 14.2634 220.05 14.2219 220.082 14.2053C220.095 14.1721 220.132 14.1638 220.192 14.1804C220.294 14.197 220.427 14.2302 220.59 14.28C220.762 14.3298 220.93 14.3796 221.094 14.4294C221.266 14.4792 221.404 14.5207 221.508 14.5539C221.595 14.5871 221.634 14.6452 221.626 14.7282C221.61 14.8112 221.56 14.8527 221.477 14.8527C221.352 14.8527 221.265 14.8652 221.218 14.8901C221.179 14.915 221.157 14.9855 221.152 15.1017C221.155 15.2096 221.15 15.3134 221.135 15.413C221.129 15.5126 221.122 15.6081 221.115 15.6994C221.418 16.5958 221.945 17.2017 222.696 17.5171L222.307 13.8193C222.098 13.8193 221.898 13.8193 221.706 13.8193C221.523 13.8193 221.347 13.8193 221.18 13.8193C220.913 13.8193 220.684 13.8193 220.492 13.8193C220.308 13.8193 220.187 13.8193 220.129 13.8193C220.129 13.8193 220.042 13.8235 219.867 13.8318C219.692 13.8318 219.498 13.8484 219.284 13.8816L219.114 13.3338C219.379 13.3919 219.603 13.4251 219.788 13.4334C219.981 13.4417 220.077 13.4458 220.077 13.4458H224.934C225.001 13.4458 225.057 13.4209 225.102 13.3711C225.137 13.313 225.203 13.2176 225.297 13.0848C225.4 12.952 225.47 12.8606 225.506 12.8108C225.557 12.7361 225.631 12.732 225.73 12.7984C225.801 12.8399 225.892 12.9063 226.001 12.9976C226.12 13.0889 226.233 13.1802 226.343 13.2715C226.461 13.3628 226.548 13.4375 226.605 13.4956C226.679 13.5703 226.708 13.645 226.691 13.7197C226.681 13.7861 226.635 13.8193 226.551 13.8193H223.246L223.412 15.4005H224.589C224.656 15.4005 224.712 15.3756 224.756 15.3258C224.792 15.2677 224.85 15.1847 224.931 15.0768C225.019 14.9689 225.078 14.8901 225.106 14.8403C225.165 14.7656 225.248 14.7614 225.355 14.8278C225.461 14.8859 225.601 14.9855 225.775 15.1266C225.948 15.2677 226.081 15.3798 226.173 15.4628C226.246 15.5209 226.274 15.5873 226.256 15.662C226.248 15.7367 226.21 15.7741 226.143 15.7741H223.451L223.662 17.7786C224.01 17.8284 224.388 17.8533 224.797 17.8533C225.389 17.8533 225.912 17.8284 226.366 17.7786C226.828 17.7205 227.136 17.6748 227.291 17.6416C227.182 17.7993 227.095 17.9985 227.028 18.2393C226.962 18.4883 226.93 18.6958 226.931 18.8618H225.954C224.986 18.8618 224.179 18.7663 223.533 18.5754C222.888 18.3928 222.366 18.1147 221.968 17.7412C221.569 17.3594 221.252 16.8863 221.018 16.3219C220.751 17.6001 220.026 18.5173 218.841 19.0734ZM217.315 19.0859C217.22 18.8203 217.119 18.6128 217.011 18.4634C216.913 18.3223 216.785 18.2185 216.628 18.1521C216.47 18.0774 216.247 18.0234 215.96 17.9902C215.874 17.8823 215.877 17.7993 215.972 17.7412C216.047 17.7412 216.16 17.7454 216.311 17.7537C216.47 17.762 216.634 17.7703 216.802 17.7786C216.969 17.7786 217.115 17.7786 217.24 17.7786C217.382 17.7786 217.467 17.7537 217.495 17.7039C217.531 17.6541 217.544 17.5711 217.531 17.4549L217.217 14.4668C217.084 14.5498 216.955 14.6286 216.829 14.7033C216.711 14.7697 216.605 14.832 216.511 14.8901C216.432 14.9316 216.383 14.9814 216.364 15.0395C216.344 15.0893 216.356 15.1681 216.401 15.276C216.433 15.3424 216.414 15.3964 216.343 15.4379C216.272 15.4794 216.212 15.4669 216.164 15.4005C216.106 15.3258 216.015 15.2138 215.89 15.0644C215.774 14.9067 215.657 14.7448 215.539 14.5788C215.421 14.4128 215.329 14.2883 215.262 14.2053C215.224 14.1638 215.216 14.1223 215.236 14.0808C215.241 14.0476 215.277 14.031 215.344 14.031C215.485 14.0227 215.726 13.977 216.068 13.894C216.41 13.811 216.761 13.7031 217.123 13.5703L216.829 10.769C216.737 10.769 216.649 10.769 216.566 10.769C216.491 10.769 216.42 10.769 216.353 10.769C216.236 10.769 216.136 10.769 216.052 10.769C215.977 10.769 215.923 10.769 215.89 10.769C215.89 10.769 215.811 10.7731 215.653 10.7814C215.495 10.7814 215.321 10.7939 215.131 10.8188L214.964 10.2959C215.211 10.3457 215.418 10.3747 215.586 10.383C215.754 10.3913 215.838 10.3955 215.838 10.3955H216.789L216.615 8.73954C216.594 8.53204 216.568 8.37018 216.539 8.25398C216.51 8.13777 216.476 8.05062 216.437 7.99252C216.397 7.93441 216.392 7.88876 216.422 7.85556C216.444 7.82236 216.484 7.80991 216.544 7.81821C216.636 7.82651 216.764 7.84726 216.926 7.88046C217.096 7.91366 217.266 7.94687 217.437 7.98007C217.607 8.01327 217.74 8.04232 217.834 8.06722C217.912 8.09212 217.956 8.15022 217.965 8.24153C217.966 8.33283 217.921 8.37848 217.829 8.37848C217.738 8.38678 217.657 8.40753 217.585 8.44073C217.513 8.46563 217.483 8.53619 217.495 8.65239L217.678 10.3955H218.079C218.146 10.3955 218.193 10.3706 218.221 10.3208C218.257 10.2627 218.312 10.1879 218.385 10.0966C218.458 9.99704 218.513 9.91819 218.548 9.86009C218.616 9.78538 218.699 9.78123 218.797 9.84764C218.896 9.91404 219.019 10.0095 219.166 10.134C219.311 10.2502 219.431 10.354 219.524 10.4453C219.598 10.52 219.627 10.5947 219.61 10.6694C219.6 10.7358 219.558 10.769 219.483 10.769H217.717L217.979 13.2591C218.332 13.1263 218.657 12.9976 218.953 12.8731C219.248 12.7486 219.484 12.649 219.66 12.5743C219.771 12.5992 219.821 12.6739 219.809 12.7984C219.637 12.9146 219.388 13.0806 219.06 13.2964C218.739 13.5039 218.403 13.7197 218.051 13.9438L218.114 14.5415C218.163 15.0063 218.215 15.4669 218.272 15.9235C218.336 16.38 218.39 16.7659 218.431 17.0814C218.473 17.3968 218.496 17.5835 218.502 17.6416C218.542 18.0151 218.485 18.314 218.334 18.5381C218.183 18.7705 217.843 18.9531 217.315 19.0859ZM221.09 11.8895H224.082L223.937 10.5075H220.945L221.09 11.8895ZM220.904 10.1215H223.896L223.762 8.83915H220.77L220.904 10.1215ZM231.224 17.7786C231.139 17.845 231.021 17.874 230.87 17.8657C230.727 17.8574 230.592 17.8076 230.466 17.7163C230.157 17.4756 229.887 17.127 229.655 16.6705C229.423 16.214 229.266 15.5915 229.183 14.8029C229.127 14.2634 229.109 13.7778 229.13 13.3462C229.152 12.9146 229.185 12.5203 229.231 12.1634C229.285 11.7982 229.328 11.4537 229.361 11.13C229.392 10.798 229.391 10.4702 229.357 10.1464C229.34 9.98044 229.293 9.81443 229.217 9.64843C229.141 9.47412 229.064 9.33717 228.986 9.23756C228.972 9.10476 229.025 9.04666 229.143 9.06326C229.418 9.21266 229.682 9.42432 229.936 9.69823C230.19 9.97214 230.331 10.2751 230.357 10.6071C230.383 10.8561 230.364 11.1093 230.299 11.3666C230.235 11.6239 230.156 11.9103 230.064 12.2257C229.98 12.5328 229.913 12.8897 229.864 13.2964C229.823 13.7031 229.831 14.1804 229.889 14.7282C229.943 15.2428 230.051 15.633 230.212 15.8986C230.263 15.9816 230.308 16.0189 230.349 16.0106C230.398 16.0023 230.432 15.9608 230.449 15.8861C230.499 15.6454 230.561 15.3673 230.637 15.0519C230.719 14.7282 230.8 14.4211 230.878 14.1306C230.963 13.8318 231.027 13.6035 231.069 13.4458C231.181 13.4043 231.264 13.4375 231.317 13.5454C231.291 13.6948 231.252 13.9189 231.2 14.2177C231.155 14.5083 231.115 14.8361 231.078 15.2013C231.041 15.5666 231.021 15.9318 231.018 16.297C231.026 16.4547 231.048 16.5833 231.083 16.6829C231.126 16.7742 231.203 16.9071 231.313 17.0814C231.393 17.2059 231.419 17.3387 231.393 17.4798C231.373 17.6126 231.317 17.7122 231.224 17.7786ZM235.803 17.2806C235.136 17.2806 234.597 17.1976 234.187 17.0316C233.777 16.8572 233.463 16.6165 233.248 16.3094C233.039 15.994 232.891 15.6205 232.804 15.1889C232.877 15.0893 232.959 15.0727 233.049 15.1391C233.266 15.6122 233.57 15.9235 233.961 16.0729C234.352 16.214 234.906 16.2845 235.624 16.2845C235.999 16.2845 236.352 16.2638 236.681 16.2223C237.011 16.1808 237.318 16.1268 237.603 16.0604C237.701 16.0355 237.779 16.0314 237.84 16.048C237.908 16.0646 237.978 16.0936 238.049 16.1351C238.234 16.2264 238.367 16.3385 238.447 16.4713C238.528 16.6041 238.545 16.7286 238.499 16.8448C238.453 16.961 238.336 17.0399 238.149 17.0814C237.48 17.2308 236.698 17.2972 235.803 17.2806ZM234.771 11.1549C234.231 11.1715 233.785 11.0968 233.433 10.9308C233.082 10.7648 232.78 10.5158 232.529 10.1838C232.531 10.1257 232.547 10.08 232.577 10.0468C232.615 10.0136 232.66 10.0053 232.712 10.0219C232.876 10.1547 233.111 10.2419 233.415 10.2834C233.728 10.3166 234.062 10.3208 234.418 10.2959C234.774 10.2627 235.111 10.2128 235.429 10.1464C235.748 10.08 235.999 10.0136 236.184 9.94724C236.297 9.90574 236.421 9.89744 236.557 9.92234C236.693 9.94724 236.836 10.0302 236.984 10.1713C237.197 10.3706 237.281 10.5324 237.235 10.6569C237.19 10.7814 237.033 10.8769 236.765 10.9433C236.569 10.9848 236.289 11.0263 235.927 11.0678C235.564 11.1093 235.179 11.1383 234.771 11.1549ZM246.259 18.3762C245.692 18.3762 245.195 18.2974 244.77 18.1396C244.352 17.9736 244.013 17.6873 243.753 17.2806C243.501 16.8655 243.335 16.2804 243.255 15.525C243.217 15.1598 243.18 14.7324 243.146 14.2427C243.119 13.7529 243.095 13.2466 243.074 12.7237C243.051 12.1925 243.024 11.6903 242.99 11.2172C242.965 10.7358 242.934 10.3208 242.897 9.97214C242.868 9.68993 242.815 9.46997 242.74 9.31227C242.665 9.15456 242.528 9.04251 242.329 8.9761C242.292 8.9346 242.278 8.88895 242.29 8.83915C242.301 8.78935 242.327 8.75615 242.367 8.73954C242.998 8.78935 243.484 8.96365 243.824 9.26246C243.98 9.39527 244.074 9.53222 244.105 9.67333C244.137 9.81444 244.129 9.94309 244.083 10.0593C244.023 10.2004 243.982 10.5283 243.961 11.0429C243.948 11.5575 243.958 12.2008 243.989 12.9727C244.019 13.7363 244.082 14.5747 244.178 15.4877C244.25 16.1766 244.44 16.6746 244.748 16.9818C245.063 17.2806 245.534 17.43 246.16 17.43C247.053 17.43 247.823 17.2972 248.471 17.0316C249.127 16.7576 249.716 16.4422 250.237 16.0853C250.399 16.1102 250.479 16.1974 250.478 16.3468C250.309 16.5709 250.079 16.8033 249.787 17.044C249.503 17.2764 249.171 17.4964 248.793 17.7039C248.421 17.9031 248.021 18.0649 247.592 18.1894C247.162 18.314 246.718 18.3762 246.259 18.3762ZM259.374 18.563C259 18.5796 258.653 18.5298 258.332 18.4136C258.02 18.3057 257.765 18.1438 257.567 17.928C257.376 17.7039 257.274 17.4424 257.259 17.1436C257.234 16.7452 257.384 16.4256 257.709 16.1849C258.034 15.9359 258.463 15.8114 258.997 15.8114C259.181 15.8114 259.361 15.8197 259.538 15.8363C259.723 15.8529 259.901 15.8737 260.07 15.8986C260.025 15.5499 259.975 15.1889 259.919 14.8154C259.863 14.4419 259.811 14.0268 259.763 13.5703C259.709 13.0557 259.796 12.6905 260.023 12.4747C260.251 12.2589 260.551 12.1385 260.924 12.1136C261.107 12.1053 261.224 12.0638 261.274 11.9891C261.325 11.9144 261.339 11.8107 261.317 11.6779C261.294 11.5367 261.199 11.3915 261.033 11.2421C260.875 11.0927 260.676 10.9806 260.434 10.9059C260.364 10.7897 260.38 10.7109 260.485 10.6694C260.694 10.6777 260.92 10.7192 261.161 10.7939C261.403 10.8686 261.634 10.964 261.855 11.0802C262.084 11.1964 262.269 11.3292 262.41 11.4786C262.559 11.6281 262.638 11.7858 262.647 11.9518C262.661 12.1593 262.623 12.3128 262.533 12.4124C262.443 12.512 262.325 12.5784 262.179 12.6116C262.031 12.6365 261.877 12.6448 261.718 12.6365C261.558 12.6282 261.415 12.6158 261.288 12.5992C261.262 12.5909 261.241 12.5867 261.224 12.5867C260.911 12.5452 260.67 12.5909 260.5 12.7237C260.338 12.8482 260.277 13.1055 260.318 13.4956C260.369 13.977 260.463 14.4377 260.601 14.8776C260.739 15.3175 260.857 15.7201 260.954 16.0853C261.399 16.1932 261.792 16.3219 262.133 16.4713C262.475 16.6207 262.73 16.7452 262.899 16.8448C263.05 16.9361 263.164 17.0689 263.241 17.2432C263.318 17.4175 263.343 17.5752 263.316 17.7163C263.292 17.8823 263.22 17.9944 263.101 18.0525C262.982 18.1106 262.845 18.0815 262.691 17.9653C262.473 17.7993 262.23 17.6292 261.961 17.4549C261.693 17.2806 261.397 17.1229 261.073 16.9818C261.063 17.4466 260.915 17.8201 260.627 18.1023C260.339 18.3762 259.921 18.5298 259.374 18.563ZM254.505 16.3094C254.374 16.1766 254.287 16.0189 254.242 15.8363C254.197 15.6454 254.229 15.4752 254.339 15.3258C254.55 15.027 254.769 14.6577 254.999 14.2177C255.227 13.7695 255.443 13.284 255.647 12.761C255.859 12.2381 256.033 11.7069 256.168 11.1674C256.069 11.1757 255.969 11.184 255.87 11.1923C255.77 11.1923 255.67 11.1923 255.57 11.1923C255.095 11.2006 254.73 11.0678 254.476 10.7939C254.23 10.52 254.093 10.2045 254.064 9.84764C254.093 9.80613 254.132 9.78123 254.181 9.77293C254.229 9.75633 254.272 9.76463 254.309 9.79783C254.377 10.0468 254.525 10.2295 254.754 10.3457C254.984 10.4619 255.232 10.52 255.499 10.52C255.632 10.52 255.769 10.5117 255.909 10.4951C256.049 10.4785 256.193 10.4536 256.34 10.4204C256.383 10.1962 256.414 9.98044 256.434 9.77293C256.453 9.55713 256.461 9.34962 256.457 9.15041C256.458 9.0093 256.447 8.9014 256.423 8.8267C256.406 8.752 256.362 8.68559 256.289 8.62749C256.252 8.59429 256.191 8.57354 256.107 8.56524C256.022 8.54864 255.954 8.53619 255.903 8.52789C255.816 8.41998 255.82 8.33698 255.914 8.27888C256.079 8.25398 256.267 8.25813 256.479 8.29133C256.699 8.32453 256.889 8.38263 257.048 8.46563C257.215 8.54864 257.345 8.67314 257.438 8.83915C257.538 8.99685 257.532 9.13796 257.42 9.26246C257.268 9.40357 257.174 9.58618 257.139 9.81028C257.127 9.93479 257.104 10.0717 257.07 10.2211C257.473 10.0883 257.82 9.93479 258.111 9.76048C258.227 9.67748 258.441 9.73143 258.754 9.92234C258.896 10.0053 258.974 10.1174 258.989 10.2585C259.012 10.3913 258.943 10.4951 258.784 10.5698C258.584 10.6528 258.314 10.7399 257.973 10.8312C257.64 10.9225 257.281 11.0014 256.896 11.0678C256.793 11.516 256.671 11.9891 256.532 12.4871C256.392 12.9852 256.243 13.4749 256.085 13.9563C255.926 14.4294 255.771 14.861 255.621 15.2511C255.47 15.6413 255.335 15.9484 255.217 16.1725C255.148 16.3136 255.036 16.3966 254.88 16.4215C254.731 16.4381 254.606 16.4007 254.505 16.3094ZM259.239 17.7537C259.529 17.7371 259.752 17.6333 259.907 17.4424C260.071 17.2515 260.152 16.9942 260.151 16.6705C259.79 16.5709 259.405 16.5211 258.996 16.5211C258.27 16.5211 257.908 16.7244 257.909 17.1312C257.914 17.3387 258.031 17.5005 258.26 17.6167C258.49 17.7329 258.816 17.7786 259.239 17.7537ZM269.125 17.4798C268.823 17.4632 268.524 17.3221 268.229 17.0565C267.934 16.7908 267.673 16.4132 267.447 15.9235C267.22 15.4337 267.058 14.8486 266.962 14.1679C266.922 13.8691 266.888 13.5869 266.86 13.3213C266.84 13.0474 266.816 12.7818 266.789 12.5245C266.766 12.2257 266.739 11.9269 266.707 11.6281C266.684 11.3292 266.644 11.0263 266.587 10.7192C266.559 10.5366 266.505 10.3747 266.423 10.2336C266.341 10.0925 266.264 9.98874 266.19 9.92234C266.159 9.78953 266.207 9.72313 266.332 9.72313C266.619 9.83934 266.877 9.99289 267.106 10.1838C267.342 10.3664 267.492 10.5947 267.554 10.8686C267.61 11.0844 267.641 11.3002 267.647 11.516C267.661 11.7318 267.669 11.9642 267.67 12.2132C267.671 12.4622 267.68 12.7403 267.695 13.0474C267.71 13.3462 267.745 13.6824 267.801 14.0559C267.874 14.5124 267.967 14.8776 268.079 15.1515C268.19 15.4171 268.299 15.6164 268.405 15.7492C268.5 15.8571 268.588 15.9069 268.671 15.8986C268.753 15.882 268.821 15.8156 268.875 15.6994C268.958 15.5333 269.065 15.3175 269.195 15.0519C269.326 14.7863 269.457 14.5249 269.589 14.2676C269.719 14.0019 269.823 13.7944 269.899 13.645C270.02 13.6035 270.103 13.6409 270.148 13.7571C270.109 13.8567 270.057 14.0019 269.994 14.1928C269.939 14.3838 269.878 14.5954 269.81 14.8278C269.75 15.0519 269.69 15.276 269.63 15.5001C269.578 15.716 269.539 15.9027 269.514 16.0604C269.493 16.1766 269.495 16.2721 269.519 16.3468C269.551 16.4132 269.587 16.4796 269.628 16.546C269.649 16.5875 269.67 16.6331 269.692 16.6829C269.713 16.7244 269.731 16.7742 269.745 16.8323C269.831 17.015 269.824 17.1851 269.724 17.3428C269.623 17.4922 269.423 17.5379 269.125 17.4798ZM275.199 15.2387C275.042 15.2553 274.923 15.2345 274.842 15.1764C274.761 15.1183 274.705 14.9897 274.676 14.7905C274.612 14.334 274.486 13.894 274.3 13.4707C274.112 13.0391 273.856 12.6614 273.53 12.3377C273.211 12.0057 272.815 11.7692 272.341 11.6281C272.303 11.5866 272.286 11.5409 272.289 11.4911C272.3 11.4413 272.326 11.4039 272.365 11.379C272.937 11.4205 273.471 11.5824 273.968 11.8646C274.465 12.1468 274.875 12.512 275.197 12.9603C275.528 13.4085 275.718 13.9023 275.766 14.4419C275.777 14.6245 275.733 14.7988 275.633 14.9648C275.534 15.1308 275.389 15.2221 275.199 15.2387ZM280.481 18.924C280.139 18.924 279.817 18.841 279.516 18.675C279.215 18.509 278.966 18.2849 278.77 18.0027C278.572 17.7122 278.455 17.3968 278.42 17.0565C278.384 16.7161 278.435 16.409 278.573 16.1351C278.71 15.8529 278.912 15.6288 279.179 15.4628C279.445 15.2968 279.749 15.2138 280.091 15.2138C280.442 15.2138 280.764 15.2968 281.056 15.4628C281.358 15.6288 281.607 15.8529 281.803 16.1351C281.999 16.409 282.115 16.7161 282.15 17.0565C282.186 17.3968 282.136 17.7122 281.999 18.0027C281.862 18.2849 281.66 18.509 281.394 18.675C281.136 18.841 280.832 18.924 280.481 18.924ZM280.426 18.4011C280.794 18.4011 281.088 18.2683 281.311 18.0027C281.533 17.7371 281.625 17.4217 281.587 17.0565C281.549 16.6912 281.391 16.38 281.113 16.1227C280.836 15.8654 280.514 15.7367 280.146 15.7367C279.787 15.7367 279.492 15.8654 279.26 16.1227C279.037 16.38 278.945 16.6912 278.983 17.0565C279.021 17.4217 279.18 17.7371 279.458 18.0027C279.745 18.2683 280.067 18.4011 280.426 18.4011Z" fill="#161616"/>
</svg>
